ISO-10303-21;
HEADER;
FILE_DESCRIPTION(('FreeCAD Model'),'2;1');
FILE_NAME('Open CASCADE Shape Model','2025-08-10T13:23:51',(''),(''),
  'Open CASCADE STEP processor 7.8','FreeCAD','Unknown');
FILE_SCHEMA(('AUTOMOTIVE_DESIGN { 1 0 10303 214 1 1 1 1 }'));
ENDSEC;
DATA;
#1 = APPLICATION_PROTOCOL_DEFINITION('international standard',
  'automotive_design',2000,#2);
#2 = APPLICATION_CONTEXT(
  'core data for automotive mechanical design processes');
#3 = SHAPE_DEFINITION_REPRESENTATION(#4,#10);
#4 = PRODUCT_DEFINITION_SHAPE('','',#5);
#5 = PRODUCT_DEFINITION('design','',#6,#9);
#6 = PRODUCT_DEFINITION_FORMATION('','',#7);
#7 = PRODUCT('print','print','',(#8));
#8 = PRODUCT_CONTEXT('',#2,'mechanical');
#9 = PRODUCT_DEFINITION_CONTEXT('part definition',#2,'design');
#10 = SHAPE_REPRESENTATION('',(#11,#15),#19);
#11 = AXIS2_PLACEMENT_3D('',#12,#13,#14);
#12 = CARTESIAN_POINT('',(0.,0.,0.));
#13 = DIRECTION('',(0.,0.,1.));
#14 = DIRECTION('',(1.,0.,-0.));
#15 = AXIS2_PLACEMENT_3D('',#16,#17,#18);
#16 = CARTESIAN_POINT('',(0.,0.,0.));
#17 = DIRECTION('',(-1.,0.,0.));
#18 = DIRECTION('',(0.,0.,1.));
#19 = ( GEOMETRIC_REPRESENTATION_CONTEXT(3) 
GLOBAL_UNCERTAINTY_ASSIGNED_CONTEXT((#23)) GLOBAL_UNIT_ASSIGNED_CONTEXT(
(#20,#21,#22)) REPRESENTATION_CONTEXT('Context #1',
  '3D Context with UNIT and UNCERTAINTY') );
#20 = ( LENGTH_UNIT() NAMED_UNIT(*) SI_UNIT(.MILLI.,.METRE.) );
#21 = ( NAMED_UNIT(*) PLANE_ANGLE_UNIT() SI_UNIT($,.RADIAN.) );
#22 = ( NAMED_UNIT(*) SI_UNIT($,.STERADIAN.) SOLID_ANGLE_UNIT() );
#23 = UNCERTAINTY_MEASURE_WITH_UNIT(LENGTH_MEASURE(5.E-06),#20,
  'distance_accuracy_value','confusion accuracy');
#24 = PRODUCT_RELATED_PRODUCT_CATEGORY('part',$,(#7));
#25 = SHAPE_DEFINITION_REPRESENTATION(#26,#32);
#26 = PRODUCT_DEFINITION_SHAPE('','',#27);
#27 = PRODUCT_DEFINITION('design','',#28,#31);
#28 = PRODUCT_DEFINITION_FORMATION('','',#29);
#29 = PRODUCT('cap001','cap001','',(#30));
#30 = PRODUCT_CONTEXT('',#2,'mechanical');
#31 = PRODUCT_DEFINITION_CONTEXT('part definition',#2,'design');
#32 = ADVANCED_BREP_SHAPE_REPRESENTATION('',(#11,#33),#1118);
#33 = MANIFOLD_SOLID_BREP('',#34);
#34 = CLOSED_SHELL('',(#35,#79,#111,#135,#169,#187,#219,#237,#271,#289,
    #319,#337,#371,#457,#527,#548,#588,#613,#646,#679,#704,#737,#769,
    #802,#835,#860,#886,#912,#937,#955,#1013,#1025,#1037,#1049,#1058,
    #1090,#1108));
#35 = ADVANCED_FACE('',(#36),#74,.F.);
#36 = FACE_BOUND('',#37,.F.);
#37 = EDGE_LOOP('',(#38,#49,#58,#67));
#38 = ORIENTED_EDGE('',*,*,#39,.T.);
#39 = EDGE_CURVE('',#40,#42,#44,.T.);
#40 = VERTEX_POINT('',#41);
#41 = CARTESIAN_POINT('',(-0.606542076191,5.,0.));
#42 = VERTEX_POINT('',#43);
#43 = CARTESIAN_POINT('',(-0.606542076191,-5.,1.E-15));
#44 = CIRCLE('',#45,5.);
#45 = AXIS2_PLACEMENT_3D('',#46,#47,#48);
#46 = CARTESIAN_POINT('',(-0.606542076191,0.,0.));
#47 = DIRECTION('',(1.,0.,0.));
#48 = DIRECTION('',(0.,1.,0.));
#49 = ORIENTED_EDGE('',*,*,#50,.T.);
#50 = EDGE_CURVE('',#42,#51,#53,.T.);
#51 = VERTEX_POINT('',#52);
#52 = CARTESIAN_POINT('',(-0.804971816574,-4.915368045157,1.E-15));
#53 = CIRCLE('',#54,0.274937107005);
#54 = AXIS2_PLACEMENT_3D('',#55,#56,#57);
#55 = CARTESIAN_POINT('',(-0.804971816574,-5.190305152162,6.4E-16));
#56 = DIRECTION('',(-0.,1.2E-16,1.));
#57 = DIRECTION('',(0.,-1.,1.2E-16));
#58 = ORIENTED_EDGE('',*,*,#59,.F.);
#59 = EDGE_CURVE('',#60,#51,#62,.T.);
#60 = VERTEX_POINT('',#61);
#61 = CARTESIAN_POINT('',(-0.804971816574,4.915368045157,0.));
#62 = CIRCLE('',#63,4.915368045157);
#63 = AXIS2_PLACEMENT_3D('',#64,#65,#66);
#64 = CARTESIAN_POINT('',(-0.804971816574,0.,0.));
#65 = DIRECTION('',(1.,0.,0.));
#66 = DIRECTION('',(0.,1.,0.));
#67 = ORIENTED_EDGE('',*,*,#68,.F.);
#68 = EDGE_CURVE('',#40,#60,#69,.T.);
#69 = CIRCLE('',#70,0.274937107005);
#70 = AXIS2_PLACEMENT_3D('',#71,#72,#73);
#71 = CARTESIAN_POINT('',(-0.804971816574,5.190305152162,0.));
#72 = DIRECTION('',(0.,0.,-1.));
#73 = DIRECTION('',(-1.,0.,0.));
#74 = TOROIDAL_SURFACE('',#75,5.190305152162,0.274937107005);
#75 = AXIS2_PLACEMENT_3D('',#76,#77,#78);
#76 = CARTESIAN_POINT('',(-0.804971816574,0.,0.));
#77 = DIRECTION('',(1.,0.,0.));
#78 = DIRECTION('',(0.,1.,0.));
#79 = ADVANCED_FACE('',(#80),#106,.T.);
#80 = FACE_BOUND('',#81,.T.);
#81 = EDGE_LOOP('',(#82,#83,#91,#100));
#82 = ORIENTED_EDGE('',*,*,#39,.T.);
#83 = ORIENTED_EDGE('',*,*,#84,.T.);
#84 = EDGE_CURVE('',#42,#85,#87,.T.);
#85 = VERTEX_POINT('',#86);
#86 = CARTESIAN_POINT('',(0.1,-5.7,1.E-15));
#87 = LINE('',#88,#89);
#88 = CARTESIAN_POINT('',(-0.606542076191,-5.,6.1E-16));
#89 = VECTOR('',#90,1.);
#90 = DIRECTION('',(0.710387975973,-0.703810289491,9.E-17));
#91 = ORIENTED_EDGE('',*,*,#92,.F.);
#92 = EDGE_CURVE('',#93,#85,#95,.T.);
#93 = VERTEX_POINT('',#94);
#94 = CARTESIAN_POINT('',(0.1,5.7,0.));
#95 = CIRCLE('',#96,5.7);
#96 = AXIS2_PLACEMENT_3D('',#97,#98,#99);
#97 = CARTESIAN_POINT('',(1.E-01,0.,0.));
#98 = DIRECTION('',(1.,0.,0.));
#99 = DIRECTION('',(0.,1.,0.));
#100 = ORIENTED_EDGE('',*,*,#101,.F.);
#101 = EDGE_CURVE('',#40,#93,#102,.T.);
#102 = LINE('',#103,#104);
#103 = CARTESIAN_POINT('',(-0.606542076191,5.,0.));
#104 = VECTOR('',#105,1.);
#105 = DIRECTION('',(0.710387975973,0.703810289491,0.));
#106 = CONICAL_SURFACE('',#107,5.,0.780747019911);
#107 = AXIS2_PLACEMENT_3D('',#108,#109,#110);
#108 = CARTESIAN_POINT('',(-0.606542076191,0.,0.));
#109 = DIRECTION('',(1.,0.,0.));
#110 = DIRECTION('',(0.,1.,0.));
#111 = ADVANCED_FACE('',(#112),#130,.F.);
#112 = FACE_BOUND('',#113,.F.);
#113 = EDGE_LOOP('',(#114,#121,#122,#129));
#114 = ORIENTED_EDGE('',*,*,#115,.T.);
#115 = EDGE_CURVE('',#42,#40,#116,.T.);
#116 = CIRCLE('',#117,5.);
#117 = AXIS2_PLACEMENT_3D('',#118,#119,#120);
#118 = CARTESIAN_POINT('',(-0.606542076191,0.,0.));
#119 = DIRECTION('',(1.,0.,0.));
#120 = DIRECTION('',(0.,1.,0.));
#121 = ORIENTED_EDGE('',*,*,#68,.T.);
#122 = ORIENTED_EDGE('',*,*,#123,.F.);
#123 = EDGE_CURVE('',#51,#60,#124,.T.);
#124 = CIRCLE('',#125,4.915368045157);
#125 = AXIS2_PLACEMENT_3D('',#126,#127,#128);
#126 = CARTESIAN_POINT('',(-0.804971816574,0.,0.));
#127 = DIRECTION('',(1.,0.,0.));
#128 = DIRECTION('',(0.,1.,0.));
#129 = ORIENTED_EDGE('',*,*,#50,.F.);
#130 = TOROIDAL_SURFACE('',#131,5.190305152162,0.274937107005);
#131 = AXIS2_PLACEMENT_3D('',#132,#133,#134);
#132 = CARTESIAN_POINT('',(-0.804971816574,0.,0.));
#133 = DIRECTION('',(1.,0.,0.));
#134 = DIRECTION('',(0.,1.,0.));
#135 = ADVANCED_FACE('',(#136),#164,.F.);
#136 = FACE_BOUND('',#137,.F.);
#137 = EDGE_LOOP('',(#138,#147,#156,#163));
#138 = ORIENTED_EDGE('',*,*,#139,.T.);
#139 = EDGE_CURVE('',#51,#140,#142,.T.);
#140 = VERTEX_POINT('',#141);
#141 = CARTESIAN_POINT('',(-1.076578297678,-5.232970503802,1.E-15));
#142 = CIRCLE('',#143,0.274937107005);
#143 = AXIS2_PLACEMENT_3D('',#144,#145,#146);
#144 = CARTESIAN_POINT('',(-0.804971816574,-5.190305152162,6.4E-16));
#145 = DIRECTION('',(-0.,1.2E-16,1.));
#146 = DIRECTION('',(0.,-1.,1.2E-16));
#147 = ORIENTED_EDGE('',*,*,#148,.F.);
#148 = EDGE_CURVE('',#149,#140,#151,.T.);
#149 = VERTEX_POINT('',#150);
#150 = CARTESIAN_POINT('',(-1.076578297678,5.232970503802,0.));
#151 = CIRCLE('',#152,5.232970503802);
#152 = AXIS2_PLACEMENT_3D('',#153,#154,#155);
#153 = CARTESIAN_POINT('',(-1.076578297678,0.,0.));
#154 = DIRECTION('',(1.,0.,0.));
#155 = DIRECTION('',(0.,1.,0.));
#156 = ORIENTED_EDGE('',*,*,#157,.F.);
#157 = EDGE_CURVE('',#60,#149,#158,.T.);
#158 = CIRCLE('',#159,0.274937107005);
#159 = AXIS2_PLACEMENT_3D('',#160,#161,#162);
#160 = CARTESIAN_POINT('',(-0.804971816574,5.190305152162,0.));
#161 = DIRECTION('',(0.,0.,-1.));
#162 = DIRECTION('',(-1.,0.,0.));
#163 = ORIENTED_EDGE('',*,*,#59,.T.);
#164 = TOROIDAL_SURFACE('',#165,5.190305152162,0.274937107005);
#165 = AXIS2_PLACEMENT_3D('',#166,#167,#168);
#166 = CARTESIAN_POINT('',(-0.804971816574,0.,0.));
#167 = DIRECTION('',(1.,0.,0.));
#168 = DIRECTION('',(0.,1.,0.));
#169 = ADVANCED_FACE('',(#170),#182,.T.);
#170 = FACE_BOUND('',#171,.T.);
#171 = EDGE_LOOP('',(#172,#173,#174,#175));
#172 = ORIENTED_EDGE('',*,*,#84,.F.);
#173 = ORIENTED_EDGE('',*,*,#115,.T.);
#174 = ORIENTED_EDGE('',*,*,#101,.T.);
#175 = ORIENTED_EDGE('',*,*,#176,.F.);
#176 = EDGE_CURVE('',#85,#93,#177,.T.);
#177 = CIRCLE('',#178,5.7);
#178 = AXIS2_PLACEMENT_3D('',#179,#180,#181);
#179 = CARTESIAN_POINT('',(1.E-01,0.,0.));
#180 = DIRECTION('',(1.,0.,0.));
#181 = DIRECTION('',(0.,1.,0.));
#182 = CONICAL_SURFACE('',#183,5.,0.780747019911);
#183 = AXIS2_PLACEMENT_3D('',#184,#185,#186);
#184 = CARTESIAN_POINT('',(-0.606542076191,0.,0.));
#185 = DIRECTION('',(1.,0.,0.));
#186 = DIRECTION('',(0.,1.,0.));
#187 = ADVANCED_FACE('',(#188),#214,.T.);
#188 = FACE_BOUND('',#189,.T.);
#189 = EDGE_LOOP('',(#190,#201,#207,#208));
#190 = ORIENTED_EDGE('',*,*,#191,.F.);
#191 = EDGE_CURVE('',#192,#194,#196,.T.);
#192 = VERTEX_POINT('',#193);
#193 = CARTESIAN_POINT('',(0.3,5.5,1.E-15));
#194 = VERTEX_POINT('',#195);
#195 = CARTESIAN_POINT('',(0.3,-5.5,0.));
#196 = CIRCLE('',#197,5.5);
#197 = AXIS2_PLACEMENT_3D('',#198,#199,#200);
#198 = CARTESIAN_POINT('',(0.3,0.,0.));
#199 = DIRECTION('',(1.,0.,0.));
#200 = DIRECTION('',(0.,1.,0.));
#201 = ORIENTED_EDGE('',*,*,#202,.T.);
#202 = EDGE_CURVE('',#192,#93,#203,.T.);
#203 = LINE('',#204,#205);
#204 = CARTESIAN_POINT('',(1.E-01,5.7,7.E-16));
#205 = VECTOR('',#206,1.);
#206 = DIRECTION('',(-0.707106781187,0.707106781187,9.E-17));
#207 = ORIENTED_EDGE('',*,*,#92,.T.);
#208 = ORIENTED_EDGE('',*,*,#209,.F.);
#209 = EDGE_CURVE('',#194,#85,#210,.T.);
#210 = LINE('',#211,#212);
#211 = CARTESIAN_POINT('',(1.E-01,-5.7,0.));
#212 = VECTOR('',#213,1.);
#213 = DIRECTION('',(-0.707106781187,-0.707106781187,0.));
#214 = CONICAL_SURFACE('',#215,5.7,0.785398163397);
#215 = AXIS2_PLACEMENT_3D('',#216,#217,#218);
#216 = CARTESIAN_POINT('',(1.E-01,0.,0.));
#217 = DIRECTION('',(-1.,0.,0.));
#218 = DIRECTION('',(0.,-1.,0.));
#219 = ADVANCED_FACE('',(#220),#232,.F.);
#220 = FACE_BOUND('',#221,.F.);
#221 = EDGE_LOOP('',(#222,#223,#230,#231));
#222 = ORIENTED_EDGE('',*,*,#157,.T.);
#223 = ORIENTED_EDGE('',*,*,#224,.F.);
#224 = EDGE_CURVE('',#140,#149,#225,.T.);
#225 = CIRCLE('',#226,5.232970503802);
#226 = AXIS2_PLACEMENT_3D('',#227,#228,#229);
#227 = CARTESIAN_POINT('',(-1.076578297678,0.,0.));
#228 = DIRECTION('',(1.,0.,0.));
#229 = DIRECTION('',(0.,1.,0.));
#230 = ORIENTED_EDGE('',*,*,#139,.F.);
#231 = ORIENTED_EDGE('',*,*,#123,.T.);
#232 = TOROIDAL_SURFACE('',#233,5.190305152162,0.274937107005);
#233 = AXIS2_PLACEMENT_3D('',#234,#235,#236);
#234 = CARTESIAN_POINT('',(-0.804971816574,0.,0.));
#235 = DIRECTION('',(1.,0.,0.));
#236 = DIRECTION('',(0.,1.,0.));
#237 = ADVANCED_FACE('',(#238),#266,.T.);
#238 = FACE_BOUND('',#239,.T.);
#239 = EDGE_LOOP('',(#240,#251,#258,#259));
#240 = ORIENTED_EDGE('',*,*,#241,.T.);
#241 = EDGE_CURVE('',#242,#244,#246,.T.);
#242 = VERTEX_POINT('',#243);
#243 = CARTESIAN_POINT('',(-1.128012860552,6.06688226765,0.));
#244 = VERTEX_POINT('',#245);
#245 = CARTESIAN_POINT('',(-1.128012860552,-6.06688226765,1.E-15));
#246 = CIRCLE('',#247,6.06688226765);
#247 = AXIS2_PLACEMENT_3D('',#248,#249,#250);
#248 = CARTESIAN_POINT('',(-1.128012860552,0.,0.));
#249 = DIRECTION('',(1.,0.,0.));
#250 = DIRECTION('',(0.,1.,0.));
#251 = ORIENTED_EDGE('',*,*,#252,.T.);
#252 = EDGE_CURVE('',#244,#140,#253,.T.);
#253 = CIRCLE('',#254,1.936675385984);
#254 = AXIS2_PLACEMENT_3D('',#255,#256,#257);
#255 = CARTESIAN_POINT('',(-2.989792531864,-5.533508096766,6.8E-16));
#256 = DIRECTION('',(-0.,1.2E-16,1.));
#257 = DIRECTION('',(0.,-1.,1.2E-16));
#258 = ORIENTED_EDGE('',*,*,#148,.F.);
#259 = ORIENTED_EDGE('',*,*,#260,.F.);
#260 = EDGE_CURVE('',#242,#149,#261,.T.);
#261 = CIRCLE('',#262,1.936675385984);
#262 = AXIS2_PLACEMENT_3D('',#263,#264,#265);
#263 = CARTESIAN_POINT('',(-2.989792531864,5.533508096766,0.));
#264 = DIRECTION('',(0.,0.,-1.));
#265 = DIRECTION('',(-1.,0.,0.));
#266 = TOROIDAL_SURFACE('',#267,5.533508096766,1.936675385984);
#267 = AXIS2_PLACEMENT_3D('',#268,#269,#270);
#268 = CARTESIAN_POINT('',(-2.989792531864,0.,0.));
#269 = DIRECTION('',(1.,0.,0.));
#270 = DIRECTION('',(0.,1.,0.));
#271 = ADVANCED_FACE('',(#272),#284,.T.);
#272 = FACE_BOUND('',#273,.T.);
#273 = EDGE_LOOP('',(#274,#275,#282,#283));
#274 = ORIENTED_EDGE('',*,*,#202,.F.);
#275 = ORIENTED_EDGE('',*,*,#276,.F.);
#276 = EDGE_CURVE('',#194,#192,#277,.T.);
#277 = CIRCLE('',#278,5.5);
#278 = AXIS2_PLACEMENT_3D('',#279,#280,#281);
#279 = CARTESIAN_POINT('',(0.3,0.,0.));
#280 = DIRECTION('',(1.,0.,0.));
#281 = DIRECTION('',(0.,1.,0.));
#282 = ORIENTED_EDGE('',*,*,#209,.T.);
#283 = ORIENTED_EDGE('',*,*,#176,.T.);
#284 = CONICAL_SURFACE('',#285,5.7,0.785398163397);
#285 = AXIS2_PLACEMENT_3D('',#286,#287,#288);
#286 = CARTESIAN_POINT('',(1.E-01,0.,0.));
#287 = DIRECTION('',(-1.,0.,0.));
#288 = DIRECTION('',(0.,-1.,0.));
#289 = ADVANCED_FACE('',(#290,#310),#314,.F.);
#290 = FACE_BOUND('',#291,.T.);
#291 = EDGE_LOOP('',(#292,#303));
#292 = ORIENTED_EDGE('',*,*,#293,.F.);
#293 = EDGE_CURVE('',#294,#296,#298,.T.);
#294 = VERTEX_POINT('',#295);
#295 = CARTESIAN_POINT('',(0.3,5.,0.));
#296 = VERTEX_POINT('',#297);
#297 = CARTESIAN_POINT('',(0.3,-5.,1.E-15));
#298 = CIRCLE('',#299,5.);
#299 = AXIS2_PLACEMENT_3D('',#300,#301,#302);
#300 = CARTESIAN_POINT('',(0.3,0.,0.));
#301 = DIRECTION('',(1.,0.,0.));
#302 = DIRECTION('',(0.,1.,0.));
#303 = ORIENTED_EDGE('',*,*,#304,.F.);
#304 = EDGE_CURVE('',#296,#294,#305,.T.);
#305 = CIRCLE('',#306,5.);
#306 = AXIS2_PLACEMENT_3D('',#307,#308,#309);
#307 = CARTESIAN_POINT('',(0.3,0.,0.));
#308 = DIRECTION('',(1.,0.,0.));
#309 = DIRECTION('',(0.,1.,0.));
#310 = FACE_BOUND('',#311,.T.);
#311 = EDGE_LOOP('',(#312,#313));
#312 = ORIENTED_EDGE('',*,*,#276,.T.);
#313 = ORIENTED_EDGE('',*,*,#191,.T.);
#314 = PLANE('',#315);
#315 = AXIS2_PLACEMENT_3D('',#316,#317,#318);
#316 = CARTESIAN_POINT('',(0.3,5.5,0.));
#317 = DIRECTION('',(-1.,0.,0.));
#318 = DIRECTION('',(0.,-1.,0.));
#319 = ADVANCED_FACE('',(#320),#332,.T.);
#320 = FACE_BOUND('',#321,.T.);
#321 = EDGE_LOOP('',(#322,#323,#330,#331));
#322 = ORIENTED_EDGE('',*,*,#252,.F.);
#323 = ORIENTED_EDGE('',*,*,#324,.T.);
#324 = EDGE_CURVE('',#244,#242,#325,.T.);
#325 = CIRCLE('',#326,6.06688226765);
#326 = AXIS2_PLACEMENT_3D('',#327,#328,#329);
#327 = CARTESIAN_POINT('',(-1.128012860552,0.,0.));
#328 = DIRECTION('',(1.,0.,0.));
#329 = DIRECTION('',(0.,1.,0.));
#330 = ORIENTED_EDGE('',*,*,#260,.T.);
#331 = ORIENTED_EDGE('',*,*,#224,.F.);
#332 = TOROIDAL_SURFACE('',#333,5.533508096766,1.936675385984);
#333 = AXIS2_PLACEMENT_3D('',#334,#335,#336);
#334 = CARTESIAN_POINT('',(-2.989792531864,0.,0.));
#335 = DIRECTION('',(1.,0.,0.));
#336 = DIRECTION('',(0.,1.,0.));
#337 = ADVANCED_FACE('',(#338),#366,.T.);
#338 = FACE_BOUND('',#339,.T.);
#339 = EDGE_LOOP('',(#340,#341,#342,#349,#358,#365));
#340 = ORIENTED_EDGE('',*,*,#324,.F.);
#341 = ORIENTED_EDGE('',*,*,#241,.F.);
#342 = ORIENTED_EDGE('',*,*,#343,.F.);
#343 = EDGE_CURVE('',#344,#242,#346,.T.);
#344 = VERTEX_POINT('',#345);
#345 = CARTESIAN_POINT('',(-5.2,6.06688226765,0.));
#346 = B_SPLINE_CURVE_WITH_KNOTS('',1,(#347,#348),.UNSPECIFIED.,.F.,.F.,
  (2,2),(-3.9,0.171987139448),.PIECEWISE_BEZIER_KNOTS.);
#347 = CARTESIAN_POINT('',(-5.2,6.06688226765,-1.49E-15));
#348 = CARTESIAN_POINT('',(-1.128012860552,6.06688226765,-1.49E-15));
#349 = ORIENTED_EDGE('',*,*,#350,.F.);
#350 = EDGE_CURVE('',#351,#344,#353,.T.);
#351 = VERTEX_POINT('',#352);
#352 = CARTESIAN_POINT('',(-5.2,-6.06688226765,1.E-15));
#353 = CIRCLE('',#354,6.06688226765);
#354 = AXIS2_PLACEMENT_3D('',#355,#356,#357);
#355 = CARTESIAN_POINT('',(-5.2,0.,0.));
#356 = DIRECTION('',(-1.,0.,0.));
#357 = DIRECTION('',(0.,-1.,0.));
#358 = ORIENTED_EDGE('',*,*,#359,.F.);
#359 = EDGE_CURVE('',#344,#351,#360,.T.);
#360 = CIRCLE('',#361,6.06688226765);
#361 = AXIS2_PLACEMENT_3D('',#362,#363,#364);
#362 = CARTESIAN_POINT('',(-5.2,0.,0.));
#363 = DIRECTION('',(-1.,0.,0.));
#364 = DIRECTION('',(0.,-1.,0.));
#365 = ORIENTED_EDGE('',*,*,#343,.T.);
#366 = CYLINDRICAL_SURFACE('',#367,6.06688226765);
#367 = AXIS2_PLACEMENT_3D('',#368,#369,#370);
#368 = CARTESIAN_POINT('',(-1.3,0.,0.));
#369 = DIRECTION('',(1.,0.,0.));
#370 = DIRECTION('',(0.,1.,0.));
#371 = ADVANCED_FACE('',(#372),#445,.F.);
#372 = FACE_BOUND('',#373,.F.);
#373 = EDGE_LOOP('',(#374,#375,#384,#393,#402,#411,#420,#429,#438));
#374 = ORIENTED_EDGE('',*,*,#293,.F.);
#375 = ORIENTED_EDGE('',*,*,#376,.F.);
#376 = EDGE_CURVE('',#377,#294,#379,.T.);
#377 = VERTEX_POINT('',#378);
#378 = CARTESIAN_POINT('',(-1.270333075652,2.828226784338,0.));
#379 = CIRCLE('',#380,2.887600731873);
#380 = AXIS2_PLACEMENT_3D('',#381,#382,#383);
#381 = CARTESIAN_POINT('',(1.587600731873,2.415368045157,0.));
#382 = DIRECTION('',(0.,0.,-1.));
#383 = DIRECTION('',(-1.,0.,0.));
#384 = ORIENTED_EDGE('',*,*,#385,.F.);
#385 = EDGE_CURVE('',#386,#377,#388,.T.);
#386 = VERTEX_POINT('',#387);
#387 = CARTESIAN_POINT('',(-1.3,2.36913193608,0.470336754901));
#388 = B_SPLINE_CURVE_WITH_KNOTS('',3,(#389,#390,#391,#392),
  .UNSPECIFIED.,.F.,.F.,(4,4),(6.704351088914E-04,1.327935701332E-03),
  .PIECEWISE_BEZIER_KNOTS.);
#389 = CARTESIAN_POINT('',(-1.3,2.36913193608,0.470336754901));
#390 = CARTESIAN_POINT('',(-1.3,2.524115338588,0.315353352393));
#391 = CARTESIAN_POINT('',(-1.292101403542,2.677539795537,0.158935821981
    ));
#392 = CARTESIAN_POINT('',(-1.270333075652,2.828226784338,-8.E-17));
#393 = ORIENTED_EDGE('',*,*,#394,.T.);
#394 = EDGE_CURVE('',#386,#395,#397,.T.);
#395 = VERTEX_POINT('',#396);
#396 = CARTESIAN_POINT('',(-1.3,0.470336754901,2.36913193608));
#397 = CIRCLE('',#398,2.415368045157);
#398 = AXIS2_PLACEMENT_3D('',#399,#400,#401);
#399 = CARTESIAN_POINT('',(-1.3,0.,0.));
#400 = DIRECTION('',(1.,0.,0.));
#401 = DIRECTION('',(0.,1.,0.));
#402 = ORIENTED_EDGE('',*,*,#403,.T.);
#403 = EDGE_CURVE('',#395,#404,#406,.T.);
#404 = VERTEX_POINT('',#405);
#405 = CARTESIAN_POINT('',(-1.270333075652,-1.E-15,2.828226784338));
#406 = B_SPLINE_CURVE_WITH_KNOTS('',3,(#407,#408,#409,#410),
  .UNSPECIFIED.,.F.,.F.,(4,4),(6.704351088914E-04,1.327935701332E-03),
  .PIECEWISE_BEZIER_KNOTS.);
#407 = CARTESIAN_POINT('',(-1.3,0.470336754901,2.36913193608));
#408 = CARTESIAN_POINT('',(-1.3,0.315353352393,2.524115338588));
#409 = CARTESIAN_POINT('',(-1.292101403542,0.158935821981,2.677539795537
    ));
#410 = CARTESIAN_POINT('',(-1.270333075652,-8.E-16,2.828226784338));
#411 = ORIENTED_EDGE('',*,*,#412,.F.);
#412 = EDGE_CURVE('',#413,#404,#415,.T.);
#413 = VERTEX_POINT('',#414);
#414 = CARTESIAN_POINT('',(-1.3,-0.470336754901,2.36913193608));
#415 = B_SPLINE_CURVE_WITH_KNOTS('',3,(#416,#417,#418,#419),
  .UNSPECIFIED.,.F.,.F.,(4,4),(6.704351088914E-04,1.327935701332E-03),
  .PIECEWISE_BEZIER_KNOTS.);
#416 = CARTESIAN_POINT('',(-1.3,-0.470336754901,2.36913193608));
#417 = CARTESIAN_POINT('',(-1.3,-0.315353352393,2.524115338588));
#418 = CARTESIAN_POINT('',(-1.292101403542,-0.158935821981,
    2.677539795537));
#419 = CARTESIAN_POINT('',(-1.270333075652,-8.E-16,2.828226784338));
#420 = ORIENTED_EDGE('',*,*,#421,.T.);
#421 = EDGE_CURVE('',#413,#422,#424,.T.);
#422 = VERTEX_POINT('',#423);
#423 = CARTESIAN_POINT('',(-1.3,-2.36913193608,0.470336754901));
#424 = CIRCLE('',#425,2.415368045157);
#425 = AXIS2_PLACEMENT_3D('',#426,#427,#428);
#426 = CARTESIAN_POINT('',(-1.3,0.,0.));
#427 = DIRECTION('',(1.,0.,0.));
#428 = DIRECTION('',(0.,1.,0.));
#429 = ORIENTED_EDGE('',*,*,#430,.T.);
#430 = EDGE_CURVE('',#422,#431,#433,.T.);
#431 = VERTEX_POINT('',#432);
#432 = CARTESIAN_POINT('',(-1.270333075652,-2.828226784338,-0.));
#433 = B_SPLINE_CURVE_WITH_KNOTS('',3,(#434,#435,#436,#437),
  .UNSPECIFIED.,.F.,.F.,(4,4),(6.704351088914E-04,1.327935701332E-03),
  .PIECEWISE_BEZIER_KNOTS.);
#434 = CARTESIAN_POINT('',(-1.3,-2.36913193608,0.470336754901));
#435 = CARTESIAN_POINT('',(-1.3,-2.524115338588,0.315353352393));
#436 = CARTESIAN_POINT('',(-1.292101403542,-2.677539795537,
    0.158935821981));
#437 = CARTESIAN_POINT('',(-1.270333075652,-2.828226784338,-2.2E-16));
#438 = ORIENTED_EDGE('',*,*,#439,.T.);
#439 = EDGE_CURVE('',#431,#296,#440,.T.);
#440 = CIRCLE('',#441,2.887600731873);
#441 = AXIS2_PLACEMENT_3D('',#442,#443,#444);
#442 = CARTESIAN_POINT('',(1.587600731873,-2.415368045157,3.E-16));
#443 = DIRECTION('',(-0.,1.2E-16,1.));
#444 = DIRECTION('',(0.,-1.,1.2E-16));
#445 = SURFACE_OF_REVOLUTION('',#446,#454);
#446 = B_SPLINE_CURVE_WITH_KNOTS('',6,(#447,#448,#449,#450,#451,#452,
    #453),.UNSPECIFIED.,.F.,.F.,(7,7),(4.712388980385,5.820998234354),
  .PIECEWISE_BEZIER_KNOTS.);
#447 = CARTESIAN_POINT('',(-1.3,2.415368045157,0.));
#448 = CARTESIAN_POINT('',(-1.3,2.948904860678,0.));
#449 = CARTESIAN_POINT('',(-1.181706802002,3.482435118759,0.));
#450 = CARTESIAN_POINT('',(-0.945096651497,3.983218278456,0.));
#451 = CARTESIAN_POINT('',(-0.602362026478,4.418305756064,0.));
#452 = CARTESIAN_POINT('',(-0.177557817207,4.762092318871,0.));
#453 = CARTESIAN_POINT('',(0.3,5.,0.));
#454 = AXIS1_PLACEMENT('',#455,#456);
#455 = CARTESIAN_POINT('',(1.587600731873,0.,0.));
#456 = DIRECTION('',(1.,0.,0.));
#457 = ADVANCED_FACE('',(#458),#515,.F.);
#458 = FACE_BOUND('',#459,.F.);
#459 = EDGE_LOOP('',(#460,#471,#480,#489,#498,#505,#506,#507,#508));
#460 = ORIENTED_EDGE('',*,*,#461,.T.);
#461 = EDGE_CURVE('',#462,#464,#466,.T.);
#462 = VERTEX_POINT('',#463);
#463 = CARTESIAN_POINT('',(-1.3,-2.36913193608,-0.470336754901));
#464 = VERTEX_POINT('',#465);
#465 = CARTESIAN_POINT('',(-1.3,-0.470336754901,-2.36913193608));
#466 = CIRCLE('',#467,2.415368045157);
#467 = AXIS2_PLACEMENT_3D('',#468,#469,#470);
#468 = CARTESIAN_POINT('',(-1.3,0.,0.));
#469 = DIRECTION('',(1.,0.,0.));
#470 = DIRECTION('',(0.,1.,0.));
#471 = ORIENTED_EDGE('',*,*,#472,.T.);
#472 = EDGE_CURVE('',#464,#473,#475,.T.);
#473 = VERTEX_POINT('',#474);
#474 = CARTESIAN_POINT('',(-1.270333075652,-0.,-2.828226784338));
#475 = B_SPLINE_CURVE_WITH_KNOTS('',3,(#476,#477,#478,#479),
  .UNSPECIFIED.,.F.,.F.,(4,4),(6.704351088914E-04,1.327935701332E-03),
  .PIECEWISE_BEZIER_KNOTS.);
#476 = CARTESIAN_POINT('',(-1.3,-0.470336754901,-2.36913193608));
#477 = CARTESIAN_POINT('',(-1.3,-0.315353352393,-2.524115338588));
#478 = CARTESIAN_POINT('',(-1.292101403542,-0.158935821981,
    -2.677539795537));
#479 = CARTESIAN_POINT('',(-1.270333075652,-1.5E-16,-2.828226784338));
#480 = ORIENTED_EDGE('',*,*,#481,.F.);
#481 = EDGE_CURVE('',#482,#473,#484,.T.);
#482 = VERTEX_POINT('',#483);
#483 = CARTESIAN_POINT('',(-1.3,0.470336754901,-2.36913193608));
#484 = B_SPLINE_CURVE_WITH_KNOTS('',3,(#485,#486,#487,#488),
  .UNSPECIFIED.,.F.,.F.,(4,4),(6.704351088914E-04,1.327935701332E-03),
  .PIECEWISE_BEZIER_KNOTS.);
#485 = CARTESIAN_POINT('',(-1.3,0.470336754901,-2.36913193608));
#486 = CARTESIAN_POINT('',(-1.3,0.315353352393,-2.524115338588));
#487 = CARTESIAN_POINT('',(-1.292101403542,0.158935821981,
    -2.677539795537));
#488 = CARTESIAN_POINT('',(-1.270333075652,-1.5E-16,-2.828226784338));
#489 = ORIENTED_EDGE('',*,*,#490,.T.);
#490 = EDGE_CURVE('',#482,#491,#493,.T.);
#491 = VERTEX_POINT('',#492);
#492 = CARTESIAN_POINT('',(-1.3,2.36913193608,-0.470336754901));
#493 = CIRCLE('',#494,2.415368045157);
#494 = AXIS2_PLACEMENT_3D('',#495,#496,#497);
#495 = CARTESIAN_POINT('',(-1.3,0.,0.));
#496 = DIRECTION('',(1.,0.,0.));
#497 = DIRECTION('',(0.,1.,0.));
#498 = ORIENTED_EDGE('',*,*,#499,.T.);
#499 = EDGE_CURVE('',#491,#377,#500,.T.);
#500 = B_SPLINE_CURVE_WITH_KNOTS('',3,(#501,#502,#503,#504),
  .UNSPECIFIED.,.F.,.F.,(4,4),(6.704351088914E-04,1.327935701332E-03),
  .PIECEWISE_BEZIER_KNOTS.);
#501 = CARTESIAN_POINT('',(-1.3,2.36913193608,-0.470336754901));
#502 = CARTESIAN_POINT('',(-1.3,2.524115338588,-0.315353352393));
#503 = CARTESIAN_POINT('',(-1.292101403542,2.677539795537,
    -0.158935821981));
#504 = CARTESIAN_POINT('',(-1.270333075652,2.828226784338,-8.E-17));
#505 = ORIENTED_EDGE('',*,*,#376,.T.);
#506 = ORIENTED_EDGE('',*,*,#304,.F.);
#507 = ORIENTED_EDGE('',*,*,#439,.F.);
#508 = ORIENTED_EDGE('',*,*,#509,.F.);
#509 = EDGE_CURVE('',#462,#431,#510,.T.);
#510 = B_SPLINE_CURVE_WITH_KNOTS('',3,(#511,#512,#513,#514),
  .UNSPECIFIED.,.F.,.F.,(4,4),(6.704351088914E-04,1.327935701332E-03),
  .PIECEWISE_BEZIER_KNOTS.);
#511 = CARTESIAN_POINT('',(-1.3,-2.36913193608,-0.470336754901));
#512 = CARTESIAN_POINT('',(-1.3,-2.524115338588,-0.315353352393));
#513 = CARTESIAN_POINT('',(-1.292101403542,-2.677539795537,
    -0.158935821981));
#514 = CARTESIAN_POINT('',(-1.270333075652,-2.828226784338,-2.2E-16));
#515 = SURFACE_OF_REVOLUTION('',#516,#524);
#516 = B_SPLINE_CURVE_WITH_KNOTS('',6,(#517,#518,#519,#520,#521,#522,
    #523),.UNSPECIFIED.,.F.,.F.,(7,7),(4.712388980385,5.820998234354),
  .PIECEWISE_BEZIER_KNOTS.);
#517 = CARTESIAN_POINT('',(-1.3,2.415368045157,0.));
#518 = CARTESIAN_POINT('',(-1.3,2.948904860678,0.));
#519 = CARTESIAN_POINT('',(-1.181706802002,3.482435118759,0.));
#520 = CARTESIAN_POINT('',(-0.945096651497,3.983218278456,0.));
#521 = CARTESIAN_POINT('',(-0.602362026478,4.418305756064,0.));
#522 = CARTESIAN_POINT('',(-0.177557817207,4.762092318871,0.));
#523 = CARTESIAN_POINT('',(0.3,5.,0.));
#524 = AXIS1_PLACEMENT('',#525,#526);
#525 = CARTESIAN_POINT('',(1.587600731873,0.,0.));
#526 = DIRECTION('',(1.,0.,0.));
#527 = ADVANCED_FACE('',(#528,#532),#543,.T.);
#528 = FACE_BOUND('',#529,.T.);
#529 = EDGE_LOOP('',(#530,#531));
#530 = ORIENTED_EDGE('',*,*,#359,.T.);
#531 = ORIENTED_EDGE('',*,*,#350,.T.);
#532 = FACE_BOUND('',#533,.T.);
#533 = EDGE_LOOP('',(#534));
#534 = ORIENTED_EDGE('',*,*,#535,.F.);
#535 = EDGE_CURVE('',#536,#536,#538,.T.);
#536 = VERTEX_POINT('',#537);
#537 = CARTESIAN_POINT('',(-5.2,-2.05,0.));
#538 = CIRCLE('',#539,2.05);
#539 = AXIS2_PLACEMENT_3D('',#540,#541,#542);
#540 = CARTESIAN_POINT('',(-5.2,0.,0.));
#541 = DIRECTION('',(-1.,0.,0.));
#542 = DIRECTION('',(0.,-1.,0.));
#543 = PLANE('',#544);
#544 = AXIS2_PLACEMENT_3D('',#545,#546,#547);
#545 = CARTESIAN_POINT('',(-5.2,4.9E-16,-4.E-17));
#546 = DIRECTION('',(-1.,-0.,-0.));
#547 = DIRECTION('',(0.,0.,-1.));
#548 = ADVANCED_FACE('',(#549),#583,.T.);
#549 = FACE_BOUND('',#550,.T.);
#550 = EDGE_LOOP('',(#551,#552,#560,#569,#577));
#551 = ORIENTED_EDGE('',*,*,#385,.F.);
#552 = ORIENTED_EDGE('',*,*,#553,.T.);
#553 = EDGE_CURVE('',#386,#554,#556,.T.);
#554 = VERTEX_POINT('',#555);
#555 = CARTESIAN_POINT('',(-1.3,2.349440959555,0.490027731427));
#556 = LINE('',#557,#558);
#557 = CARTESIAN_POINT('',(-1.3,1.419734345491,1.419734345491));
#558 = VECTOR('',#559,1.);
#559 = DIRECTION('',(0.,-0.707106781187,0.707106781187));
#560 = ORIENTED_EDGE('',*,*,#561,.T.);
#561 = EDGE_CURVE('',#554,#562,#564,.T.);
#562 = VERTEX_POINT('',#563);
#563 = CARTESIAN_POINT('',(-0.8,2.20569574769,0.44430425231));
#564 = B_SPLINE_CURVE_WITH_KNOTS('',3,(#565,#566,#567,#568),
  .UNSPECIFIED.,.F.,.F.,(4,4),(2.0889804721E-07,5.224668060548E-04),
  .PIECEWISE_BEZIER_KNOTS.);
#565 = CARTESIAN_POINT('',(-1.3,2.349440959555,0.490027731427));
#566 = CARTESIAN_POINT('',(-1.133329255937,2.301547423586,0.47476349199)
  );
#567 = CARTESIAN_POINT('',(-0.966662356535,2.25363354849,0.459521048567)
  );
#568 = CARTESIAN_POINT('',(-0.8,2.20569574769,0.44430425231));
#569 = ORIENTED_EDGE('',*,*,#570,.F.);
#570 = EDGE_CURVE('',#571,#562,#573,.T.);
#571 = VERTEX_POINT('',#572);
#572 = CARTESIAN_POINT('',(-0.8,2.65,0.));
#573 = LINE('',#574,#575);
#574 = CARTESIAN_POINT('',(-0.8,1.325,1.325));
#575 = VECTOR('',#576,1.);
#576 = DIRECTION('',(9.E-17,-0.707106781187,0.707106781187));
#577 = ORIENTED_EDGE('',*,*,#578,.F.);
#578 = EDGE_CURVE('',#377,#571,#579,.T.);
#579 = LINE('',#580,#581);
#580 = CARTESIAN_POINT('',(-0.360952371817,2.483628441219,0.));
#581 = VECTOR('',#582,1.);
#582 = DIRECTION('',(0.935113126531,-0.354349320007,8.E-17));
#583 = PLANE('',#584);
#584 = AXIS2_PLACEMENT_3D('',#585,#586,#587);
#585 = CARTESIAN_POINT('',(-0.8,1.325,1.325));
#586 = DIRECTION('',(0.258819045103,0.683012701892,0.683012701892));
#587 = DIRECTION('',(1.387778780781E-16,-0.707106781187,0.707106781187)
  );
#588 = ADVANCED_FACE('',(#589),#608,.F.);
#589 = FACE_BOUND('',#590,.T.);
#590 = EDGE_LOOP('',(#591,#600,#601,#602));
#591 = ORIENTED_EDGE('',*,*,#592,.F.);
#592 = EDGE_CURVE('',#554,#593,#595,.T.);
#593 = VERTEX_POINT('',#594);
#594 = CARTESIAN_POINT('',(-1.3,0.490027731427,2.349440959555));
#595 = CIRCLE('',#596,2.4);
#596 = AXIS2_PLACEMENT_3D('',#597,#598,#599);
#597 = CARTESIAN_POINT('',(-1.3,-1.6E-16,0.));
#598 = DIRECTION('',(1.,1.2E-16,-0.));
#599 = DIRECTION('',(-1.2E-16,1.,0.));
#600 = ORIENTED_EDGE('',*,*,#553,.F.);
#601 = ORIENTED_EDGE('',*,*,#394,.T.);
#602 = ORIENTED_EDGE('',*,*,#603,.T.);
#603 = EDGE_CURVE('',#395,#593,#604,.T.);
#604 = LINE('',#605,#606);
#605 = CARTESIAN_POINT('',(-1.3,1.419734345491,1.419734345491));
#606 = VECTOR('',#607,1.);
#607 = DIRECTION('',(0.,0.707106781187,-0.707106781187));
#608 = PLANE('',#609);
#609 = AXIS2_PLACEMENT_3D('',#610,#611,#612);
#610 = CARTESIAN_POINT('',(-1.3,2.415368045157,0.));
#611 = DIRECTION('',(-1.,0.,0.));
#612 = DIRECTION('',(0.,-1.,0.));
#613 = ADVANCED_FACE('',(#614),#641,.T.);
#614 = FACE_BOUND('',#615,.T.);
#615 = EDGE_LOOP('',(#616,#617,#618,#626,#634));
#616 = ORIENTED_EDGE('',*,*,#603,.F.);
#617 = ORIENTED_EDGE('',*,*,#403,.T.);
#618 = ORIENTED_EDGE('',*,*,#619,.T.);
#619 = EDGE_CURVE('',#404,#620,#622,.T.);
#620 = VERTEX_POINT('',#621);
#621 = CARTESIAN_POINT('',(-0.8,-1.E-15,2.65));
#622 = LINE('',#623,#624);
#623 = CARTESIAN_POINT('',(-0.360952371817,-6.5E-16,2.483628441219));
#624 = VECTOR('',#625,1.);
#625 = DIRECTION('',(0.935113126531,1.6E-16,-0.354349320007));
#626 = ORIENTED_EDGE('',*,*,#627,.T.);
#627 = EDGE_CURVE('',#620,#628,#630,.T.);
#628 = VERTEX_POINT('',#629);
#629 = CARTESIAN_POINT('',(-0.8,0.44430425231,2.20569574769));
#630 = LINE('',#631,#632);
#631 = CARTESIAN_POINT('',(-0.8,1.325,1.325));
#632 = VECTOR('',#633,1.);
#633 = DIRECTION('',(-9.E-17,0.707106781187,-0.707106781187));
#634 = ORIENTED_EDGE('',*,*,#635,.F.);
#635 = EDGE_CURVE('',#593,#628,#636,.T.);
#636 = B_SPLINE_CURVE_WITH_KNOTS('',3,(#637,#638,#639,#640),
  .UNSPECIFIED.,.F.,.F.,(4,4),(2.0889804721E-07,5.224668060548E-04),
  .PIECEWISE_BEZIER_KNOTS.);
#637 = CARTESIAN_POINT('',(-1.3,0.490027731427,2.349440959555));
#638 = CARTESIAN_POINT('',(-1.133329255937,0.47476349199,2.301547423586)
  );
#639 = CARTESIAN_POINT('',(-0.966662356535,0.459521048567,2.25363354849)
  );
#640 = CARTESIAN_POINT('',(-0.8,0.44430425231,2.20569574769));
#641 = PLANE('',#642);
#642 = AXIS2_PLACEMENT_3D('',#643,#644,#645);
#643 = CARTESIAN_POINT('',(-0.8,1.325,1.325));
#644 = DIRECTION('',(0.258819045103,0.683012701892,0.683012701892));
#645 = DIRECTION('',(2.775557561563E-17,-0.707106781187,0.707106781187)
  );
#646 = ADVANCED_FACE('',(#647),#674,.T.);
#647 = FACE_BOUND('',#648,.T.);
#648 = EDGE_LOOP('',(#649,#650,#658,#667,#673));
#649 = ORIENTED_EDGE('',*,*,#412,.F.);
#650 = ORIENTED_EDGE('',*,*,#651,.T.);
#651 = EDGE_CURVE('',#413,#652,#654,.T.);
#652 = VERTEX_POINT('',#653);
#653 = CARTESIAN_POINT('',(-1.3,-0.490027731427,2.349440959555));
#654 = LINE('',#655,#656);
#655 = CARTESIAN_POINT('',(-1.3,-1.419734345491,1.419734345491));
#656 = VECTOR('',#657,1.);
#657 = DIRECTION('',(0.,-0.707106781187,-0.707106781187));
#658 = ORIENTED_EDGE('',*,*,#659,.T.);
#659 = EDGE_CURVE('',#652,#660,#662,.T.);
#660 = VERTEX_POINT('',#661);
#661 = CARTESIAN_POINT('',(-0.8,-0.44430425231,2.20569574769));
#662 = B_SPLINE_CURVE_WITH_KNOTS('',3,(#663,#664,#665,#666),
  .UNSPECIFIED.,.F.,.F.,(4,4),(2.0889804721E-07,5.224668060548E-04),
  .PIECEWISE_BEZIER_KNOTS.);
#663 = CARTESIAN_POINT('',(-1.3,-0.490027731427,2.349440959555));
#664 = CARTESIAN_POINT('',(-1.133329255937,-0.47476349199,2.301547423586
    ));
#665 = CARTESIAN_POINT('',(-0.966662356535,-0.459521048567,2.25363354849
    ));
#666 = CARTESIAN_POINT('',(-0.8,-0.44430425231,2.20569574769));
#667 = ORIENTED_EDGE('',*,*,#668,.F.);
#668 = EDGE_CURVE('',#620,#660,#669,.T.);
#669 = LINE('',#670,#671);
#670 = CARTESIAN_POINT('',(-0.8,-1.325,1.325));
#671 = VECTOR('',#672,1.);
#672 = DIRECTION('',(9.E-17,-0.707106781187,-0.707106781187));
#673 = ORIENTED_EDGE('',*,*,#619,.F.);
#674 = PLANE('',#675);
#675 = AXIS2_PLACEMENT_3D('',#676,#677,#678);
#676 = CARTESIAN_POINT('',(-0.8,-1.325,1.325));
#677 = DIRECTION('',(0.258819045103,-0.683012701892,0.683012701892));
#678 = DIRECTION('',(-2.775557561563E-17,-0.707106781187,-0.707106781187
    ));
#679 = ADVANCED_FACE('',(#680),#699,.F.);
#680 = FACE_BOUND('',#681,.T.);
#681 = EDGE_LOOP('',(#682,#690,#697,#698));
#682 = ORIENTED_EDGE('',*,*,#683,.T.);
#683 = EDGE_CURVE('',#422,#684,#686,.T.);
#684 = VERTEX_POINT('',#685);
#685 = CARTESIAN_POINT('',(-1.3,-2.349440959555,0.490027731427));
#686 = LINE('',#687,#688);
#687 = CARTESIAN_POINT('',(-1.3,-1.419734345491,1.419734345491));
#688 = VECTOR('',#689,1.);
#689 = DIRECTION('',(0.,0.707106781187,0.707106781187));
#690 = ORIENTED_EDGE('',*,*,#691,.F.);
#691 = EDGE_CURVE('',#652,#684,#692,.T.);
#692 = CIRCLE('',#693,2.4);
#693 = AXIS2_PLACEMENT_3D('',#694,#695,#696);
#694 = CARTESIAN_POINT('',(-1.3,-1.6E-16,0.));
#695 = DIRECTION('',(1.,1.2E-16,-0.));
#696 = DIRECTION('',(-1.2E-16,1.,0.));
#697 = ORIENTED_EDGE('',*,*,#651,.F.);
#698 = ORIENTED_EDGE('',*,*,#421,.T.);
#699 = PLANE('',#700);
#700 = AXIS2_PLACEMENT_3D('',#701,#702,#703);
#701 = CARTESIAN_POINT('',(-1.3,2.415368045157,0.));
#702 = DIRECTION('',(-1.,0.,0.));
#703 = DIRECTION('',(0.,-1.,0.));
#704 = ADVANCED_FACE('',(#705),#732,.T.);
#705 = FACE_BOUND('',#706,.T.);
#706 = EDGE_LOOP('',(#707,#716,#717,#718,#726));
#707 = ORIENTED_EDGE('',*,*,#708,.F.);
#708 = EDGE_CURVE('',#684,#709,#711,.T.);
#709 = VERTEX_POINT('',#710);
#710 = CARTESIAN_POINT('',(-0.8,-2.20569574769,0.44430425231));
#711 = B_SPLINE_CURVE_WITH_KNOTS('',3,(#712,#713,#714,#715),
  .UNSPECIFIED.,.F.,.F.,(4,4),(2.0889804721E-07,5.224668060548E-04),
  .PIECEWISE_BEZIER_KNOTS.);
#712 = CARTESIAN_POINT('',(-1.3,-2.349440959555,0.490027731427));
#713 = CARTESIAN_POINT('',(-1.133329255937,-2.301547423586,0.47476349199
    ));
#714 = CARTESIAN_POINT('',(-0.966662356535,-2.25363354849,0.459521048567
    ));
#715 = CARTESIAN_POINT('',(-0.8,-2.20569574769,0.44430425231));
#716 = ORIENTED_EDGE('',*,*,#683,.F.);
#717 = ORIENTED_EDGE('',*,*,#430,.T.);
#718 = ORIENTED_EDGE('',*,*,#719,.T.);
#719 = EDGE_CURVE('',#431,#720,#722,.T.);
#720 = VERTEX_POINT('',#721);
#721 = CARTESIAN_POINT('',(-0.8,-2.65,-0.));
#722 = LINE('',#723,#724);
#723 = CARTESIAN_POINT('',(-0.360952371817,-2.483628441219,-2.2E-16));
#724 = VECTOR('',#725,1.);
#725 = DIRECTION('',(0.935113126531,0.354349320007,0.));
#726 = ORIENTED_EDGE('',*,*,#727,.T.);
#727 = EDGE_CURVE('',#720,#709,#728,.T.);
#728 = LINE('',#729,#730);
#729 = CARTESIAN_POINT('',(-0.8,-1.325,1.325));
#730 = VECTOR('',#731,1.);
#731 = DIRECTION('',(-9.E-17,0.707106781187,0.707106781187));
#732 = PLANE('',#733);
#733 = AXIS2_PLACEMENT_3D('',#734,#735,#736);
#734 = CARTESIAN_POINT('',(-0.8,-1.325,1.325));
#735 = DIRECTION('',(0.258819045103,-0.683012701892,0.683012701892));
#736 = DIRECTION('',(2.775557561563E-17,-0.707106781187,-0.707106781187)
  );
#737 = ADVANCED_FACE('',(#738),#764,.F.);
#738 = FACE_BOUND('',#739,.T.);
#739 = EDGE_LOOP('',(#740,#751,#757,#758));
#740 = ORIENTED_EDGE('',*,*,#741,.F.);
#741 = EDGE_CURVE('',#742,#744,#746,.T.);
#742 = VERTEX_POINT('',#743);
#743 = CARTESIAN_POINT('',(-1.3,-2.349440959555,-0.490027731427));
#744 = VERTEX_POINT('',#745);
#745 = CARTESIAN_POINT('',(-1.3,-0.490027731427,-2.349440959555));
#746 = CIRCLE('',#747,2.4);
#747 = AXIS2_PLACEMENT_3D('',#748,#749,#750);
#748 = CARTESIAN_POINT('',(-1.3,-1.6E-16,0.));
#749 = DIRECTION('',(1.,1.2E-16,-0.));
#750 = DIRECTION('',(-1.2E-16,1.,0.));
#751 = ORIENTED_EDGE('',*,*,#752,.F.);
#752 = EDGE_CURVE('',#462,#742,#753,.T.);
#753 = LINE('',#754,#755);
#754 = CARTESIAN_POINT('',(-1.3,-1.419734345491,-1.419734345491));
#755 = VECTOR('',#756,1.);
#756 = DIRECTION('',(0.,0.707106781187,-0.707106781187));
#757 = ORIENTED_EDGE('',*,*,#461,.T.);
#758 = ORIENTED_EDGE('',*,*,#759,.T.);
#759 = EDGE_CURVE('',#464,#744,#760,.T.);
#760 = LINE('',#761,#762);
#761 = CARTESIAN_POINT('',(-1.3,-1.419734345491,-1.419734345491));
#762 = VECTOR('',#763,1.);
#763 = DIRECTION('',(0.,-0.707106781187,0.707106781187));
#764 = PLANE('',#765);
#765 = AXIS2_PLACEMENT_3D('',#766,#767,#768);
#766 = CARTESIAN_POINT('',(-1.3,2.415368045157,0.));
#767 = DIRECTION('',(-1.,0.,0.));
#768 = DIRECTION('',(0.,-1.,0.));
#769 = ADVANCED_FACE('',(#770),#797,.T.);
#770 = FACE_BOUND('',#771,.T.);
#771 = EDGE_LOOP('',(#772,#781,#782,#783,#791));
#772 = ORIENTED_EDGE('',*,*,#773,.F.);
#773 = EDGE_CURVE('',#744,#774,#776,.T.);
#774 = VERTEX_POINT('',#775);
#775 = CARTESIAN_POINT('',(-0.8,-0.44430425231,-2.20569574769));
#776 = B_SPLINE_CURVE_WITH_KNOTS('',3,(#777,#778,#779,#780),
  .UNSPECIFIED.,.F.,.F.,(4,4),(2.0889804721E-07,5.224668060548E-04),
  .PIECEWISE_BEZIER_KNOTS.);
#777 = CARTESIAN_POINT('',(-1.3,-0.490027731427,-2.349440959555));
#778 = CARTESIAN_POINT('',(-1.133329255937,-0.47476349199,
    -2.301547423586));
#779 = CARTESIAN_POINT('',(-0.966662356535,-0.459521048567,
    -2.25363354849));
#780 = CARTESIAN_POINT('',(-0.8,-0.44430425231,-2.20569574769));
#781 = ORIENTED_EDGE('',*,*,#759,.F.);
#782 = ORIENTED_EDGE('',*,*,#472,.T.);
#783 = ORIENTED_EDGE('',*,*,#784,.T.);
#784 = EDGE_CURVE('',#473,#785,#787,.T.);
#785 = VERTEX_POINT('',#786);
#786 = CARTESIAN_POINT('',(-0.8,0.,-2.65));
#787 = LINE('',#788,#789);
#788 = CARTESIAN_POINT('',(-0.360952371817,0.,-2.483628441219));
#789 = VECTOR('',#790,1.);
#790 = DIRECTION('',(0.935113126531,1.6E-16,0.354349320007));
#791 = ORIENTED_EDGE('',*,*,#792,.T.);
#792 = EDGE_CURVE('',#785,#774,#793,.T.);
#793 = LINE('',#794,#795);
#794 = CARTESIAN_POINT('',(-0.8,-1.325,-1.325));
#795 = VECTOR('',#796,1.);
#796 = DIRECTION('',(9.E-17,-0.707106781187,0.707106781187));
#797 = PLANE('',#798);
#798 = AXIS2_PLACEMENT_3D('',#799,#800,#801);
#799 = CARTESIAN_POINT('',(-0.8,-1.325,-1.325));
#800 = DIRECTION('',(0.258819045103,-0.683012701892,-0.683012701892));
#801 = DIRECTION('',(2.775557561563E-17,0.707106781187,-0.707106781187)
  );
#802 = ADVANCED_FACE('',(#803),#830,.T.);
#803 = FACE_BOUND('',#804,.T.);
#804 = EDGE_LOOP('',(#805,#813,#822,#828,#829));
#805 = ORIENTED_EDGE('',*,*,#806,.T.);
#806 = EDGE_CURVE('',#482,#807,#809,.T.);
#807 = VERTEX_POINT('',#808);
#808 = CARTESIAN_POINT('',(-1.3,0.490027731427,-2.349440959555));
#809 = LINE('',#810,#811);
#810 = CARTESIAN_POINT('',(-1.3,1.419734345491,-1.419734345491));
#811 = VECTOR('',#812,1.);
#812 = DIRECTION('',(0.,0.707106781187,0.707106781187));
#813 = ORIENTED_EDGE('',*,*,#814,.T.);
#814 = EDGE_CURVE('',#807,#815,#817,.T.);
#815 = VERTEX_POINT('',#816);
#816 = CARTESIAN_POINT('',(-0.8,0.44430425231,-2.20569574769));
#817 = B_SPLINE_CURVE_WITH_KNOTS('',3,(#818,#819,#820,#821),
  .UNSPECIFIED.,.F.,.F.,(4,4),(2.0889804721E-07,5.224668060548E-04),
  .PIECEWISE_BEZIER_KNOTS.);
#818 = CARTESIAN_POINT('',(-1.3,0.490027731427,-2.349440959555));
#819 = CARTESIAN_POINT('',(-1.133329255937,0.47476349199,-2.301547423586
    ));
#820 = CARTESIAN_POINT('',(-0.966662356535,0.459521048567,-2.25363354849
    ));
#821 = CARTESIAN_POINT('',(-0.8,0.44430425231,-2.20569574769));
#822 = ORIENTED_EDGE('',*,*,#823,.F.);
#823 = EDGE_CURVE('',#785,#815,#824,.T.);
#824 = LINE('',#825,#826);
#825 = CARTESIAN_POINT('',(-0.8,1.325,-1.325));
#826 = VECTOR('',#827,1.);
#827 = DIRECTION('',(-9.E-17,0.707106781187,0.707106781187));
#828 = ORIENTED_EDGE('',*,*,#784,.F.);
#829 = ORIENTED_EDGE('',*,*,#481,.F.);
#830 = PLANE('',#831);
#831 = AXIS2_PLACEMENT_3D('',#832,#833,#834);
#832 = CARTESIAN_POINT('',(-0.8,1.325,-1.325));
#833 = DIRECTION('',(0.258819045103,0.683012701892,-0.683012701892));
#834 = DIRECTION('',(-2.775557561563E-17,0.707106781187,0.707106781187)
  );
#835 = ADVANCED_FACE('',(#836),#855,.F.);
#836 = FACE_BOUND('',#837,.T.);
#837 = EDGE_LOOP('',(#838,#847,#848,#849));
#838 = ORIENTED_EDGE('',*,*,#839,.F.);
#839 = EDGE_CURVE('',#807,#840,#842,.T.);
#840 = VERTEX_POINT('',#841);
#841 = CARTESIAN_POINT('',(-1.3,2.349440959555,-0.490027731427));
#842 = CIRCLE('',#843,2.4);
#843 = AXIS2_PLACEMENT_3D('',#844,#845,#846);
#844 = CARTESIAN_POINT('',(-1.3,-1.6E-16,0.));
#845 = DIRECTION('',(1.,1.2E-16,-0.));
#846 = DIRECTION('',(-1.2E-16,1.,0.));
#847 = ORIENTED_EDGE('',*,*,#806,.F.);
#848 = ORIENTED_EDGE('',*,*,#490,.T.);
#849 = ORIENTED_EDGE('',*,*,#850,.T.);
#850 = EDGE_CURVE('',#491,#840,#851,.T.);
#851 = LINE('',#852,#853);
#852 = CARTESIAN_POINT('',(-1.3,1.419734345491,-1.419734345491));
#853 = VECTOR('',#854,1.);
#854 = DIRECTION('',(0.,-0.707106781187,-0.707106781187));
#855 = PLANE('',#856);
#856 = AXIS2_PLACEMENT_3D('',#857,#858,#859);
#857 = CARTESIAN_POINT('',(-1.3,2.415368045157,0.));
#858 = DIRECTION('',(-1.,0.,0.));
#859 = DIRECTION('',(0.,-1.,0.));
#860 = ADVANCED_FACE('',(#861),#881,.T.);
#861 = FACE_BOUND('',#862,.T.);
#862 = EDGE_LOOP('',(#863,#864,#865,#866,#874));
#863 = ORIENTED_EDGE('',*,*,#850,.F.);
#864 = ORIENTED_EDGE('',*,*,#499,.T.);
#865 = ORIENTED_EDGE('',*,*,#578,.T.);
#866 = ORIENTED_EDGE('',*,*,#867,.T.);
#867 = EDGE_CURVE('',#571,#868,#870,.T.);
#868 = VERTEX_POINT('',#869);
#869 = CARTESIAN_POINT('',(-0.8,2.20569574769,-0.44430425231));
#870 = LINE('',#871,#872);
#871 = CARTESIAN_POINT('',(-0.8,1.325,-1.325));
#872 = VECTOR('',#873,1.);
#873 = DIRECTION('',(9.E-17,-0.707106781187,-0.707106781187));
#874 = ORIENTED_EDGE('',*,*,#875,.F.);
#875 = EDGE_CURVE('',#840,#868,#876,.T.);
#876 = B_SPLINE_CURVE_WITH_KNOTS('',3,(#877,#878,#879,#880),
  .UNSPECIFIED.,.F.,.F.,(4,4),(2.0889804721E-07,5.224668060548E-04),
  .PIECEWISE_BEZIER_KNOTS.);
#877 = CARTESIAN_POINT('',(-1.3,2.349440959555,-0.490027731427));
#878 = CARTESIAN_POINT('',(-1.133329255937,2.301547423586,-0.47476349199
    ));
#879 = CARTESIAN_POINT('',(-0.966662356535,2.25363354849,-0.459521048567
    ));
#880 = CARTESIAN_POINT('',(-0.8,2.20569574769,-0.44430425231));
#881 = PLANE('',#882);
#882 = AXIS2_PLACEMENT_3D('',#883,#884,#885);
#883 = CARTESIAN_POINT('',(-0.8,1.325,-1.325));
#884 = DIRECTION('',(0.258819045103,0.683012701892,-0.683012701892));
#885 = DIRECTION('',(-5.551115123126E-17,0.707106781187,0.707106781187)
  );
#886 = ADVANCED_FACE('',(#887),#907,.T.);
#887 = FACE_BOUND('',#888,.T.);
#888 = EDGE_LOOP('',(#889,#890,#899,#905,#906));
#889 = ORIENTED_EDGE('',*,*,#752,.T.);
#890 = ORIENTED_EDGE('',*,*,#891,.T.);
#891 = EDGE_CURVE('',#742,#892,#894,.T.);
#892 = VERTEX_POINT('',#893);
#893 = CARTESIAN_POINT('',(-0.8,-2.20569574769,-0.44430425231));
#894 = B_SPLINE_CURVE_WITH_KNOTS('',3,(#895,#896,#897,#898),
  .UNSPECIFIED.,.F.,.F.,(4,4),(2.0889804721E-07,5.224668060548E-04),
  .PIECEWISE_BEZIER_KNOTS.);
#895 = CARTESIAN_POINT('',(-1.3,-2.349440959555,-0.490027731427));
#896 = CARTESIAN_POINT('',(-1.133329255937,-2.301547423586,
    -0.47476349199));
#897 = CARTESIAN_POINT('',(-0.966662356535,-2.25363354849,
    -0.459521048567));
#898 = CARTESIAN_POINT('',(-0.8,-2.20569574769,-0.44430425231));
#899 = ORIENTED_EDGE('',*,*,#900,.F.);
#900 = EDGE_CURVE('',#720,#892,#901,.T.);
#901 = LINE('',#902,#903);
#902 = CARTESIAN_POINT('',(-0.8,-1.325,-1.325));
#903 = VECTOR('',#904,1.);
#904 = DIRECTION('',(-9.E-17,0.707106781187,-0.707106781187));
#905 = ORIENTED_EDGE('',*,*,#719,.F.);
#906 = ORIENTED_EDGE('',*,*,#509,.F.);
#907 = PLANE('',#908);
#908 = AXIS2_PLACEMENT_3D('',#909,#910,#911);
#909 = CARTESIAN_POINT('',(-0.8,-1.325,-1.325));
#910 = DIRECTION('',(0.258819045103,-0.683012701892,-0.683012701892));
#911 = DIRECTION('',(-2.775557561563E-17,0.707106781187,-0.707106781187)
  );
#912 = ADVANCED_FACE('',(#913),#932,.F.);
#913 = FACE_BOUND('',#914,.F.);
#914 = EDGE_LOOP('',(#915,#923,#924,#925));
#915 = ORIENTED_EDGE('',*,*,#916,.F.);
#916 = EDGE_CURVE('',#536,#917,#919,.T.);
#917 = VERTEX_POINT('',#918);
#918 = CARTESIAN_POINT('',(-2.7,-2.05,0.));
#919 = LINE('',#920,#921);
#920 = CARTESIAN_POINT('',(-5.2,-2.05,0.));
#921 = VECTOR('',#922,1.);
#922 = DIRECTION('',(1.,0.,0.));
#923 = ORIENTED_EDGE('',*,*,#535,.F.);
#924 = ORIENTED_EDGE('',*,*,#916,.T.);
#925 = ORIENTED_EDGE('',*,*,#926,.T.);
#926 = EDGE_CURVE('',#917,#917,#927,.T.);
#927 = CIRCLE('',#928,2.05);
#928 = AXIS2_PLACEMENT_3D('',#929,#930,#931);
#929 = CARTESIAN_POINT('',(-2.7,0.,0.));
#930 = DIRECTION('',(-1.,0.,0.));
#931 = DIRECTION('',(0.,-1.,0.));
#932 = CYLINDRICAL_SURFACE('',#933,2.05);
#933 = AXIS2_PLACEMENT_3D('',#934,#935,#936);
#934 = CARTESIAN_POINT('',(-5.2,0.,0.));
#935 = DIRECTION('',(-1.,0.,0.));
#936 = DIRECTION('',(0.,-1.,0.));
#937 = ADVANCED_FACE('',(#938),#950,.T.);
#938 = FACE_BOUND('',#939,.T.);
#939 = EDGE_LOOP('',(#940,#941,#942,#943));
#940 = ORIENTED_EDGE('',*,*,#561,.F.);
#941 = ORIENTED_EDGE('',*,*,#592,.T.);
#942 = ORIENTED_EDGE('',*,*,#635,.T.);
#943 = ORIENTED_EDGE('',*,*,#944,.F.);
#944 = EDGE_CURVE('',#562,#628,#945,.T.);
#945 = CIRCLE('',#946,2.25);
#946 = AXIS2_PLACEMENT_3D('',#947,#948,#949);
#947 = CARTESIAN_POINT('',(-0.8,-1.E-16,0.));
#948 = DIRECTION('',(1.,1.2E-16,-0.));
#949 = DIRECTION('',(-1.2E-16,1.,0.));
#950 = CONICAL_SURFACE('',#951,2.25,0.291456794478);
#951 = AXIS2_PLACEMENT_3D('',#952,#953,#954);
#952 = CARTESIAN_POINT('',(-0.8,-1.E-16,0.));
#953 = DIRECTION('',(-1.,-1.2E-16,0.));
#954 = DIRECTION('',(1.2E-16,-1.,0.));
#955 = ADVANCED_FACE('',(#956,#988),#1008,.T.);
#956 = FACE_BOUND('',#957,.T.);
#957 = EDGE_LOOP('',(#958,#965,#966,#967,#974,#975,#976,#983,#984,#985,
    #986,#987));
#958 = ORIENTED_EDGE('',*,*,#959,.T.);
#959 = EDGE_CURVE('',#660,#709,#960,.T.);
#960 = CIRCLE('',#961,2.25);
#961 = AXIS2_PLACEMENT_3D('',#962,#963,#964);
#962 = CARTESIAN_POINT('',(-0.8,-1.E-16,0.));
#963 = DIRECTION('',(1.,1.2E-16,-0.));
#964 = DIRECTION('',(-1.2E-16,1.,0.));
#965 = ORIENTED_EDGE('',*,*,#727,.F.);
#966 = ORIENTED_EDGE('',*,*,#900,.T.);
#967 = ORIENTED_EDGE('',*,*,#968,.T.);
#968 = EDGE_CURVE('',#892,#774,#969,.T.);
#969 = CIRCLE('',#970,2.25);
#970 = AXIS2_PLACEMENT_3D('',#971,#972,#973);
#971 = CARTESIAN_POINT('',(-0.8,-1.E-16,0.));
#972 = DIRECTION('',(1.,1.2E-16,-0.));
#973 = DIRECTION('',(-1.2E-16,1.,0.));
#974 = ORIENTED_EDGE('',*,*,#792,.F.);
#975 = ORIENTED_EDGE('',*,*,#823,.T.);
#976 = ORIENTED_EDGE('',*,*,#977,.T.);
#977 = EDGE_CURVE('',#815,#868,#978,.T.);
#978 = CIRCLE('',#979,2.25);
#979 = AXIS2_PLACEMENT_3D('',#980,#981,#982);
#980 = CARTESIAN_POINT('',(-0.8,-1.E-16,0.));
#981 = DIRECTION('',(1.,1.2E-16,-0.));
#982 = DIRECTION('',(-1.2E-16,1.,0.));
#983 = ORIENTED_EDGE('',*,*,#867,.F.);
#984 = ORIENTED_EDGE('',*,*,#570,.T.);
#985 = ORIENTED_EDGE('',*,*,#944,.T.);
#986 = ORIENTED_EDGE('',*,*,#627,.F.);
#987 = ORIENTED_EDGE('',*,*,#668,.T.);
#988 = FACE_BOUND('',#989,.T.);
#989 = EDGE_LOOP('',(#990,#1001));
#990 = ORIENTED_EDGE('',*,*,#991,.F.);
#991 = EDGE_CURVE('',#992,#994,#996,.T.);
#992 = VERTEX_POINT('',#993);
#993 = CARTESIAN_POINT('',(-0.8,1.75,0.));
#994 = VERTEX_POINT('',#995);
#995 = CARTESIAN_POINT('',(-0.8,-1.75,0.));
#996 = CIRCLE('',#997,1.75);
#997 = AXIS2_PLACEMENT_3D('',#998,#999,#1000);
#998 = CARTESIAN_POINT('',(-0.8,-1.E-16,0.));
#999 = DIRECTION('',(1.,1.2E-16,-0.));
#1000 = DIRECTION('',(-1.2E-16,1.,0.));
#1001 = ORIENTED_EDGE('',*,*,#1002,.F.);
#1002 = EDGE_CURVE('',#994,#992,#1003,.T.);
#1003 = CIRCLE('',#1004,1.75);
#1004 = AXIS2_PLACEMENT_3D('',#1005,#1006,#1007);
#1005 = CARTESIAN_POINT('',(-0.8,-1.E-16,0.));
#1006 = DIRECTION('',(1.,1.2E-16,-0.));
#1007 = DIRECTION('',(-1.2E-16,1.,0.));
#1008 = PLANE('',#1009);
#1009 = AXIS2_PLACEMENT_3D('',#1010,#1011,#1012);
#1010 = CARTESIAN_POINT('',(-0.8,2.25,0.));
#1011 = DIRECTION('',(1.,1.2E-16,0.));
#1012 = DIRECTION('',(-1.2E-16,1.,0.));
#1013 = ADVANCED_FACE('',(#1014),#1020,.T.);
#1014 = FACE_BOUND('',#1015,.T.);
#1015 = EDGE_LOOP('',(#1016,#1017,#1018,#1019));
#1016 = ORIENTED_EDGE('',*,*,#691,.T.);
#1017 = ORIENTED_EDGE('',*,*,#708,.T.);
#1018 = ORIENTED_EDGE('',*,*,#959,.F.);
#1019 = ORIENTED_EDGE('',*,*,#659,.F.);
#1020 = CONICAL_SURFACE('',#1021,2.25,0.291456794478);
#1021 = AXIS2_PLACEMENT_3D('',#1022,#1023,#1024);
#1022 = CARTESIAN_POINT('',(-0.8,-1.E-16,0.));
#1023 = DIRECTION('',(-1.,-1.2E-16,0.));
#1024 = DIRECTION('',(1.2E-16,-1.,0.));
#1025 = ADVANCED_FACE('',(#1026),#1032,.T.);
#1026 = FACE_BOUND('',#1027,.T.);
#1027 = EDGE_LOOP('',(#1028,#1029,#1030,#1031));
#1028 = ORIENTED_EDGE('',*,*,#891,.F.);
#1029 = ORIENTED_EDGE('',*,*,#741,.T.);
#1030 = ORIENTED_EDGE('',*,*,#773,.T.);
#1031 = ORIENTED_EDGE('',*,*,#968,.F.);
#1032 = CONICAL_SURFACE('',#1033,2.25,0.291456794478);
#1033 = AXIS2_PLACEMENT_3D('',#1034,#1035,#1036);
#1034 = CARTESIAN_POINT('',(-0.8,-1.E-16,0.));
#1035 = DIRECTION('',(-1.,-1.2E-16,0.));
#1036 = DIRECTION('',(1.2E-16,-1.,0.));
#1037 = ADVANCED_FACE('',(#1038),#1044,.T.);
#1038 = FACE_BOUND('',#1039,.T.);
#1039 = EDGE_LOOP('',(#1040,#1041,#1042,#1043));
#1040 = ORIENTED_EDGE('',*,*,#814,.F.);
#1041 = ORIENTED_EDGE('',*,*,#839,.T.);
#1042 = ORIENTED_EDGE('',*,*,#875,.T.);
#1043 = ORIENTED_EDGE('',*,*,#977,.F.);
#1044 = CONICAL_SURFACE('',#1045,2.25,0.291456794478);
#1045 = AXIS2_PLACEMENT_3D('',#1046,#1047,#1048);
#1046 = CARTESIAN_POINT('',(-0.8,-1.E-16,0.));
#1047 = DIRECTION('',(-1.,-1.2E-16,0.));
#1048 = DIRECTION('',(1.2E-16,-1.,0.));
#1049 = ADVANCED_FACE('',(#1050),#1053,.T.);
#1050 = FACE_BOUND('',#1051,.T.);
#1051 = EDGE_LOOP('',(#1052));
#1052 = ORIENTED_EDGE('',*,*,#926,.T.);
#1053 = PLANE('',#1054);
#1054 = AXIS2_PLACEMENT_3D('',#1055,#1056,#1057);
#1055 = CARTESIAN_POINT('',(-2.7,-1.E-17,0.));
#1056 = DIRECTION('',(-1.,0.,0.));
#1057 = DIRECTION('',(0.,-1.,0.));
#1058 = ADVANCED_FACE('',(#1059),#1085,.F.);
#1059 = FACE_BOUND('',#1060,.F.);
#1060 = EDGE_LOOP('',(#1061,#1062,#1070,#1079));
#1061 = ORIENTED_EDGE('',*,*,#991,.F.);
#1062 = ORIENTED_EDGE('',*,*,#1063,.F.);
#1063 = EDGE_CURVE('',#1064,#992,#1066,.T.);
#1064 = VERTEX_POINT('',#1065);
#1065 = CARTESIAN_POINT('',(-1.3,1.5,0.));
#1066 = LINE('',#1067,#1068);
#1067 = CARTESIAN_POINT('',(-1.3,1.5,0.));
#1068 = VECTOR('',#1069,1.);
#1069 = DIRECTION('',(0.894427191,0.4472135955,0.));
#1070 = ORIENTED_EDGE('',*,*,#1071,.T.);
#1071 = EDGE_CURVE('',#1064,#1072,#1074,.T.);
#1072 = VERTEX_POINT('',#1073);
#1073 = CARTESIAN_POINT('',(-1.3,-1.5,0.));
#1074 = CIRCLE('',#1075,1.5);
#1075 = AXIS2_PLACEMENT_3D('',#1076,#1077,#1078);
#1076 = CARTESIAN_POINT('',(-1.3,-1.6E-16,0.));
#1077 = DIRECTION('',(1.,1.2E-16,-0.));
#1078 = DIRECTION('',(-1.2E-16,1.,0.));
#1079 = ORIENTED_EDGE('',*,*,#1080,.T.);
#1080 = EDGE_CURVE('',#1072,#994,#1081,.T.);
#1081 = LINE('',#1082,#1083);
#1082 = CARTESIAN_POINT('',(-1.3,-1.5,1.8E-16));
#1083 = VECTOR('',#1084,1.);
#1084 = DIRECTION('',(0.894427191,-0.4472135955,5.E-17));
#1085 = CONICAL_SURFACE('',#1086,1.5,0.463647609001);
#1086 = AXIS2_PLACEMENT_3D('',#1087,#1088,#1089);
#1087 = CARTESIAN_POINT('',(-1.3,-1.6E-16,0.));
#1088 = DIRECTION('',(1.,1.2E-16,0.));
#1089 = DIRECTION('',(-1.2E-16,1.,0.));
#1090 = ADVANCED_FACE('',(#1091),#1103,.F.);
#1091 = FACE_BOUND('',#1092,.F.);
#1092 = EDGE_LOOP('',(#1093,#1094,#1095,#1096));
#1093 = ORIENTED_EDGE('',*,*,#1063,.T.);
#1094 = ORIENTED_EDGE('',*,*,#1002,.F.);
#1095 = ORIENTED_EDGE('',*,*,#1080,.F.);
#1096 = ORIENTED_EDGE('',*,*,#1097,.T.);
#1097 = EDGE_CURVE('',#1072,#1064,#1098,.T.);
#1098 = CIRCLE('',#1099,1.5);
#1099 = AXIS2_PLACEMENT_3D('',#1100,#1101,#1102);
#1100 = CARTESIAN_POINT('',(-1.3,-1.6E-16,0.));
#1101 = DIRECTION('',(1.,1.2E-16,-0.));
#1102 = DIRECTION('',(-1.2E-16,1.,0.));
#1103 = CONICAL_SURFACE('',#1104,1.5,0.463647609001);
#1104 = AXIS2_PLACEMENT_3D('',#1105,#1106,#1107);
#1105 = CARTESIAN_POINT('',(-1.3,-1.6E-16,0.));
#1106 = DIRECTION('',(1.,1.2E-16,0.));
#1107 = DIRECTION('',(-1.2E-16,1.,0.));
#1108 = ADVANCED_FACE('',(#1109),#1113,.F.);
#1109 = FACE_BOUND('',#1110,.T.);
#1110 = EDGE_LOOP('',(#1111,#1112));
#1111 = ORIENTED_EDGE('',*,*,#1071,.T.);
#1112 = ORIENTED_EDGE('',*,*,#1097,.T.);
#1113 = PLANE('',#1114);
#1114 = AXIS2_PLACEMENT_3D('',#1115,#1116,#1117);
#1115 = CARTESIAN_POINT('',(-1.3,2.415368045157,0.));
#1116 = DIRECTION('',(-1.,0.,0.));
#1117 = DIRECTION('',(0.,-1.,0.));
#1118 = ( GEOMETRIC_REPRESENTATION_CONTEXT(3) 
GLOBAL_UNCERTAINTY_ASSIGNED_CONTEXT((#1122)) 
GLOBAL_UNIT_ASSIGNED_CONTEXT((#1119,#1120,#1121)) REPRESENTATION_CONTEXT
('Context #1','3D Context with UNIT and UNCERTAINTY') );
#1119 = ( LENGTH_UNIT() NAMED_UNIT(*) SI_UNIT(.MILLI.,.METRE.) );
#1120 = ( NAMED_UNIT(*) PLANE_ANGLE_UNIT() SI_UNIT($,.RADIAN.) );
#1121 = ( NAMED_UNIT(*) SI_UNIT($,.STERADIAN.) SOLID_ANGLE_UNIT() );
#1122 = UNCERTAINTY_MEASURE_WITH_UNIT(LENGTH_MEASURE(5.E-06),#1119,
  'distance_accuracy_value','confusion accuracy');
#1123 = CONTEXT_DEPENDENT_SHAPE_REPRESENTATION(#1124,#1126);
#1124 = ( REPRESENTATION_RELATIONSHIP('','',#32,#10) 
REPRESENTATION_RELATIONSHIP_WITH_TRANSFORMATION(#1125) 
SHAPE_REPRESENTATION_RELATIONSHIP() );
#1125 = ITEM_DEFINED_TRANSFORMATION('','',#11,#15);
#1126 = PRODUCT_DEFINITION_SHAPE('Placement','Placement of an item',
  #1127);
#1127 = NEXT_ASSEMBLY_USAGE_OCCURRENCE('1','cap001','',#5,#27,$);
#1128 = PRODUCT_RELATED_PRODUCT_CATEGORY('part',$,(#29));
#1129 = MECHANICAL_DESIGN_GEOMETRIC_PRESENTATION_REPRESENTATION('',(
    #1130),#1118);
#1130 = STYLED_ITEM('color',(#1131),#33);
#1131 = PRESENTATION_STYLE_ASSIGNMENT((#1132,#1138));
#1132 = SURFACE_STYLE_USAGE(.BOTH.,#1133);
#1133 = SURFACE_SIDE_STYLE('',(#1134));
#1134 = SURFACE_STYLE_FILL_AREA(#1135);
#1135 = FILL_AREA_STYLE('',(#1136));
#1136 = FILL_AREA_STYLE_COLOUR('',#1137);
#1137 = COLOUR_RGB('',0.447058818107,0.474509808674,0.501960817233);
#1138 = CURVE_STYLE('',#1139,POSITIVE_LENGTH_MEASURE(0.1),#1140);
#1139 = DRAUGHTING_PRE_DEFINED_CURVE_FONT('continuous');
#1140 = COLOUR_RGB('',9.803921802644E-02,9.803921802644E-02,
  9.803921802644E-02);
ENDSEC;
END-ISO-10303-21;
