ISO-10303-21;
HEADER;
FILE_DESCRIPTION(('FreeCAD Model'),'2;1');
FILE_NAME('Open CASCADE Shape Model','2025-08-10T21:02:44',(''),(''),
  'Open CASCADE STEP processor 7.8','FreeCAD','Unknown');
FILE_SCHEMA(('AUTOMOTIVE_DESIGN { 1 0 10303 214 1 1 1 1 }'));
ENDSEC;
DATA;
#1 = APPLICATION_PROTOCOL_DEFINITION('international standard',
  'automotive_design',2000,#2);
#2 = APPLICATION_CONTEXT(
  'core data for automotive mechanical design processes');
#3 = SHAPE_DEFINITION_REPRESENTATION(#4,#10);
#4 = PRODUCT_DEFINITION_SHAPE('','',#5);
#5 = PRODUCT_DEFINITION('design','',#6,#9);
#6 = PRODUCT_DEFINITION_FORMATION('','',#7);
#7 = PRODUCT('master-forge-cap-ring','master-forge-cap-ring','',(#8));
#8 = PRODUCT_CONTEXT('',#2,'mechanical');
#9 = PRODUCT_DEFINITION_CONTEXT('part definition',#2,'design');
#10 = SHAPE_REPRESENTATION('',(#11,#15,#19),#23);
#11 = AXIS2_PLACEMENT_3D('',#12,#13,#14);
#12 = CARTESIAN_POINT('',(0.,0.,0.));
#13 = DIRECTION('',(0.,0.,1.));
#14 = DIRECTION('',(1.,0.,-0.));
#15 = AXIS2_PLACEMENT_3D('',#16,#17,#18);
#16 = CARTESIAN_POINT('',(0.,0.,0.));
#17 = DIRECTION('',(-1.,0.,-2.22044604925E-16));
#18 = DIRECTION('',(-2.22044604925E-16,0.,1.));
#19 = AXIS2_PLACEMENT_3D('',#20,#21,#22);
#20 = CARTESIAN_POINT('',(0.,0.,0.));
#21 = DIRECTION('',(0.,0.,1.));
#22 = DIRECTION('',(1.,0.,0.));
#23 = ( GEOMETRIC_REPRESENTATION_CONTEXT(3) 
GLOBAL_UNCERTAINTY_ASSIGNED_CONTEXT((#27)) GLOBAL_UNIT_ASSIGNED_CONTEXT(
(#24,#25,#26)) REPRESENTATION_CONTEXT('Context #1',
  '3D Context with UNIT and UNCERTAINTY') );
#24 = ( LENGTH_UNIT() NAMED_UNIT(*) SI_UNIT(.MILLI.,.METRE.) );
#25 = ( NAMED_UNIT(*) PLANE_ANGLE_UNIT() SI_UNIT($,.RADIAN.) );
#26 = ( NAMED_UNIT(*) SI_UNIT($,.STERADIAN.) SOLID_ANGLE_UNIT() );
#27 = UNCERTAINTY_MEASURE_WITH_UNIT(LENGTH_MEASURE(5.E-06),#24,
  'distance_accuracy_value','confusion accuracy');
#28 = PRODUCT_RELATED_PRODUCT_CATEGORY('part',$,(#7));
#29 = SHAPE_DEFINITION_REPRESENTATION(#30,#36);
#30 = PRODUCT_DEFINITION_SHAPE('','',#31);
#31 = PRODUCT_DEFINITION('design','',#32,#35);
#32 = PRODUCT_DEFINITION_FORMATION('','',#33);
#33 = PRODUCT('M4GcapRingIncluded002','M4GcapRingIncluded002','',(#34));
#34 = PRODUCT_CONTEXT('',#2,'mechanical');
#35 = PRODUCT_DEFINITION_CONTEXT('part definition',#2,'design');
#36 = ADVANCED_BREP_SHAPE_REPRESENTATION('',(#11,#37),#611);
#37 = MANIFOLD_SOLID_BREP('',#38);
#38 = CLOSED_SHELL('',(#39,#83,#127,#171,#195,#219,#243,#277,#311,#341,
    #375,#415,#445,#479,#515,#527,#539,#551,#563,#575,#587,#599));
#39 = ADVANCED_FACE('',(#40),#78,.T.);
#40 = FACE_BOUND('',#41,.T.);
#41 = EDGE_LOOP('',(#42,#53,#62,#71));
#42 = ORIENTED_EDGE('',*,*,#43,.F.);
#43 = EDGE_CURVE('',#44,#46,#48,.T.);
#44 = VERTEX_POINT('',#45);
#45 = CARTESIAN_POINT('',(-0.802690497031,5.365342656947E-16,
    -4.381134757125));
#46 = VERTEX_POINT('',#47);
#47 = CARTESIAN_POINT('',(-0.537970683871,5.871894951965E-16,
    -4.559294813496));
#48 = CIRCLE('',#49,0.285747510525);
#49 = AXIS2_PLACEMENT_3D('',#50,#51,#52);
#50 = CARTESIAN_POINT('',(-0.802690497031,5.715282431076E-16,
    -4.66688226765));
#51 = DIRECTION('',(-0.,1.,1.224646799147E-16));
#52 = DIRECTION('',(0.,-1.224646799147E-16,1.));
#53 = ORIENTED_EDGE('',*,*,#54,.T.);
#54 = EDGE_CURVE('',#44,#55,#57,.T.);
#55 = VERTEX_POINT('',#56);
#56 = CARTESIAN_POINT('',(-0.802690497031,0.,4.381134757125));
#57 = CIRCLE('',#58,4.381134757125);
#58 = AXIS2_PLACEMENT_3D('',#59,#60,#61);
#59 = CARTESIAN_POINT('',(-0.802690497031,0.,0.));
#60 = DIRECTION('',(-1.,0.,-0.));
#61 = DIRECTION('',(-0.,0.,1.));
#62 = ORIENTED_EDGE('',*,*,#63,.T.);
#63 = EDGE_CURVE('',#55,#64,#66,.T.);
#64 = VERTEX_POINT('',#65);
#65 = CARTESIAN_POINT('',(-0.537970683871,0.,4.559294813496));
#66 = CIRCLE('',#67,0.285747510525);
#67 = AXIS2_PLACEMENT_3D('',#68,#69,#70);
#68 = CARTESIAN_POINT('',(-0.802690497031,0.,4.66688226765));
#69 = DIRECTION('',(0.,-1.,0.));
#70 = DIRECTION('',(0.,0.,-1.));
#71 = ORIENTED_EDGE('',*,*,#72,.F.);
#72 = EDGE_CURVE('',#46,#64,#73,.T.);
#73 = CIRCLE('',#74,4.559294813496);
#74 = AXIS2_PLACEMENT_3D('',#75,#76,#77);
#75 = CARTESIAN_POINT('',(-0.537970683871,0.,0.));
#76 = DIRECTION('',(-1.,0.,-0.));
#77 = DIRECTION('',(-0.,0.,1.));
#78 = TOROIDAL_SURFACE('',#79,4.66688226765,0.285747510525);
#79 = AXIS2_PLACEMENT_3D('',#80,#81,#82);
#80 = CARTESIAN_POINT('',(-0.802690497031,0.,0.));
#81 = DIRECTION('',(-1.,-0.,-0.));
#82 = DIRECTION('',(-0.,0.,1.));
#83 = ADVANCED_FACE('',(#84),#122,.T.);
#84 = FACE_BOUND('',#85,.T.);
#85 = EDGE_LOOP('',(#86,#97,#106,#115));
#86 = ORIENTED_EDGE('',*,*,#87,.F.);
#87 = EDGE_CURVE('',#88,#90,#92,.T.);
#88 = VERTEX_POINT('',#89);
#89 = CARTESIAN_POINT('',(0.434210383155,6.158626856214E-16,
    -5.028900463792));
#90 = VERTEX_POINT('',#91);
#91 = CARTESIAN_POINT('',(0.615337069957,7.386116501189E-16,
    -5.70921609339));
#92 = CIRCLE('',#93,0.364269326606);
#93 = AXIS2_PLACEMENT_3D('',#94,#95,#96);
#94 = CARTESIAN_POINT('',(0.434210383155,6.60472812107E-16,
    -5.393169790399));
#95 = DIRECTION('',(-0.,1.,1.224646799147E-16));
#96 = DIRECTION('',(0.,-1.224646799147E-16,1.));
#97 = ORIENTED_EDGE('',*,*,#98,.T.);
#98 = EDGE_CURVE('',#88,#99,#101,.T.);
#99 = VERTEX_POINT('',#100);
#100 = CARTESIAN_POINT('',(0.434210383155,0.,5.028900463792));
#101 = CIRCLE('',#102,5.028900463792);
#102 = AXIS2_PLACEMENT_3D('',#103,#104,#105);
#103 = CARTESIAN_POINT('',(0.434210383155,0.,0.));
#104 = DIRECTION('',(-1.,0.,-0.));
#105 = DIRECTION('',(-0.,0.,1.));
#106 = ORIENTED_EDGE('',*,*,#107,.T.);
#107 = EDGE_CURVE('',#99,#108,#110,.T.);
#108 = VERTEX_POINT('',#109);
#109 = CARTESIAN_POINT('',(0.615337069957,0.,5.70921609339));
#110 = CIRCLE('',#111,0.364269326606);
#111 = AXIS2_PLACEMENT_3D('',#112,#113,#114);
#112 = CARTESIAN_POINT('',(0.434210383155,0.,5.393169790399));
#113 = DIRECTION('',(0.,-1.,0.));
#114 = DIRECTION('',(0.,0.,-1.));
#115 = ORIENTED_EDGE('',*,*,#116,.F.);
#116 = EDGE_CURVE('',#90,#108,#117,.T.);
#117 = CIRCLE('',#118,5.70921609339);
#118 = AXIS2_PLACEMENT_3D('',#119,#120,#121);
#119 = CARTESIAN_POINT('',(0.615337069957,0.,0.));
#120 = DIRECTION('',(-1.,0.,-0.));
#121 = DIRECTION('',(-0.,0.,1.));
#122 = TOROIDAL_SURFACE('',#123,5.393169790399,0.364269326606);
#123 = AXIS2_PLACEMENT_3D('',#124,#125,#126);
#124 = CARTESIAN_POINT('',(0.434210383155,0.,0.));
#125 = DIRECTION('',(-1.,-0.,-0.));
#126 = DIRECTION('',(-0.,0.,1.));
#127 = ADVANCED_FACE('',(#128),#166,.F.);
#128 = FACE_BOUND('',#129,.F.);
#129 = EDGE_LOOP('',(#130,#141,#150,#159));
#130 = ORIENTED_EDGE('',*,*,#131,.T.);
#131 = EDGE_CURVE('',#132,#134,#136,.T.);
#132 = VERTEX_POINT('',#133);
#133 = CARTESIAN_POINT('',(-1.028012860552,0.,6.11262926621));
#134 = VERTEX_POINT('',#135);
#135 = CARTESIAN_POINT('',(-1.028012860552,7.485811865239E-16,
    -6.11262926621));
#136 = CIRCLE('',#137,6.11262926621);
#137 = AXIS2_PLACEMENT_3D('',#138,#139,#140);
#138 = CARTESIAN_POINT('',(-1.028012860552,0.,0.));
#139 = DIRECTION('',(-1.,0.,-0.));
#140 = DIRECTION('',(-0.,0.,1.));
#141 = ORIENTED_EDGE('',*,*,#142,.T.);
#142 = EDGE_CURVE('',#134,#143,#145,.T.);
#143 = VERTEX_POINT('',#144);
#144 = CARTESIAN_POINT('',(-0.946831919728,7.480656022738E-16,
    -6.108419201313));
#145 = CIRCLE('',#146,0.784794291942);
#146 = AXIS2_PLACEMENT_3D('',#147,#148,#149);
#147 = CARTESIAN_POINT('',(-0.946831919728,8.441751840354E-16,
    -6.893213493255));
#148 = DIRECTION('',(-0.,1.,1.224646799147E-16));
#149 = DIRECTION('',(0.,-1.224646799147E-16,1.));
#150 = ORIENTED_EDGE('',*,*,#151,.F.);
#151 = EDGE_CURVE('',#152,#143,#154,.T.);
#152 = VERTEX_POINT('',#153);
#153 = CARTESIAN_POINT('',(-0.946831919728,0.,6.108419201313));
#154 = CIRCLE('',#155,6.108419201313);
#155 = AXIS2_PLACEMENT_3D('',#156,#157,#158);
#156 = CARTESIAN_POINT('',(-0.946831919728,0.,0.));
#157 = DIRECTION('',(-1.,0.,-0.));
#158 = DIRECTION('',(-0.,0.,1.));
#159 = ORIENTED_EDGE('',*,*,#160,.F.);
#160 = EDGE_CURVE('',#132,#152,#161,.T.);
#161 = CIRCLE('',#162,0.784794291942);
#162 = AXIS2_PLACEMENT_3D('',#163,#164,#165);
#163 = CARTESIAN_POINT('',(-0.946831919728,0.,6.893213493255));
#164 = DIRECTION('',(0.,-1.,0.));
#165 = DIRECTION('',(0.,0.,-1.));
#166 = TOROIDAL_SURFACE('',#167,6.893213493255,0.784794291942);
#167 = AXIS2_PLACEMENT_3D('',#168,#169,#170);
#168 = CARTESIAN_POINT('',(-0.946831919728,0.,0.));
#169 = DIRECTION('',(-1.,-0.,-0.));
#170 = DIRECTION('',(-0.,0.,1.));
#171 = ADVANCED_FACE('',(#172),#190,.F.);
#172 = FACE_BOUND('',#173,.F.);
#173 = EDGE_LOOP('',(#174,#181,#182,#189));
#174 = ORIENTED_EDGE('',*,*,#175,.T.);
#175 = EDGE_CURVE('',#134,#132,#176,.T.);
#176 = CIRCLE('',#177,6.11262926621);
#177 = AXIS2_PLACEMENT_3D('',#178,#179,#180);
#178 = CARTESIAN_POINT('',(-1.028012860552,0.,0.));
#179 = DIRECTION('',(-1.,0.,-0.));
#180 = DIRECTION('',(-0.,0.,1.));
#181 = ORIENTED_EDGE('',*,*,#160,.T.);
#182 = ORIENTED_EDGE('',*,*,#183,.F.);
#183 = EDGE_CURVE('',#143,#152,#184,.T.);
#184 = CIRCLE('',#185,6.108419201313);
#185 = AXIS2_PLACEMENT_3D('',#186,#187,#188);
#186 = CARTESIAN_POINT('',(-0.946831919728,0.,0.));
#187 = DIRECTION('',(-1.,0.,-0.));
#188 = DIRECTION('',(-0.,0.,1.));
#189 = ORIENTED_EDGE('',*,*,#142,.F.);
#190 = TOROIDAL_SURFACE('',#191,6.893213493255,0.784794291942);
#191 = AXIS2_PLACEMENT_3D('',#192,#193,#194);
#192 = CARTESIAN_POINT('',(-0.946831919728,0.,0.));
#193 = DIRECTION('',(-1.,-0.,-0.));
#194 = DIRECTION('',(-0.,0.,1.));
#195 = ADVANCED_FACE('',(#196),#214,.T.);
#196 = FACE_BOUND('',#197,.T.);
#197 = EDGE_LOOP('',(#198,#199,#206,#207));
#198 = ORIENTED_EDGE('',*,*,#107,.F.);
#199 = ORIENTED_EDGE('',*,*,#200,.T.);
#200 = EDGE_CURVE('',#99,#88,#201,.T.);
#201 = CIRCLE('',#202,5.028900463792);
#202 = AXIS2_PLACEMENT_3D('',#203,#204,#205);
#203 = CARTESIAN_POINT('',(0.434210383155,0.,0.));
#204 = DIRECTION('',(-1.,0.,-0.));
#205 = DIRECTION('',(-0.,0.,1.));
#206 = ORIENTED_EDGE('',*,*,#87,.T.);
#207 = ORIENTED_EDGE('',*,*,#208,.F.);
#208 = EDGE_CURVE('',#108,#90,#209,.T.);
#209 = CIRCLE('',#210,5.70921609339);
#210 = AXIS2_PLACEMENT_3D('',#211,#212,#213);
#211 = CARTESIAN_POINT('',(0.615337069957,0.,0.));
#212 = DIRECTION('',(-1.,0.,-0.));
#213 = DIRECTION('',(-0.,0.,1.));
#214 = TOROIDAL_SURFACE('',#215,5.393169790399,0.364269326606);
#215 = AXIS2_PLACEMENT_3D('',#216,#217,#218);
#216 = CARTESIAN_POINT('',(0.434210383155,0.,0.));
#217 = DIRECTION('',(-1.,-0.,-0.));
#218 = DIRECTION('',(-0.,0.,1.));
#219 = ADVANCED_FACE('',(#220),#238,.T.);
#220 = FACE_BOUND('',#221,.T.);
#221 = EDGE_LOOP('',(#222,#223,#230,#231));
#222 = ORIENTED_EDGE('',*,*,#63,.F.);
#223 = ORIENTED_EDGE('',*,*,#224,.T.);
#224 = EDGE_CURVE('',#55,#44,#225,.T.);
#225 = CIRCLE('',#226,4.381134757125);
#226 = AXIS2_PLACEMENT_3D('',#227,#228,#229);
#227 = CARTESIAN_POINT('',(-0.802690497031,0.,0.));
#228 = DIRECTION('',(-1.,0.,-0.));
#229 = DIRECTION('',(-0.,0.,1.));
#230 = ORIENTED_EDGE('',*,*,#43,.T.);
#231 = ORIENTED_EDGE('',*,*,#232,.F.);
#232 = EDGE_CURVE('',#64,#46,#233,.T.);
#233 = CIRCLE('',#234,4.559294813496);
#234 = AXIS2_PLACEMENT_3D('',#235,#236,#237);
#235 = CARTESIAN_POINT('',(-0.537970683871,0.,0.));
#236 = DIRECTION('',(-1.,0.,-0.));
#237 = DIRECTION('',(-0.,0.,1.));
#238 = TOROIDAL_SURFACE('',#239,4.66688226765,0.285747510525);
#239 = AXIS2_PLACEMENT_3D('',#240,#241,#242);
#240 = CARTESIAN_POINT('',(-0.802690497031,0.,0.));
#241 = DIRECTION('',(-1.,-0.,-0.));
#242 = DIRECTION('',(-0.,0.,1.));
#243 = ADVANCED_FACE('',(#244),#272,.T.);
#244 = FACE_BOUND('',#245,.T.);
#245 = EDGE_LOOP('',(#246,#247,#256,#265));
#246 = ORIENTED_EDGE('',*,*,#224,.F.);
#247 = ORIENTED_EDGE('',*,*,#248,.F.);
#248 = EDGE_CURVE('',#249,#55,#251,.T.);
#249 = VERTEX_POINT('',#250);
#250 = CARTESIAN_POINT('',(-1.061079312251,0.,4.788893988155));
#251 = CIRCLE('',#252,0.285747510525);
#252 = AXIS2_PLACEMENT_3D('',#253,#254,#255);
#253 = CARTESIAN_POINT('',(-0.802690497031,0.,4.66688226765));
#254 = DIRECTION('',(0.,-1.,0.));
#255 = DIRECTION('',(0.,0.,-1.));
#256 = ORIENTED_EDGE('',*,*,#257,.T.);
#257 = EDGE_CURVE('',#249,#258,#260,.T.);
#258 = VERTEX_POINT('',#259);
#259 = CARTESIAN_POINT('',(-1.061079312251,6.324142258421E-16,
    -4.788893988155));
#260 = CIRCLE('',#261,4.788893988155);
#261 = AXIS2_PLACEMENT_3D('',#262,#263,#264);
#262 = CARTESIAN_POINT('',(-1.061079312251,0.,0.));
#263 = DIRECTION('',(-1.,0.,-0.));
#264 = DIRECTION('',(-0.,0.,1.));
#265 = ORIENTED_EDGE('',*,*,#266,.T.);
#266 = EDGE_CURVE('',#258,#44,#267,.T.);
#267 = CIRCLE('',#268,0.285747510525);
#268 = AXIS2_PLACEMENT_3D('',#269,#270,#271);
#269 = CARTESIAN_POINT('',(-0.802690497031,5.715282431076E-16,
    -4.66688226765));
#270 = DIRECTION('',(-0.,1.,1.224646799147E-16));
#271 = DIRECTION('',(0.,-1.224646799147E-16,1.));
#272 = TOROIDAL_SURFACE('',#273,4.66688226765,0.285747510525);
#273 = AXIS2_PLACEMENT_3D('',#274,#275,#276);
#274 = CARTESIAN_POINT('',(-0.802690497031,0.,0.));
#275 = DIRECTION('',(-1.,-0.,-0.));
#276 = DIRECTION('',(-0.,0.,1.));
#277 = ADVANCED_FACE('',(#278),#306,.F.);
#278 = FACE_BOUND('',#279,.F.);
#279 = EDGE_LOOP('',(#280,#289,#290,#299));
#280 = ORIENTED_EDGE('',*,*,#281,.T.);
#281 = EDGE_CURVE('',#282,#64,#284,.T.);
#282 = VERTEX_POINT('',#283);
#283 = CARTESIAN_POINT('',(0.403030156876,0.,5.03023737824));
#284 = CIRCLE('',#285,0.797240921162);
#285 = AXIS2_PLACEMENT_3D('',#286,#287,#288);
#286 = CARTESIAN_POINT('',(0.200602566711,0.,4.25912379574));
#287 = DIRECTION('',(0.,-1.,0.));
#288 = DIRECTION('',(0.,0.,-1.));
#289 = ORIENTED_EDGE('',*,*,#72,.F.);
#290 = ORIENTED_EDGE('',*,*,#291,.F.);
#291 = EDGE_CURVE('',#292,#46,#294,.T.);
#292 = VERTEX_POINT('',#293);
#293 = CARTESIAN_POINT('',(0.403030156876,6.160264104213E-16,
    -5.03023737824));
#294 = CIRCLE('',#295,0.797240921162);
#295 = AXIS2_PLACEMENT_3D('',#296,#297,#298);
#296 = CARTESIAN_POINT('',(0.200602566711,5.215922323626E-16,
    -4.25912379574));
#297 = DIRECTION('',(-0.,1.,1.224646799147E-16));
#298 = DIRECTION('',(0.,-1.224646799147E-16,1.));
#299 = ORIENTED_EDGE('',*,*,#300,.T.);
#300 = EDGE_CURVE('',#292,#282,#301,.T.);
#301 = CIRCLE('',#302,5.03023737824);
#302 = AXIS2_PLACEMENT_3D('',#303,#304,#305);
#303 = CARTESIAN_POINT('',(0.403030156876,0.,0.));
#304 = DIRECTION('',(-1.,0.,-0.));
#305 = DIRECTION('',(-0.,0.,1.));
#306 = TOROIDAL_SURFACE('',#307,4.25912379574,0.797240921162);
#307 = AXIS2_PLACEMENT_3D('',#308,#309,#310);
#308 = CARTESIAN_POINT('',(0.200602566711,0.,0.));
#309 = DIRECTION('',(-1.,-0.,-0.));
#310 = DIRECTION('',(-0.,0.,1.));
#311 = ADVANCED_FACE('',(#312),#336,.T.);
#312 = FACE_BOUND('',#313,.T.);
#313 = EDGE_LOOP('',(#314,#315,#322,#329));
#314 = ORIENTED_EDGE('',*,*,#200,.F.);
#315 = ORIENTED_EDGE('',*,*,#316,.F.);
#316 = EDGE_CURVE('',#282,#99,#317,.T.);
#317 = CIRCLE('',#318,0.364269326606);
#318 = AXIS2_PLACEMENT_3D('',#319,#320,#321);
#319 = CARTESIAN_POINT('',(0.434210383155,0.,5.393169790399));
#320 = DIRECTION('',(0.,-1.,0.));
#321 = DIRECTION('',(0.,0.,-1.));
#322 = ORIENTED_EDGE('',*,*,#323,.T.);
#323 = EDGE_CURVE('',#282,#292,#324,.T.);
#324 = CIRCLE('',#325,5.03023737824);
#325 = AXIS2_PLACEMENT_3D('',#326,#327,#328);
#326 = CARTESIAN_POINT('',(0.403030156876,0.,0.));
#327 = DIRECTION('',(-1.,0.,-0.));
#328 = DIRECTION('',(-0.,0.,1.));
#329 = ORIENTED_EDGE('',*,*,#330,.T.);
#330 = EDGE_CURVE('',#292,#88,#331,.T.);
#331 = CIRCLE('',#332,0.364269326606);
#332 = AXIS2_PLACEMENT_3D('',#333,#334,#335);
#333 = CARTESIAN_POINT('',(0.434210383155,6.60472812107E-16,
    -5.393169790399));
#334 = DIRECTION('',(-0.,1.,1.224646799147E-16));
#335 = DIRECTION('',(0.,-1.224646799147E-16,1.));
#336 = TOROIDAL_SURFACE('',#337,5.393169790399,0.364269326606);
#337 = AXIS2_PLACEMENT_3D('',#338,#339,#340);
#338 = CARTESIAN_POINT('',(0.434210383155,0.,0.));
#339 = DIRECTION('',(-1.,-0.,-0.));
#340 = DIRECTION('',(-0.,0.,1.));
#341 = ADVANCED_FACE('',(#342),#370,.F.);
#342 = FACE_BOUND('',#343,.F.);
#343 = EDGE_LOOP('',(#344,#353,#354,#363));
#344 = ORIENTED_EDGE('',*,*,#345,.T.);
#345 = EDGE_CURVE('',#346,#108,#348,.T.);
#346 = VERTEX_POINT('',#347);
#347 = CARTESIAN_POINT('',(0.370745412383,0.,6.353227553761));
#348 = CIRCLE('',#349,0.542823581101);
#349 = AXIS2_PLACEMENT_3D('',#350,#351,#352);
#350 = CARTESIAN_POINT('',(0.885246803173,0.,6.180179123908));
#351 = DIRECTION('',(0.,-1.,0.));
#352 = DIRECTION('',(0.,0.,-1.));
#353 = ORIENTED_EDGE('',*,*,#116,.F.);
#354 = ORIENTED_EDGE('',*,*,#355,.F.);
#355 = EDGE_CURVE('',#356,#90,#358,.T.);
#356 = VERTEX_POINT('',#357);
#357 = CARTESIAN_POINT('',(0.370745412383,7.920602843499E-16,
    -6.353227553761));
#358 = CIRCLE('',#359,0.542823581101);
#359 = AXIS2_PLACEMENT_3D('',#360,#361,#362);
#360 = CARTESIAN_POINT('',(0.885246803173,7.568536582251E-16,
    -6.180179123908));
#361 = DIRECTION('',(-0.,1.,1.224646799147E-16));
#362 = DIRECTION('',(0.,-1.224646799147E-16,1.));
#363 = ORIENTED_EDGE('',*,*,#364,.T.);
#364 = EDGE_CURVE('',#356,#346,#365,.T.);
#365 = CIRCLE('',#366,6.353227553761);
#366 = AXIS2_PLACEMENT_3D('',#367,#368,#369);
#367 = CARTESIAN_POINT('',(0.370745412383,0.,0.));
#368 = DIRECTION('',(-1.,0.,-0.));
#369 = DIRECTION('',(-0.,0.,1.));
#370 = TOROIDAL_SURFACE('',#371,6.180179123908,0.542823581101);
#371 = AXIS2_PLACEMENT_3D('',#372,#373,#374);
#372 = CARTESIAN_POINT('',(0.885246803173,0.,0.));
#373 = DIRECTION('',(-1.,-0.,-0.));
#374 = DIRECTION('',(-0.,0.,1.));
#375 = ADVANCED_FACE('',(#376),#410,.T.);
#376 = FACE_BOUND('',#377,.T.);
#377 = EDGE_LOOP('',(#378,#385,#394,#403));
#378 = ORIENTED_EDGE('',*,*,#379,.T.);
#379 = EDGE_CURVE('',#346,#356,#380,.T.);
#380 = CIRCLE('',#381,6.353227553761);
#381 = AXIS2_PLACEMENT_3D('',#382,#383,#384);
#382 = CARTESIAN_POINT('',(0.370745412383,0.,0.));
#383 = DIRECTION('',(-1.,0.,-0.));
#384 = DIRECTION('',(-0.,0.,1.));
#385 = ORIENTED_EDGE('',*,*,#386,.T.);
#386 = EDGE_CURVE('',#356,#387,#389,.T.);
#387 = VERTEX_POINT('',#388);
#388 = CARTESIAN_POINT('',(-0.226339337101,8.060745899029E-16,
    -6.582098532117));
#389 = CIRCLE('',#390,0.32);
#390 = AXIS2_PLACEMENT_3D('',#391,#392,#393);
#391 = CARTESIAN_POINT('',(6.744163048206E-02,7.905390664574E-16,
    -6.455241356184));
#392 = DIRECTION('',(-0.,1.,1.224646799147E-16));
#393 = DIRECTION('',(0.,-1.224646799147E-16,1.));
#394 = ORIENTED_EDGE('',*,*,#395,.F.);
#395 = EDGE_CURVE('',#396,#387,#398,.T.);
#396 = VERTEX_POINT('',#397);
#397 = CARTESIAN_POINT('',(-0.226339337101,0.,6.582098532117));
#398 = CIRCLE('',#399,6.582098532117);
#399 = AXIS2_PLACEMENT_3D('',#400,#401,#402);
#400 = CARTESIAN_POINT('',(-0.226339337101,0.,0.));
#401 = DIRECTION('',(-1.,0.,-0.));
#402 = DIRECTION('',(-0.,0.,1.));
#403 = ORIENTED_EDGE('',*,*,#404,.F.);
#404 = EDGE_CURVE('',#346,#396,#405,.T.);
#405 = CIRCLE('',#406,0.32);
#406 = AXIS2_PLACEMENT_3D('',#407,#408,#409);
#407 = CARTESIAN_POINT('',(6.744163048206E-02,0.,6.455241356184));
#408 = DIRECTION('',(0.,-1.,0.));
#409 = DIRECTION('',(0.,0.,-1.));
#410 = TOROIDAL_SURFACE('',#411,6.455241356184,0.32);
#411 = AXIS2_PLACEMENT_3D('',#412,#413,#414);
#412 = CARTESIAN_POINT('',(6.744163048206E-02,0.,0.));
#413 = DIRECTION('',(-1.,-0.,-0.));
#414 = DIRECTION('',(-0.,0.,1.));
#415 = ADVANCED_FACE('',(#416),#440,.F.);
#416 = FACE_BOUND('',#417,.F.);
#417 = EDGE_LOOP('',(#418,#425,#432,#439));
#418 = ORIENTED_EDGE('',*,*,#419,.T.);
#419 = EDGE_CURVE('',#152,#396,#420,.T.);
#420 = CIRCLE('',#421,0.784794291942);
#421 = AXIS2_PLACEMENT_3D('',#422,#423,#424);
#422 = CARTESIAN_POINT('',(-0.946831919728,0.,6.893213493255));
#423 = DIRECTION('',(0.,-1.,0.));
#424 = DIRECTION('',(0.,0.,-1.));
#425 = ORIENTED_EDGE('',*,*,#426,.F.);
#426 = EDGE_CURVE('',#387,#396,#427,.T.);
#427 = CIRCLE('',#428,6.582098532117);
#428 = AXIS2_PLACEMENT_3D('',#429,#430,#431);
#429 = CARTESIAN_POINT('',(-0.226339337101,0.,0.));
#430 = DIRECTION('',(-1.,0.,-0.));
#431 = DIRECTION('',(-0.,0.,1.));
#432 = ORIENTED_EDGE('',*,*,#433,.F.);
#433 = EDGE_CURVE('',#143,#387,#434,.T.);
#434 = CIRCLE('',#435,0.784794291942);
#435 = AXIS2_PLACEMENT_3D('',#436,#437,#438);
#436 = CARTESIAN_POINT('',(-0.946831919728,8.441751840354E-16,
    -6.893213493255));
#437 = DIRECTION('',(-0.,1.,1.224646799147E-16));
#438 = DIRECTION('',(0.,-1.224646799147E-16,1.));
#439 = ORIENTED_EDGE('',*,*,#183,.T.);
#440 = TOROIDAL_SURFACE('',#441,6.893213493255,0.784794291942);
#441 = AXIS2_PLACEMENT_3D('',#442,#443,#444);
#442 = CARTESIAN_POINT('',(-0.946831919728,0.,0.));
#443 = DIRECTION('',(-1.,-0.,-0.));
#444 = DIRECTION('',(-0.,0.,1.));
#445 = ADVANCED_FACE('',(#446),#474,.T.);
#446 = FACE_BOUND('',#447,.T.);
#447 = EDGE_LOOP('',(#448,#449,#458,#467));
#448 = ORIENTED_EDGE('',*,*,#131,.T.);
#449 = ORIENTED_EDGE('',*,*,#450,.T.);
#450 = EDGE_CURVE('',#134,#451,#453,.T.);
#451 = VERTEX_POINT('',#452);
#452 = CARTESIAN_POINT('',(-1.250219136514,6.783580822792E-16,
    -5.539214104438));
#453 = CIRCLE('',#454,0.318696197817);
#454 = AXIS2_PLACEMENT_3D('',#455,#456,#457);
#455 = CARTESIAN_POINT('',(-1.060979534038,7.097615316744E-16,
    -5.795642728732));
#456 = DIRECTION('',(-0.,1.,1.224646799147E-16));
#457 = DIRECTION('',(0.,-1.224646799147E-16,1.));
#458 = ORIENTED_EDGE('',*,*,#459,.F.);
#459 = EDGE_CURVE('',#460,#451,#462,.T.);
#460 = VERTEX_POINT('',#461);
#461 = CARTESIAN_POINT('',(-1.250219136514,0.,5.539214104438));
#462 = CIRCLE('',#463,5.539214104438);
#463 = AXIS2_PLACEMENT_3D('',#464,#465,#466);
#464 = CARTESIAN_POINT('',(-1.250219136514,0.,0.));
#465 = DIRECTION('',(-1.,0.,-0.));
#466 = DIRECTION('',(-0.,0.,1.));
#467 = ORIENTED_EDGE('',*,*,#468,.F.);
#468 = EDGE_CURVE('',#132,#460,#469,.T.);
#469 = CIRCLE('',#470,0.318696197817);
#470 = AXIS2_PLACEMENT_3D('',#471,#472,#473);
#471 = CARTESIAN_POINT('',(-1.060979534038,0.,5.795642728732));
#472 = DIRECTION('',(0.,-1.,0.));
#473 = DIRECTION('',(0.,0.,-1.));
#474 = TOROIDAL_SURFACE('',#475,5.795642728732,0.318696197817);
#475 = AXIS2_PLACEMENT_3D('',#476,#477,#478);
#476 = CARTESIAN_POINT('',(-1.060979534038,0.,0.));
#477 = DIRECTION('',(-1.,-0.,-0.));
#478 = DIRECTION('',(-0.,0.,1.));
#479 = ADVANCED_FACE('',(#480),#510,.F.);
#480 = FACE_BOUND('',#481,.F.);
#481 = EDGE_LOOP('',(#482,#489,#496,#503));
#482 = ORIENTED_EDGE('',*,*,#483,.T.);
#483 = EDGE_CURVE('',#249,#460,#484,.T.);
#484 = CIRCLE('',#485,0.609219347585);
#485 = AXIS2_PLACEMENT_3D('',#486,#487,#488);
#486 = CARTESIAN_POINT('',(-1.611969379998,0.,5.04902539097));
#487 = DIRECTION('',(0.,-1.,0.));
#488 = DIRECTION('',(0.,0.,-1.));
#489 = ORIENTED_EDGE('',*,*,#490,.F.);
#490 = EDGE_CURVE('',#451,#460,#491,.T.);
#491 = CIRCLE('',#492,5.539214104438);
#492 = AXIS2_PLACEMENT_3D('',#493,#494,#495);
#493 = CARTESIAN_POINT('',(-1.250219136514,0.,0.));
#494 = DIRECTION('',(-1.,0.,-0.));
#495 = DIRECTION('',(-0.,0.,1.));
#496 = ORIENTED_EDGE('',*,*,#497,.F.);
#497 = EDGE_CURVE('',#258,#451,#498,.T.);
#498 = CIRCLE('',#499,0.609219347585);
#499 = AXIS2_PLACEMENT_3D('',#500,#501,#502);
#500 = CARTESIAN_POINT('',(-1.611969379998,6.183272783865E-16,
    -5.04902539097));
#501 = DIRECTION('',(-0.,1.,1.224646799147E-16));
#502 = DIRECTION('',(0.,-1.224646799147E-16,1.));
#503 = ORIENTED_EDGE('',*,*,#504,.T.);
#504 = EDGE_CURVE('',#258,#249,#505,.T.);
#505 = CIRCLE('',#506,4.788893988155);
#506 = AXIS2_PLACEMENT_3D('',#507,#508,#509);
#507 = CARTESIAN_POINT('',(-1.061079312251,0.,0.));
#508 = DIRECTION('',(-1.,0.,-0.));
#509 = DIRECTION('',(-0.,0.,1.));
#510 = TOROIDAL_SURFACE('',#511,5.04902539097,0.609219347585);
#511 = AXIS2_PLACEMENT_3D('',#512,#513,#514);
#512 = CARTESIAN_POINT('',(-1.611969379998,0.,0.));
#513 = DIRECTION('',(-1.,-0.,-0.));
#514 = DIRECTION('',(-0.,0.,1.));
#515 = ADVANCED_FACE('',(#516),#522,.F.);
#516 = FACE_BOUND('',#517,.F.);
#517 = EDGE_LOOP('',(#518,#519,#520,#521));
#518 = ORIENTED_EDGE('',*,*,#459,.F.);
#519 = ORIENTED_EDGE('',*,*,#483,.F.);
#520 = ORIENTED_EDGE('',*,*,#257,.T.);
#521 = ORIENTED_EDGE('',*,*,#497,.T.);
#522 = TOROIDAL_SURFACE('',#523,5.04902539097,0.609219347585);
#523 = AXIS2_PLACEMENT_3D('',#524,#525,#526);
#524 = CARTESIAN_POINT('',(-1.611969379998,0.,0.));
#525 = DIRECTION('',(-1.,-0.,-0.));
#526 = DIRECTION('',(-0.,0.,1.));
#527 = ADVANCED_FACE('',(#528),#534,.T.);
#528 = FACE_BOUND('',#529,.T.);
#529 = EDGE_LOOP('',(#530,#531,#532,#533));
#530 = ORIENTED_EDGE('',*,*,#450,.F.);
#531 = ORIENTED_EDGE('',*,*,#175,.T.);
#532 = ORIENTED_EDGE('',*,*,#468,.T.);
#533 = ORIENTED_EDGE('',*,*,#490,.F.);
#534 = TOROIDAL_SURFACE('',#535,5.795642728732,0.318696197817);
#535 = AXIS2_PLACEMENT_3D('',#536,#537,#538);
#536 = CARTESIAN_POINT('',(-1.060979534038,0.,0.));
#537 = DIRECTION('',(-1.,-0.,-0.));
#538 = DIRECTION('',(-0.,0.,1.));
#539 = ADVANCED_FACE('',(#540),#546,.F.);
#540 = FACE_BOUND('',#541,.F.);
#541 = EDGE_LOOP('',(#542,#543,#544,#545));
#542 = ORIENTED_EDGE('',*,*,#433,.T.);
#543 = ORIENTED_EDGE('',*,*,#395,.F.);
#544 = ORIENTED_EDGE('',*,*,#419,.F.);
#545 = ORIENTED_EDGE('',*,*,#151,.T.);
#546 = TOROIDAL_SURFACE('',#547,6.893213493255,0.784794291942);
#547 = AXIS2_PLACEMENT_3D('',#548,#549,#550);
#548 = CARTESIAN_POINT('',(-0.946831919728,0.,0.));
#549 = DIRECTION('',(-1.,-0.,-0.));
#550 = DIRECTION('',(-0.,0.,1.));
#551 = ADVANCED_FACE('',(#552),#558,.T.);
#552 = FACE_BOUND('',#553,.T.);
#553 = EDGE_LOOP('',(#554,#555,#556,#557));
#554 = ORIENTED_EDGE('',*,*,#386,.F.);
#555 = ORIENTED_EDGE('',*,*,#364,.T.);
#556 = ORIENTED_EDGE('',*,*,#404,.T.);
#557 = ORIENTED_EDGE('',*,*,#426,.F.);
#558 = TOROIDAL_SURFACE('',#559,6.455241356184,0.32);
#559 = AXIS2_PLACEMENT_3D('',#560,#561,#562);
#560 = CARTESIAN_POINT('',(6.744163048206E-02,0.,0.));
#561 = DIRECTION('',(-1.,-0.,-0.));
#562 = DIRECTION('',(-0.,0.,1.));
#563 = ADVANCED_FACE('',(#564),#570,.F.);
#564 = FACE_BOUND('',#565,.F.);
#565 = EDGE_LOOP('',(#566,#567,#568,#569));
#566 = ORIENTED_EDGE('',*,*,#208,.F.);
#567 = ORIENTED_EDGE('',*,*,#345,.F.);
#568 = ORIENTED_EDGE('',*,*,#379,.T.);
#569 = ORIENTED_EDGE('',*,*,#355,.T.);
#570 = TOROIDAL_SURFACE('',#571,6.180179123908,0.542823581101);
#571 = AXIS2_PLACEMENT_3D('',#572,#573,#574);
#572 = CARTESIAN_POINT('',(0.885246803173,0.,0.));
#573 = DIRECTION('',(-1.,-0.,-0.));
#574 = DIRECTION('',(-0.,0.,1.));
#575 = ADVANCED_FACE('',(#576),#582,.T.);
#576 = FACE_BOUND('',#577,.T.);
#577 = EDGE_LOOP('',(#578,#579,#580,#581));
#578 = ORIENTED_EDGE('',*,*,#98,.F.);
#579 = ORIENTED_EDGE('',*,*,#330,.F.);
#580 = ORIENTED_EDGE('',*,*,#300,.T.);
#581 = ORIENTED_EDGE('',*,*,#316,.T.);
#582 = TOROIDAL_SURFACE('',#583,5.393169790399,0.364269326606);
#583 = AXIS2_PLACEMENT_3D('',#584,#585,#586);
#584 = CARTESIAN_POINT('',(0.434210383155,0.,0.));
#585 = DIRECTION('',(-1.,-0.,-0.));
#586 = DIRECTION('',(-0.,0.,1.));
#587 = ADVANCED_FACE('',(#588),#594,.F.);
#588 = FACE_BOUND('',#589,.F.);
#589 = EDGE_LOOP('',(#590,#591,#592,#593));
#590 = ORIENTED_EDGE('',*,*,#232,.F.);
#591 = ORIENTED_EDGE('',*,*,#281,.F.);
#592 = ORIENTED_EDGE('',*,*,#323,.T.);
#593 = ORIENTED_EDGE('',*,*,#291,.T.);
#594 = TOROIDAL_SURFACE('',#595,4.25912379574,0.797240921162);
#595 = AXIS2_PLACEMENT_3D('',#596,#597,#598);
#596 = CARTESIAN_POINT('',(0.200602566711,0.,0.));
#597 = DIRECTION('',(-1.,-0.,-0.));
#598 = DIRECTION('',(-0.,0.,1.));
#599 = ADVANCED_FACE('',(#600),#606,.T.);
#600 = FACE_BOUND('',#601,.T.);
#601 = EDGE_LOOP('',(#602,#603,#604,#605));
#602 = ORIENTED_EDGE('',*,*,#54,.F.);
#603 = ORIENTED_EDGE('',*,*,#266,.F.);
#604 = ORIENTED_EDGE('',*,*,#504,.T.);
#605 = ORIENTED_EDGE('',*,*,#248,.T.);
#606 = TOROIDAL_SURFACE('',#607,4.66688226765,0.285747510525);
#607 = AXIS2_PLACEMENT_3D('',#608,#609,#610);
#608 = CARTESIAN_POINT('',(-0.802690497031,0.,0.));
#609 = DIRECTION('',(-1.,-0.,-0.));
#610 = DIRECTION('',(-0.,0.,1.));
#611 = ( GEOMETRIC_REPRESENTATION_CONTEXT(3) 
GLOBAL_UNCERTAINTY_ASSIGNED_CONTEXT((#615)) GLOBAL_UNIT_ASSIGNED_CONTEXT
((#612,#613,#614)) REPRESENTATION_CONTEXT('Context #1',
  '3D Context with UNIT and UNCERTAINTY') );
#612 = ( LENGTH_UNIT() NAMED_UNIT(*) SI_UNIT(.MILLI.,.METRE.) );
#613 = ( NAMED_UNIT(*) PLANE_ANGLE_UNIT() SI_UNIT($,.RADIAN.) );
#614 = ( NAMED_UNIT(*) SI_UNIT($,.STERADIAN.) SOLID_ANGLE_UNIT() );
#615 = UNCERTAINTY_MEASURE_WITH_UNIT(LENGTH_MEASURE(1.E-07),#612,
  'distance_accuracy_value','confusion accuracy');
#616 = CONTEXT_DEPENDENT_SHAPE_REPRESENTATION(#617,#619);
#617 = ( REPRESENTATION_RELATIONSHIP('','',#36,#10) 
REPRESENTATION_RELATIONSHIP_WITH_TRANSFORMATION(#618) 
SHAPE_REPRESENTATION_RELATIONSHIP() );
#618 = ITEM_DEFINED_TRANSFORMATION('','',#11,#15);
#619 = PRODUCT_DEFINITION_SHAPE('Placement','Placement of an item',#620
  );
#620 = NEXT_ASSEMBLY_USAGE_OCCURRENCE('1','M4GcapRingIncluded002','',#5,
  #31,$);
#621 = PRODUCT_RELATED_PRODUCT_CATEGORY('part',$,(#33));
#622 = SHAPE_DEFINITION_REPRESENTATION(#623,#629);
#623 = PRODUCT_DEFINITION_SHAPE('','',#624);
#624 = PRODUCT_DEFINITION('design','',#625,#628);
#625 = PRODUCT_DEFINITION_FORMATION('','',#626);
#626 = PRODUCT('print','print','',(#627));
#627 = PRODUCT_CONTEXT('',#2,'mechanical');
#628 = PRODUCT_DEFINITION_CONTEXT('part definition',#2,'design');
#629 = SHAPE_REPRESENTATION('',(#11,#630),#634);
#630 = AXIS2_PLACEMENT_3D('',#631,#632,#633);
#631 = CARTESIAN_POINT('',(0.,0.,0.));
#632 = DIRECTION('',(-1.,0.,0.));
#633 = DIRECTION('',(0.,0.,1.));
#634 = ( GEOMETRIC_REPRESENTATION_CONTEXT(3) 
GLOBAL_UNCERTAINTY_ASSIGNED_CONTEXT((#638)) GLOBAL_UNIT_ASSIGNED_CONTEXT
((#635,#636,#637)) REPRESENTATION_CONTEXT('Context #1',
  '3D Context with UNIT and UNCERTAINTY') );
#635 = ( LENGTH_UNIT() NAMED_UNIT(*) SI_UNIT(.MILLI.,.METRE.) );
#636 = ( NAMED_UNIT(*) PLANE_ANGLE_UNIT() SI_UNIT($,.RADIAN.) );
#637 = ( NAMED_UNIT(*) SI_UNIT($,.STERADIAN.) SOLID_ANGLE_UNIT() );
#638 = UNCERTAINTY_MEASURE_WITH_UNIT(LENGTH_MEASURE(5.E-06),#635,
  'distance_accuracy_value','confusion accuracy');
#639 = CONTEXT_DEPENDENT_SHAPE_REPRESENTATION(#640,#642);
#640 = ( REPRESENTATION_RELATIONSHIP('','',#629,#10) 
REPRESENTATION_RELATIONSHIP_WITH_TRANSFORMATION(#641) 
SHAPE_REPRESENTATION_RELATIONSHIP() );
#641 = ITEM_DEFINED_TRANSFORMATION('','',#11,#19);
#642 = PRODUCT_DEFINITION_SHAPE('Placement','Placement of an item',#643
  );
#643 = NEXT_ASSEMBLY_USAGE_OCCURRENCE('3','print001','',#5,#624,$);
#644 = PRODUCT_RELATED_PRODUCT_CATEGORY('part',$,(#626));
#645 = SHAPE_DEFINITION_REPRESENTATION(#646,#652);
#646 = PRODUCT_DEFINITION_SHAPE('','',#647);
#647 = PRODUCT_DEFINITION('design','',#648,#651);
#648 = PRODUCT_DEFINITION_FORMATION('','',#649);
#649 = PRODUCT('cap001','cap001','',(#650));
#650 = PRODUCT_CONTEXT('',#2,'mechanical');
#651 = PRODUCT_DEFINITION_CONTEXT('part definition',#2,'design');
#652 = ADVANCED_BREP_SHAPE_REPRESENTATION('',(#11,#653),#1738);
#653 = MANIFOLD_SOLID_BREP('',#654);
#654 = CLOSED_SHELL('',(#655,#699,#731,#755,#789,#807,#839,#857,#891,
    #909,#939,#957,#991,#1077,#1147,#1168,#1208,#1233,#1266,#1299,#1324,
    #1357,#1389,#1422,#1455,#1480,#1506,#1532,#1557,#1575,#1633,#1645,
    #1657,#1669,#1678,#1710,#1728));
#655 = ADVANCED_FACE('',(#656),#694,.F.);
#656 = FACE_BOUND('',#657,.F.);
#657 = EDGE_LOOP('',(#658,#669,#678,#687));
#658 = ORIENTED_EDGE('',*,*,#659,.T.);
#659 = EDGE_CURVE('',#660,#662,#664,.T.);
#660 = VERTEX_POINT('',#661);
#661 = CARTESIAN_POINT('',(-0.606542076191,5.,0.));
#662 = VERTEX_POINT('',#663);
#663 = CARTESIAN_POINT('',(-0.606542076191,-5.,1.E-15));
#664 = CIRCLE('',#665,5.);
#665 = AXIS2_PLACEMENT_3D('',#666,#667,#668);
#666 = CARTESIAN_POINT('',(-0.606542076191,0.,0.));
#667 = DIRECTION('',(1.,0.,0.));
#668 = DIRECTION('',(0.,1.,0.));
#669 = ORIENTED_EDGE('',*,*,#670,.T.);
#670 = EDGE_CURVE('',#662,#671,#673,.T.);
#671 = VERTEX_POINT('',#672);
#672 = CARTESIAN_POINT('',(-0.804971816574,-4.915368045157,1.E-15));
#673 = CIRCLE('',#674,0.274937107005);
#674 = AXIS2_PLACEMENT_3D('',#675,#676,#677);
#675 = CARTESIAN_POINT('',(-0.804971816574,-5.190305152162,6.4E-16));
#676 = DIRECTION('',(-0.,1.2E-16,1.));
#677 = DIRECTION('',(0.,-1.,1.2E-16));
#678 = ORIENTED_EDGE('',*,*,#679,.F.);
#679 = EDGE_CURVE('',#680,#671,#682,.T.);
#680 = VERTEX_POINT('',#681);
#681 = CARTESIAN_POINT('',(-0.804971816574,4.915368045157,0.));
#682 = CIRCLE('',#683,4.915368045157);
#683 = AXIS2_PLACEMENT_3D('',#684,#685,#686);
#684 = CARTESIAN_POINT('',(-0.804971816574,0.,0.));
#685 = DIRECTION('',(1.,0.,0.));
#686 = DIRECTION('',(0.,1.,0.));
#687 = ORIENTED_EDGE('',*,*,#688,.F.);
#688 = EDGE_CURVE('',#660,#680,#689,.T.);
#689 = CIRCLE('',#690,0.274937107005);
#690 = AXIS2_PLACEMENT_3D('',#691,#692,#693);
#691 = CARTESIAN_POINT('',(-0.804971816574,5.190305152162,0.));
#692 = DIRECTION('',(0.,0.,-1.));
#693 = DIRECTION('',(-1.,0.,0.));
#694 = TOROIDAL_SURFACE('',#695,5.190305152162,0.274937107005);
#695 = AXIS2_PLACEMENT_3D('',#696,#697,#698);
#696 = CARTESIAN_POINT('',(-0.804971816574,0.,0.));
#697 = DIRECTION('',(1.,0.,0.));
#698 = DIRECTION('',(0.,1.,0.));
#699 = ADVANCED_FACE('',(#700),#726,.T.);
#700 = FACE_BOUND('',#701,.T.);
#701 = EDGE_LOOP('',(#702,#703,#711,#720));
#702 = ORIENTED_EDGE('',*,*,#659,.T.);
#703 = ORIENTED_EDGE('',*,*,#704,.T.);
#704 = EDGE_CURVE('',#662,#705,#707,.T.);
#705 = VERTEX_POINT('',#706);
#706 = CARTESIAN_POINT('',(0.1,-5.7,1.E-15));
#707 = LINE('',#708,#709);
#708 = CARTESIAN_POINT('',(-0.606542076191,-5.,6.1E-16));
#709 = VECTOR('',#710,1.);
#710 = DIRECTION('',(0.710387975973,-0.703810289491,9.E-17));
#711 = ORIENTED_EDGE('',*,*,#712,.F.);
#712 = EDGE_CURVE('',#713,#705,#715,.T.);
#713 = VERTEX_POINT('',#714);
#714 = CARTESIAN_POINT('',(0.1,5.7,0.));
#715 = CIRCLE('',#716,5.7);
#716 = AXIS2_PLACEMENT_3D('',#717,#718,#719);
#717 = CARTESIAN_POINT('',(1.E-01,0.,0.));
#718 = DIRECTION('',(1.,0.,0.));
#719 = DIRECTION('',(0.,1.,0.));
#720 = ORIENTED_EDGE('',*,*,#721,.F.);
#721 = EDGE_CURVE('',#660,#713,#722,.T.);
#722 = LINE('',#723,#724);
#723 = CARTESIAN_POINT('',(-0.606542076191,5.,0.));
#724 = VECTOR('',#725,1.);
#725 = DIRECTION('',(0.710387975973,0.703810289491,0.));
#726 = CONICAL_SURFACE('',#727,5.,0.780747019911);
#727 = AXIS2_PLACEMENT_3D('',#728,#729,#730);
#728 = CARTESIAN_POINT('',(-0.606542076191,0.,0.));
#729 = DIRECTION('',(1.,0.,0.));
#730 = DIRECTION('',(0.,1.,0.));
#731 = ADVANCED_FACE('',(#732),#750,.F.);
#732 = FACE_BOUND('',#733,.F.);
#733 = EDGE_LOOP('',(#734,#741,#742,#749));
#734 = ORIENTED_EDGE('',*,*,#735,.T.);
#735 = EDGE_CURVE('',#662,#660,#736,.T.);
#736 = CIRCLE('',#737,5.);
#737 = AXIS2_PLACEMENT_3D('',#738,#739,#740);
#738 = CARTESIAN_POINT('',(-0.606542076191,0.,0.));
#739 = DIRECTION('',(1.,0.,0.));
#740 = DIRECTION('',(0.,1.,0.));
#741 = ORIENTED_EDGE('',*,*,#688,.T.);
#742 = ORIENTED_EDGE('',*,*,#743,.F.);
#743 = EDGE_CURVE('',#671,#680,#744,.T.);
#744 = CIRCLE('',#745,4.915368045157);
#745 = AXIS2_PLACEMENT_3D('',#746,#747,#748);
#746 = CARTESIAN_POINT('',(-0.804971816574,0.,0.));
#747 = DIRECTION('',(1.,0.,0.));
#748 = DIRECTION('',(0.,1.,0.));
#749 = ORIENTED_EDGE('',*,*,#670,.F.);
#750 = TOROIDAL_SURFACE('',#751,5.190305152162,0.274937107005);
#751 = AXIS2_PLACEMENT_3D('',#752,#753,#754);
#752 = CARTESIAN_POINT('',(-0.804971816574,0.,0.));
#753 = DIRECTION('',(1.,0.,0.));
#754 = DIRECTION('',(0.,1.,0.));
#755 = ADVANCED_FACE('',(#756),#784,.F.);
#756 = FACE_BOUND('',#757,.F.);
#757 = EDGE_LOOP('',(#758,#767,#776,#783));
#758 = ORIENTED_EDGE('',*,*,#759,.T.);
#759 = EDGE_CURVE('',#671,#760,#762,.T.);
#760 = VERTEX_POINT('',#761);
#761 = CARTESIAN_POINT('',(-1.076578297678,-5.232970503802,1.E-15));
#762 = CIRCLE('',#763,0.274937107005);
#763 = AXIS2_PLACEMENT_3D('',#764,#765,#766);
#764 = CARTESIAN_POINT('',(-0.804971816574,-5.190305152162,6.4E-16));
#765 = DIRECTION('',(-0.,1.2E-16,1.));
#766 = DIRECTION('',(0.,-1.,1.2E-16));
#767 = ORIENTED_EDGE('',*,*,#768,.F.);
#768 = EDGE_CURVE('',#769,#760,#771,.T.);
#769 = VERTEX_POINT('',#770);
#770 = CARTESIAN_POINT('',(-1.076578297678,5.232970503802,0.));
#771 = CIRCLE('',#772,5.232970503802);
#772 = AXIS2_PLACEMENT_3D('',#773,#774,#775);
#773 = CARTESIAN_POINT('',(-1.076578297678,0.,0.));
#774 = DIRECTION('',(1.,0.,0.));
#775 = DIRECTION('',(0.,1.,0.));
#776 = ORIENTED_EDGE('',*,*,#777,.F.);
#777 = EDGE_CURVE('',#680,#769,#778,.T.);
#778 = CIRCLE('',#779,0.274937107005);
#779 = AXIS2_PLACEMENT_3D('',#780,#781,#782);
#780 = CARTESIAN_POINT('',(-0.804971816574,5.190305152162,0.));
#781 = DIRECTION('',(0.,0.,-1.));
#782 = DIRECTION('',(-1.,0.,0.));
#783 = ORIENTED_EDGE('',*,*,#679,.T.);
#784 = TOROIDAL_SURFACE('',#785,5.190305152162,0.274937107005);
#785 = AXIS2_PLACEMENT_3D('',#786,#787,#788);
#786 = CARTESIAN_POINT('',(-0.804971816574,0.,0.));
#787 = DIRECTION('',(1.,0.,0.));
#788 = DIRECTION('',(0.,1.,0.));
#789 = ADVANCED_FACE('',(#790),#802,.T.);
#790 = FACE_BOUND('',#791,.T.);
#791 = EDGE_LOOP('',(#792,#793,#794,#795));
#792 = ORIENTED_EDGE('',*,*,#704,.F.);
#793 = ORIENTED_EDGE('',*,*,#735,.T.);
#794 = ORIENTED_EDGE('',*,*,#721,.T.);
#795 = ORIENTED_EDGE('',*,*,#796,.F.);
#796 = EDGE_CURVE('',#705,#713,#797,.T.);
#797 = CIRCLE('',#798,5.7);
#798 = AXIS2_PLACEMENT_3D('',#799,#800,#801);
#799 = CARTESIAN_POINT('',(1.E-01,0.,0.));
#800 = DIRECTION('',(1.,0.,0.));
#801 = DIRECTION('',(0.,1.,0.));
#802 = CONICAL_SURFACE('',#803,5.,0.780747019911);
#803 = AXIS2_PLACEMENT_3D('',#804,#805,#806);
#804 = CARTESIAN_POINT('',(-0.606542076191,0.,0.));
#805 = DIRECTION('',(1.,0.,0.));
#806 = DIRECTION('',(0.,1.,0.));
#807 = ADVANCED_FACE('',(#808),#834,.T.);
#808 = FACE_BOUND('',#809,.T.);
#809 = EDGE_LOOP('',(#810,#821,#827,#828));
#810 = ORIENTED_EDGE('',*,*,#811,.F.);
#811 = EDGE_CURVE('',#812,#814,#816,.T.);
#812 = VERTEX_POINT('',#813);
#813 = CARTESIAN_POINT('',(0.3,5.5,1.E-15));
#814 = VERTEX_POINT('',#815);
#815 = CARTESIAN_POINT('',(0.3,-5.5,0.));
#816 = CIRCLE('',#817,5.5);
#817 = AXIS2_PLACEMENT_3D('',#818,#819,#820);
#818 = CARTESIAN_POINT('',(0.3,0.,0.));
#819 = DIRECTION('',(1.,0.,0.));
#820 = DIRECTION('',(0.,1.,0.));
#821 = ORIENTED_EDGE('',*,*,#822,.T.);
#822 = EDGE_CURVE('',#812,#713,#823,.T.);
#823 = LINE('',#824,#825);
#824 = CARTESIAN_POINT('',(1.E-01,5.7,7.E-16));
#825 = VECTOR('',#826,1.);
#826 = DIRECTION('',(-0.707106781187,0.707106781187,9.E-17));
#827 = ORIENTED_EDGE('',*,*,#712,.T.);
#828 = ORIENTED_EDGE('',*,*,#829,.F.);
#829 = EDGE_CURVE('',#814,#705,#830,.T.);
#830 = LINE('',#831,#832);
#831 = CARTESIAN_POINT('',(1.E-01,-5.7,0.));
#832 = VECTOR('',#833,1.);
#833 = DIRECTION('',(-0.707106781187,-0.707106781187,0.));
#834 = CONICAL_SURFACE('',#835,5.7,0.785398163397);
#835 = AXIS2_PLACEMENT_3D('',#836,#837,#838);
#836 = CARTESIAN_POINT('',(1.E-01,0.,0.));
#837 = DIRECTION('',(-1.,0.,0.));
#838 = DIRECTION('',(0.,-1.,0.));
#839 = ADVANCED_FACE('',(#840),#852,.F.);
#840 = FACE_BOUND('',#841,.F.);
#841 = EDGE_LOOP('',(#842,#843,#850,#851));
#842 = ORIENTED_EDGE('',*,*,#777,.T.);
#843 = ORIENTED_EDGE('',*,*,#844,.F.);
#844 = EDGE_CURVE('',#760,#769,#845,.T.);
#845 = CIRCLE('',#846,5.232970503802);
#846 = AXIS2_PLACEMENT_3D('',#847,#848,#849);
#847 = CARTESIAN_POINT('',(-1.076578297678,0.,0.));
#848 = DIRECTION('',(1.,0.,0.));
#849 = DIRECTION('',(0.,1.,0.));
#850 = ORIENTED_EDGE('',*,*,#759,.F.);
#851 = ORIENTED_EDGE('',*,*,#743,.T.);
#852 = TOROIDAL_SURFACE('',#853,5.190305152162,0.274937107005);
#853 = AXIS2_PLACEMENT_3D('',#854,#855,#856);
#854 = CARTESIAN_POINT('',(-0.804971816574,0.,0.));
#855 = DIRECTION('',(1.,0.,0.));
#856 = DIRECTION('',(0.,1.,0.));
#857 = ADVANCED_FACE('',(#858),#886,.T.);
#858 = FACE_BOUND('',#859,.T.);
#859 = EDGE_LOOP('',(#860,#871,#878,#879));
#860 = ORIENTED_EDGE('',*,*,#861,.T.);
#861 = EDGE_CURVE('',#862,#864,#866,.T.);
#862 = VERTEX_POINT('',#863);
#863 = CARTESIAN_POINT('',(-1.128012860552,6.06688226765,0.));
#864 = VERTEX_POINT('',#865);
#865 = CARTESIAN_POINT('',(-1.128012860552,-6.06688226765,1.E-15));
#866 = CIRCLE('',#867,6.06688226765);
#867 = AXIS2_PLACEMENT_3D('',#868,#869,#870);
#868 = CARTESIAN_POINT('',(-1.128012860552,0.,0.));
#869 = DIRECTION('',(1.,0.,0.));
#870 = DIRECTION('',(0.,1.,0.));
#871 = ORIENTED_EDGE('',*,*,#872,.T.);
#872 = EDGE_CURVE('',#864,#760,#873,.T.);
#873 = CIRCLE('',#874,1.936675385984);
#874 = AXIS2_PLACEMENT_3D('',#875,#876,#877);
#875 = CARTESIAN_POINT('',(-2.989792531864,-5.533508096766,6.8E-16));
#876 = DIRECTION('',(-0.,1.2E-16,1.));
#877 = DIRECTION('',(0.,-1.,1.2E-16));
#878 = ORIENTED_EDGE('',*,*,#768,.F.);
#879 = ORIENTED_EDGE('',*,*,#880,.F.);
#880 = EDGE_CURVE('',#862,#769,#881,.T.);
#881 = CIRCLE('',#882,1.936675385984);
#882 = AXIS2_PLACEMENT_3D('',#883,#884,#885);
#883 = CARTESIAN_POINT('',(-2.989792531864,5.533508096766,0.));
#884 = DIRECTION('',(0.,0.,-1.));
#885 = DIRECTION('',(-1.,0.,0.));
#886 = TOROIDAL_SURFACE('',#887,5.533508096766,1.936675385984);
#887 = AXIS2_PLACEMENT_3D('',#888,#889,#890);
#888 = CARTESIAN_POINT('',(-2.989792531864,0.,0.));
#889 = DIRECTION('',(1.,0.,0.));
#890 = DIRECTION('',(0.,1.,0.));
#891 = ADVANCED_FACE('',(#892),#904,.T.);
#892 = FACE_BOUND('',#893,.T.);
#893 = EDGE_LOOP('',(#894,#895,#902,#903));
#894 = ORIENTED_EDGE('',*,*,#822,.F.);
#895 = ORIENTED_EDGE('',*,*,#896,.F.);
#896 = EDGE_CURVE('',#814,#812,#897,.T.);
#897 = CIRCLE('',#898,5.5);
#898 = AXIS2_PLACEMENT_3D('',#899,#900,#901);
#899 = CARTESIAN_POINT('',(0.3,0.,0.));
#900 = DIRECTION('',(1.,0.,0.));
#901 = DIRECTION('',(0.,1.,0.));
#902 = ORIENTED_EDGE('',*,*,#829,.T.);
#903 = ORIENTED_EDGE('',*,*,#796,.T.);
#904 = CONICAL_SURFACE('',#905,5.7,0.785398163397);
#905 = AXIS2_PLACEMENT_3D('',#906,#907,#908);
#906 = CARTESIAN_POINT('',(1.E-01,0.,0.));
#907 = DIRECTION('',(-1.,0.,0.));
#908 = DIRECTION('',(0.,-1.,0.));
#909 = ADVANCED_FACE('',(#910,#930),#934,.F.);
#910 = FACE_BOUND('',#911,.T.);
#911 = EDGE_LOOP('',(#912,#923));
#912 = ORIENTED_EDGE('',*,*,#913,.F.);
#913 = EDGE_CURVE('',#914,#916,#918,.T.);
#914 = VERTEX_POINT('',#915);
#915 = CARTESIAN_POINT('',(0.3,5.,0.));
#916 = VERTEX_POINT('',#917);
#917 = CARTESIAN_POINT('',(0.3,-5.,1.E-15));
#918 = CIRCLE('',#919,5.);
#919 = AXIS2_PLACEMENT_3D('',#920,#921,#922);
#920 = CARTESIAN_POINT('',(0.3,0.,0.));
#921 = DIRECTION('',(1.,0.,0.));
#922 = DIRECTION('',(0.,1.,0.));
#923 = ORIENTED_EDGE('',*,*,#924,.F.);
#924 = EDGE_CURVE('',#916,#914,#925,.T.);
#925 = CIRCLE('',#926,5.);
#926 = AXIS2_PLACEMENT_3D('',#927,#928,#929);
#927 = CARTESIAN_POINT('',(0.3,0.,0.));
#928 = DIRECTION('',(1.,0.,0.));
#929 = DIRECTION('',(0.,1.,0.));
#930 = FACE_BOUND('',#931,.T.);
#931 = EDGE_LOOP('',(#932,#933));
#932 = ORIENTED_EDGE('',*,*,#896,.T.);
#933 = ORIENTED_EDGE('',*,*,#811,.T.);
#934 = PLANE('',#935);
#935 = AXIS2_PLACEMENT_3D('',#936,#937,#938);
#936 = CARTESIAN_POINT('',(0.3,5.5,0.));
#937 = DIRECTION('',(-1.,0.,0.));
#938 = DIRECTION('',(0.,-1.,0.));
#939 = ADVANCED_FACE('',(#940),#952,.T.);
#940 = FACE_BOUND('',#941,.T.);
#941 = EDGE_LOOP('',(#942,#943,#950,#951));
#942 = ORIENTED_EDGE('',*,*,#872,.F.);
#943 = ORIENTED_EDGE('',*,*,#944,.T.);
#944 = EDGE_CURVE('',#864,#862,#945,.T.);
#945 = CIRCLE('',#946,6.06688226765);
#946 = AXIS2_PLACEMENT_3D('',#947,#948,#949);
#947 = CARTESIAN_POINT('',(-1.128012860552,0.,0.));
#948 = DIRECTION('',(1.,0.,0.));
#949 = DIRECTION('',(0.,1.,0.));
#950 = ORIENTED_EDGE('',*,*,#880,.T.);
#951 = ORIENTED_EDGE('',*,*,#844,.F.);
#952 = TOROIDAL_SURFACE('',#953,5.533508096766,1.936675385984);
#953 = AXIS2_PLACEMENT_3D('',#954,#955,#956);
#954 = CARTESIAN_POINT('',(-2.989792531864,0.,0.));
#955 = DIRECTION('',(1.,0.,0.));
#956 = DIRECTION('',(0.,1.,0.));
#957 = ADVANCED_FACE('',(#958),#986,.T.);
#958 = FACE_BOUND('',#959,.T.);
#959 = EDGE_LOOP('',(#960,#961,#962,#969,#978,#985));
#960 = ORIENTED_EDGE('',*,*,#944,.F.);
#961 = ORIENTED_EDGE('',*,*,#861,.F.);
#962 = ORIENTED_EDGE('',*,*,#963,.F.);
#963 = EDGE_CURVE('',#964,#862,#966,.T.);
#964 = VERTEX_POINT('',#965);
#965 = CARTESIAN_POINT('',(-5.2,6.06688226765,0.));
#966 = B_SPLINE_CURVE_WITH_KNOTS('',1,(#967,#968),.UNSPECIFIED.,.F.,.F.,
  (2,2),(-3.9,0.171987139448),.PIECEWISE_BEZIER_KNOTS.);
#967 = CARTESIAN_POINT('',(-5.2,6.06688226765,-1.49E-15));
#968 = CARTESIAN_POINT('',(-1.128012860552,6.06688226765,-1.49E-15));
#969 = ORIENTED_EDGE('',*,*,#970,.F.);
#970 = EDGE_CURVE('',#971,#964,#973,.T.);
#971 = VERTEX_POINT('',#972);
#972 = CARTESIAN_POINT('',(-5.2,-6.06688226765,1.E-15));
#973 = CIRCLE('',#974,6.06688226765);
#974 = AXIS2_PLACEMENT_3D('',#975,#976,#977);
#975 = CARTESIAN_POINT('',(-5.2,0.,0.));
#976 = DIRECTION('',(-1.,0.,0.));
#977 = DIRECTION('',(0.,-1.,0.));
#978 = ORIENTED_EDGE('',*,*,#979,.F.);
#979 = EDGE_CURVE('',#964,#971,#980,.T.);
#980 = CIRCLE('',#981,6.06688226765);
#981 = AXIS2_PLACEMENT_3D('',#982,#983,#984);
#982 = CARTESIAN_POINT('',(-5.2,0.,0.));
#983 = DIRECTION('',(-1.,0.,0.));
#984 = DIRECTION('',(0.,-1.,0.));
#985 = ORIENTED_EDGE('',*,*,#963,.T.);
#986 = CYLINDRICAL_SURFACE('',#987,6.06688226765);
#987 = AXIS2_PLACEMENT_3D('',#988,#989,#990);
#988 = CARTESIAN_POINT('',(-1.3,0.,0.));
#989 = DIRECTION('',(1.,0.,0.));
#990 = DIRECTION('',(0.,1.,0.));
#991 = ADVANCED_FACE('',(#992),#1065,.F.);
#992 = FACE_BOUND('',#993,.F.);
#993 = EDGE_LOOP('',(#994,#995,#1004,#1013,#1022,#1031,#1040,#1049,#1058
    ));
#994 = ORIENTED_EDGE('',*,*,#913,.F.);
#995 = ORIENTED_EDGE('',*,*,#996,.F.);
#996 = EDGE_CURVE('',#997,#914,#999,.T.);
#997 = VERTEX_POINT('',#998);
#998 = CARTESIAN_POINT('',(-1.270333075652,2.828226784338,0.));
#999 = CIRCLE('',#1000,2.887600731873);
#1000 = AXIS2_PLACEMENT_3D('',#1001,#1002,#1003);
#1001 = CARTESIAN_POINT('',(1.587600731873,2.415368045157,0.));
#1002 = DIRECTION('',(0.,0.,-1.));
#1003 = DIRECTION('',(-1.,0.,0.));
#1004 = ORIENTED_EDGE('',*,*,#1005,.F.);
#1005 = EDGE_CURVE('',#1006,#997,#1008,.T.);
#1006 = VERTEX_POINT('',#1007);
#1007 = CARTESIAN_POINT('',(-1.3,2.36913193608,0.470336754901));
#1008 = B_SPLINE_CURVE_WITH_KNOTS('',3,(#1009,#1010,#1011,#1012),
  .UNSPECIFIED.,.F.,.F.,(4,4),(6.704351088914E-04,1.327935701332E-03),
  .PIECEWISE_BEZIER_KNOTS.);
#1009 = CARTESIAN_POINT('',(-1.3,2.36913193608,0.470336754901));
#1010 = CARTESIAN_POINT('',(-1.3,2.524115338588,0.315353352393));
#1011 = CARTESIAN_POINT('',(-1.292101403542,2.677539795537,
    0.158935821981));
#1012 = CARTESIAN_POINT('',(-1.270333075652,2.828226784338,-8.E-17));
#1013 = ORIENTED_EDGE('',*,*,#1014,.T.);
#1014 = EDGE_CURVE('',#1006,#1015,#1017,.T.);
#1015 = VERTEX_POINT('',#1016);
#1016 = CARTESIAN_POINT('',(-1.3,0.470336754901,2.36913193608));
#1017 = CIRCLE('',#1018,2.415368045157);
#1018 = AXIS2_PLACEMENT_3D('',#1019,#1020,#1021);
#1019 = CARTESIAN_POINT('',(-1.3,0.,0.));
#1020 = DIRECTION('',(1.,0.,0.));
#1021 = DIRECTION('',(0.,1.,0.));
#1022 = ORIENTED_EDGE('',*,*,#1023,.T.);
#1023 = EDGE_CURVE('',#1015,#1024,#1026,.T.);
#1024 = VERTEX_POINT('',#1025);
#1025 = CARTESIAN_POINT('',(-1.270333075652,-1.E-15,2.828226784338));
#1026 = B_SPLINE_CURVE_WITH_KNOTS('',3,(#1027,#1028,#1029,#1030),
  .UNSPECIFIED.,.F.,.F.,(4,4),(6.704351088914E-04,1.327935701332E-03),
  .PIECEWISE_BEZIER_KNOTS.);
#1027 = CARTESIAN_POINT('',(-1.3,0.470336754901,2.36913193608));
#1028 = CARTESIAN_POINT('',(-1.3,0.315353352393,2.524115338588));
#1029 = CARTESIAN_POINT('',(-1.292101403542,0.158935821981,
    2.677539795537));
#1030 = CARTESIAN_POINT('',(-1.270333075652,-8.E-16,2.828226784338));
#1031 = ORIENTED_EDGE('',*,*,#1032,.F.);
#1032 = EDGE_CURVE('',#1033,#1024,#1035,.T.);
#1033 = VERTEX_POINT('',#1034);
#1034 = CARTESIAN_POINT('',(-1.3,-0.470336754901,2.36913193608));
#1035 = B_SPLINE_CURVE_WITH_KNOTS('',3,(#1036,#1037,#1038,#1039),
  .UNSPECIFIED.,.F.,.F.,(4,4),(6.704351088914E-04,1.327935701332E-03),
  .PIECEWISE_BEZIER_KNOTS.);
#1036 = CARTESIAN_POINT('',(-1.3,-0.470336754901,2.36913193608));
#1037 = CARTESIAN_POINT('',(-1.3,-0.315353352393,2.524115338588));
#1038 = CARTESIAN_POINT('',(-1.292101403542,-0.158935821981,
    2.677539795537));
#1039 = CARTESIAN_POINT('',(-1.270333075652,-8.E-16,2.828226784338));
#1040 = ORIENTED_EDGE('',*,*,#1041,.T.);
#1041 = EDGE_CURVE('',#1033,#1042,#1044,.T.);
#1042 = VERTEX_POINT('',#1043);
#1043 = CARTESIAN_POINT('',(-1.3,-2.36913193608,0.470336754901));
#1044 = CIRCLE('',#1045,2.415368045157);
#1045 = AXIS2_PLACEMENT_3D('',#1046,#1047,#1048);
#1046 = CARTESIAN_POINT('',(-1.3,0.,0.));
#1047 = DIRECTION('',(1.,0.,0.));
#1048 = DIRECTION('',(0.,1.,0.));
#1049 = ORIENTED_EDGE('',*,*,#1050,.T.);
#1050 = EDGE_CURVE('',#1042,#1051,#1053,.T.);
#1051 = VERTEX_POINT('',#1052);
#1052 = CARTESIAN_POINT('',(-1.270333075652,-2.828226784338,-0.));
#1053 = B_SPLINE_CURVE_WITH_KNOTS('',3,(#1054,#1055,#1056,#1057),
  .UNSPECIFIED.,.F.,.F.,(4,4),(6.704351088914E-04,1.327935701332E-03),
  .PIECEWISE_BEZIER_KNOTS.);
#1054 = CARTESIAN_POINT('',(-1.3,-2.36913193608,0.470336754901));
#1055 = CARTESIAN_POINT('',(-1.3,-2.524115338588,0.315353352393));
#1056 = CARTESIAN_POINT('',(-1.292101403542,-2.677539795537,
    0.158935821981));
#1057 = CARTESIAN_POINT('',(-1.270333075652,-2.828226784338,-2.2E-16));
#1058 = ORIENTED_EDGE('',*,*,#1059,.T.);
#1059 = EDGE_CURVE('',#1051,#916,#1060,.T.);
#1060 = CIRCLE('',#1061,2.887600731873);
#1061 = AXIS2_PLACEMENT_3D('',#1062,#1063,#1064);
#1062 = CARTESIAN_POINT('',(1.587600731873,-2.415368045157,3.E-16));
#1063 = DIRECTION('',(-0.,1.2E-16,1.));
#1064 = DIRECTION('',(0.,-1.,1.2E-16));
#1065 = SURFACE_OF_REVOLUTION('',#1066,#1074);
#1066 = B_SPLINE_CURVE_WITH_KNOTS('',6,(#1067,#1068,#1069,#1070,#1071,
    #1072,#1073),.UNSPECIFIED.,.F.,.F.,(7,7),(4.712388980385,
    5.820998234354),.PIECEWISE_BEZIER_KNOTS.);
#1067 = CARTESIAN_POINT('',(-1.3,2.415368045157,0.));
#1068 = CARTESIAN_POINT('',(-1.3,2.948904860678,0.));
#1069 = CARTESIAN_POINT('',(-1.181706802002,3.482435118759,0.));
#1070 = CARTESIAN_POINT('',(-0.945096651497,3.983218278456,0.));
#1071 = CARTESIAN_POINT('',(-0.602362026478,4.418305756064,0.));
#1072 = CARTESIAN_POINT('',(-0.177557817207,4.762092318871,0.));
#1073 = CARTESIAN_POINT('',(0.3,5.,0.));
#1074 = AXIS1_PLACEMENT('',#1075,#1076);
#1075 = CARTESIAN_POINT('',(1.587600731873,0.,0.));
#1076 = DIRECTION('',(1.,0.,0.));
#1077 = ADVANCED_FACE('',(#1078),#1135,.F.);
#1078 = FACE_BOUND('',#1079,.F.);
#1079 = EDGE_LOOP('',(#1080,#1091,#1100,#1109,#1118,#1125,#1126,#1127,
    #1128));
#1080 = ORIENTED_EDGE('',*,*,#1081,.T.);
#1081 = EDGE_CURVE('',#1082,#1084,#1086,.T.);
#1082 = VERTEX_POINT('',#1083);
#1083 = CARTESIAN_POINT('',(-1.3,-2.36913193608,-0.470336754901));
#1084 = VERTEX_POINT('',#1085);
#1085 = CARTESIAN_POINT('',(-1.3,-0.470336754901,-2.36913193608));
#1086 = CIRCLE('',#1087,2.415368045157);
#1087 = AXIS2_PLACEMENT_3D('',#1088,#1089,#1090);
#1088 = CARTESIAN_POINT('',(-1.3,0.,0.));
#1089 = DIRECTION('',(1.,0.,0.));
#1090 = DIRECTION('',(0.,1.,0.));
#1091 = ORIENTED_EDGE('',*,*,#1092,.T.);
#1092 = EDGE_CURVE('',#1084,#1093,#1095,.T.);
#1093 = VERTEX_POINT('',#1094);
#1094 = CARTESIAN_POINT('',(-1.270333075652,-0.,-2.828226784338));
#1095 = B_SPLINE_CURVE_WITH_KNOTS('',3,(#1096,#1097,#1098,#1099),
  .UNSPECIFIED.,.F.,.F.,(4,4),(6.704351088914E-04,1.327935701332E-03),
  .PIECEWISE_BEZIER_KNOTS.);
#1096 = CARTESIAN_POINT('',(-1.3,-0.470336754901,-2.36913193608));
#1097 = CARTESIAN_POINT('',(-1.3,-0.315353352393,-2.524115338588));
#1098 = CARTESIAN_POINT('',(-1.292101403542,-0.158935821981,
    -2.677539795537));
#1099 = CARTESIAN_POINT('',(-1.270333075652,-1.5E-16,-2.828226784338));
#1100 = ORIENTED_EDGE('',*,*,#1101,.F.);
#1101 = EDGE_CURVE('',#1102,#1093,#1104,.T.);
#1102 = VERTEX_POINT('',#1103);
#1103 = CARTESIAN_POINT('',(-1.3,0.470336754901,-2.36913193608));
#1104 = B_SPLINE_CURVE_WITH_KNOTS('',3,(#1105,#1106,#1107,#1108),
  .UNSPECIFIED.,.F.,.F.,(4,4),(6.704351088914E-04,1.327935701332E-03),
  .PIECEWISE_BEZIER_KNOTS.);
#1105 = CARTESIAN_POINT('',(-1.3,0.470336754901,-2.36913193608));
#1106 = CARTESIAN_POINT('',(-1.3,0.315353352393,-2.524115338588));
#1107 = CARTESIAN_POINT('',(-1.292101403542,0.158935821981,
    -2.677539795537));
#1108 = CARTESIAN_POINT('',(-1.270333075652,-1.5E-16,-2.828226784338));
#1109 = ORIENTED_EDGE('',*,*,#1110,.T.);
#1110 = EDGE_CURVE('',#1102,#1111,#1113,.T.);
#1111 = VERTEX_POINT('',#1112);
#1112 = CARTESIAN_POINT('',(-1.3,2.36913193608,-0.470336754901));
#1113 = CIRCLE('',#1114,2.415368045157);
#1114 = AXIS2_PLACEMENT_3D('',#1115,#1116,#1117);
#1115 = CARTESIAN_POINT('',(-1.3,0.,0.));
#1116 = DIRECTION('',(1.,0.,0.));
#1117 = DIRECTION('',(0.,1.,0.));
#1118 = ORIENTED_EDGE('',*,*,#1119,.T.);
#1119 = EDGE_CURVE('',#1111,#997,#1120,.T.);
#1120 = B_SPLINE_CURVE_WITH_KNOTS('',3,(#1121,#1122,#1123,#1124),
  .UNSPECIFIED.,.F.,.F.,(4,4),(6.704351088914E-04,1.327935701332E-03),
  .PIECEWISE_BEZIER_KNOTS.);
#1121 = CARTESIAN_POINT('',(-1.3,2.36913193608,-0.470336754901));
#1122 = CARTESIAN_POINT('',(-1.3,2.524115338588,-0.315353352393));
#1123 = CARTESIAN_POINT('',(-1.292101403542,2.677539795537,
    -0.158935821981));
#1124 = CARTESIAN_POINT('',(-1.270333075652,2.828226784338,-8.E-17));
#1125 = ORIENTED_EDGE('',*,*,#996,.T.);
#1126 = ORIENTED_EDGE('',*,*,#924,.F.);
#1127 = ORIENTED_EDGE('',*,*,#1059,.F.);
#1128 = ORIENTED_EDGE('',*,*,#1129,.F.);
#1129 = EDGE_CURVE('',#1082,#1051,#1130,.T.);
#1130 = B_SPLINE_CURVE_WITH_KNOTS('',3,(#1131,#1132,#1133,#1134),
  .UNSPECIFIED.,.F.,.F.,(4,4),(6.704351088914E-04,1.327935701332E-03),
  .PIECEWISE_BEZIER_KNOTS.);
#1131 = CARTESIAN_POINT('',(-1.3,-2.36913193608,-0.470336754901));
#1132 = CARTESIAN_POINT('',(-1.3,-2.524115338588,-0.315353352393));
#1133 = CARTESIAN_POINT('',(-1.292101403542,-2.677539795537,
    -0.158935821981));
#1134 = CARTESIAN_POINT('',(-1.270333075652,-2.828226784338,-2.2E-16));
#1135 = SURFACE_OF_REVOLUTION('',#1136,#1144);
#1136 = B_SPLINE_CURVE_WITH_KNOTS('',6,(#1137,#1138,#1139,#1140,#1141,
    #1142,#1143),.UNSPECIFIED.,.F.,.F.,(7,7),(4.712388980385,
    5.820998234354),.PIECEWISE_BEZIER_KNOTS.);
#1137 = CARTESIAN_POINT('',(-1.3,2.415368045157,0.));
#1138 = CARTESIAN_POINT('',(-1.3,2.948904860678,0.));
#1139 = CARTESIAN_POINT('',(-1.181706802002,3.482435118759,0.));
#1140 = CARTESIAN_POINT('',(-0.945096651497,3.983218278456,0.));
#1141 = CARTESIAN_POINT('',(-0.602362026478,4.418305756064,0.));
#1142 = CARTESIAN_POINT('',(-0.177557817207,4.762092318871,0.));
#1143 = CARTESIAN_POINT('',(0.3,5.,0.));
#1144 = AXIS1_PLACEMENT('',#1145,#1146);
#1145 = CARTESIAN_POINT('',(1.587600731873,0.,0.));
#1146 = DIRECTION('',(1.,0.,0.));
#1147 = ADVANCED_FACE('',(#1148,#1152),#1163,.T.);
#1148 = FACE_BOUND('',#1149,.T.);
#1149 = EDGE_LOOP('',(#1150,#1151));
#1150 = ORIENTED_EDGE('',*,*,#979,.T.);
#1151 = ORIENTED_EDGE('',*,*,#970,.T.);
#1152 = FACE_BOUND('',#1153,.T.);
#1153 = EDGE_LOOP('',(#1154));
#1154 = ORIENTED_EDGE('',*,*,#1155,.F.);
#1155 = EDGE_CURVE('',#1156,#1156,#1158,.T.);
#1156 = VERTEX_POINT('',#1157);
#1157 = CARTESIAN_POINT('',(-5.2,-2.05,0.));
#1158 = CIRCLE('',#1159,2.05);
#1159 = AXIS2_PLACEMENT_3D('',#1160,#1161,#1162);
#1160 = CARTESIAN_POINT('',(-5.2,0.,0.));
#1161 = DIRECTION('',(-1.,0.,0.));
#1162 = DIRECTION('',(0.,-1.,0.));
#1163 = PLANE('',#1164);
#1164 = AXIS2_PLACEMENT_3D('',#1165,#1166,#1167);
#1165 = CARTESIAN_POINT('',(-5.2,4.9E-16,-4.E-17));
#1166 = DIRECTION('',(-1.,-0.,-0.));
#1167 = DIRECTION('',(0.,0.,-1.));
#1168 = ADVANCED_FACE('',(#1169),#1203,.T.);
#1169 = FACE_BOUND('',#1170,.T.);
#1170 = EDGE_LOOP('',(#1171,#1172,#1180,#1189,#1197));
#1171 = ORIENTED_EDGE('',*,*,#1005,.F.);
#1172 = ORIENTED_EDGE('',*,*,#1173,.T.);
#1173 = EDGE_CURVE('',#1006,#1174,#1176,.T.);
#1174 = VERTEX_POINT('',#1175);
#1175 = CARTESIAN_POINT('',(-1.3,2.349440959555,0.490027731427));
#1176 = LINE('',#1177,#1178);
#1177 = CARTESIAN_POINT('',(-1.3,1.419734345491,1.419734345491));
#1178 = VECTOR('',#1179,1.);
#1179 = DIRECTION('',(0.,-0.707106781187,0.707106781187));
#1180 = ORIENTED_EDGE('',*,*,#1181,.T.);
#1181 = EDGE_CURVE('',#1174,#1182,#1184,.T.);
#1182 = VERTEX_POINT('',#1183);
#1183 = CARTESIAN_POINT('',(-0.8,2.20569574769,0.44430425231));
#1184 = B_SPLINE_CURVE_WITH_KNOTS('',3,(#1185,#1186,#1187,#1188),
  .UNSPECIFIED.,.F.,.F.,(4,4),(2.0889804721E-07,5.224668060548E-04),
  .PIECEWISE_BEZIER_KNOTS.);
#1185 = CARTESIAN_POINT('',(-1.3,2.349440959555,0.490027731427));
#1186 = CARTESIAN_POINT('',(-1.133329255937,2.301547423586,0.47476349199
    ));
#1187 = CARTESIAN_POINT('',(-0.966662356535,2.25363354849,0.459521048567
    ));
#1188 = CARTESIAN_POINT('',(-0.8,2.20569574769,0.44430425231));
#1189 = ORIENTED_EDGE('',*,*,#1190,.F.);
#1190 = EDGE_CURVE('',#1191,#1182,#1193,.T.);
#1191 = VERTEX_POINT('',#1192);
#1192 = CARTESIAN_POINT('',(-0.8,2.65,0.));
#1193 = LINE('',#1194,#1195);
#1194 = CARTESIAN_POINT('',(-0.8,1.325,1.325));
#1195 = VECTOR('',#1196,1.);
#1196 = DIRECTION('',(9.E-17,-0.707106781187,0.707106781187));
#1197 = ORIENTED_EDGE('',*,*,#1198,.F.);
#1198 = EDGE_CURVE('',#997,#1191,#1199,.T.);
#1199 = LINE('',#1200,#1201);
#1200 = CARTESIAN_POINT('',(-0.360952371817,2.483628441219,0.));
#1201 = VECTOR('',#1202,1.);
#1202 = DIRECTION('',(0.935113126531,-0.354349320007,8.E-17));
#1203 = PLANE('',#1204);
#1204 = AXIS2_PLACEMENT_3D('',#1205,#1206,#1207);
#1205 = CARTESIAN_POINT('',(-0.8,1.325,1.325));
#1206 = DIRECTION('',(0.258819045103,0.683012701892,0.683012701892));
#1207 = DIRECTION('',(1.387778780781E-16,-0.707106781187,0.707106781187)
  );
#1208 = ADVANCED_FACE('',(#1209),#1228,.F.);
#1209 = FACE_BOUND('',#1210,.T.);
#1210 = EDGE_LOOP('',(#1211,#1220,#1221,#1222));
#1211 = ORIENTED_EDGE('',*,*,#1212,.F.);
#1212 = EDGE_CURVE('',#1174,#1213,#1215,.T.);
#1213 = VERTEX_POINT('',#1214);
#1214 = CARTESIAN_POINT('',(-1.3,0.490027731427,2.349440959555));
#1215 = CIRCLE('',#1216,2.4);
#1216 = AXIS2_PLACEMENT_3D('',#1217,#1218,#1219);
#1217 = CARTESIAN_POINT('',(-1.3,-1.6E-16,0.));
#1218 = DIRECTION('',(1.,1.2E-16,-0.));
#1219 = DIRECTION('',(-1.2E-16,1.,0.));
#1220 = ORIENTED_EDGE('',*,*,#1173,.F.);
#1221 = ORIENTED_EDGE('',*,*,#1014,.T.);
#1222 = ORIENTED_EDGE('',*,*,#1223,.T.);
#1223 = EDGE_CURVE('',#1015,#1213,#1224,.T.);
#1224 = LINE('',#1225,#1226);
#1225 = CARTESIAN_POINT('',(-1.3,1.419734345491,1.419734345491));
#1226 = VECTOR('',#1227,1.);
#1227 = DIRECTION('',(0.,0.707106781187,-0.707106781187));
#1228 = PLANE('',#1229);
#1229 = AXIS2_PLACEMENT_3D('',#1230,#1231,#1232);
#1230 = CARTESIAN_POINT('',(-1.3,2.415368045157,0.));
#1231 = DIRECTION('',(-1.,0.,0.));
#1232 = DIRECTION('',(0.,-1.,0.));
#1233 = ADVANCED_FACE('',(#1234),#1261,.T.);
#1234 = FACE_BOUND('',#1235,.T.);
#1235 = EDGE_LOOP('',(#1236,#1237,#1238,#1246,#1254));
#1236 = ORIENTED_EDGE('',*,*,#1223,.F.);
#1237 = ORIENTED_EDGE('',*,*,#1023,.T.);
#1238 = ORIENTED_EDGE('',*,*,#1239,.T.);
#1239 = EDGE_CURVE('',#1024,#1240,#1242,.T.);
#1240 = VERTEX_POINT('',#1241);
#1241 = CARTESIAN_POINT('',(-0.8,-1.E-15,2.65));
#1242 = LINE('',#1243,#1244);
#1243 = CARTESIAN_POINT('',(-0.360952371817,-6.5E-16,2.483628441219));
#1244 = VECTOR('',#1245,1.);
#1245 = DIRECTION('',(0.935113126531,1.6E-16,-0.354349320007));
#1246 = ORIENTED_EDGE('',*,*,#1247,.T.);
#1247 = EDGE_CURVE('',#1240,#1248,#1250,.T.);
#1248 = VERTEX_POINT('',#1249);
#1249 = CARTESIAN_POINT('',(-0.8,0.44430425231,2.20569574769));
#1250 = LINE('',#1251,#1252);
#1251 = CARTESIAN_POINT('',(-0.8,1.325,1.325));
#1252 = VECTOR('',#1253,1.);
#1253 = DIRECTION('',(-9.E-17,0.707106781187,-0.707106781187));
#1254 = ORIENTED_EDGE('',*,*,#1255,.F.);
#1255 = EDGE_CURVE('',#1213,#1248,#1256,.T.);
#1256 = B_SPLINE_CURVE_WITH_KNOTS('',3,(#1257,#1258,#1259,#1260),
  .UNSPECIFIED.,.F.,.F.,(4,4),(2.0889804721E-07,5.224668060548E-04),
  .PIECEWISE_BEZIER_KNOTS.);
#1257 = CARTESIAN_POINT('',(-1.3,0.490027731427,2.349440959555));
#1258 = CARTESIAN_POINT('',(-1.133329255937,0.47476349199,2.301547423586
    ));
#1259 = CARTESIAN_POINT('',(-0.966662356535,0.459521048567,2.25363354849
    ));
#1260 = CARTESIAN_POINT('',(-0.8,0.44430425231,2.20569574769));
#1261 = PLANE('',#1262);
#1262 = AXIS2_PLACEMENT_3D('',#1263,#1264,#1265);
#1263 = CARTESIAN_POINT('',(-0.8,1.325,1.325));
#1264 = DIRECTION('',(0.258819045103,0.683012701892,0.683012701892));
#1265 = DIRECTION('',(5.551115123126E-17,-0.707106781187,0.707106781187)
  );
#1266 = ADVANCED_FACE('',(#1267),#1294,.T.);
#1267 = FACE_BOUND('',#1268,.T.);
#1268 = EDGE_LOOP('',(#1269,#1270,#1278,#1287,#1293));
#1269 = ORIENTED_EDGE('',*,*,#1032,.F.);
#1270 = ORIENTED_EDGE('',*,*,#1271,.T.);
#1271 = EDGE_CURVE('',#1033,#1272,#1274,.T.);
#1272 = VERTEX_POINT('',#1273);
#1273 = CARTESIAN_POINT('',(-1.3,-0.490027731427,2.349440959555));
#1274 = LINE('',#1275,#1276);
#1275 = CARTESIAN_POINT('',(-1.3,-1.419734345491,1.419734345491));
#1276 = VECTOR('',#1277,1.);
#1277 = DIRECTION('',(0.,-0.707106781187,-0.707106781187));
#1278 = ORIENTED_EDGE('',*,*,#1279,.T.);
#1279 = EDGE_CURVE('',#1272,#1280,#1282,.T.);
#1280 = VERTEX_POINT('',#1281);
#1281 = CARTESIAN_POINT('',(-0.8,-0.44430425231,2.20569574769));
#1282 = B_SPLINE_CURVE_WITH_KNOTS('',3,(#1283,#1284,#1285,#1286),
  .UNSPECIFIED.,.F.,.F.,(4,4),(2.0889804721E-07,5.224668060548E-04),
  .PIECEWISE_BEZIER_KNOTS.);
#1283 = CARTESIAN_POINT('',(-1.3,-0.490027731427,2.349440959555));
#1284 = CARTESIAN_POINT('',(-1.133329255937,-0.47476349199,
    2.301547423586));
#1285 = CARTESIAN_POINT('',(-0.966662356535,-0.459521048567,
    2.25363354849));
#1286 = CARTESIAN_POINT('',(-0.8,-0.44430425231,2.20569574769));
#1287 = ORIENTED_EDGE('',*,*,#1288,.F.);
#1288 = EDGE_CURVE('',#1240,#1280,#1289,.T.);
#1289 = LINE('',#1290,#1291);
#1290 = CARTESIAN_POINT('',(-0.8,-1.325,1.325));
#1291 = VECTOR('',#1292,1.);
#1292 = DIRECTION('',(9.E-17,-0.707106781187,-0.707106781187));
#1293 = ORIENTED_EDGE('',*,*,#1239,.F.);
#1294 = PLANE('',#1295);
#1295 = AXIS2_PLACEMENT_3D('',#1296,#1297,#1298);
#1296 = CARTESIAN_POINT('',(-0.8,-1.325,1.325));
#1297 = DIRECTION('',(0.258819045103,-0.683012701892,0.683012701892));
#1298 = DIRECTION('',(-2.775557561563E-17,-0.707106781187,
    -0.707106781187));
#1299 = ADVANCED_FACE('',(#1300),#1319,.F.);
#1300 = FACE_BOUND('',#1301,.T.);
#1301 = EDGE_LOOP('',(#1302,#1310,#1317,#1318));
#1302 = ORIENTED_EDGE('',*,*,#1303,.T.);
#1303 = EDGE_CURVE('',#1042,#1304,#1306,.T.);
#1304 = VERTEX_POINT('',#1305);
#1305 = CARTESIAN_POINT('',(-1.3,-2.349440959555,0.490027731427));
#1306 = LINE('',#1307,#1308);
#1307 = CARTESIAN_POINT('',(-1.3,-1.419734345491,1.419734345491));
#1308 = VECTOR('',#1309,1.);
#1309 = DIRECTION('',(0.,0.707106781187,0.707106781187));
#1310 = ORIENTED_EDGE('',*,*,#1311,.F.);
#1311 = EDGE_CURVE('',#1272,#1304,#1312,.T.);
#1312 = CIRCLE('',#1313,2.4);
#1313 = AXIS2_PLACEMENT_3D('',#1314,#1315,#1316);
#1314 = CARTESIAN_POINT('',(-1.3,-1.6E-16,0.));
#1315 = DIRECTION('',(1.,1.2E-16,-0.));
#1316 = DIRECTION('',(-1.2E-16,1.,0.));
#1317 = ORIENTED_EDGE('',*,*,#1271,.F.);
#1318 = ORIENTED_EDGE('',*,*,#1041,.T.);
#1319 = PLANE('',#1320);
#1320 = AXIS2_PLACEMENT_3D('',#1321,#1322,#1323);
#1321 = CARTESIAN_POINT('',(-1.3,2.415368045157,0.));
#1322 = DIRECTION('',(-1.,0.,0.));
#1323 = DIRECTION('',(0.,-1.,0.));
#1324 = ADVANCED_FACE('',(#1325),#1352,.T.);
#1325 = FACE_BOUND('',#1326,.T.);
#1326 = EDGE_LOOP('',(#1327,#1336,#1337,#1338,#1346));
#1327 = ORIENTED_EDGE('',*,*,#1328,.F.);
#1328 = EDGE_CURVE('',#1304,#1329,#1331,.T.);
#1329 = VERTEX_POINT('',#1330);
#1330 = CARTESIAN_POINT('',(-0.8,-2.20569574769,0.44430425231));
#1331 = B_SPLINE_CURVE_WITH_KNOTS('',3,(#1332,#1333,#1334,#1335),
  .UNSPECIFIED.,.F.,.F.,(4,4),(2.0889804721E-07,5.224668060548E-04),
  .PIECEWISE_BEZIER_KNOTS.);
#1332 = CARTESIAN_POINT('',(-1.3,-2.349440959555,0.490027731427));
#1333 = CARTESIAN_POINT('',(-1.133329255937,-2.301547423586,
    0.47476349199));
#1334 = CARTESIAN_POINT('',(-0.966662356535,-2.25363354849,
    0.459521048567));
#1335 = CARTESIAN_POINT('',(-0.8,-2.20569574769,0.44430425231));
#1336 = ORIENTED_EDGE('',*,*,#1303,.F.);
#1337 = ORIENTED_EDGE('',*,*,#1050,.T.);
#1338 = ORIENTED_EDGE('',*,*,#1339,.T.);
#1339 = EDGE_CURVE('',#1051,#1340,#1342,.T.);
#1340 = VERTEX_POINT('',#1341);
#1341 = CARTESIAN_POINT('',(-0.8,-2.65,-0.));
#1342 = LINE('',#1343,#1344);
#1343 = CARTESIAN_POINT('',(-0.360952371817,-2.483628441219,-2.2E-16));
#1344 = VECTOR('',#1345,1.);
#1345 = DIRECTION('',(0.935113126531,0.354349320007,0.));
#1346 = ORIENTED_EDGE('',*,*,#1347,.T.);
#1347 = EDGE_CURVE('',#1340,#1329,#1348,.T.);
#1348 = LINE('',#1349,#1350);
#1349 = CARTESIAN_POINT('',(-0.8,-1.325,1.325));
#1350 = VECTOR('',#1351,1.);
#1351 = DIRECTION('',(-9.E-17,0.707106781187,0.707106781187));
#1352 = PLANE('',#1353);
#1353 = AXIS2_PLACEMENT_3D('',#1354,#1355,#1356);
#1354 = CARTESIAN_POINT('',(-0.8,-1.325,1.325));
#1355 = DIRECTION('',(0.258819045103,-0.683012701892,0.683012701892));
#1356 = DIRECTION('',(2.775557561563E-17,-0.707106781187,-0.707106781187
    ));
#1357 = ADVANCED_FACE('',(#1358),#1384,.F.);
#1358 = FACE_BOUND('',#1359,.T.);
#1359 = EDGE_LOOP('',(#1360,#1371,#1377,#1378));
#1360 = ORIENTED_EDGE('',*,*,#1361,.F.);
#1361 = EDGE_CURVE('',#1362,#1364,#1366,.T.);
#1362 = VERTEX_POINT('',#1363);
#1363 = CARTESIAN_POINT('',(-1.3,-2.349440959555,-0.490027731427));
#1364 = VERTEX_POINT('',#1365);
#1365 = CARTESIAN_POINT('',(-1.3,-0.490027731427,-2.349440959555));
#1366 = CIRCLE('',#1367,2.4);
#1367 = AXIS2_PLACEMENT_3D('',#1368,#1369,#1370);
#1368 = CARTESIAN_POINT('',(-1.3,-1.6E-16,0.));
#1369 = DIRECTION('',(1.,1.2E-16,-0.));
#1370 = DIRECTION('',(-1.2E-16,1.,0.));
#1371 = ORIENTED_EDGE('',*,*,#1372,.F.);
#1372 = EDGE_CURVE('',#1082,#1362,#1373,.T.);
#1373 = LINE('',#1374,#1375);
#1374 = CARTESIAN_POINT('',(-1.3,-1.419734345491,-1.419734345491));
#1375 = VECTOR('',#1376,1.);
#1376 = DIRECTION('',(0.,0.707106781187,-0.707106781187));
#1377 = ORIENTED_EDGE('',*,*,#1081,.T.);
#1378 = ORIENTED_EDGE('',*,*,#1379,.T.);
#1379 = EDGE_CURVE('',#1084,#1364,#1380,.T.);
#1380 = LINE('',#1381,#1382);
#1381 = CARTESIAN_POINT('',(-1.3,-1.419734345491,-1.419734345491));
#1382 = VECTOR('',#1383,1.);
#1383 = DIRECTION('',(0.,-0.707106781187,0.707106781187));
#1384 = PLANE('',#1385);
#1385 = AXIS2_PLACEMENT_3D('',#1386,#1387,#1388);
#1386 = CARTESIAN_POINT('',(-1.3,2.415368045157,0.));
#1387 = DIRECTION('',(-1.,0.,0.));
#1388 = DIRECTION('',(0.,-1.,0.));
#1389 = ADVANCED_FACE('',(#1390),#1417,.T.);
#1390 = FACE_BOUND('',#1391,.T.);
#1391 = EDGE_LOOP('',(#1392,#1401,#1402,#1403,#1411));
#1392 = ORIENTED_EDGE('',*,*,#1393,.F.);
#1393 = EDGE_CURVE('',#1364,#1394,#1396,.T.);
#1394 = VERTEX_POINT('',#1395);
#1395 = CARTESIAN_POINT('',(-0.8,-0.44430425231,-2.20569574769));
#1396 = B_SPLINE_CURVE_WITH_KNOTS('',3,(#1397,#1398,#1399,#1400),
  .UNSPECIFIED.,.F.,.F.,(4,4),(2.0889804721E-07,5.224668060548E-04),
  .PIECEWISE_BEZIER_KNOTS.);
#1397 = CARTESIAN_POINT('',(-1.3,-0.490027731427,-2.349440959555));
#1398 = CARTESIAN_POINT('',(-1.133329255937,-0.47476349199,
    -2.301547423586));
#1399 = CARTESIAN_POINT('',(-0.966662356535,-0.459521048567,
    -2.25363354849));
#1400 = CARTESIAN_POINT('',(-0.8,-0.44430425231,-2.20569574769));
#1401 = ORIENTED_EDGE('',*,*,#1379,.F.);
#1402 = ORIENTED_EDGE('',*,*,#1092,.T.);
#1403 = ORIENTED_EDGE('',*,*,#1404,.T.);
#1404 = EDGE_CURVE('',#1093,#1405,#1407,.T.);
#1405 = VERTEX_POINT('',#1406);
#1406 = CARTESIAN_POINT('',(-0.8,0.,-2.65));
#1407 = LINE('',#1408,#1409);
#1408 = CARTESIAN_POINT('',(-0.360952371817,0.,-2.483628441219));
#1409 = VECTOR('',#1410,1.);
#1410 = DIRECTION('',(0.935113126531,1.6E-16,0.354349320007));
#1411 = ORIENTED_EDGE('',*,*,#1412,.T.);
#1412 = EDGE_CURVE('',#1405,#1394,#1413,.T.);
#1413 = LINE('',#1414,#1415);
#1414 = CARTESIAN_POINT('',(-0.8,-1.325,-1.325));
#1415 = VECTOR('',#1416,1.);
#1416 = DIRECTION('',(9.E-17,-0.707106781187,0.707106781187));
#1417 = PLANE('',#1418);
#1418 = AXIS2_PLACEMENT_3D('',#1419,#1420,#1421);
#1419 = CARTESIAN_POINT('',(-0.8,-1.325,-1.325));
#1420 = DIRECTION('',(0.258819045103,-0.683012701892,-0.683012701892));
#1421 = DIRECTION('',(2.775557561563E-17,0.707106781187,-0.707106781187)
  );
#1422 = ADVANCED_FACE('',(#1423),#1450,.T.);
#1423 = FACE_BOUND('',#1424,.T.);
#1424 = EDGE_LOOP('',(#1425,#1433,#1442,#1448,#1449));
#1425 = ORIENTED_EDGE('',*,*,#1426,.T.);
#1426 = EDGE_CURVE('',#1102,#1427,#1429,.T.);
#1427 = VERTEX_POINT('',#1428);
#1428 = CARTESIAN_POINT('',(-1.3,0.490027731427,-2.349440959555));
#1429 = LINE('',#1430,#1431);
#1430 = CARTESIAN_POINT('',(-1.3,1.419734345491,-1.419734345491));
#1431 = VECTOR('',#1432,1.);
#1432 = DIRECTION('',(0.,0.707106781187,0.707106781187));
#1433 = ORIENTED_EDGE('',*,*,#1434,.T.);
#1434 = EDGE_CURVE('',#1427,#1435,#1437,.T.);
#1435 = VERTEX_POINT('',#1436);
#1436 = CARTESIAN_POINT('',(-0.8,0.44430425231,-2.20569574769));
#1437 = B_SPLINE_CURVE_WITH_KNOTS('',3,(#1438,#1439,#1440,#1441),
  .UNSPECIFIED.,.F.,.F.,(4,4),(2.0889804721E-07,5.224668060548E-04),
  .PIECEWISE_BEZIER_KNOTS.);
#1438 = CARTESIAN_POINT('',(-1.3,0.490027731427,-2.349440959555));
#1439 = CARTESIAN_POINT('',(-1.133329255937,0.47476349199,
    -2.301547423586));
#1440 = CARTESIAN_POINT('',(-0.966662356535,0.459521048567,
    -2.25363354849));
#1441 = CARTESIAN_POINT('',(-0.8,0.44430425231,-2.20569574769));
#1442 = ORIENTED_EDGE('',*,*,#1443,.F.);
#1443 = EDGE_CURVE('',#1405,#1435,#1444,.T.);
#1444 = LINE('',#1445,#1446);
#1445 = CARTESIAN_POINT('',(-0.8,1.325,-1.325));
#1446 = VECTOR('',#1447,1.);
#1447 = DIRECTION('',(-9.E-17,0.707106781187,0.707106781187));
#1448 = ORIENTED_EDGE('',*,*,#1404,.F.);
#1449 = ORIENTED_EDGE('',*,*,#1101,.F.);
#1450 = PLANE('',#1451);
#1451 = AXIS2_PLACEMENT_3D('',#1452,#1453,#1454);
#1452 = CARTESIAN_POINT('',(-0.8,1.325,-1.325));
#1453 = DIRECTION('',(0.258819045103,0.683012701892,-0.683012701892));
#1454 = DIRECTION('',(-5.551115123126E-17,0.707106781187,0.707106781187)
  );
#1455 = ADVANCED_FACE('',(#1456),#1475,.F.);
#1456 = FACE_BOUND('',#1457,.T.);
#1457 = EDGE_LOOP('',(#1458,#1467,#1468,#1469));
#1458 = ORIENTED_EDGE('',*,*,#1459,.F.);
#1459 = EDGE_CURVE('',#1427,#1460,#1462,.T.);
#1460 = VERTEX_POINT('',#1461);
#1461 = CARTESIAN_POINT('',(-1.3,2.349440959555,-0.490027731427));
#1462 = CIRCLE('',#1463,2.4);
#1463 = AXIS2_PLACEMENT_3D('',#1464,#1465,#1466);
#1464 = CARTESIAN_POINT('',(-1.3,-1.6E-16,0.));
#1465 = DIRECTION('',(1.,1.2E-16,-0.));
#1466 = DIRECTION('',(-1.2E-16,1.,0.));
#1467 = ORIENTED_EDGE('',*,*,#1426,.F.);
#1468 = ORIENTED_EDGE('',*,*,#1110,.T.);
#1469 = ORIENTED_EDGE('',*,*,#1470,.T.);
#1470 = EDGE_CURVE('',#1111,#1460,#1471,.T.);
#1471 = LINE('',#1472,#1473);
#1472 = CARTESIAN_POINT('',(-1.3,1.419734345491,-1.419734345491));
#1473 = VECTOR('',#1474,1.);
#1474 = DIRECTION('',(0.,-0.707106781187,-0.707106781187));
#1475 = PLANE('',#1476);
#1476 = AXIS2_PLACEMENT_3D('',#1477,#1478,#1479);
#1477 = CARTESIAN_POINT('',(-1.3,2.415368045157,0.));
#1478 = DIRECTION('',(-1.,0.,0.));
#1479 = DIRECTION('',(0.,-1.,0.));
#1480 = ADVANCED_FACE('',(#1481),#1501,.T.);
#1481 = FACE_BOUND('',#1482,.T.);
#1482 = EDGE_LOOP('',(#1483,#1484,#1485,#1486,#1494));
#1483 = ORIENTED_EDGE('',*,*,#1470,.F.);
#1484 = ORIENTED_EDGE('',*,*,#1119,.T.);
#1485 = ORIENTED_EDGE('',*,*,#1198,.T.);
#1486 = ORIENTED_EDGE('',*,*,#1487,.T.);
#1487 = EDGE_CURVE('',#1191,#1488,#1490,.T.);
#1488 = VERTEX_POINT('',#1489);
#1489 = CARTESIAN_POINT('',(-0.8,2.20569574769,-0.44430425231));
#1490 = LINE('',#1491,#1492);
#1491 = CARTESIAN_POINT('',(-0.8,1.325,-1.325));
#1492 = VECTOR('',#1493,1.);
#1493 = DIRECTION('',(9.E-17,-0.707106781187,-0.707106781187));
#1494 = ORIENTED_EDGE('',*,*,#1495,.F.);
#1495 = EDGE_CURVE('',#1460,#1488,#1496,.T.);
#1496 = B_SPLINE_CURVE_WITH_KNOTS('',3,(#1497,#1498,#1499,#1500),
  .UNSPECIFIED.,.F.,.F.,(4,4),(2.0889804721E-07,5.224668060548E-04),
  .PIECEWISE_BEZIER_KNOTS.);
#1497 = CARTESIAN_POINT('',(-1.3,2.349440959555,-0.490027731427));
#1498 = CARTESIAN_POINT('',(-1.133329255937,2.301547423586,
    -0.47476349199));
#1499 = CARTESIAN_POINT('',(-0.966662356535,2.25363354849,
    -0.459521048567));
#1500 = CARTESIAN_POINT('',(-0.8,2.20569574769,-0.44430425231));
#1501 = PLANE('',#1502);
#1502 = AXIS2_PLACEMENT_3D('',#1503,#1504,#1505);
#1503 = CARTESIAN_POINT('',(-0.8,1.325,-1.325));
#1504 = DIRECTION('',(0.258819045103,0.683012701892,-0.683012701892));
#1505 = DIRECTION('',(-5.551115123126E-17,0.707106781187,0.707106781187)
  );
#1506 = ADVANCED_FACE('',(#1507),#1527,.T.);
#1507 = FACE_BOUND('',#1508,.T.);
#1508 = EDGE_LOOP('',(#1509,#1510,#1519,#1525,#1526));
#1509 = ORIENTED_EDGE('',*,*,#1372,.T.);
#1510 = ORIENTED_EDGE('',*,*,#1511,.T.);
#1511 = EDGE_CURVE('',#1362,#1512,#1514,.T.);
#1512 = VERTEX_POINT('',#1513);
#1513 = CARTESIAN_POINT('',(-0.8,-2.20569574769,-0.44430425231));
#1514 = B_SPLINE_CURVE_WITH_KNOTS('',3,(#1515,#1516,#1517,#1518),
  .UNSPECIFIED.,.F.,.F.,(4,4),(2.0889804721E-07,5.224668060548E-04),
  .PIECEWISE_BEZIER_KNOTS.);
#1515 = CARTESIAN_POINT('',(-1.3,-2.349440959555,-0.490027731427));
#1516 = CARTESIAN_POINT('',(-1.133329255937,-2.301547423586,
    -0.47476349199));
#1517 = CARTESIAN_POINT('',(-0.966662356535,-2.25363354849,
    -0.459521048567));
#1518 = CARTESIAN_POINT('',(-0.8,-2.20569574769,-0.44430425231));
#1519 = ORIENTED_EDGE('',*,*,#1520,.F.);
#1520 = EDGE_CURVE('',#1340,#1512,#1521,.T.);
#1521 = LINE('',#1522,#1523);
#1522 = CARTESIAN_POINT('',(-0.8,-1.325,-1.325));
#1523 = VECTOR('',#1524,1.);
#1524 = DIRECTION('',(-9.E-17,0.707106781187,-0.707106781187));
#1525 = ORIENTED_EDGE('',*,*,#1339,.F.);
#1526 = ORIENTED_EDGE('',*,*,#1129,.F.);
#1527 = PLANE('',#1528);
#1528 = AXIS2_PLACEMENT_3D('',#1529,#1530,#1531);
#1529 = CARTESIAN_POINT('',(-0.8,-1.325,-1.325));
#1530 = DIRECTION('',(0.258819045103,-0.683012701892,-0.683012701892));
#1531 = DIRECTION('',(-2.775557561563E-17,0.707106781187,-0.707106781187
    ));
#1532 = ADVANCED_FACE('',(#1533),#1552,.F.);
#1533 = FACE_BOUND('',#1534,.F.);
#1534 = EDGE_LOOP('',(#1535,#1543,#1544,#1545));
#1535 = ORIENTED_EDGE('',*,*,#1536,.F.);
#1536 = EDGE_CURVE('',#1156,#1537,#1539,.T.);
#1537 = VERTEX_POINT('',#1538);
#1538 = CARTESIAN_POINT('',(-2.7,-2.05,0.));
#1539 = LINE('',#1540,#1541);
#1540 = CARTESIAN_POINT('',(-5.2,-2.05,0.));
#1541 = VECTOR('',#1542,1.);
#1542 = DIRECTION('',(1.,0.,0.));
#1543 = ORIENTED_EDGE('',*,*,#1155,.F.);
#1544 = ORIENTED_EDGE('',*,*,#1536,.T.);
#1545 = ORIENTED_EDGE('',*,*,#1546,.T.);
#1546 = EDGE_CURVE('',#1537,#1537,#1547,.T.);
#1547 = CIRCLE('',#1548,2.05);
#1548 = AXIS2_PLACEMENT_3D('',#1549,#1550,#1551);
#1549 = CARTESIAN_POINT('',(-2.7,0.,0.));
#1550 = DIRECTION('',(-1.,0.,0.));
#1551 = DIRECTION('',(0.,-1.,0.));
#1552 = CYLINDRICAL_SURFACE('',#1553,2.05);
#1553 = AXIS2_PLACEMENT_3D('',#1554,#1555,#1556);
#1554 = CARTESIAN_POINT('',(-5.2,0.,0.));
#1555 = DIRECTION('',(-1.,0.,0.));
#1556 = DIRECTION('',(0.,-1.,0.));
#1557 = ADVANCED_FACE('',(#1558),#1570,.T.);
#1558 = FACE_BOUND('',#1559,.T.);
#1559 = EDGE_LOOP('',(#1560,#1561,#1562,#1563));
#1560 = ORIENTED_EDGE('',*,*,#1181,.F.);
#1561 = ORIENTED_EDGE('',*,*,#1212,.T.);
#1562 = ORIENTED_EDGE('',*,*,#1255,.T.);
#1563 = ORIENTED_EDGE('',*,*,#1564,.F.);
#1564 = EDGE_CURVE('',#1182,#1248,#1565,.T.);
#1565 = CIRCLE('',#1566,2.25);
#1566 = AXIS2_PLACEMENT_3D('',#1567,#1568,#1569);
#1567 = CARTESIAN_POINT('',(-0.8,-1.E-16,0.));
#1568 = DIRECTION('',(1.,1.2E-16,-0.));
#1569 = DIRECTION('',(-1.2E-16,1.,0.));
#1570 = CONICAL_SURFACE('',#1571,2.25,0.291456794478);
#1571 = AXIS2_PLACEMENT_3D('',#1572,#1573,#1574);
#1572 = CARTESIAN_POINT('',(-0.8,-1.E-16,0.));
#1573 = DIRECTION('',(-1.,-1.2E-16,0.));
#1574 = DIRECTION('',(1.2E-16,-1.,0.));
#1575 = ADVANCED_FACE('',(#1576,#1608),#1628,.T.);
#1576 = FACE_BOUND('',#1577,.T.);
#1577 = EDGE_LOOP('',(#1578,#1585,#1586,#1587,#1594,#1595,#1596,#1603,
    #1604,#1605,#1606,#1607));
#1578 = ORIENTED_EDGE('',*,*,#1579,.T.);
#1579 = EDGE_CURVE('',#1280,#1329,#1580,.T.);
#1580 = CIRCLE('',#1581,2.25);
#1581 = AXIS2_PLACEMENT_3D('',#1582,#1583,#1584);
#1582 = CARTESIAN_POINT('',(-0.8,-1.E-16,0.));
#1583 = DIRECTION('',(1.,1.2E-16,-0.));
#1584 = DIRECTION('',(-1.2E-16,1.,0.));
#1585 = ORIENTED_EDGE('',*,*,#1347,.F.);
#1586 = ORIENTED_EDGE('',*,*,#1520,.T.);
#1587 = ORIENTED_EDGE('',*,*,#1588,.T.);
#1588 = EDGE_CURVE('',#1512,#1394,#1589,.T.);
#1589 = CIRCLE('',#1590,2.25);
#1590 = AXIS2_PLACEMENT_3D('',#1591,#1592,#1593);
#1591 = CARTESIAN_POINT('',(-0.8,-1.E-16,0.));
#1592 = DIRECTION('',(1.,1.2E-16,-0.));
#1593 = DIRECTION('',(-1.2E-16,1.,0.));
#1594 = ORIENTED_EDGE('',*,*,#1412,.F.);
#1595 = ORIENTED_EDGE('',*,*,#1443,.T.);
#1596 = ORIENTED_EDGE('',*,*,#1597,.T.);
#1597 = EDGE_CURVE('',#1435,#1488,#1598,.T.);
#1598 = CIRCLE('',#1599,2.25);
#1599 = AXIS2_PLACEMENT_3D('',#1600,#1601,#1602);
#1600 = CARTESIAN_POINT('',(-0.8,-1.E-16,0.));
#1601 = DIRECTION('',(1.,1.2E-16,-0.));
#1602 = DIRECTION('',(-1.2E-16,1.,0.));
#1603 = ORIENTED_EDGE('',*,*,#1487,.F.);
#1604 = ORIENTED_EDGE('',*,*,#1190,.T.);
#1605 = ORIENTED_EDGE('',*,*,#1564,.T.);
#1606 = ORIENTED_EDGE('',*,*,#1247,.F.);
#1607 = ORIENTED_EDGE('',*,*,#1288,.T.);
#1608 = FACE_BOUND('',#1609,.T.);
#1609 = EDGE_LOOP('',(#1610,#1621));
#1610 = ORIENTED_EDGE('',*,*,#1611,.F.);
#1611 = EDGE_CURVE('',#1612,#1614,#1616,.T.);
#1612 = VERTEX_POINT('',#1613);
#1613 = CARTESIAN_POINT('',(-0.8,1.75,0.));
#1614 = VERTEX_POINT('',#1615);
#1615 = CARTESIAN_POINT('',(-0.8,-1.75,0.));
#1616 = CIRCLE('',#1617,1.75);
#1617 = AXIS2_PLACEMENT_3D('',#1618,#1619,#1620);
#1618 = CARTESIAN_POINT('',(-0.8,-1.E-16,0.));
#1619 = DIRECTION('',(1.,1.2E-16,-0.));
#1620 = DIRECTION('',(-1.2E-16,1.,0.));
#1621 = ORIENTED_EDGE('',*,*,#1622,.F.);
#1622 = EDGE_CURVE('',#1614,#1612,#1623,.T.);
#1623 = CIRCLE('',#1624,1.75);
#1624 = AXIS2_PLACEMENT_3D('',#1625,#1626,#1627);
#1625 = CARTESIAN_POINT('',(-0.8,-1.E-16,0.));
#1626 = DIRECTION('',(1.,1.2E-16,-0.));
#1627 = DIRECTION('',(-1.2E-16,1.,0.));
#1628 = PLANE('',#1629);
#1629 = AXIS2_PLACEMENT_3D('',#1630,#1631,#1632);
#1630 = CARTESIAN_POINT('',(-0.8,2.25,0.));
#1631 = DIRECTION('',(1.,1.2E-16,0.));
#1632 = DIRECTION('',(-1.2E-16,1.,0.));
#1633 = ADVANCED_FACE('',(#1634),#1640,.T.);
#1634 = FACE_BOUND('',#1635,.T.);
#1635 = EDGE_LOOP('',(#1636,#1637,#1638,#1639));
#1636 = ORIENTED_EDGE('',*,*,#1311,.T.);
#1637 = ORIENTED_EDGE('',*,*,#1328,.T.);
#1638 = ORIENTED_EDGE('',*,*,#1579,.F.);
#1639 = ORIENTED_EDGE('',*,*,#1279,.F.);
#1640 = CONICAL_SURFACE('',#1641,2.25,0.291456794478);
#1641 = AXIS2_PLACEMENT_3D('',#1642,#1643,#1644);
#1642 = CARTESIAN_POINT('',(-0.8,-1.E-16,0.));
#1643 = DIRECTION('',(-1.,-1.2E-16,0.));
#1644 = DIRECTION('',(1.2E-16,-1.,0.));
#1645 = ADVANCED_FACE('',(#1646),#1652,.T.);
#1646 = FACE_BOUND('',#1647,.T.);
#1647 = EDGE_LOOP('',(#1648,#1649,#1650,#1651));
#1648 = ORIENTED_EDGE('',*,*,#1511,.F.);
#1649 = ORIENTED_EDGE('',*,*,#1361,.T.);
#1650 = ORIENTED_EDGE('',*,*,#1393,.T.);
#1651 = ORIENTED_EDGE('',*,*,#1588,.F.);
#1652 = CONICAL_SURFACE('',#1653,2.25,0.291456794478);
#1653 = AXIS2_PLACEMENT_3D('',#1654,#1655,#1656);
#1654 = CARTESIAN_POINT('',(-0.8,-1.E-16,0.));
#1655 = DIRECTION('',(-1.,-1.2E-16,0.));
#1656 = DIRECTION('',(1.2E-16,-1.,0.));
#1657 = ADVANCED_FACE('',(#1658),#1664,.T.);
#1658 = FACE_BOUND('',#1659,.T.);
#1659 = EDGE_LOOP('',(#1660,#1661,#1662,#1663));
#1660 = ORIENTED_EDGE('',*,*,#1434,.F.);
#1661 = ORIENTED_EDGE('',*,*,#1459,.T.);
#1662 = ORIENTED_EDGE('',*,*,#1495,.T.);
#1663 = ORIENTED_EDGE('',*,*,#1597,.F.);
#1664 = CONICAL_SURFACE('',#1665,2.25,0.291456794478);
#1665 = AXIS2_PLACEMENT_3D('',#1666,#1667,#1668);
#1666 = CARTESIAN_POINT('',(-0.8,-1.E-16,0.));
#1667 = DIRECTION('',(-1.,-1.2E-16,0.));
#1668 = DIRECTION('',(1.2E-16,-1.,0.));
#1669 = ADVANCED_FACE('',(#1670),#1673,.T.);
#1670 = FACE_BOUND('',#1671,.T.);
#1671 = EDGE_LOOP('',(#1672));
#1672 = ORIENTED_EDGE('',*,*,#1546,.T.);
#1673 = PLANE('',#1674);
#1674 = AXIS2_PLACEMENT_3D('',#1675,#1676,#1677);
#1675 = CARTESIAN_POINT('',(-2.7,-1.E-17,0.));
#1676 = DIRECTION('',(-1.,0.,0.));
#1677 = DIRECTION('',(0.,-1.,0.));
#1678 = ADVANCED_FACE('',(#1679),#1705,.F.);
#1679 = FACE_BOUND('',#1680,.F.);
#1680 = EDGE_LOOP('',(#1681,#1682,#1690,#1699));
#1681 = ORIENTED_EDGE('',*,*,#1611,.F.);
#1682 = ORIENTED_EDGE('',*,*,#1683,.F.);
#1683 = EDGE_CURVE('',#1684,#1612,#1686,.T.);
#1684 = VERTEX_POINT('',#1685);
#1685 = CARTESIAN_POINT('',(-1.3,1.5,0.));
#1686 = LINE('',#1687,#1688);
#1687 = CARTESIAN_POINT('',(-1.3,1.5,0.));
#1688 = VECTOR('',#1689,1.);
#1689 = DIRECTION('',(0.894427191,0.4472135955,0.));
#1690 = ORIENTED_EDGE('',*,*,#1691,.T.);
#1691 = EDGE_CURVE('',#1684,#1692,#1694,.T.);
#1692 = VERTEX_POINT('',#1693);
#1693 = CARTESIAN_POINT('',(-1.3,-1.5,0.));
#1694 = CIRCLE('',#1695,1.5);
#1695 = AXIS2_PLACEMENT_3D('',#1696,#1697,#1698);
#1696 = CARTESIAN_POINT('',(-1.3,-1.6E-16,0.));
#1697 = DIRECTION('',(1.,1.2E-16,-0.));
#1698 = DIRECTION('',(-1.2E-16,1.,0.));
#1699 = ORIENTED_EDGE('',*,*,#1700,.T.);
#1700 = EDGE_CURVE('',#1692,#1614,#1701,.T.);
#1701 = LINE('',#1702,#1703);
#1702 = CARTESIAN_POINT('',(-1.3,-1.5,1.8E-16));
#1703 = VECTOR('',#1704,1.);
#1704 = DIRECTION('',(0.894427191,-0.4472135955,5.E-17));
#1705 = CONICAL_SURFACE('',#1706,1.5,0.463647609001);
#1706 = AXIS2_PLACEMENT_3D('',#1707,#1708,#1709);
#1707 = CARTESIAN_POINT('',(-1.3,-1.6E-16,0.));
#1708 = DIRECTION('',(1.,1.2E-16,0.));
#1709 = DIRECTION('',(-1.2E-16,1.,0.));
#1710 = ADVANCED_FACE('',(#1711),#1723,.F.);
#1711 = FACE_BOUND('',#1712,.F.);
#1712 = EDGE_LOOP('',(#1713,#1714,#1715,#1716));
#1713 = ORIENTED_EDGE('',*,*,#1683,.T.);
#1714 = ORIENTED_EDGE('',*,*,#1622,.F.);
#1715 = ORIENTED_EDGE('',*,*,#1700,.F.);
#1716 = ORIENTED_EDGE('',*,*,#1717,.T.);
#1717 = EDGE_CURVE('',#1692,#1684,#1718,.T.);
#1718 = CIRCLE('',#1719,1.5);
#1719 = AXIS2_PLACEMENT_3D('',#1720,#1721,#1722);
#1720 = CARTESIAN_POINT('',(-1.3,-1.6E-16,0.));
#1721 = DIRECTION('',(1.,1.2E-16,-0.));
#1722 = DIRECTION('',(-1.2E-16,1.,0.));
#1723 = CONICAL_SURFACE('',#1724,1.5,0.463647609001);
#1724 = AXIS2_PLACEMENT_3D('',#1725,#1726,#1727);
#1725 = CARTESIAN_POINT('',(-1.3,-1.6E-16,0.));
#1726 = DIRECTION('',(1.,1.2E-16,0.));
#1727 = DIRECTION('',(-1.2E-16,1.,0.));
#1728 = ADVANCED_FACE('',(#1729),#1733,.F.);
#1729 = FACE_BOUND('',#1730,.T.);
#1730 = EDGE_LOOP('',(#1731,#1732));
#1731 = ORIENTED_EDGE('',*,*,#1691,.T.);
#1732 = ORIENTED_EDGE('',*,*,#1717,.T.);
#1733 = PLANE('',#1734);
#1734 = AXIS2_PLACEMENT_3D('',#1735,#1736,#1737);
#1735 = CARTESIAN_POINT('',(-1.3,2.415368045157,0.));
#1736 = DIRECTION('',(-1.,0.,0.));
#1737 = DIRECTION('',(0.,-1.,0.));
#1738 = ( GEOMETRIC_REPRESENTATION_CONTEXT(3) 
GLOBAL_UNCERTAINTY_ASSIGNED_CONTEXT((#1742)) 
GLOBAL_UNIT_ASSIGNED_CONTEXT((#1739,#1740,#1741)) REPRESENTATION_CONTEXT
('Context #1','3D Context with UNIT and UNCERTAINTY') );
#1739 = ( LENGTH_UNIT() NAMED_UNIT(*) SI_UNIT(.MILLI.,.METRE.) );
#1740 = ( NAMED_UNIT(*) PLANE_ANGLE_UNIT() SI_UNIT($,.RADIAN.) );
#1741 = ( NAMED_UNIT(*) SI_UNIT($,.STERADIAN.) SOLID_ANGLE_UNIT() );
#1742 = UNCERTAINTY_MEASURE_WITH_UNIT(LENGTH_MEASURE(5.E-06),#1739,
  'distance_accuracy_value','confusion accuracy');
#1743 = CONTEXT_DEPENDENT_SHAPE_REPRESENTATION(#1744,#1746);
#1744 = ( REPRESENTATION_RELATIONSHIP('','',#652,#629) 
REPRESENTATION_RELATIONSHIP_WITH_TRANSFORMATION(#1745) 
SHAPE_REPRESENTATION_RELATIONSHIP() );
#1745 = ITEM_DEFINED_TRANSFORMATION('','',#11,#630);
#1746 = PRODUCT_DEFINITION_SHAPE('Placement','Placement of an item',
  #1747);
#1747 = NEXT_ASSEMBLY_USAGE_OCCURRENCE('2','cap001','',#624,#647,$);
#1748 = PRODUCT_RELATED_PRODUCT_CATEGORY('part',$,(#649));
#1749 = MECHANICAL_DESIGN_GEOMETRIC_PRESENTATION_REPRESENTATION('',(
    #1750),#611);
#1750 = STYLED_ITEM('color',(#1751),#37);
#1751 = PRESENTATION_STYLE_ASSIGNMENT((#1752,#1758));
#1752 = SURFACE_STYLE_USAGE(.BOTH.,#1753);
#1753 = SURFACE_SIDE_STYLE('',(#1754));
#1754 = SURFACE_STYLE_FILL_AREA(#1755);
#1755 = FILL_AREA_STYLE('',(#1756));
#1756 = FILL_AREA_STYLE_COLOUR('',#1757);
#1757 = COLOUR_RGB('',0.792156867455,0.819607860991,0.933333342953);
#1758 = CURVE_STYLE('',#1759,POSITIVE_LENGTH_MEASURE(0.1),#1760);
#1759 = DRAUGHTING_PRE_DEFINED_CURVE_FONT('continuous');
#1760 = COLOUR_RGB('',9.803921802644E-02,9.803921802644E-02,
  9.803921802644E-02);
#1761 = MECHANICAL_DESIGN_GEOMETRIC_PRESENTATION_REPRESENTATION('',(
    #1762),#1738);
#1762 = STYLED_ITEM('color',(#1763),#653);
#1763 = PRESENTATION_STYLE_ASSIGNMENT((#1764,#1770));
#1764 = SURFACE_STYLE_USAGE(.BOTH.,#1765);
#1765 = SURFACE_SIDE_STYLE('',(#1766));
#1766 = SURFACE_STYLE_FILL_AREA(#1767);
#1767 = FILL_AREA_STYLE('',(#1768));
#1768 = FILL_AREA_STYLE_COLOUR('',#1769);
#1769 = COLOUR_RGB('',0.447058818107,0.474509808674,0.501960817233);
#1770 = CURVE_STYLE('',#1771,POSITIVE_LENGTH_MEASURE(0.1),#1760);
#1771 = DRAUGHTING_PRE_DEFINED_CURVE_FONT('continuous');
ENDSEC;
END-ISO-10303-21;
