ISO-10303-21;
HEADER;
FILE_DESCRIPTION(('FreeCAD Model'),'2;1');
FILE_NAME('Open CASCADE Shape Model','2025-07-28T20:35:44',(''),(''),
  'Open CASCADE STEP processor 7.8','FreeCAD','Unknown');
FILE_SCHEMA(('AUTOMOTIVE_DESIGN { 1 0 10303 214 1 1 1 1 }'));
ENDSEC;
DATA;
#1 = APPLICATION_PROTOCOL_DEFINITION('international standard',
  'automotive_design',2000,#2);
#2 = APPLICATION_CONTEXT(
  'core data for automotive mechanical design processes');
#3 = SHAPE_DEFINITION_REPRESENTATION(#4,#10);
#4 = PRODUCT_DEFINITION_SHAPE('','',#5);
#5 = PRODUCT_DEFINITION('design','',#6,#9);
#6 = PRODUCT_DEFINITION_FORMATION('','',#7);
#7 = PRODUCT('mount-right','mount-right','',(#8));
#8 = PRODUCT_CONTEXT('',#2,'mechanical');
#9 = PRODUCT_DEFINITION_CONTEXT('part definition',#2,'design');
#10 = SHAPE_REPRESENTATION('',(#11,#15,#19),#23);
#11 = AXIS2_PLACEMENT_3D('',#12,#13,#14);
#12 = CARTESIAN_POINT('',(0.,0.,0.));
#13 = DIRECTION('',(0.,0.,1.));
#14 = DIRECTION('',(1.,0.,-0.));
#15 = AXIS2_PLACEMENT_3D('',#16,#17,#18);
#16 = CARTESIAN_POINT('',(0.,0.,18.1));
#17 = DIRECTION('',(0.,-0.,1.));
#18 = DIRECTION('',(2.22044604925E-16,1.,0.));
#19 = AXIS2_PLACEMENT_3D('',#20,#21,#22);
#20 = CARTESIAN_POINT('',(0.,0.,0.));
#21 = DIRECTION('',(0.,0.,1.));
#22 = DIRECTION('',(1.,0.,0.));
#23 = ( GEOMETRIC_REPRESENTATION_CONTEXT(3) 
GLOBAL_UNCERTAINTY_ASSIGNED_CONTEXT((#27)) GLOBAL_UNIT_ASSIGNED_CONTEXT(
(#24,#25,#26)) REPRESENTATION_CONTEXT('Context #1',
  '3D Context with UNIT and UNCERTAINTY') );
#24 = ( LENGTH_UNIT() NAMED_UNIT(*) SI_UNIT(.MILLI.,.METRE.) );
#25 = ( NAMED_UNIT(*) PLANE_ANGLE_UNIT() SI_UNIT($,.RADIAN.) );
#26 = ( NAMED_UNIT(*) SI_UNIT($,.STERADIAN.) SOLID_ANGLE_UNIT() );
#27 = UNCERTAINTY_MEASURE_WITH_UNIT(LENGTH_MEASURE(2.E-06),#24,
  'distance_accuracy_value','confusion accuracy');
#28 = PRODUCT_RELATED_PRODUCT_CATEGORY('part',$,(#7));
#29 = SHAPE_DEFINITION_REPRESENTATION(#30,#36);
#30 = PRODUCT_DEFINITION_SHAPE('','',#31);
#31 = PRODUCT_DEFINITION('design','',#32,#35);
#32 = PRODUCT_DEFINITION_FORMATION('','',#33);
#33 = PRODUCT('cirque 40mm','cirque 40mm','',(#34));
#34 = PRODUCT_CONTEXT('',#2,'mechanical');
#35 = PRODUCT_DEFINITION_CONTEXT('part definition',#2,'design');
#36 = ADVANCED_BREP_SHAPE_REPRESENTATION('',(#11,#37),#443);
#37 = MANIFOLD_SOLID_BREP('',#38);
#38 = CLOSED_SHELL('',(#39,#126,#158,#182,#194,#274,#287,#311,#335,#353,
    #365,#389,#413,#431));
#39 = ADVANCED_FACE('',(#40,#51),#121,.T.);
#40 = FACE_BOUND('',#41,.T.);
#41 = EDGE_LOOP('',(#42));
#42 = ORIENTED_EDGE('',*,*,#43,.F.);
#43 = EDGE_CURVE('',#44,#44,#46,.T.);
#44 = VERTEX_POINT('',#45);
#45 = CARTESIAN_POINT('',(18.3,1.E-15,0.));
#46 = CIRCLE('',#47,18.3);
#47 = AXIS2_PLACEMENT_3D('',#48,#49,#50);
#48 = CARTESIAN_POINT('',(0.,1.12E-15,0.));
#49 = DIRECTION('',(0.,0.,1.));
#50 = DIRECTION('',(1.,0.,-0.));
#51 = FACE_BOUND('',#52,.T.);
#52 = EDGE_LOOP('',(#53,#63,#72,#80,#89,#97,#106,#114));
#53 = ORIENTED_EDGE('',*,*,#54,.F.);
#54 = EDGE_CURVE('',#55,#57,#59,.T.);
#55 = VERTEX_POINT('',#56);
#56 = CARTESIAN_POINT('',(11.695945786193,16.006162943267,0.));
#57 = VERTEX_POINT('',#58);
#58 = CARTESIAN_POINT('',(11.911633019433,16.314196235498,0.));
#59 = LINE('',#60,#61);
#60 = CARTESIAN_POINT('',(11.803789402813,16.160179589383,0.));
#61 = VECTOR('',#62,1.);
#62 = DIRECTION('',(0.573576436351,0.819152044289,0.));
#63 = ORIENTED_EDGE('',*,*,#64,.F.);
#64 = EDGE_CURVE('',#65,#55,#67,.T.);
#65 = VERTEX_POINT('',#66);
#66 = CARTESIAN_POINT('',(11.040624150762,16.465024092348,0.));
#67 = CIRCLE('',#68,0.4);
#68 = AXIS2_PLACEMENT_3D('',#69,#70,#71);
#69 = CARTESIAN_POINT('',(11.368284968478,16.235593517808,0.));
#70 = DIRECTION('',(0.,0.,1.));
#71 = DIRECTION('',(1.,0.,-0.));
#72 = ORIENTED_EDGE('',*,*,#73,.T.);
#73 = EDGE_CURVE('',#65,#74,#76,.T.);
#74 = VERTEX_POINT('',#75);
#75 = CARTESIAN_POINT('',(11.256311384002,16.773057384579,0.));
#76 = LINE('',#77,#78);
#77 = CARTESIAN_POINT('',(11.148467767382,16.619040738464,0.));
#78 = VECTOR('',#79,1.);
#79 = DIRECTION('',(0.573576436351,0.819152044289,0.));
#80 = ORIENTED_EDGE('',*,*,#81,.T.);
#81 = EDGE_CURVE('',#74,#82,#84,.T.);
#82 = VERTEX_POINT('',#83);
#83 = CARTESIAN_POINT('',(17.690283016578,9.75160944631,0.));
#84 = CIRCLE('',#85,20.2);
#85 = AXIS2_PLACEMENT_3D('',#86,#87,#88);
#86 = CARTESIAN_POINT('',(-1.0495E-13,-1.0495E-13,0.));
#87 = DIRECTION('',(0.,0.,1.));
#88 = DIRECTION('',(1.,0.,-0.));
#89 = ORIENTED_EDGE('',*,*,#90,.F.);
#90 = EDGE_CURVE('',#91,#82,#93,.T.);
#91 = VERTEX_POINT('',#92);
#92 = CARTESIAN_POINT('',(17.364623503008,9.563589838486,0.));
#93 = LINE('',#94,#95);
#94 = CARTESIAN_POINT('',(17.527453259793,9.657599642398,0.));
#95 = VECTOR('',#96,1.);
#96 = DIRECTION('',(0.866025403784,0.5,0.));
#97 = ORIENTED_EDGE('',*,*,#98,.F.);
#98 = EDGE_CURVE('',#99,#91,#101,.T.);
#99 = VERTEX_POINT('',#100);
#100 = CARTESIAN_POINT('',(16.964623503008,10.256410161514,0.));
#101 = CIRCLE('',#102,0.4);
#102 = AXIS2_PLACEMENT_3D('',#103,#104,#105);
#103 = CARTESIAN_POINT('',(17.164623503008,9.91,0.));
#104 = DIRECTION('',(0.,0.,1.));
#105 = DIRECTION('',(1.,0.,-0.));
#106 = ORIENTED_EDGE('',*,*,#107,.T.);
#107 = EDGE_CURVE('',#99,#108,#110,.T.);
#108 = VERTEX_POINT('',#109);
#109 = CARTESIAN_POINT('',(17.290283016578,10.444429769338,0.));
#110 = LINE('',#111,#112);
#111 = CARTESIAN_POINT('',(17.127453259793,10.350419965426,0.));
#112 = VECTOR('',#113,1.);
#113 = DIRECTION('',(0.866025403784,0.5,0.));
#114 = ORIENTED_EDGE('',*,*,#115,.T.);
#115 = EDGE_CURVE('',#108,#57,#116,.T.);
#116 = CIRCLE('',#117,20.2);
#117 = AXIS2_PLACEMENT_3D('',#118,#119,#120);
#118 = CARTESIAN_POINT('',(-1.0495E-13,-1.0495E-13,0.));
#119 = DIRECTION('',(0.,0.,1.));
#120 = DIRECTION('',(1.,0.,-0.));
#121 = PLANE('',#122);
#122 = AXIS2_PLACEMENT_3D('',#123,#124,#125);
#123 = CARTESIAN_POINT('',(0.,0.,0.));
#124 = DIRECTION('',(0.,0.,1.));
#125 = DIRECTION('',(1.,0.,-0.));
#126 = ADVANCED_FACE('',(#127),#153,.T.);
#127 = FACE_BOUND('',#128,.T.);
#128 = EDGE_LOOP('',(#129,#138,#145,#152));
#129 = ORIENTED_EDGE('',*,*,#130,.T.);
#130 = EDGE_CURVE('',#131,#131,#133,.T.);
#131 = VERTEX_POINT('',#132);
#132 = CARTESIAN_POINT('',(21.,1.E-15,-3.));
#133 = CIRCLE('',#134,21.);
#134 = AXIS2_PLACEMENT_3D('',#135,#136,#137);
#135 = CARTESIAN_POINT('',(0.,1.29E-15,-3.));
#136 = DIRECTION('',(0.,0.,1.));
#137 = DIRECTION('',(1.,0.,-0.));
#138 = ORIENTED_EDGE('',*,*,#139,.T.);
#139 = EDGE_CURVE('',#131,#140,#142,.T.);
#140 = VERTEX_POINT('',#141);
#141 = CARTESIAN_POINT('',(21.,1.E-15,1.4));
#142 = B_SPLINE_CURVE_WITH_KNOTS('',1,(#143,#144),.UNSPECIFIED.,.F.,.F.,
  (2,2),(0.,4.4),.PIECEWISE_BEZIER_KNOTS.);
#143 = CARTESIAN_POINT('',(21.,1.29E-15,-3.));
#144 = CARTESIAN_POINT('',(21.,1.29E-15,1.4));
#145 = ORIENTED_EDGE('',*,*,#146,.F.);
#146 = EDGE_CURVE('',#140,#140,#147,.T.);
#147 = CIRCLE('',#148,21.);
#148 = AXIS2_PLACEMENT_3D('',#149,#150,#151);
#149 = CARTESIAN_POINT('',(0.,1.29E-15,1.4));
#150 = DIRECTION('',(0.,0.,1.));
#151 = DIRECTION('',(1.,0.,-0.));
#152 = ORIENTED_EDGE('',*,*,#139,.F.);
#153 = CYLINDRICAL_SURFACE('',#154,21.);
#154 = AXIS2_PLACEMENT_3D('',#155,#156,#157);
#155 = CARTESIAN_POINT('',(0.,1.29E-15,-3.));
#156 = DIRECTION('',(0.,0.,1.));
#157 = DIRECTION('',(1.,0.,-0.));
#158 = ADVANCED_FACE('',(#159),#177,.F.);
#159 = FACE_BOUND('',#160,.F.);
#160 = EDGE_LOOP('',(#161,#170,#175,#176));
#161 = ORIENTED_EDGE('',*,*,#162,.T.);
#162 = EDGE_CURVE('',#163,#163,#165,.T.);
#163 = VERTEX_POINT('',#164);
#164 = CARTESIAN_POINT('',(18.3,1.E-15,-3.));
#165 = CIRCLE('',#166,18.3);
#166 = AXIS2_PLACEMENT_3D('',#167,#168,#169);
#167 = CARTESIAN_POINT('',(0.,1.12E-15,-3.));
#168 = DIRECTION('',(0.,0.,1.));
#169 = DIRECTION('',(1.,0.,-0.));
#170 = ORIENTED_EDGE('',*,*,#171,.T.);
#171 = EDGE_CURVE('',#163,#44,#172,.T.);
#172 = B_SPLINE_CURVE_WITH_KNOTS('',1,(#173,#174),.UNSPECIFIED.,.F.,.F.,
  (2,2),(0.,3.),.PIECEWISE_BEZIER_KNOTS.);
#173 = CARTESIAN_POINT('',(18.3,1.12E-15,-3.));
#174 = CARTESIAN_POINT('',(18.3,1.12E-15,0.));
#175 = ORIENTED_EDGE('',*,*,#43,.F.);
#176 = ORIENTED_EDGE('',*,*,#171,.F.);
#177 = CYLINDRICAL_SURFACE('',#178,18.3);
#178 = AXIS2_PLACEMENT_3D('',#179,#180,#181);
#179 = CARTESIAN_POINT('',(0.,1.12E-15,-3.));
#180 = DIRECTION('',(0.,0.,1.));
#181 = DIRECTION('',(1.,0.,-0.));
#182 = ADVANCED_FACE('',(#183,#186),#189,.F.);
#183 = FACE_BOUND('',#184,.T.);
#184 = EDGE_LOOP('',(#185));
#185 = ORIENTED_EDGE('',*,*,#130,.F.);
#186 = FACE_BOUND('',#187,.T.);
#187 = EDGE_LOOP('',(#188));
#188 = ORIENTED_EDGE('',*,*,#162,.T.);
#189 = PLANE('',#190);
#190 = AXIS2_PLACEMENT_3D('',#191,#192,#193);
#191 = CARTESIAN_POINT('',(0.,0.,-3.));
#192 = DIRECTION('',(0.,0.,1.));
#193 = DIRECTION('',(1.,0.,-0.));
#194 = ADVANCED_FACE('',(#195),#269,.F.);
#195 = FACE_BOUND('',#196,.F.);
#196 = EDGE_LOOP('',(#197,#198,#206,#215,#221,#222,#230,#239,#246,#255,
    #262,#263));
#197 = ORIENTED_EDGE('',*,*,#81,.T.);
#198 = ORIENTED_EDGE('',*,*,#199,.F.);
#199 = EDGE_CURVE('',#200,#82,#202,.T.);
#200 = VERTEX_POINT('',#201);
#201 = CARTESIAN_POINT('',(17.690283016578,9.75160944631,1.));
#202 = LINE('',#203,#204);
#203 = CARTESIAN_POINT('',(17.690283016578,9.75160944631,1.));
#204 = VECTOR('',#205,1.);
#205 = DIRECTION('',(0.,0.,-1.));
#206 = ORIENTED_EDGE('',*,*,#207,.T.);
#207 = EDGE_CURVE('',#200,#208,#210,.T.);
#208 = VERTEX_POINT('',#209);
#209 = CARTESIAN_POINT('',(17.290283016578,10.444429769338,1.));
#210 = CIRCLE('',#211,20.199999999917);
#211 = AXIS2_PLACEMENT_3D('',#212,#213,#214);
#212 = CARTESIAN_POINT('',(7.240389E-11,4.115631E-11,1.));
#213 = DIRECTION('',(0.,0.,1.));
#214 = DIRECTION('',(1.,0.,-0.));
#215 = ORIENTED_EDGE('',*,*,#216,.T.);
#216 = EDGE_CURVE('',#208,#108,#217,.T.);
#217 = LINE('',#218,#219);
#218 = CARTESIAN_POINT('',(17.290283016578,10.444429769338,1.));
#219 = VECTOR('',#220,1.);
#220 = DIRECTION('',(0.,0.,-1.));
#221 = ORIENTED_EDGE('',*,*,#115,.T.);
#222 = ORIENTED_EDGE('',*,*,#223,.F.);
#223 = EDGE_CURVE('',#224,#57,#226,.T.);
#224 = VERTEX_POINT('',#225);
#225 = CARTESIAN_POINT('',(11.911633019433,16.314196235498,1.));
#226 = LINE('',#227,#228);
#227 = CARTESIAN_POINT('',(11.911633019433,16.314196235498,1.));
#228 = VECTOR('',#229,1.);
#229 = DIRECTION('',(0.,0.,-1.));
#230 = ORIENTED_EDGE('',*,*,#231,.T.);
#231 = EDGE_CURVE('',#224,#232,#234,.T.);
#232 = VERTEX_POINT('',#233);
#233 = CARTESIAN_POINT('',(11.256311384002,16.773057384579,1.));
#234 = CIRCLE('',#235,20.199999999934);
#235 = AXIS2_PLACEMENT_3D('',#236,#237,#238);
#236 = CARTESIAN_POINT('',(3.750646E-11,5.449807E-11,1.));
#237 = DIRECTION('',(0.,0.,1.));
#238 = DIRECTION('',(1.,0.,-0.));
#239 = ORIENTED_EDGE('',*,*,#240,.F.);
#240 = EDGE_CURVE('',#241,#232,#243,.T.);
#241 = VERTEX_POINT('',#242);
#242 = CARTESIAN_POINT('',(11.256311384,16.773057384581,1.4));
#243 = B_SPLINE_CURVE_WITH_KNOTS('',1,(#244,#245),.UNSPECIFIED.,.F.,.F.,
  (2,2),(0.,0.4),.PIECEWISE_BEZIER_KNOTS.);
#244 = CARTESIAN_POINT('',(11.256311384,16.773057384581,1.4));
#245 = CARTESIAN_POINT('',(11.256311384,16.773057384581,1.));
#246 = ORIENTED_EDGE('',*,*,#247,.F.);
#247 = EDGE_CURVE('',#248,#241,#250,.T.);
#248 = VERTEX_POINT('',#249);
#249 = CARTESIAN_POINT('',(20.2,-1.05E-13,1.4));
#250 = CIRCLE('',#251,20.2);
#251 = AXIS2_PLACEMENT_3D('',#252,#253,#254);
#252 = CARTESIAN_POINT('',(-1.0495E-13,-1.0495E-13,1.4));
#253 = DIRECTION('',(0.,0.,1.));
#254 = DIRECTION('',(1.,0.,-0.));
#255 = ORIENTED_EDGE('',*,*,#256,.F.);
#256 = EDGE_CURVE('',#241,#248,#257,.T.);
#257 = CIRCLE('',#258,20.2);
#258 = AXIS2_PLACEMENT_3D('',#259,#260,#261);
#259 = CARTESIAN_POINT('',(-1.0495E-13,-1.0495E-13,1.4));
#260 = DIRECTION('',(0.,0.,1.));
#261 = DIRECTION('',(1.,0.,-0.));
#262 = ORIENTED_EDGE('',*,*,#240,.T.);
#263 = ORIENTED_EDGE('',*,*,#264,.T.);
#264 = EDGE_CURVE('',#232,#74,#265,.T.);
#265 = LINE('',#266,#267);
#266 = CARTESIAN_POINT('',(11.256311384002,16.773057384579,1.));
#267 = VECTOR('',#268,1.);
#268 = DIRECTION('',(0.,0.,-1.));
#269 = CYLINDRICAL_SURFACE('',#270,20.2);
#270 = AXIS2_PLACEMENT_3D('',#271,#272,#273);
#271 = CARTESIAN_POINT('',(-1.0495E-13,-1.0495E-13,1.4));
#272 = DIRECTION('',(0.,0.,-1.));
#273 = DIRECTION('',(-1.,0.,0.));
#274 = ADVANCED_FACE('',(#275,#279),#282,.T.);
#275 = FACE_BOUND('',#276,.T.);
#276 = EDGE_LOOP('',(#277,#278));
#277 = ORIENTED_EDGE('',*,*,#247,.F.);
#278 = ORIENTED_EDGE('',*,*,#256,.F.);
#279 = FACE_BOUND('',#280,.T.);
#280 = EDGE_LOOP('',(#281));
#281 = ORIENTED_EDGE('',*,*,#146,.T.);
#282 = PLANE('',#283);
#283 = AXIS2_PLACEMENT_3D('',#284,#285,#286);
#284 = CARTESIAN_POINT('',(0.,0.,1.4));
#285 = DIRECTION('',(0.,0.,1.));
#286 = DIRECTION('',(1.,0.,-0.));
#287 = ADVANCED_FACE('',(#288),#306,.F.);
#288 = FACE_BOUND('',#289,.T.);
#289 = EDGE_LOOP('',(#290,#291,#292,#300));
#290 = ORIENTED_EDGE('',*,*,#90,.T.);
#291 = ORIENTED_EDGE('',*,*,#199,.F.);
#292 = ORIENTED_EDGE('',*,*,#293,.F.);
#293 = EDGE_CURVE('',#294,#200,#296,.T.);
#294 = VERTEX_POINT('',#295);
#295 = CARTESIAN_POINT('',(17.364623503008,9.563589838486,1.));
#296 = LINE('',#297,#298);
#297 = CARTESIAN_POINT('',(17.527453259793,9.657599642398,1.));
#298 = VECTOR('',#299,1.);
#299 = DIRECTION('',(0.866025403784,0.5,0.));
#300 = ORIENTED_EDGE('',*,*,#301,.T.);
#301 = EDGE_CURVE('',#294,#91,#302,.T.);
#302 = LINE('',#303,#304);
#303 = CARTESIAN_POINT('',(17.364623503008,9.563589838486,1.));
#304 = VECTOR('',#305,1.);
#305 = DIRECTION('',(0.,0.,-1.));
#306 = PLANE('',#307);
#307 = AXIS2_PLACEMENT_3D('',#308,#309,#310);
#308 = CARTESIAN_POINT('',(17.527453259793,9.657599642398,1.));
#309 = DIRECTION('',(-0.5,0.866025403784,0.));
#310 = DIRECTION('',(-0.866025403784,-0.5,0.));
#311 = ADVANCED_FACE('',(#312),#330,.T.);
#312 = FACE_BOUND('',#313,.T.);
#313 = EDGE_LOOP('',(#314,#315,#323,#329));
#314 = ORIENTED_EDGE('',*,*,#107,.F.);
#315 = ORIENTED_EDGE('',*,*,#316,.F.);
#316 = EDGE_CURVE('',#317,#99,#319,.T.);
#317 = VERTEX_POINT('',#318);
#318 = CARTESIAN_POINT('',(16.964623503008,10.256410161514,1.));
#319 = LINE('',#320,#321);
#320 = CARTESIAN_POINT('',(16.964623503008,10.256410161514,1.));
#321 = VECTOR('',#322,1.);
#322 = DIRECTION('',(0.,0.,-1.));
#323 = ORIENTED_EDGE('',*,*,#324,.T.);
#324 = EDGE_CURVE('',#317,#208,#325,.T.);
#325 = LINE('',#326,#327);
#326 = CARTESIAN_POINT('',(17.127453259793,10.350419965426,1.));
#327 = VECTOR('',#328,1.);
#328 = DIRECTION('',(0.866025403784,0.5,0.));
#329 = ORIENTED_EDGE('',*,*,#216,.T.);
#330 = PLANE('',#331);
#331 = AXIS2_PLACEMENT_3D('',#332,#333,#334);
#332 = CARTESIAN_POINT('',(17.127453259793,10.350419965426,1.));
#333 = DIRECTION('',(-0.5,0.866025403784,0.));
#334 = DIRECTION('',(-0.866025403784,-0.5,0.));
#335 = ADVANCED_FACE('',(#336),#348,.T.);
#336 = FACE_BOUND('',#337,.T.);
#337 = EDGE_LOOP('',(#338,#339,#340,#347));
#338 = ORIENTED_EDGE('',*,*,#98,.T.);
#339 = ORIENTED_EDGE('',*,*,#301,.F.);
#340 = ORIENTED_EDGE('',*,*,#341,.F.);
#341 = EDGE_CURVE('',#317,#294,#342,.T.);
#342 = CIRCLE('',#343,0.4);
#343 = AXIS2_PLACEMENT_3D('',#344,#345,#346);
#344 = CARTESIAN_POINT('',(17.164623503008,9.91,1.));
#345 = DIRECTION('',(0.,0.,1.));
#346 = DIRECTION('',(1.,0.,-0.));
#347 = ORIENTED_EDGE('',*,*,#316,.T.);
#348 = CYLINDRICAL_SURFACE('',#349,0.4);
#349 = AXIS2_PLACEMENT_3D('',#350,#351,#352);
#350 = CARTESIAN_POINT('',(17.164623503008,9.91,1.));
#351 = DIRECTION('',(0.,0.,-1.));
#352 = DIRECTION('',(-1.,0.,0.));
#353 = ADVANCED_FACE('',(#354),#360,.T.);
#354 = FACE_BOUND('',#355,.T.);
#355 = EDGE_LOOP('',(#356,#357,#358,#359));
#356 = ORIENTED_EDGE('',*,*,#293,.T.);
#357 = ORIENTED_EDGE('',*,*,#207,.T.);
#358 = ORIENTED_EDGE('',*,*,#324,.F.);
#359 = ORIENTED_EDGE('',*,*,#341,.T.);
#360 = PLANE('',#361);
#361 = AXIS2_PLACEMENT_3D('',#362,#363,#364);
#362 = CARTESIAN_POINT('',(0.,0.,1.));
#363 = DIRECTION('',(0.,0.,1.));
#364 = DIRECTION('',(1.,0.,-0.));
#365 = ADVANCED_FACE('',(#366),#384,.F.);
#366 = FACE_BOUND('',#367,.T.);
#367 = EDGE_LOOP('',(#368,#369,#370,#378));
#368 = ORIENTED_EDGE('',*,*,#54,.T.);
#369 = ORIENTED_EDGE('',*,*,#223,.F.);
#370 = ORIENTED_EDGE('',*,*,#371,.F.);
#371 = EDGE_CURVE('',#372,#224,#374,.T.);
#372 = VERTEX_POINT('',#373);
#373 = CARTESIAN_POINT('',(11.695945786193,16.006162943267,1.));
#374 = LINE('',#375,#376);
#375 = CARTESIAN_POINT('',(11.803789402813,16.160179589383,1.));
#376 = VECTOR('',#377,1.);
#377 = DIRECTION('',(0.573576436351,0.819152044289,0.));
#378 = ORIENTED_EDGE('',*,*,#379,.T.);
#379 = EDGE_CURVE('',#372,#55,#380,.T.);
#380 = LINE('',#381,#382);
#381 = CARTESIAN_POINT('',(11.695945786193,16.006162943267,1.));
#382 = VECTOR('',#383,1.);
#383 = DIRECTION('',(0.,0.,-1.));
#384 = PLANE('',#385);
#385 = AXIS2_PLACEMENT_3D('',#386,#387,#388);
#386 = CARTESIAN_POINT('',(11.803789402813,16.160179589383,1.));
#387 = DIRECTION('',(-0.819152044289,0.573576436351,0.));
#388 = DIRECTION('',(-0.573576436351,-0.819152044289,0.));
#389 = ADVANCED_FACE('',(#390),#408,.T.);
#390 = FACE_BOUND('',#391,.T.);
#391 = EDGE_LOOP('',(#392,#393,#401,#407));
#392 = ORIENTED_EDGE('',*,*,#73,.F.);
#393 = ORIENTED_EDGE('',*,*,#394,.F.);
#394 = EDGE_CURVE('',#395,#65,#397,.T.);
#395 = VERTEX_POINT('',#396);
#396 = CARTESIAN_POINT('',(11.040624150762,16.465024092348,1.));
#397 = LINE('',#398,#399);
#398 = CARTESIAN_POINT('',(11.040624150762,16.465024092348,1.));
#399 = VECTOR('',#400,1.);
#400 = DIRECTION('',(0.,0.,-1.));
#401 = ORIENTED_EDGE('',*,*,#402,.T.);
#402 = EDGE_CURVE('',#395,#232,#403,.T.);
#403 = LINE('',#404,#405);
#404 = CARTESIAN_POINT('',(11.148467767382,16.619040738464,1.));
#405 = VECTOR('',#406,1.);
#406 = DIRECTION('',(0.573576436351,0.819152044289,0.));
#407 = ORIENTED_EDGE('',*,*,#264,.T.);
#408 = PLANE('',#409);
#409 = AXIS2_PLACEMENT_3D('',#410,#411,#412);
#410 = CARTESIAN_POINT('',(11.148467767382,16.619040738464,1.));
#411 = DIRECTION('',(-0.819152044289,0.573576436351,0.));
#412 = DIRECTION('',(-0.573576436351,-0.819152044289,0.));
#413 = ADVANCED_FACE('',(#414),#426,.T.);
#414 = FACE_BOUND('',#415,.T.);
#415 = EDGE_LOOP('',(#416,#417,#418,#425));
#416 = ORIENTED_EDGE('',*,*,#64,.T.);
#417 = ORIENTED_EDGE('',*,*,#379,.F.);
#418 = ORIENTED_EDGE('',*,*,#419,.F.);
#419 = EDGE_CURVE('',#395,#372,#420,.T.);
#420 = CIRCLE('',#421,0.4);
#421 = AXIS2_PLACEMENT_3D('',#422,#423,#424);
#422 = CARTESIAN_POINT('',(11.368284968478,16.235593517808,1.));
#423 = DIRECTION('',(0.,0.,1.));
#424 = DIRECTION('',(1.,0.,-0.));
#425 = ORIENTED_EDGE('',*,*,#394,.T.);
#426 = CYLINDRICAL_SURFACE('',#427,0.4);
#427 = AXIS2_PLACEMENT_3D('',#428,#429,#430);
#428 = CARTESIAN_POINT('',(11.368284968478,16.235593517808,1.));
#429 = DIRECTION('',(0.,0.,-1.));
#430 = DIRECTION('',(-1.,0.,0.));
#431 = ADVANCED_FACE('',(#432),#438,.T.);
#432 = FACE_BOUND('',#433,.T.);
#433 = EDGE_LOOP('',(#434,#435,#436,#437));
#434 = ORIENTED_EDGE('',*,*,#371,.T.);
#435 = ORIENTED_EDGE('',*,*,#231,.T.);
#436 = ORIENTED_EDGE('',*,*,#402,.F.);
#437 = ORIENTED_EDGE('',*,*,#419,.T.);
#438 = PLANE('',#439);
#439 = AXIS2_PLACEMENT_3D('',#440,#441,#442);
#440 = CARTESIAN_POINT('',(0.,0.,1.));
#441 = DIRECTION('',(0.,0.,1.));
#442 = DIRECTION('',(1.,0.,-0.));
#443 = ( GEOMETRIC_REPRESENTATION_CONTEXT(3) 
GLOBAL_UNCERTAINTY_ASSIGNED_CONTEXT((#447)) GLOBAL_UNIT_ASSIGNED_CONTEXT
((#444,#445,#446)) REPRESENTATION_CONTEXT('Context #1',
  '3D Context with UNIT and UNCERTAINTY') );
#444 = ( LENGTH_UNIT() NAMED_UNIT(*) SI_UNIT(.MILLI.,.METRE.) );
#445 = ( NAMED_UNIT(*) PLANE_ANGLE_UNIT() SI_UNIT($,.RADIAN.) );
#446 = ( NAMED_UNIT(*) SI_UNIT($,.STERADIAN.) SOLID_ANGLE_UNIT() );
#447 = UNCERTAINTY_MEASURE_WITH_UNIT(LENGTH_MEASURE(2.E-06),#444,
  'distance_accuracy_value','confusion accuracy');
#448 = CONTEXT_DEPENDENT_SHAPE_REPRESENTATION(#449,#451);
#449 = ( REPRESENTATION_RELATIONSHIP('','',#36,#10) 
REPRESENTATION_RELATIONSHIP_WITH_TRANSFORMATION(#450) 
SHAPE_REPRESENTATION_RELATIONSHIP() );
#450 = ITEM_DEFINED_TRANSFORMATION('','',#11,#15);
#451 = PRODUCT_DEFINITION_SHAPE('Placement','Placement of an item',#452
  );
#452 = NEXT_ASSEMBLY_USAGE_OCCURRENCE('3','cirque 40mm002','',#5,#31,$);
#453 = PRODUCT_RELATED_PRODUCT_CATEGORY('part',$,(#33));
#454 = SHAPE_DEFINITION_REPRESENTATION(#455,#461);
#455 = PRODUCT_DEFINITION_SHAPE('','',#456);
#456 = PRODUCT_DEFINITION('design','',#457,#460);
#457 = PRODUCT_DEFINITION_FORMATION('','',#458);
#458 = PRODUCT('Body001 (Mirror #1)','Body001 (Mirror #1)','',(#459));
#459 = PRODUCT_CONTEXT('',#2,'mechanical');
#460 = PRODUCT_DEFINITION_CONTEXT('part definition',#2,'design');
#461 = ADVANCED_BREP_SHAPE_REPRESENTATION('',(#11,#462),#1034);
#462 = MANIFOLD_SOLID_BREP('',#463);
#463 = CLOSED_SHELL('',(#464,#504,#554,#672,#759,#776,#793,#810,#822,
    #846,#882,#899,#923,#959,#976,#988,#1000,#1017));
#464 = ADVANCED_FACE('',(#465),#499,.T.);
#465 = FACE_BOUND('',#466,.F.);
#466 = EDGE_LOOP('',(#467,#477,#485,#493));
#467 = ORIENTED_EDGE('',*,*,#468,.T.);
#468 = EDGE_CURVE('',#469,#471,#473,.T.);
#469 = VERTEX_POINT('',#470);
#470 = CARTESIAN_POINT('',(19.062332874216,8.810645004346,0.));
#471 = VERTEX_POINT('',#472);
#472 = CARTESIAN_POINT('',(19.062332874216,8.810645004346,15.1));
#473 = LINE('',#474,#475);
#474 = CARTESIAN_POINT('',(19.062332874216,8.810645004346,0.));
#475 = VECTOR('',#476,1.);
#476 = DIRECTION('',(0.,0.,1.));
#477 = ORIENTED_EDGE('',*,*,#478,.T.);
#478 = EDGE_CURVE('',#471,#479,#481,.T.);
#479 = VERTEX_POINT('',#480);
#480 = CARTESIAN_POINT('',(16.03940568124,8.810645004346,15.1));
#481 = LINE('',#482,#483);
#482 = CARTESIAN_POINT('',(19.062332874216,8.810645004346,15.1));
#483 = VECTOR('',#484,1.);
#484 = DIRECTION('',(-1.,-0.,-0.));
#485 = ORIENTED_EDGE('',*,*,#486,.F.);
#486 = EDGE_CURVE('',#487,#479,#489,.T.);
#487 = VERTEX_POINT('',#488);
#488 = CARTESIAN_POINT('',(16.03940568124,8.810645004346,0.));
#489 = LINE('',#490,#491);
#490 = CARTESIAN_POINT('',(16.03940568124,8.810645004346,0.));
#491 = VECTOR('',#492,1.);
#492 = DIRECTION('',(0.,0.,1.));
#493 = ORIENTED_EDGE('',*,*,#494,.F.);
#494 = EDGE_CURVE('',#469,#487,#495,.T.);
#495 = LINE('',#496,#497);
#496 = CARTESIAN_POINT('',(19.062332874216,8.810645004346,0.));
#497 = VECTOR('',#498,1.);
#498 = DIRECTION('',(-1.,-0.,-0.));
#499 = PLANE('',#500);
#500 = AXIS2_PLACEMENT_3D('',#501,#502,#503);
#501 = CARTESIAN_POINT('',(19.062332874216,8.810645004346,0.));
#502 = DIRECTION('',(0.,1.,0.));
#503 = DIRECTION('',(1.,0.,0.));
#504 = ADVANCED_FACE('',(#505),#549,.T.);
#505 = FACE_BOUND('',#506,.T.);
#506 = EDGE_LOOP('',(#507,#516,#517,#526,#534,#543));
#507 = ORIENTED_EDGE('',*,*,#508,.F.);
#508 = EDGE_CURVE('',#469,#509,#511,.T.);
#509 = VERTEX_POINT('',#510);
#510 = CARTESIAN_POINT('',(-20.66887636523,-3.714505323572,0.));
#511 = CIRCLE('',#512,21.);
#512 = AXIS2_PLACEMENT_3D('',#513,#514,#515);
#513 = CARTESIAN_POINT('',(3.595030408374E-25,-7.909028824799E-25,0.));
#514 = DIRECTION('',(0.,0.,-1.));
#515 = DIRECTION('',(-1.,-0.,-0.));
#516 = ORIENTED_EDGE('',*,*,#468,.T.);
#517 = ORIENTED_EDGE('',*,*,#518,.T.);
#518 = EDGE_CURVE('',#471,#519,#521,.T.);
#519 = VERTEX_POINT('',#520);
#520 = CARTESIAN_POINT('',(-20.80096018405,2.884450627314,15.1));
#521 = CIRCLE('',#522,21.);
#522 = AXIS2_PLACEMENT_3D('',#523,#524,#525);
#523 = CARTESIAN_POINT('',(3.595030408374E-25,-7.909028824799E-25,15.1)
  );
#524 = DIRECTION('',(0.,0.,-1.));
#525 = DIRECTION('',(-1.,-0.,-0.));
#526 = ORIENTED_EDGE('',*,*,#527,.F.);
#527 = EDGE_CURVE('',#528,#519,#530,.T.);
#528 = VERTEX_POINT('',#529);
#529 = CARTESIAN_POINT('',(-20.80096018405,2.884450627314,2.));
#530 = LINE('',#531,#532);
#531 = CARTESIAN_POINT('',(-20.80096018405,2.884450627314,0.));
#532 = VECTOR('',#533,1.);
#533 = DIRECTION('',(0.,0.,1.));
#534 = ORIENTED_EDGE('',*,*,#535,.T.);
#535 = EDGE_CURVE('',#528,#536,#538,.T.);
#536 = VERTEX_POINT('',#537);
#537 = CARTESIAN_POINT('',(-20.66887636523,-3.714505323572,2.));
#538 = CIRCLE('',#539,21.);
#539 = AXIS2_PLACEMENT_3D('',#540,#541,#542);
#540 = CARTESIAN_POINT('',(3.595030408374E-25,-7.909028824799E-25,2.));
#541 = DIRECTION('',(0.,0.,1.));
#542 = DIRECTION('',(-1.,-0.,-0.));
#543 = ORIENTED_EDGE('',*,*,#544,.T.);
#544 = EDGE_CURVE('',#536,#509,#545,.T.);
#545 = LINE('',#546,#547);
#546 = CARTESIAN_POINT('',(-20.66887636523,-3.714505323572,0.));
#547 = VECTOR('',#548,1.);
#548 = DIRECTION('',(0.,-0.,-1.));
#549 = CYLINDRICAL_SURFACE('',#550,21.);
#550 = AXIS2_PLACEMENT_3D('',#551,#552,#553);
#551 = CARTESIAN_POINT('',(3.595030408374E-25,-7.909028824799E-25,0.));
#552 = DIRECTION('',(0.,0.,-1.));
#553 = DIRECTION('',(-1.,-0.,-0.));
#554 = ADVANCED_FACE('',(#555),#667,.F.);
#555 = FACE_BOUND('',#556,.F.);
#556 = EDGE_LOOP('',(#557,#566,#567,#576,#584,#593,#601,#610,#618,#627,
    #635,#644,#652,#661));
#557 = ORIENTED_EDGE('',*,*,#558,.F.);
#558 = EDGE_CURVE('',#487,#559,#561,.T.);
#559 = VERTEX_POINT('',#560);
#560 = CARTESIAN_POINT('',(18.00243886051,3.286669297874,0.));
#561 = CIRCLE('',#562,18.3);
#562 = AXIS2_PLACEMENT_3D('',#563,#564,#565);
#563 = CARTESIAN_POINT('',(3.595030408374E-25,-7.909028824799E-25,0.));
#564 = DIRECTION('',(0.,0.,-1.));
#565 = DIRECTION('',(-1.,-0.,-0.));
#566 = ORIENTED_EDGE('',*,*,#486,.T.);
#567 = ORIENTED_EDGE('',*,*,#568,.T.);
#568 = EDGE_CURVE('',#479,#569,#571,.T.);
#569 = VERTEX_POINT('',#570);
#570 = CARTESIAN_POINT('',(-18.07124634823,2.884450627314,15.1));
#571 = CIRCLE('',#572,18.3);
#572 = AXIS2_PLACEMENT_3D('',#573,#574,#575);
#573 = CARTESIAN_POINT('',(3.595030408374E-25,-7.909028824799E-25,15.1)
  );
#574 = DIRECTION('',(0.,0.,-1.));
#575 = DIRECTION('',(-1.,-0.,-0.));
#576 = ORIENTED_EDGE('',*,*,#577,.F.);
#577 = EDGE_CURVE('',#578,#569,#580,.T.);
#578 = VERTEX_POINT('',#579);
#579 = CARTESIAN_POINT('',(-18.07124634823,2.884450627314,2.));
#580 = LINE('',#581,#582);
#581 = CARTESIAN_POINT('',(-18.07124634823,2.884450627314,0.));
#582 = VECTOR('',#583,1.);
#583 = DIRECTION('',(0.,0.,1.));
#584 = ORIENTED_EDGE('',*,*,#585,.T.);
#585 = EDGE_CURVE('',#578,#586,#588,.T.);
#586 = VERTEX_POINT('',#587);
#587 = CARTESIAN_POINT('',(-18.10734516828,-2.648405361049,2.));
#588 = CIRCLE('',#589,18.3);
#589 = AXIS2_PLACEMENT_3D('',#590,#591,#592);
#590 = CARTESIAN_POINT('',(3.595030408374E-25,-7.909028824799E-25,2.));
#591 = DIRECTION('',(0.,0.,1.));
#592 = DIRECTION('',(-1.,-0.,-0.));
#593 = ORIENTED_EDGE('',*,*,#594,.T.);
#594 = EDGE_CURVE('',#586,#595,#597,.T.);
#595 = VERTEX_POINT('',#596);
#596 = CARTESIAN_POINT('',(-18.10734516828,-2.648405361049,0.));
#597 = LINE('',#598,#599);
#598 = CARTESIAN_POINT('',(-18.10734516828,-2.648405361049,0.));
#599 = VECTOR('',#600,1.);
#600 = DIRECTION('',(0.,-0.,-1.));
#601 = ORIENTED_EDGE('',*,*,#602,.F.);
#602 = EDGE_CURVE('',#603,#595,#605,.T.);
#603 = VERTEX_POINT('',#604);
#604 = CARTESIAN_POINT('',(-13.01805660149,-12.86157853143,0.));
#605 = CIRCLE('',#606,18.3);
#606 = AXIS2_PLACEMENT_3D('',#607,#608,#609);
#607 = CARTESIAN_POINT('',(3.595030408374E-25,-7.909028824799E-25,0.));
#608 = DIRECTION('',(0.,0.,-1.));
#609 = DIRECTION('',(-1.,-0.,-0.));
#610 = ORIENTED_EDGE('',*,*,#611,.F.);
#611 = EDGE_CURVE('',#612,#603,#614,.T.);
#612 = VERTEX_POINT('',#613);
#613 = CARTESIAN_POINT('',(-13.01805660149,-12.86157853143,3.4));
#614 = LINE('',#615,#616);
#615 = CARTESIAN_POINT('',(-13.01805660149,-12.86157853143,0.));
#616 = VECTOR('',#617,1.);
#617 = DIRECTION('',(0.,0.,-1.));
#618 = ORIENTED_EDGE('',*,*,#619,.T.);
#619 = EDGE_CURVE('',#612,#620,#622,.T.);
#620 = VERTEX_POINT('',#621);
#621 = CARTESIAN_POINT('',(-7.633492852983,-16.63189065811,3.4));
#622 = CIRCLE('',#623,18.3);
#623 = AXIS2_PLACEMENT_3D('',#624,#625,#626);
#624 = CARTESIAN_POINT('',(3.595030408374E-25,-7.909028824799E-25,3.4));
#625 = DIRECTION('',(0.,0.,1.));
#626 = DIRECTION('',(-1.,-0.,-0.));
#627 = ORIENTED_EDGE('',*,*,#628,.T.);
#628 = EDGE_CURVE('',#620,#629,#631,.T.);
#629 = VERTEX_POINT('',#630);
#630 = CARTESIAN_POINT('',(-7.633492852983,-16.63189065811,0.));
#631 = LINE('',#632,#633);
#632 = CARTESIAN_POINT('',(-7.633492852983,-16.63189065811,0.));
#633 = VECTOR('',#634,1.);
#634 = DIRECTION('',(0.,0.,-1.));
#635 = ORIENTED_EDGE('',*,*,#636,.F.);
#636 = EDGE_CURVE('',#637,#629,#639,.T.);
#637 = VERTEX_POINT('',#638);
#638 = CARTESIAN_POINT('',(18.00243886051,-3.286669297874,0.));
#639 = CIRCLE('',#640,18.3);
#640 = AXIS2_PLACEMENT_3D('',#641,#642,#643);
#641 = CARTESIAN_POINT('',(3.595030408374E-25,-7.909028824799E-25,0.));
#642 = DIRECTION('',(0.,0.,-1.));
#643 = DIRECTION('',(-1.,-0.,-0.));
#644 = ORIENTED_EDGE('',*,*,#645,.F.);
#645 = EDGE_CURVE('',#646,#637,#648,.T.);
#646 = VERTEX_POINT('',#647);
#647 = CARTESIAN_POINT('',(18.00243886051,-3.286669297875,3.4));
#648 = LINE('',#649,#650);
#649 = CARTESIAN_POINT('',(18.00243886051,-3.286669297875,0.));
#650 = VECTOR('',#651,1.);
#651 = DIRECTION('',(0.,0.,-1.));
#652 = ORIENTED_EDGE('',*,*,#653,.T.);
#653 = EDGE_CURVE('',#646,#654,#656,.T.);
#654 = VERTEX_POINT('',#655);
#655 = CARTESIAN_POINT('',(18.00243886051,3.286669297875,3.4));
#656 = CIRCLE('',#657,18.3);
#657 = AXIS2_PLACEMENT_3D('',#658,#659,#660);
#658 = CARTESIAN_POINT('',(3.595030408374E-25,-7.909028824799E-25,3.4));
#659 = DIRECTION('',(0.,0.,1.));
#660 = DIRECTION('',(-1.,-0.,-0.));
#661 = ORIENTED_EDGE('',*,*,#662,.T.);
#662 = EDGE_CURVE('',#654,#559,#663,.T.);
#663 = LINE('',#664,#665);
#664 = CARTESIAN_POINT('',(18.00243886051,3.286669297875,0.));
#665 = VECTOR('',#666,1.);
#666 = DIRECTION('',(0.,0.,-1.));
#667 = CYLINDRICAL_SURFACE('',#668,18.3);
#668 = AXIS2_PLACEMENT_3D('',#669,#670,#671);
#669 = CARTESIAN_POINT('',(3.595030408374E-25,-7.909028824799E-25,0.));
#670 = DIRECTION('',(0.,0.,-1.));
#671 = DIRECTION('',(-1.,-0.,-0.));
#672 = ADVANCED_FACE('',(#673,#732,#743),#754,.T.);
#673 = FACE_BOUND('',#674,.F.);
#674 = EDGE_LOOP('',(#675,#676,#677,#678,#686,#695,#701,#702,#710,#719,
    #725,#726));
#675 = ORIENTED_EDGE('',*,*,#508,.F.);
#676 = ORIENTED_EDGE('',*,*,#494,.T.);
#677 = ORIENTED_EDGE('',*,*,#558,.T.);
#678 = ORIENTED_EDGE('',*,*,#679,.F.);
#679 = EDGE_CURVE('',#680,#559,#682,.T.);
#680 = VERTEX_POINT('',#681);
#681 = CARTESIAN_POINT('',(14.954918032787,2.985452500481,0.));
#682 = LINE('',#683,#684);
#683 = CARTESIAN_POINT('',(14.954918032787,2.985452500481,0.));
#684 = VECTOR('',#685,1.);
#685 = DIRECTION('',(0.995150833494,9.83606557377E-02,0.));
#686 = ORIENTED_EDGE('',*,*,#687,.F.);
#687 = EDGE_CURVE('',#688,#680,#690,.T.);
#688 = VERTEX_POINT('',#689);
#689 = CARTESIAN_POINT('',(14.954918032787,-2.985452500481,0.));
#690 = CIRCLE('',#691,3.);
#691 = AXIS2_PLACEMENT_3D('',#692,#693,#694);
#692 = CARTESIAN_POINT('',(15.25,1.87E-15,0.));
#693 = DIRECTION('',(0.,0.,-1.));
#694 = DIRECTION('',(-1.,-0.,-0.));
#695 = ORIENTED_EDGE('',*,*,#696,.T.);
#696 = EDGE_CURVE('',#688,#637,#697,.T.);
#697 = LINE('',#698,#699);
#698 = CARTESIAN_POINT('',(14.954918032787,-2.985452500481,0.));
#699 = VECTOR('',#700,1.);
#700 = DIRECTION('',(0.995150833494,-9.83606557377E-02,0.));
#701 = ORIENTED_EDGE('',*,*,#636,.T.);
#702 = ORIENTED_EDGE('',*,*,#703,.F.);
#703 = EDGE_CURVE('',#704,#629,#706,.T.);
#704 = VERTEX_POINT('',#705);
#705 = CARTESIAN_POINT('',(-6.132249072272,-13.96273688485,0.));
#706 = LINE('',#707,#708);
#707 = CARTESIAN_POINT('',(-6.132249072272,-13.96273688485,0.));
#708 = VECTOR('',#709,1.);
#709 = DIRECTION('',(-0.490222736482,-0.871597194027,-0.));
#710 = ORIENTED_EDGE('',*,*,#711,.F.);
#711 = EDGE_CURVE('',#712,#704,#714,.T.);
#712 = VERTEX_POINT('',#713);
#713 = CARTESIAN_POINT('',(-11.02332811006,-10.53796647261,0.));
#714 = CIRCLE('',#715,3.);
#715 = AXIS2_PLACEMENT_3D('',#716,#717,#718);
#716 = CARTESIAN_POINT('',(-8.747040654353,-12.4920686754,0.));
#717 = DIRECTION('',(0.,0.,-1.));
#718 = DIRECTION('',(-1.,-0.,-0.));
#719 = ORIENTED_EDGE('',*,*,#720,.T.);
#720 = EDGE_CURVE('',#712,#603,#721,.T.);
#721 = LINE('',#722,#723);
#722 = CARTESIAN_POINT('',(-11.02332811006,-10.53796647261,0.));
#723 = VECTOR('',#724,1.);
#724 = DIRECTION('',(-0.651367400932,-0.758762485237,-0.));
#725 = ORIENTED_EDGE('',*,*,#602,.T.);
#726 = ORIENTED_EDGE('',*,*,#727,.T.);
#727 = EDGE_CURVE('',#595,#509,#728,.T.);
#728 = LINE('',#729,#730);
#729 = CARTESIAN_POINT('',(-15.82037608125,-1.696577149515,0.));
#730 = VECTOR('',#731,1.);
#731 = DIRECTION('',(-0.923231003085,-0.384245383762,0.));
#732 = FACE_BOUND('',#733,.F.);
#733 = EDGE_LOOP('',(#734));
#734 = ORIENTED_EDGE('',*,*,#735,.T.);
#735 = EDGE_CURVE('',#736,#736,#738,.T.);
#736 = VERTEX_POINT('',#737);
#737 = CARTESIAN_POINT('',(-10.44704065435,-12.4920686754,0.));
#738 = CIRCLE('',#739,1.7);
#739 = AXIS2_PLACEMENT_3D('',#740,#741,#742);
#740 = CARTESIAN_POINT('',(-8.747040654353,-12.4920686754,0.));
#741 = DIRECTION('',(0.,0.,-1.));
#742 = DIRECTION('',(-1.,-0.,-0.));
#743 = FACE_BOUND('',#744,.F.);
#744 = EDGE_LOOP('',(#745));
#745 = ORIENTED_EDGE('',*,*,#746,.T.);
#746 = EDGE_CURVE('',#747,#747,#749,.T.);
#747 = VERTEX_POINT('',#748);
#748 = CARTESIAN_POINT('',(13.55,2.E-15,0.));
#749 = CIRCLE('',#750,1.7);
#750 = AXIS2_PLACEMENT_3D('',#751,#752,#753);
#751 = CARTESIAN_POINT('',(15.25,1.87E-15,0.));
#752 = DIRECTION('',(0.,0.,-1.));
#753 = DIRECTION('',(-1.,-0.,-0.));
#754 = PLANE('',#755);
#755 = AXIS2_PLACEMENT_3D('',#756,#757,#758);
#756 = CARTESIAN_POINT('',(1.478446903167,-8.095816274365,0.));
#757 = DIRECTION('',(0.,0.,-1.));
#758 = DIRECTION('',(-1.,0.,0.));
#759 = ADVANCED_FACE('',(#760),#771,.T.);
#760 = FACE_BOUND('',#761,.F.);
#761 = EDGE_LOOP('',(#762,#763,#764,#770));
#762 = ORIENTED_EDGE('',*,*,#478,.F.);
#763 = ORIENTED_EDGE('',*,*,#518,.T.);
#764 = ORIENTED_EDGE('',*,*,#765,.F.);
#765 = EDGE_CURVE('',#569,#519,#766,.T.);
#766 = LINE('',#767,#768);
#767 = CARTESIAN_POINT('',(-18.07124634823,2.884450627314,15.1));
#768 = VECTOR('',#769,1.);
#769 = DIRECTION('',(-1.,-0.,-0.));
#770 = ORIENTED_EDGE('',*,*,#568,.F.);
#771 = PLANE('',#772);
#772 = AXIS2_PLACEMENT_3D('',#773,#774,#775);
#773 = CARTESIAN_POINT('',(1.312308562197,-7.997771726494,15.1));
#774 = DIRECTION('',(0.,0.,1.));
#775 = DIRECTION('',(1.,0.,0.));
#776 = ADVANCED_FACE('',(#777),#788,.T.);
#777 = FACE_BOUND('',#778,.F.);
#778 = EDGE_LOOP('',(#779,#780,#781,#787));
#779 = ORIENTED_EDGE('',*,*,#727,.F.);
#780 = ORIENTED_EDGE('',*,*,#594,.F.);
#781 = ORIENTED_EDGE('',*,*,#782,.T.);
#782 = EDGE_CURVE('',#586,#536,#783,.T.);
#783 = LINE('',#784,#785);
#784 = CARTESIAN_POINT('',(-15.82037608125,-1.696577149515,2.));
#785 = VECTOR('',#786,1.);
#786 = DIRECTION('',(-0.923231003085,-0.384245383762,0.));
#787 = ORIENTED_EDGE('',*,*,#544,.T.);
#788 = PLANE('',#789);
#789 = AXIS2_PLACEMENT_3D('',#790,#791,#792);
#790 = CARTESIAN_POINT('',(-15.82037608125,-1.696577149515,0.));
#791 = DIRECTION('',(-0.384245383762,0.923231003085,-0.));
#792 = DIRECTION('',(0.923231003085,0.384245383762,0.));
#793 = ADVANCED_FACE('',(#794),#805,.F.);
#794 = FACE_BOUND('',#795,.T.);
#795 = EDGE_LOOP('',(#796,#797,#798,#799));
#796 = ORIENTED_EDGE('',*,*,#585,.T.);
#797 = ORIENTED_EDGE('',*,*,#782,.T.);
#798 = ORIENTED_EDGE('',*,*,#535,.F.);
#799 = ORIENTED_EDGE('',*,*,#800,.F.);
#800 = EDGE_CURVE('',#578,#528,#801,.T.);
#801 = LINE('',#802,#803);
#802 = CARTESIAN_POINT('',(-18.8284990754,2.884450627314,2.));
#803 = VECTOR('',#804,1.);
#804 = DIRECTION('',(-1.,-0.,-0.));
#805 = PLANE('',#806);
#806 = AXIS2_PLACEMENT_3D('',#807,#808,#809);
#807 = CARTESIAN_POINT('',(-19.58575180257,4.948276124782E-02,2.));
#808 = DIRECTION('',(0.,0.,1.));
#809 = DIRECTION('',(1.,0.,0.));
#810 = ADVANCED_FACE('',(#811),#817,.T.);
#811 = FACE_BOUND('',#812,.F.);
#812 = EDGE_LOOP('',(#813,#814,#815,#816));
#813 = ORIENTED_EDGE('',*,*,#800,.F.);
#814 = ORIENTED_EDGE('',*,*,#577,.T.);
#815 = ORIENTED_EDGE('',*,*,#765,.T.);
#816 = ORIENTED_EDGE('',*,*,#527,.F.);
#817 = PLANE('',#818);
#818 = AXIS2_PLACEMENT_3D('',#819,#820,#821);
#819 = CARTESIAN_POINT('',(-18.07124634823,2.884450627314,0.));
#820 = DIRECTION('',(0.,1.,0.));
#821 = DIRECTION('',(1.,0.,0.));
#822 = ADVANCED_FACE('',(#823),#841,.F.);
#823 = FACE_BOUND('',#824,.T.);
#824 = EDGE_LOOP('',(#825,#826,#834,#840));
#825 = ORIENTED_EDGE('',*,*,#679,.F.);
#826 = ORIENTED_EDGE('',*,*,#827,.T.);
#827 = EDGE_CURVE('',#680,#828,#830,.T.);
#828 = VERTEX_POINT('',#829);
#829 = CARTESIAN_POINT('',(14.954918032787,2.985452500481,3.4));
#830 = LINE('',#831,#832);
#831 = CARTESIAN_POINT('',(14.954918032787,2.985452500481,0.));
#832 = VECTOR('',#833,1.);
#833 = DIRECTION('',(0.,0.,1.));
#834 = ORIENTED_EDGE('',*,*,#835,.T.);
#835 = EDGE_CURVE('',#828,#654,#836,.T.);
#836 = LINE('',#837,#838);
#837 = CARTESIAN_POINT('',(14.954918032787,2.985452500481,3.4));
#838 = VECTOR('',#839,1.);
#839 = DIRECTION('',(0.995150833494,9.83606557377E-02,0.));
#840 = ORIENTED_EDGE('',*,*,#662,.T.);
#841 = PLANE('',#842);
#842 = AXIS2_PLACEMENT_3D('',#843,#844,#845);
#843 = CARTESIAN_POINT('',(14.954918032787,2.985452500481,0.));
#844 = DIRECTION('',(9.83606557377E-02,-0.995150833494,0.));
#845 = DIRECTION('',(-0.995150833494,-9.83606557377E-02,0.));
#846 = ADVANCED_FACE('',(#847,#866),#877,.T.);
#847 = FACE_BOUND('',#848,.F.);
#848 = EDGE_LOOP('',(#849,#857,#864,#865));
#849 = ORIENTED_EDGE('',*,*,#850,.F.);
#850 = EDGE_CURVE('',#851,#646,#853,.T.);
#851 = VERTEX_POINT('',#852);
#852 = CARTESIAN_POINT('',(14.954918032787,-2.985452500481,3.4));
#853 = LINE('',#854,#855);
#854 = CARTESIAN_POINT('',(14.954918032787,-2.985452500481,3.4));
#855 = VECTOR('',#856,1.);
#856 = DIRECTION('',(0.995150833494,-9.83606557377E-02,0.));
#857 = ORIENTED_EDGE('',*,*,#858,.T.);
#858 = EDGE_CURVE('',#851,#828,#859,.T.);
#859 = CIRCLE('',#860,3.);
#860 = AXIS2_PLACEMENT_3D('',#861,#862,#863);
#861 = CARTESIAN_POINT('',(15.25,1.87E-15,3.4));
#862 = DIRECTION('',(0.,0.,-1.));
#863 = DIRECTION('',(-1.,-0.,-0.));
#864 = ORIENTED_EDGE('',*,*,#835,.T.);
#865 = ORIENTED_EDGE('',*,*,#653,.F.);
#866 = FACE_BOUND('',#867,.F.);
#867 = EDGE_LOOP('',(#868));
#868 = ORIENTED_EDGE('',*,*,#869,.F.);
#869 = EDGE_CURVE('',#870,#870,#872,.T.);
#870 = VERTEX_POINT('',#871);
#871 = CARTESIAN_POINT('',(13.55,2.E-15,3.4));
#872 = CIRCLE('',#873,1.7);
#873 = AXIS2_PLACEMENT_3D('',#874,#875,#876);
#874 = CARTESIAN_POINT('',(15.25,1.87E-15,3.4));
#875 = DIRECTION('',(0.,0.,-1.));
#876 = DIRECTION('',(-1.,-0.,-0.));
#877 = PLANE('',#878);
#878 = AXIS2_PLACEMENT_3D('',#879,#880,#881);
#879 = CARTESIAN_POINT('',(3.267289213477,-6.611825761649,3.4));
#880 = DIRECTION('',(0.,0.,1.));
#881 = DIRECTION('',(1.,0.,0.));
#882 = ADVANCED_FACE('',(#883),#894,.T.);
#883 = FACE_BOUND('',#884,.F.);
#884 = EDGE_LOOP('',(#885,#886,#892,#893));
#885 = ORIENTED_EDGE('',*,*,#696,.F.);
#886 = ORIENTED_EDGE('',*,*,#887,.T.);
#887 = EDGE_CURVE('',#688,#851,#888,.T.);
#888 = LINE('',#889,#890);
#889 = CARTESIAN_POINT('',(14.954918032787,-2.985452500481,0.));
#890 = VECTOR('',#891,1.);
#891 = DIRECTION('',(0.,0.,1.));
#892 = ORIENTED_EDGE('',*,*,#850,.T.);
#893 = ORIENTED_EDGE('',*,*,#645,.T.);
#894 = PLANE('',#895);
#895 = AXIS2_PLACEMENT_3D('',#896,#897,#898);
#896 = CARTESIAN_POINT('',(14.954918032787,-2.985452500481,0.));
#897 = DIRECTION('',(-9.83606557377E-02,-0.995150833494,-0.));
#898 = DIRECTION('',(-0.995150833494,9.83606557377E-02,0.));
#899 = ADVANCED_FACE('',(#900),#918,.F.);
#900 = FACE_BOUND('',#901,.T.);
#901 = EDGE_LOOP('',(#902,#903,#911,#917));
#902 = ORIENTED_EDGE('',*,*,#703,.F.);
#903 = ORIENTED_EDGE('',*,*,#904,.T.);
#904 = EDGE_CURVE('',#704,#905,#907,.T.);
#905 = VERTEX_POINT('',#906);
#906 = CARTESIAN_POINT('',(-6.132249072272,-13.96273688485,3.4));
#907 = LINE('',#908,#909);
#908 = CARTESIAN_POINT('',(-6.132249072272,-13.96273688485,0.));
#909 = VECTOR('',#910,1.);
#910 = DIRECTION('',(0.,0.,1.));
#911 = ORIENTED_EDGE('',*,*,#912,.T.);
#912 = EDGE_CURVE('',#905,#620,#913,.T.);
#913 = LINE('',#914,#915);
#914 = CARTESIAN_POINT('',(-6.132249072272,-13.96273688485,3.4));
#915 = VECTOR('',#916,1.);
#916 = DIRECTION('',(-0.490222736482,-0.871597194027,-0.));
#917 = ORIENTED_EDGE('',*,*,#628,.T.);
#918 = PLANE('',#919);
#919 = AXIS2_PLACEMENT_3D('',#920,#921,#922);
#920 = CARTESIAN_POINT('',(-6.132249072272,-13.96273688485,0.));
#921 = DIRECTION('',(-0.871597194027,0.490222736482,0.));
#922 = DIRECTION('',(0.490222736482,0.871597194027,0.));
#923 = ADVANCED_FACE('',(#924,#943),#954,.T.);
#924 = FACE_BOUND('',#925,.F.);
#925 = EDGE_LOOP('',(#926,#934,#941,#942));
#926 = ORIENTED_EDGE('',*,*,#927,.F.);
#927 = EDGE_CURVE('',#928,#612,#930,.T.);
#928 = VERTEX_POINT('',#929);
#929 = CARTESIAN_POINT('',(-11.02332811006,-10.53796647261,3.4));
#930 = LINE('',#931,#932);
#931 = CARTESIAN_POINT('',(-11.02332811006,-10.53796647261,3.4));
#932 = VECTOR('',#933,1.);
#933 = DIRECTION('',(-0.651367400932,-0.758762485237,-0.));
#934 = ORIENTED_EDGE('',*,*,#935,.T.);
#935 = EDGE_CURVE('',#928,#905,#936,.T.);
#936 = CIRCLE('',#937,3.);
#937 = AXIS2_PLACEMENT_3D('',#938,#939,#940);
#938 = CARTESIAN_POINT('',(-8.747040654353,-12.4920686754,3.4));
#939 = DIRECTION('',(0.,0.,-1.));
#940 = DIRECTION('',(-1.,-0.,-0.));
#941 = ORIENTED_EDGE('',*,*,#912,.T.);
#942 = ORIENTED_EDGE('',*,*,#619,.F.);
#943 = FACE_BOUND('',#944,.F.);
#944 = EDGE_LOOP('',(#945));
#945 = ORIENTED_EDGE('',*,*,#946,.F.);
#946 = EDGE_CURVE('',#947,#947,#949,.T.);
#947 = VERTEX_POINT('',#948);
#948 = CARTESIAN_POINT('',(-10.44704065435,-12.4920686754,3.4));
#949 = CIRCLE('',#950,1.7);
#950 = AXIS2_PLACEMENT_3D('',#951,#952,#953);
#951 = CARTESIAN_POINT('',(-8.747040654353,-12.4920686754,3.4));
#952 = DIRECTION('',(0.,0.,-1.));
#953 = DIRECTION('',(-1.,-0.,-0.));
#954 = PLANE('',#955);
#955 = AXIS2_PLACEMENT_3D('',#956,#957,#958);
#956 = CARTESIAN_POINT('',(3.267289213477,-6.611825761649,3.4));
#957 = DIRECTION('',(0.,0.,1.));
#958 = DIRECTION('',(1.,0.,0.));
#959 = ADVANCED_FACE('',(#960),#971,.T.);
#960 = FACE_BOUND('',#961,.F.);
#961 = EDGE_LOOP('',(#962,#963,#969,#970));
#962 = ORIENTED_EDGE('',*,*,#720,.F.);
#963 = ORIENTED_EDGE('',*,*,#964,.T.);
#964 = EDGE_CURVE('',#712,#928,#965,.T.);
#965 = LINE('',#966,#967);
#966 = CARTESIAN_POINT('',(-11.02332811006,-10.53796647261,0.));
#967 = VECTOR('',#968,1.);
#968 = DIRECTION('',(0.,0.,1.));
#969 = ORIENTED_EDGE('',*,*,#927,.T.);
#970 = ORIENTED_EDGE('',*,*,#611,.T.);
#971 = PLANE('',#972);
#972 = AXIS2_PLACEMENT_3D('',#973,#974,#975);
#973 = CARTESIAN_POINT('',(-11.02332811006,-10.53796647261,0.));
#974 = DIRECTION('',(-0.758762485237,0.651367400932,0.));
#975 = DIRECTION('',(0.651367400932,0.758762485237,0.));
#976 = ADVANCED_FACE('',(#977),#983,.T.);
#977 = FACE_BOUND('',#978,.T.);
#978 = EDGE_LOOP('',(#979,#980,#981,#982));
#979 = ORIENTED_EDGE('',*,*,#964,.T.);
#980 = ORIENTED_EDGE('',*,*,#935,.T.);
#981 = ORIENTED_EDGE('',*,*,#904,.F.);
#982 = ORIENTED_EDGE('',*,*,#711,.F.);
#983 = CYLINDRICAL_SURFACE('',#984,3.);
#984 = AXIS2_PLACEMENT_3D('',#985,#986,#987);
#985 = CARTESIAN_POINT('',(-8.747040654353,-12.4920686754,0.));
#986 = DIRECTION('',(0.,0.,-1.));
#987 = DIRECTION('',(-1.,-0.,-0.));
#988 = ADVANCED_FACE('',(#989),#995,.T.);
#989 = FACE_BOUND('',#990,.T.);
#990 = EDGE_LOOP('',(#991,#992,#993,#994));
#991 = ORIENTED_EDGE('',*,*,#887,.T.);
#992 = ORIENTED_EDGE('',*,*,#858,.T.);
#993 = ORIENTED_EDGE('',*,*,#827,.F.);
#994 = ORIENTED_EDGE('',*,*,#687,.F.);
#995 = CYLINDRICAL_SURFACE('',#996,3.);
#996 = AXIS2_PLACEMENT_3D('',#997,#998,#999);
#997 = CARTESIAN_POINT('',(15.25,1.87E-15,0.));
#998 = DIRECTION('',(0.,0.,-1.));
#999 = DIRECTION('',(-1.,-0.,-0.));
#1000 = ADVANCED_FACE('',(#1001),#1012,.F.);
#1001 = FACE_BOUND('',#1002,.F.);
#1002 = EDGE_LOOP('',(#1003,#1009,#1010,#1011));
#1003 = ORIENTED_EDGE('',*,*,#1004,.T.);
#1004 = EDGE_CURVE('',#736,#947,#1005,.T.);
#1005 = LINE('',#1006,#1007);
#1006 = CARTESIAN_POINT('',(-10.44704065435,-12.4920686754,0.));
#1007 = VECTOR('',#1008,1.);
#1008 = DIRECTION('',(0.,0.,1.));
#1009 = ORIENTED_EDGE('',*,*,#946,.T.);
#1010 = ORIENTED_EDGE('',*,*,#1004,.F.);
#1011 = ORIENTED_EDGE('',*,*,#735,.F.);
#1012 = CYLINDRICAL_SURFACE('',#1013,1.7);
#1013 = AXIS2_PLACEMENT_3D('',#1014,#1015,#1016);
#1014 = CARTESIAN_POINT('',(-8.747040654353,-12.4920686754,0.));
#1015 = DIRECTION('',(0.,0.,-1.));
#1016 = DIRECTION('',(-1.,-0.,-0.));
#1017 = ADVANCED_FACE('',(#1018),#1029,.F.);
#1018 = FACE_BOUND('',#1019,.F.);
#1019 = EDGE_LOOP('',(#1020,#1026,#1027,#1028));
#1020 = ORIENTED_EDGE('',*,*,#1021,.T.);
#1021 = EDGE_CURVE('',#747,#870,#1022,.T.);
#1022 = LINE('',#1023,#1024);
#1023 = CARTESIAN_POINT('',(13.55,2.E-15,0.));
#1024 = VECTOR('',#1025,1.);
#1025 = DIRECTION('',(0.,0.,1.));
#1026 = ORIENTED_EDGE('',*,*,#869,.T.);
#1027 = ORIENTED_EDGE('',*,*,#1021,.F.);
#1028 = ORIENTED_EDGE('',*,*,#746,.F.);
#1029 = CYLINDRICAL_SURFACE('',#1030,1.7);
#1030 = AXIS2_PLACEMENT_3D('',#1031,#1032,#1033);
#1031 = CARTESIAN_POINT('',(15.25,1.87E-15,0.));
#1032 = DIRECTION('',(0.,0.,-1.));
#1033 = DIRECTION('',(-1.,-0.,-0.));
#1034 = ( GEOMETRIC_REPRESENTATION_CONTEXT(3) 
GLOBAL_UNCERTAINTY_ASSIGNED_CONTEXT((#1038)) 
GLOBAL_UNIT_ASSIGNED_CONTEXT((#1035,#1036,#1037)) REPRESENTATION_CONTEXT
('Context #1','3D Context with UNIT and UNCERTAINTY') );
#1035 = ( LENGTH_UNIT() NAMED_UNIT(*) SI_UNIT(.MILLI.,.METRE.) );
#1036 = ( NAMED_UNIT(*) PLANE_ANGLE_UNIT() SI_UNIT($,.RADIAN.) );
#1037 = ( NAMED_UNIT(*) SI_UNIT($,.STERADIAN.) SOLID_ANGLE_UNIT() );
#1038 = UNCERTAINTY_MEASURE_WITH_UNIT(LENGTH_MEASURE(2.E-06),#1035,
  'distance_accuracy_value','confusion accuracy');
#1039 = CONTEXT_DEPENDENT_SHAPE_REPRESENTATION(#1040,#1042);
#1040 = ( REPRESENTATION_RELATIONSHIP('','',#461,#10) 
REPRESENTATION_RELATIONSHIP_WITH_TRANSFORMATION(#1041) 
SHAPE_REPRESENTATION_RELATIONSHIP() );
#1041 = ITEM_DEFINED_TRANSFORMATION('','',#11,#19);
#1042 = PRODUCT_DEFINITION_SHAPE('Placement','Placement of an item',
  #1043);
#1043 = NEXT_ASSEMBLY_USAGE_OCCURRENCE('4','Body001 (Mirror #1)','',#5,
  #456,$);
#1044 = PRODUCT_RELATED_PRODUCT_CATEGORY('part',$,(#458));
#1045 = MECHANICAL_DESIGN_GEOMETRIC_PRESENTATION_REPRESENTATION('',(
    #1046),#443);
#1046 = STYLED_ITEM('color',(#1047),#37);
#1047 = PRESENTATION_STYLE_ASSIGNMENT((#1048,#1054));
#1048 = SURFACE_STYLE_USAGE(.BOTH.,#1049);
#1049 = SURFACE_SIDE_STYLE('',(#1050));
#1050 = SURFACE_STYLE_FILL_AREA(#1051);
#1051 = FILL_AREA_STYLE('',(#1052));
#1052 = FILL_AREA_STYLE_COLOUR('',#1053);
#1053 = COLOUR_RGB('',0.647058850868,0.647058850868,0.647058850868);
#1054 = CURVE_STYLE('',#1055,POSITIVE_LENGTH_MEASURE(0.1),#1056);
#1055 = DRAUGHTING_PRE_DEFINED_CURVE_FONT('continuous');
#1056 = COLOUR_RGB('',9.803921802644E-02,9.803921802644E-02,
  9.803921802644E-02);
#1057 = MECHANICAL_DESIGN_GEOMETRIC_PRESENTATION_REPRESENTATION('',(
    #1058),#1034);
#1058 = STYLED_ITEM('color',(#1059),#462);
#1059 = PRESENTATION_STYLE_ASSIGNMENT((#1060,#1066));
#1060 = SURFACE_STYLE_USAGE(.BOTH.,#1061);
#1061 = SURFACE_SIDE_STYLE('',(#1062));
#1062 = SURFACE_STYLE_FILL_AREA(#1063);
#1063 = FILL_AREA_STYLE('',(#1064));
#1064 = FILL_AREA_STYLE_COLOUR('',#1065);
#1065 = COLOUR_RGB('',0.447058818107,0.474509808674,0.501960817233);
#1066 = CURVE_STYLE('',#1067,POSITIVE_LENGTH_MEASURE(0.1),#1056);
#1067 = DRAUGHTING_PRE_DEFINED_CURVE_FONT('continuous');
ENDSEC;
END-ISO-10303-21;
