ISO-10303-21;
HEADER;
FILE_DESCRIPTION(('FreeCAD Model'),'2;1');
FILE_NAME('Open CASCADE Shape Model','2025-09-03T14:18:52',(''),(''),
  'Open CASCADE STEP processor 7.8','FreeCAD','Unknown');
FILE_SCHEMA(('AUTOMOTIVE_DESIGN { 1 0 10303 214 1 1 1 1 }'));
ENDSEC;
DATA;
#1 = APPLICATION_PROTOCOL_DEFINITION('international standard',
  'automotive_design',2000,#2);
#2 = APPLICATION_CONTEXT(
  'core data for automotive mechanical design processes');
#3 = SHAPE_DEFINITION_REPRESENTATION(#4,#10);
#4 = PRODUCT_DEFINITION_SHAPE('','',#5);
#5 = PRODUCT_DEFINITION('design','',#6,#9);
#6 = PRODUCT_DEFINITION_FORMATION('','',#7);
#7 = PRODUCT('mount-left','mount-left','',(#8));
#8 = PRODUCT_CONTEXT('',#2,'mechanical');
#9 = PRODUCT_DEFINITION_CONTEXT('part definition',#2,'design');
#10 = SHAPE_REPRESENTATION('',(#11,#15,#19),#23);
#11 = AXIS2_PLACEMENT_3D('',#12,#13,#14);
#12 = CARTESIAN_POINT('',(0.,0.,0.));
#13 = DIRECTION('',(0.,0.,1.));
#14 = DIRECTION('',(1.,0.,-0.));
#15 = AXIS2_PLACEMENT_3D('',#16,#17,#18);
#16 = CARTESIAN_POINT('',(0.,0.,0.));
#17 = DIRECTION('',(0.,0.,1.));
#18 = DIRECTION('',(1.,0.,0.));
#19 = AXIS2_PLACEMENT_3D('',#20,#21,#22);
#20 = CARTESIAN_POINT('',(0.,0.,18.1));
#21 = DIRECTION('',(7.200000606915E-15,6.06914680532E-22,1.));
#22 = DIRECTION('',(-1.685873969315E-07,1.,6.069146796929E-22));
#23 = ( GEOMETRIC_REPRESENTATION_CONTEXT(3) 
GLOBAL_UNCERTAINTY_ASSIGNED_CONTEXT((#27)) GLOBAL_UNIT_ASSIGNED_CONTEXT(
(#24,#25,#26)) REPRESENTATION_CONTEXT('Context #1',
  '3D Context with UNIT and UNCERTAINTY') );
#24 = ( LENGTH_UNIT() NAMED_UNIT(*) SI_UNIT(.MILLI.,.METRE.) );
#25 = ( NAMED_UNIT(*) PLANE_ANGLE_UNIT() SI_UNIT($,.RADIAN.) );
#26 = ( NAMED_UNIT(*) SI_UNIT($,.STERADIAN.) SOLID_ANGLE_UNIT() );
#27 = UNCERTAINTY_MEASURE_WITH_UNIT(LENGTH_MEASURE(1.E-06),#24,
  'distance_accuracy_value','confusion accuracy');
#28 = PRODUCT_RELATED_PRODUCT_CATEGORY('part',$,(#7));
#29 = SHAPE_DEFINITION_REPRESENTATION(#30,#36);
#30 = PRODUCT_DEFINITION_SHAPE('','',#31);
#31 = PRODUCT_DEFINITION('design','',#32,#35);
#32 = PRODUCT_DEFINITION_FORMATION('','',#33);
#33 = PRODUCT('Body','Body','',(#34));
#34 = PRODUCT_CONTEXT('',#2,'mechanical');
#35 = PRODUCT_DEFINITION_CONTEXT('part definition',#2,'design');
#36 = ADVANCED_BREP_SHAPE_REPRESENTATION('',(#11,#37),#677);
#37 = MANIFOLD_SOLID_BREP('',#38);
#38 = CLOSED_SHELL('',(#39,#79,#146,#281,#333,#350,#367,#384,#401,#453,
    #465,#489,#525,#542,#566,#602,#619,#631,#648,#660));
#39 = ADVANCED_FACE('',(#40),#74,.T.);
#40 = FACE_BOUND('',#41,.T.);
#41 = EDGE_LOOP('',(#42,#52,#60,#68));
#42 = ORIENTED_EDGE('',*,*,#43,.T.);
#43 = EDGE_CURVE('',#44,#46,#48,.T.);
#44 = VERTEX_POINT('',#45);
#45 = CARTESIAN_POINT('',(-19.06233287421,8.810645004346,0.));
#46 = VERTEX_POINT('',#47);
#47 = CARTESIAN_POINT('',(-19.06233287421,8.810645004346,15.1));
#48 = LINE('',#49,#50);
#49 = CARTESIAN_POINT('',(-19.06233287421,8.810645004346,0.));
#50 = VECTOR('',#51,1.);
#51 = DIRECTION('',(0.,0.,1.));
#52 = ORIENTED_EDGE('',*,*,#53,.T.);
#53 = EDGE_CURVE('',#46,#54,#56,.T.);
#54 = VERTEX_POINT('',#55);
#55 = CARTESIAN_POINT('',(-16.03940568124,8.810645004346,15.1));
#56 = LINE('',#57,#58);
#57 = CARTESIAN_POINT('',(-19.06233287421,8.810645004346,15.1));
#58 = VECTOR('',#59,1.);
#59 = DIRECTION('',(1.,0.,0.));
#60 = ORIENTED_EDGE('',*,*,#61,.F.);
#61 = EDGE_CURVE('',#62,#54,#64,.T.);
#62 = VERTEX_POINT('',#63);
#63 = CARTESIAN_POINT('',(-16.03940568124,8.810645004346,0.));
#64 = LINE('',#65,#66);
#65 = CARTESIAN_POINT('',(-16.03940568124,8.810645004346,0.));
#66 = VECTOR('',#67,1.);
#67 = DIRECTION('',(0.,0.,1.));
#68 = ORIENTED_EDGE('',*,*,#69,.F.);
#69 = EDGE_CURVE('',#44,#62,#70,.T.);
#70 = LINE('',#71,#72);
#71 = CARTESIAN_POINT('',(-19.06233287421,8.810645004346,0.));
#72 = VECTOR('',#73,1.);
#73 = DIRECTION('',(1.,0.,0.));
#74 = PLANE('',#75);
#75 = AXIS2_PLACEMENT_3D('',#76,#77,#78);
#76 = CARTESIAN_POINT('',(-19.06233287421,8.810645004346,0.));
#77 = DIRECTION('',(0.,1.,0.));
#78 = DIRECTION('',(1.,0.,0.));
#79 = ADVANCED_FACE('',(#80),#141,.T.);
#80 = FACE_BOUND('',#81,.F.);
#81 = EDGE_LOOP('',(#82,#91,#92,#101,#109,#118,#126,#135));
#82 = ORIENTED_EDGE('',*,*,#83,.F.);
#83 = EDGE_CURVE('',#44,#84,#86,.T.);
#84 = VERTEX_POINT('',#85);
#85 = CARTESIAN_POINT('',(0.583129707981,-20.99190224214,0.));
#86 = CIRCLE('',#87,21.);
#87 = AXIS2_PLACEMENT_3D('',#88,#89,#90);
#88 = CARTESIAN_POINT('',(0.,0.,0.));
#89 = DIRECTION('',(0.,0.,1.));
#90 = DIRECTION('',(1.,0.,0.));
#91 = ORIENTED_EDGE('',*,*,#43,.T.);
#92 = ORIENTED_EDGE('',*,*,#93,.T.);
#93 = EDGE_CURVE('',#46,#94,#96,.T.);
#94 = VERTEX_POINT('',#95);
#95 = CARTESIAN_POINT('',(20.800960184054,2.884450627314,15.1));
#96 = CIRCLE('',#97,21.);
#97 = AXIS2_PLACEMENT_3D('',#98,#99,#100);
#98 = CARTESIAN_POINT('',(0.,0.,15.1));
#99 = DIRECTION('',(0.,0.,1.));
#100 = DIRECTION('',(1.,0.,0.));
#101 = ORIENTED_EDGE('',*,*,#102,.F.);
#102 = EDGE_CURVE('',#103,#94,#105,.T.);
#103 = VERTEX_POINT('',#104);
#104 = CARTESIAN_POINT('',(20.800960184054,2.884450627314,0.));
#105 = LINE('',#106,#107);
#106 = CARTESIAN_POINT('',(20.800960184054,2.884450627314,0.));
#107 = VECTOR('',#108,1.);
#108 = DIRECTION('',(0.,0.,1.));
#109 = ORIENTED_EDGE('',*,*,#110,.F.);
#110 = EDGE_CURVE('',#111,#103,#113,.T.);
#111 = VERTEX_POINT('',#112);
#112 = CARTESIAN_POINT('',(19.121475770162,-8.681541589551,0.));
#113 = CIRCLE('',#114,21.);
#114 = AXIS2_PLACEMENT_3D('',#115,#116,#117);
#115 = CARTESIAN_POINT('',(0.,0.,0.));
#116 = DIRECTION('',(0.,0.,1.));
#117 = DIRECTION('',(1.,0.,0.));
#118 = ORIENTED_EDGE('',*,*,#119,.F.);
#119 = EDGE_CURVE('',#120,#111,#122,.T.);
#120 = VERTEX_POINT('',#121);
#121 = CARTESIAN_POINT('',(19.121475770162,-8.681541589552,4.));
#122 = LINE('',#123,#124);
#123 = CARTESIAN_POINT('',(19.121475770162,-8.681541589552,0.));
#124 = VECTOR('',#125,1.);
#125 = DIRECTION('',(-0.,-0.,-1.));
#126 = ORIENTED_EDGE('',*,*,#127,.T.);
#127 = EDGE_CURVE('',#120,#128,#130,.T.);
#128 = VERTEX_POINT('',#129);
#129 = CARTESIAN_POINT('',(0.583129707981,-20.99190224214,4.));
#130 = CIRCLE('',#131,21.);
#131 = AXIS2_PLACEMENT_3D('',#132,#133,#134);
#132 = CARTESIAN_POINT('',(0.,0.,4.));
#133 = DIRECTION('',(0.,0.,-1.));
#134 = DIRECTION('',(1.,0.,0.));
#135 = ORIENTED_EDGE('',*,*,#136,.T.);
#136 = EDGE_CURVE('',#128,#84,#137,.T.);
#137 = LINE('',#138,#139);
#138 = CARTESIAN_POINT('',(0.583129707981,-20.99190224214,0.));
#139 = VECTOR('',#140,1.);
#140 = DIRECTION('',(-0.,-0.,-1.));
#141 = CYLINDRICAL_SURFACE('',#142,21.);
#142 = AXIS2_PLACEMENT_3D('',#143,#144,#145);
#143 = CARTESIAN_POINT('',(0.,0.,0.));
#144 = DIRECTION('',(-0.,-0.,-1.));
#145 = DIRECTION('',(1.,0.,0.));
#146 = ADVANCED_FACE('',(#147),#276,.F.);
#147 = FACE_BOUND('',#148,.T.);
#148 = EDGE_LOOP('',(#149,#158,#159,#168,#176,#185,#193,#202,#210,#219,
    #227,#236,#244,#253,#261,#270));
#149 = ORIENTED_EDGE('',*,*,#150,.F.);
#150 = EDGE_CURVE('',#62,#151,#153,.T.);
#151 = VERTEX_POINT('',#152);
#152 = CARTESIAN_POINT('',(-16.01103540509,-8.862095985536,0.));
#153 = CIRCLE('',#154,18.3);
#154 = AXIS2_PLACEMENT_3D('',#155,#156,#157);
#155 = CARTESIAN_POINT('',(0.,0.,0.));
#156 = DIRECTION('',(0.,0.,1.));
#157 = DIRECTION('',(1.,0.,0.));
#158 = ORIENTED_EDGE('',*,*,#61,.T.);
#159 = ORIENTED_EDGE('',*,*,#160,.T.);
#160 = EDGE_CURVE('',#54,#161,#163,.T.);
#161 = VERTEX_POINT('',#162);
#162 = CARTESIAN_POINT('',(18.071246348235,2.884450627314,15.1));
#163 = CIRCLE('',#164,18.3);
#164 = AXIS2_PLACEMENT_3D('',#165,#166,#167);
#165 = CARTESIAN_POINT('',(0.,0.,15.1));
#166 = DIRECTION('',(0.,0.,1.));
#167 = DIRECTION('',(1.,0.,0.));
#168 = ORIENTED_EDGE('',*,*,#169,.F.);
#169 = EDGE_CURVE('',#170,#161,#172,.T.);
#170 = VERTEX_POINT('',#171);
#171 = CARTESIAN_POINT('',(18.071246348235,2.884450627314,0.));
#172 = LINE('',#173,#174);
#173 = CARTESIAN_POINT('',(18.071246348235,2.884450627314,0.));
#174 = VECTOR('',#175,1.);
#175 = DIRECTION('',(0.,0.,1.));
#176 = ORIENTED_EDGE('',*,*,#177,.F.);
#177 = EDGE_CURVE('',#178,#170,#180,.T.);
#178 = VERTEX_POINT('',#179);
#179 = CARTESIAN_POINT('',(18.081604559824,2.818789907414,0.));
#180 = CIRCLE('',#181,18.3);
#181 = AXIS2_PLACEMENT_3D('',#182,#183,#184);
#182 = CARTESIAN_POINT('',(0.,0.,0.));
#183 = DIRECTION('',(0.,0.,1.));
#184 = DIRECTION('',(1.,0.,0.));
#185 = ORIENTED_EDGE('',*,*,#186,.F.);
#186 = EDGE_CURVE('',#187,#178,#189,.T.);
#187 = VERTEX_POINT('',#188);
#188 = CARTESIAN_POINT('',(18.081604559824,2.818789907414,3.4));
#189 = LINE('',#190,#191);
#190 = CARTESIAN_POINT('',(18.081604559824,2.818789907414,0.));
#191 = VECTOR('',#192,1.);
#192 = DIRECTION('',(-0.,-0.,-1.));
#193 = ORIENTED_EDGE('',*,*,#194,.T.);
#194 = EDGE_CURVE('',#187,#195,#197,.T.);
#195 = VERTEX_POINT('',#196);
#196 = CARTESIAN_POINT('',(18.037634143557,-3.087677849643,3.4));
#197 = CIRCLE('',#198,18.3);
#198 = AXIS2_PLACEMENT_3D('',#199,#200,#201);
#199 = CARTESIAN_POINT('',(0.,0.,3.4));
#200 = DIRECTION('',(0.,0.,-1.));
#201 = DIRECTION('',(1.,0.,0.));
#202 = ORIENTED_EDGE('',*,*,#203,.T.);
#203 = EDGE_CURVE('',#195,#204,#206,.T.);
#204 = VERTEX_POINT('',#205);
#205 = CARTESIAN_POINT('',(18.037634143557,-3.087677849643,0.));
#206 = LINE('',#207,#208);
#207 = CARTESIAN_POINT('',(18.037634143557,-3.087677849643,0.));
#208 = VECTOR('',#209,1.);
#209 = DIRECTION('',(-0.,-0.,-1.));
#210 = ORIENTED_EDGE('',*,*,#211,.F.);
#211 = EDGE_CURVE('',#212,#204,#214,.T.);
#212 = VERTEX_POINT('',#213);
#213 = CARTESIAN_POINT('',(16.815277754017,-7.220556353583,0.));
#214 = CIRCLE('',#215,18.3);
#215 = AXIS2_PLACEMENT_3D('',#216,#217,#218);
#216 = CARTESIAN_POINT('',(0.,0.,0.));
#217 = DIRECTION('',(0.,0.,1.));
#218 = DIRECTION('',(1.,0.,0.));
#219 = ORIENTED_EDGE('',*,*,#220,.F.);
#220 = EDGE_CURVE('',#221,#212,#223,.T.);
#221 = VERTEX_POINT('',#222);
#222 = CARTESIAN_POINT('',(16.815277754017,-7.220556353583,4.));
#223 = LINE('',#224,#225);
#224 = CARTESIAN_POINT('',(16.815277754017,-7.220556353583,0.));
#225 = VECTOR('',#226,1.);
#226 = DIRECTION('',(-0.,-0.,-1.));
#227 = ORIENTED_EDGE('',*,*,#228,.T.);
#228 = EDGE_CURVE('',#221,#229,#231,.T.);
#229 = VERTEX_POINT('',#230);
#230 = CARTESIAN_POINT('',(-2.779687411792,-18.08765705924,4.));
#231 = CIRCLE('',#232,18.3);
#232 = AXIS2_PLACEMENT_3D('',#233,#234,#235);
#233 = CARTESIAN_POINT('',(0.,0.,4.));
#234 = DIRECTION('',(0.,0.,-1.));
#235 = DIRECTION('',(1.,0.,0.));
#236 = ORIENTED_EDGE('',*,*,#237,.T.);
#237 = EDGE_CURVE('',#229,#238,#240,.T.);
#238 = VERTEX_POINT('',#239);
#239 = CARTESIAN_POINT('',(-2.779687411792,-18.08765705924,0.));
#240 = LINE('',#241,#242);
#241 = CARTESIAN_POINT('',(-2.779687411792,-18.08765705924,0.));
#242 = VECTOR('',#243,1.);
#243 = DIRECTION('',(-0.,-0.,-1.));
#244 = ORIENTED_EDGE('',*,*,#245,.F.);
#245 = EDGE_CURVE('',#246,#238,#248,.T.);
#246 = VERTEX_POINT('',#247);
#247 = CARTESIAN_POINT('',(-12.23599054534,-13.60773806972,0.));
#248 = CIRCLE('',#249,18.3);
#249 = AXIS2_PLACEMENT_3D('',#250,#251,#252);
#250 = CARTESIAN_POINT('',(0.,0.,0.));
#251 = DIRECTION('',(0.,0.,1.));
#252 = DIRECTION('',(1.,0.,0.));
#253 = ORIENTED_EDGE('',*,*,#254,.F.);
#254 = EDGE_CURVE('',#255,#246,#257,.T.);
#255 = VERTEX_POINT('',#256);
#256 = CARTESIAN_POINT('',(-12.23599054534,-13.60773806972,3.4));
#257 = LINE('',#258,#259);
#258 = CARTESIAN_POINT('',(-12.23599054534,-13.60773806972,0.));
#259 = VECTOR('',#260,1.);
#260 = DIRECTION('',(-0.,-0.,-1.));
#261 = ORIENTED_EDGE('',*,*,#262,.T.);
#262 = EDGE_CURVE('',#255,#263,#265,.T.);
#263 = VERTEX_POINT('',#264);
#264 = CARTESIAN_POINT('',(-16.01103540509,-8.862095985536,3.4));
#265 = CIRCLE('',#266,18.3);
#266 = AXIS2_PLACEMENT_3D('',#267,#268,#269);
#267 = CARTESIAN_POINT('',(0.,0.,3.4));
#268 = DIRECTION('',(0.,0.,-1.));
#269 = DIRECTION('',(1.,0.,0.));
#270 = ORIENTED_EDGE('',*,*,#271,.T.);
#271 = EDGE_CURVE('',#263,#151,#272,.T.);
#272 = LINE('',#273,#274);
#273 = CARTESIAN_POINT('',(-16.01103540509,-8.862095985536,0.));
#274 = VECTOR('',#275,1.);
#275 = DIRECTION('',(-0.,-0.,-1.));
#276 = CYLINDRICAL_SURFACE('',#277,18.3);
#277 = AXIS2_PLACEMENT_3D('',#278,#279,#280);
#278 = CARTESIAN_POINT('',(0.,0.,0.));
#279 = DIRECTION('',(-0.,-0.,-1.));
#280 = DIRECTION('',(1.,0.,0.));
#281 = ADVANCED_FACE('',(#282,#317),#328,.T.);
#282 = FACE_BOUND('',#283,.T.);
#283 = EDGE_LOOP('',(#284,#285,#286,#287,#295,#304,#310,#311));
#284 = ORIENTED_EDGE('',*,*,#83,.F.);
#285 = ORIENTED_EDGE('',*,*,#69,.T.);
#286 = ORIENTED_EDGE('',*,*,#150,.T.);
#287 = ORIENTED_EDGE('',*,*,#288,.F.);
#288 = EDGE_CURVE('',#289,#151,#291,.T.);
#289 = VERTEX_POINT('',#290);
#290 = CARTESIAN_POINT('',(-13.37514373293,-7.325846717164,0.));
#291 = LINE('',#292,#293);
#292 = CARTESIAN_POINT('',(-13.37514373293,-7.325846717164,0.));
#293 = VECTOR('',#294,1.);
#294 = DIRECTION('',(-0.863972024977,-0.503539809804,0.));
#295 = ORIENTED_EDGE('',*,*,#296,.F.);
#296 = EDGE_CURVE('',#297,#289,#299,.T.);
#297 = VERTEX_POINT('',#298);
#298 = CARTESIAN_POINT('',(-9.5371199797,-11.89982531354,0.));
#299 = CIRCLE('',#300,3.);
#300 = AXIS2_PLACEMENT_3D('',#301,#302,#303);
#301 = CARTESIAN_POINT('',(-11.68217775756,-9.80251104772,0.));
#302 = DIRECTION('',(0.,0.,1.));
#303 = DIRECTION('',(1.,0.,0.));
#304 = ORIENTED_EDGE('',*,*,#305,.T.);
#305 = EDGE_CURVE('',#297,#246,#306,.T.);
#306 = LINE('',#307,#308);
#307 = CARTESIAN_POINT('',(-9.5371199797,-11.89982531354,0.));
#308 = VECTOR('',#309,1.);
#309 = DIRECTION('',(-0.845013186676,-0.534745466876,0.));
#310 = ORIENTED_EDGE('',*,*,#245,.T.);
#311 = ORIENTED_EDGE('',*,*,#312,.T.);
#312 = EDGE_CURVE('',#238,#84,#313,.T.);
#313 = LINE('',#314,#315);
#314 = CARTESIAN_POINT('',(-4.614621918744,-16.50294414951,0.));
#315 = VECTOR('',#316,1.);
#316 = DIRECTION('',(0.756823671961,-0.653619101281,0.));
#317 = FACE_BOUND('',#318,.T.);
#318 = EDGE_LOOP('',(#319));
#319 = ORIENTED_EDGE('',*,*,#320,.T.);
#320 = EDGE_CURVE('',#321,#321,#323,.T.);
#321 = VERTEX_POINT('',#322);
#322 = CARTESIAN_POINT('',(-9.982177757564,-9.80251104772,0.));
#323 = CIRCLE('',#324,1.7);
#324 = AXIS2_PLACEMENT_3D('',#325,#326,#327);
#325 = CARTESIAN_POINT('',(-11.68217775756,-9.80251104772,0.));
#326 = DIRECTION('',(0.,0.,1.));
#327 = DIRECTION('',(1.,0.,0.));
#328 = PLANE('',#329);
#329 = AXIS2_PLACEMENT_3D('',#330,#331,#332);
#330 = CARTESIAN_POINT('',(-1.146015366144,-7.91833443907,0.));
#331 = DIRECTION('',(-0.,-0.,-1.));
#332 = DIRECTION('',(-1.,0.,0.));
#333 = ADVANCED_FACE('',(#334),#345,.T.);
#334 = FACE_BOUND('',#335,.T.);
#335 = EDGE_LOOP('',(#336,#337,#338,#344));
#336 = ORIENTED_EDGE('',*,*,#53,.F.);
#337 = ORIENTED_EDGE('',*,*,#93,.T.);
#338 = ORIENTED_EDGE('',*,*,#339,.F.);
#339 = EDGE_CURVE('',#161,#94,#340,.T.);
#340 = LINE('',#341,#342);
#341 = CARTESIAN_POINT('',(18.071246348235,2.884450627314,15.1));
#342 = VECTOR('',#343,1.);
#343 = DIRECTION('',(1.,0.,0.));
#344 = ORIENTED_EDGE('',*,*,#160,.F.);
#345 = PLANE('',#346);
#346 = AXIS2_PLACEMENT_3D('',#347,#348,#349);
#347 = CARTESIAN_POINT('',(-1.312308562197,-7.997771726494,15.1));
#348 = DIRECTION('',(0.,0.,1.));
#349 = DIRECTION('',(1.,0.,0.));
#350 = ADVANCED_FACE('',(#351),#362,.T.);
#351 = FACE_BOUND('',#352,.T.);
#352 = EDGE_LOOP('',(#353,#354,#355,#361));
#353 = ORIENTED_EDGE('',*,*,#312,.F.);
#354 = ORIENTED_EDGE('',*,*,#237,.F.);
#355 = ORIENTED_EDGE('',*,*,#356,.T.);
#356 = EDGE_CURVE('',#229,#128,#357,.T.);
#357 = LINE('',#358,#359);
#358 = CARTESIAN_POINT('',(-4.614621918744,-16.50294414951,4.));
#359 = VECTOR('',#360,1.);
#360 = DIRECTION('',(0.756823671961,-0.653619101281,0.));
#361 = ORIENTED_EDGE('',*,*,#136,.T.);
#362 = PLANE('',#363);
#363 = AXIS2_PLACEMENT_3D('',#364,#365,#366);
#364 = CARTESIAN_POINT('',(-4.614621918744,-16.50294414951,0.));
#365 = DIRECTION('',(0.653619101281,0.756823671961,0.));
#366 = DIRECTION('',(0.756823671961,-0.653619101281,0.));
#367 = ADVANCED_FACE('',(#368),#379,.F.);
#368 = FACE_BOUND('',#369,.F.);
#369 = EDGE_LOOP('',(#370,#371,#372,#373));
#370 = ORIENTED_EDGE('',*,*,#228,.T.);
#371 = ORIENTED_EDGE('',*,*,#356,.T.);
#372 = ORIENTED_EDGE('',*,*,#127,.F.);
#373 = ORIENTED_EDGE('',*,*,#374,.T.);
#374 = EDGE_CURVE('',#120,#221,#375,.T.);
#375 = LINE('',#376,#377);
#376 = CARTESIAN_POINT('',(21.450389,-10.156917,4.));
#377 = VECTOR('',#378,1.);
#378 = DIRECTION('',(-0.844753972189,0.535154862139,-0.));
#379 = PLANE('',#380);
#380 = AXIS2_PLACEMENT_3D('',#381,#382,#383);
#381 = CARTESIAN_POINT('',(8.463065957836,-14.42947155879,4.));
#382 = DIRECTION('',(0.,0.,1.));
#383 = DIRECTION('',(1.,0.,0.));
#384 = ADVANCED_FACE('',(#385),#396,.T.);
#385 = FACE_BOUND('',#386,.T.);
#386 = EDGE_LOOP('',(#387,#393,#394,#395));
#387 = ORIENTED_EDGE('',*,*,#388,.F.);
#388 = EDGE_CURVE('',#111,#212,#389,.T.);
#389 = LINE('',#390,#391);
#390 = CARTESIAN_POINT('',(21.450389,-10.156917,0.));
#391 = VECTOR('',#392,1.);
#392 = DIRECTION('',(-0.844753972189,0.535154862139,-0.));
#393 = ORIENTED_EDGE('',*,*,#119,.F.);
#394 = ORIENTED_EDGE('',*,*,#374,.T.);
#395 = ORIENTED_EDGE('',*,*,#220,.T.);
#396 = PLANE('',#397);
#397 = AXIS2_PLACEMENT_3D('',#398,#399,#400);
#398 = CARTESIAN_POINT('',(21.450389,-10.156917,0.));
#399 = DIRECTION('',(-0.535154862139,-0.844753972189,0.));
#400 = DIRECTION('',(-0.844753972189,0.535154862139,0.));
#401 = ADVANCED_FACE('',(#402,#437),#448,.T.);
#402 = FACE_BOUND('',#403,.T.);
#403 = EDGE_LOOP('',(#404,#405,#406,#407,#415,#424,#430,#431));
#404 = ORIENTED_EDGE('',*,*,#110,.F.);
#405 = ORIENTED_EDGE('',*,*,#388,.T.);
#406 = ORIENTED_EDGE('',*,*,#211,.T.);
#407 = ORIENTED_EDGE('',*,*,#408,.T.);
#408 = EDGE_CURVE('',#204,#409,#411,.T.);
#409 = VERTEX_POINT('',#410);
#410 = CARTESIAN_POINT('',(14.954918032787,-2.985452500481,0.));
#411 = LINE('',#412,#413);
#412 = CARTESIAN_POINT('',(18.944221,-3.117741,0.));
#413 = VECTOR('',#414,1.);
#414 = DIRECTION('',(-0.999450633529,3.314258800093E-02,0.));
#415 = ORIENTED_EDGE('',*,*,#416,.F.);
#416 = EDGE_CURVE('',#417,#409,#419,.T.);
#417 = VERTEX_POINT('',#418);
#418 = CARTESIAN_POINT('',(14.954918032787,2.985452500481,0.));
#419 = CIRCLE('',#420,3.);
#420 = AXIS2_PLACEMENT_3D('',#421,#422,#423);
#421 = CARTESIAN_POINT('',(15.25,0.,0.));
#422 = DIRECTION('',(0.,0.,1.));
#423 = DIRECTION('',(1.,0.,0.));
#424 = ORIENTED_EDGE('',*,*,#425,.T.);
#425 = EDGE_CURVE('',#417,#178,#426,.T.);
#426 = LINE('',#427,#428);
#427 = CARTESIAN_POINT('',(14.954918032787,2.985452500481,0.));
#428 = VECTOR('',#429,1.);
#429 = DIRECTION('',(0.998582401185,-5.322769997347E-02,0.));
#430 = ORIENTED_EDGE('',*,*,#177,.T.);
#431 = ORIENTED_EDGE('',*,*,#432,.T.);
#432 = EDGE_CURVE('',#170,#103,#433,.T.);
#433 = LINE('',#434,#435);
#434 = CARTESIAN_POINT('',(18.071246348235,2.884450627314,0.));
#435 = VECTOR('',#436,1.);
#436 = DIRECTION('',(1.,0.,0.));
#437 = FACE_BOUND('',#438,.T.);
#438 = EDGE_LOOP('',(#439));
#439 = ORIENTED_EDGE('',*,*,#440,.T.);
#440 = EDGE_CURVE('',#441,#441,#443,.T.);
#441 = VERTEX_POINT('',#442);
#442 = CARTESIAN_POINT('',(16.95,0.,0.));
#443 = CIRCLE('',#444,1.7);
#444 = AXIS2_PLACEMENT_3D('',#445,#446,#447);
#445 = CARTESIAN_POINT('',(15.25,0.,0.));
#446 = DIRECTION('',(0.,0.,1.));
#447 = DIRECTION('',(1.,0.,0.));
#448 = PLANE('',#449);
#449 = AXIS2_PLACEMENT_3D('',#450,#451,#452);
#450 = CARTESIAN_POINT('',(-1.146015366144,-7.91833443907,0.));
#451 = DIRECTION('',(-0.,-0.,-1.));
#452 = DIRECTION('',(-1.,0.,0.));
#453 = ADVANCED_FACE('',(#454),#460,.T.);
#454 = FACE_BOUND('',#455,.T.);
#455 = EDGE_LOOP('',(#456,#457,#458,#459));
#456 = ORIENTED_EDGE('',*,*,#169,.T.);
#457 = ORIENTED_EDGE('',*,*,#339,.T.);
#458 = ORIENTED_EDGE('',*,*,#102,.F.);
#459 = ORIENTED_EDGE('',*,*,#432,.F.);
#460 = PLANE('',#461);
#461 = AXIS2_PLACEMENT_3D('',#462,#463,#464);
#462 = CARTESIAN_POINT('',(18.071246348235,2.884450627314,0.));
#463 = DIRECTION('',(0.,1.,0.));
#464 = DIRECTION('',(1.,0.,0.));
#465 = ADVANCED_FACE('',(#466),#484,.F.);
#466 = FACE_BOUND('',#467,.F.);
#467 = EDGE_LOOP('',(#468,#469,#477,#483));
#468 = ORIENTED_EDGE('',*,*,#288,.F.);
#469 = ORIENTED_EDGE('',*,*,#470,.T.);
#470 = EDGE_CURVE('',#289,#471,#473,.T.);
#471 = VERTEX_POINT('',#472);
#472 = CARTESIAN_POINT('',(-13.37514373293,-7.325846717164,3.4));
#473 = LINE('',#474,#475);
#474 = CARTESIAN_POINT('',(-13.37514373293,-7.325846717164,0.));
#475 = VECTOR('',#476,1.);
#476 = DIRECTION('',(0.,0.,1.));
#477 = ORIENTED_EDGE('',*,*,#478,.T.);
#478 = EDGE_CURVE('',#471,#263,#479,.T.);
#479 = LINE('',#480,#481);
#480 = CARTESIAN_POINT('',(-13.37514373293,-7.325846717164,3.4));
#481 = VECTOR('',#482,1.);
#482 = DIRECTION('',(-0.863972024977,-0.503539809804,0.));
#483 = ORIENTED_EDGE('',*,*,#271,.T.);
#484 = PLANE('',#485);
#485 = AXIS2_PLACEMENT_3D('',#486,#487,#488);
#486 = CARTESIAN_POINT('',(-13.37514373293,-7.325846717164,0.));
#487 = DIRECTION('',(0.503539809804,-0.863972024977,0.));
#488 = DIRECTION('',(-0.863972024977,-0.503539809804,0.));
#489 = ADVANCED_FACE('',(#490,#509),#520,.T.);
#490 = FACE_BOUND('',#491,.T.);
#491 = EDGE_LOOP('',(#492,#500,#507,#508));
#492 = ORIENTED_EDGE('',*,*,#493,.F.);
#493 = EDGE_CURVE('',#494,#255,#496,.T.);
#494 = VERTEX_POINT('',#495);
#495 = CARTESIAN_POINT('',(-9.5371199797,-11.89982531354,3.4));
#496 = LINE('',#497,#498);
#497 = CARTESIAN_POINT('',(-9.5371199797,-11.89982531354,3.4));
#498 = VECTOR('',#499,1.);
#499 = DIRECTION('',(-0.845013186676,-0.534745466876,0.));
#500 = ORIENTED_EDGE('',*,*,#501,.T.);
#501 = EDGE_CURVE('',#494,#471,#502,.T.);
#502 = CIRCLE('',#503,3.);
#503 = AXIS2_PLACEMENT_3D('',#504,#505,#506);
#504 = CARTESIAN_POINT('',(-11.68217775756,-9.80251104772,3.4));
#505 = DIRECTION('',(0.,0.,1.));
#506 = DIRECTION('',(1.,0.,0.));
#507 = ORIENTED_EDGE('',*,*,#478,.T.);
#508 = ORIENTED_EDGE('',*,*,#262,.F.);
#509 = FACE_BOUND('',#510,.T.);
#510 = EDGE_LOOP('',(#511));
#511 = ORIENTED_EDGE('',*,*,#512,.F.);
#512 = EDGE_CURVE('',#513,#513,#515,.T.);
#513 = VERTEX_POINT('',#514);
#514 = CARTESIAN_POINT('',(-9.982177757564,-9.80251104772,3.4));
#515 = CIRCLE('',#516,1.7);
#516 = AXIS2_PLACEMENT_3D('',#517,#518,#519);
#517 = CARTESIAN_POINT('',(-11.68217775756,-9.80251104772,3.4));
#518 = DIRECTION('',(0.,0.,1.));
#519 = DIRECTION('',(1.,0.,0.));
#520 = PLANE('',#521);
#521 = AXIS2_PLACEMENT_3D('',#522,#523,#524);
#522 = CARTESIAN_POINT('',(1.714939980571,-5.112007134109,3.4));
#523 = DIRECTION('',(0.,0.,1.));
#524 = DIRECTION('',(1.,0.,0.));
#525 = ADVANCED_FACE('',(#526),#537,.T.);
#526 = FACE_BOUND('',#527,.T.);
#527 = EDGE_LOOP('',(#528,#529,#535,#536));
#528 = ORIENTED_EDGE('',*,*,#305,.F.);
#529 = ORIENTED_EDGE('',*,*,#530,.T.);
#530 = EDGE_CURVE('',#297,#494,#531,.T.);
#531 = LINE('',#532,#533);
#532 = CARTESIAN_POINT('',(-9.5371199797,-11.89982531354,0.));
#533 = VECTOR('',#534,1.);
#534 = DIRECTION('',(0.,0.,1.));
#535 = ORIENTED_EDGE('',*,*,#493,.T.);
#536 = ORIENTED_EDGE('',*,*,#254,.T.);
#537 = PLANE('',#538);
#538 = AXIS2_PLACEMENT_3D('',#539,#540,#541);
#539 = CARTESIAN_POINT('',(-9.5371199797,-11.89982531354,0.));
#540 = DIRECTION('',(0.534745466876,-0.845013186676,0.));
#541 = DIRECTION('',(-0.845013186676,-0.534745466876,0.));
#542 = ADVANCED_FACE('',(#543),#561,.T.);
#543 = FACE_BOUND('',#544,.T.);
#544 = EDGE_LOOP('',(#545,#546,#547,#555));
#545 = ORIENTED_EDGE('',*,*,#408,.F.);
#546 = ORIENTED_EDGE('',*,*,#203,.F.);
#547 = ORIENTED_EDGE('',*,*,#548,.T.);
#548 = EDGE_CURVE('',#195,#549,#551,.T.);
#549 = VERTEX_POINT('',#550);
#550 = CARTESIAN_POINT('',(14.954918032787,-2.985452500481,3.4));
#551 = LINE('',#552,#553);
#552 = CARTESIAN_POINT('',(18.944221,-3.117741,3.4));
#553 = VECTOR('',#554,1.);
#554 = DIRECTION('',(-0.999450633529,3.314258800093E-02,0.));
#555 = ORIENTED_EDGE('',*,*,#556,.F.);
#556 = EDGE_CURVE('',#409,#549,#557,.T.);
#557 = LINE('',#558,#559);
#558 = CARTESIAN_POINT('',(14.954918032787,-2.985452500481,0.));
#559 = VECTOR('',#560,1.);
#560 = DIRECTION('',(0.,0.,1.));
#561 = PLANE('',#562);
#562 = AXIS2_PLACEMENT_3D('',#563,#564,#565);
#563 = CARTESIAN_POINT('',(18.944221,-3.117741,0.));
#564 = DIRECTION('',(-3.314258800093E-02,-0.999450633529,0.));
#565 = DIRECTION('',(-0.999450633529,3.314258800093E-02,0.));
#566 = ADVANCED_FACE('',(#567,#586),#597,.T.);
#567 = FACE_BOUND('',#568,.T.);
#568 = EDGE_LOOP('',(#569,#577,#584,#585));
#569 = ORIENTED_EDGE('',*,*,#570,.F.);
#570 = EDGE_CURVE('',#571,#187,#573,.T.);
#571 = VERTEX_POINT('',#572);
#572 = CARTESIAN_POINT('',(14.954918032787,2.985452500481,3.4));
#573 = LINE('',#574,#575);
#574 = CARTESIAN_POINT('',(14.954918032787,2.985452500481,3.4));
#575 = VECTOR('',#576,1.);
#576 = DIRECTION('',(0.998582401185,-5.322769997347E-02,0.));
#577 = ORIENTED_EDGE('',*,*,#578,.T.);
#578 = EDGE_CURVE('',#571,#549,#579,.T.);
#579 = CIRCLE('',#580,3.);
#580 = AXIS2_PLACEMENT_3D('',#581,#582,#583);
#581 = CARTESIAN_POINT('',(15.25,0.,3.4));
#582 = DIRECTION('',(0.,0.,1.));
#583 = DIRECTION('',(1.,0.,0.));
#584 = ORIENTED_EDGE('',*,*,#548,.F.);
#585 = ORIENTED_EDGE('',*,*,#194,.F.);
#586 = FACE_BOUND('',#587,.T.);
#587 = EDGE_LOOP('',(#588));
#588 = ORIENTED_EDGE('',*,*,#589,.F.);
#589 = EDGE_CURVE('',#590,#590,#592,.T.);
#590 = VERTEX_POINT('',#591);
#591 = CARTESIAN_POINT('',(16.95,0.,3.4));
#592 = CIRCLE('',#593,1.7);
#593 = AXIS2_PLACEMENT_3D('',#594,#595,#596);
#594 = CARTESIAN_POINT('',(15.25,0.,3.4));
#595 = DIRECTION('',(0.,0.,1.));
#596 = DIRECTION('',(1.,0.,0.));
#597 = PLANE('',#598);
#598 = AXIS2_PLACEMENT_3D('',#599,#600,#601);
#599 = CARTESIAN_POINT('',(1.714939980571,-5.112007134109,3.4));
#600 = DIRECTION('',(0.,0.,1.));
#601 = DIRECTION('',(1.,0.,0.));
#602 = ADVANCED_FACE('',(#603),#614,.T.);
#603 = FACE_BOUND('',#604,.T.);
#604 = EDGE_LOOP('',(#605,#606,#612,#613));
#605 = ORIENTED_EDGE('',*,*,#425,.F.);
#606 = ORIENTED_EDGE('',*,*,#607,.T.);
#607 = EDGE_CURVE('',#417,#571,#608,.T.);
#608 = LINE('',#609,#610);
#609 = CARTESIAN_POINT('',(14.954918032787,2.985452500481,0.));
#610 = VECTOR('',#611,1.);
#611 = DIRECTION('',(0.,0.,1.));
#612 = ORIENTED_EDGE('',*,*,#570,.T.);
#613 = ORIENTED_EDGE('',*,*,#186,.T.);
#614 = PLANE('',#615);
#615 = AXIS2_PLACEMENT_3D('',#616,#617,#618);
#616 = CARTESIAN_POINT('',(14.954918032787,2.985452500481,0.));
#617 = DIRECTION('',(5.322769997347E-02,0.998582401185,0.));
#618 = DIRECTION('',(0.998582401185,-5.322769997347E-02,0.));
#619 = ADVANCED_FACE('',(#620),#626,.T.);
#620 = FACE_BOUND('',#621,.F.);
#621 = EDGE_LOOP('',(#622,#623,#624,#625));
#622 = ORIENTED_EDGE('',*,*,#530,.T.);
#623 = ORIENTED_EDGE('',*,*,#501,.T.);
#624 = ORIENTED_EDGE('',*,*,#470,.F.);
#625 = ORIENTED_EDGE('',*,*,#296,.F.);
#626 = CYLINDRICAL_SURFACE('',#627,3.);
#627 = AXIS2_PLACEMENT_3D('',#628,#629,#630);
#628 = CARTESIAN_POINT('',(-11.68217775756,-9.80251104772,0.));
#629 = DIRECTION('',(-0.,-0.,-1.));
#630 = DIRECTION('',(1.,0.,0.));
#631 = ADVANCED_FACE('',(#632),#643,.F.);
#632 = FACE_BOUND('',#633,.T.);
#633 = EDGE_LOOP('',(#634,#640,#641,#642));
#634 = ORIENTED_EDGE('',*,*,#635,.T.);
#635 = EDGE_CURVE('',#321,#513,#636,.T.);
#636 = LINE('',#637,#638);
#637 = CARTESIAN_POINT('',(-9.982177757564,-9.80251104772,0.));
#638 = VECTOR('',#639,1.);
#639 = DIRECTION('',(0.,0.,1.));
#640 = ORIENTED_EDGE('',*,*,#512,.T.);
#641 = ORIENTED_EDGE('',*,*,#635,.F.);
#642 = ORIENTED_EDGE('',*,*,#320,.F.);
#643 = CYLINDRICAL_SURFACE('',#644,1.7);
#644 = AXIS2_PLACEMENT_3D('',#645,#646,#647);
#645 = CARTESIAN_POINT('',(-11.68217775756,-9.80251104772,0.));
#646 = DIRECTION('',(-0.,-0.,-1.));
#647 = DIRECTION('',(1.,0.,0.));
#648 = ADVANCED_FACE('',(#649),#655,.T.);
#649 = FACE_BOUND('',#650,.F.);
#650 = EDGE_LOOP('',(#651,#652,#653,#654));
#651 = ORIENTED_EDGE('',*,*,#607,.T.);
#652 = ORIENTED_EDGE('',*,*,#578,.T.);
#653 = ORIENTED_EDGE('',*,*,#556,.F.);
#654 = ORIENTED_EDGE('',*,*,#416,.F.);
#655 = CYLINDRICAL_SURFACE('',#656,3.);
#656 = AXIS2_PLACEMENT_3D('',#657,#658,#659);
#657 = CARTESIAN_POINT('',(15.25,0.,0.));
#658 = DIRECTION('',(-0.,-0.,-1.));
#659 = DIRECTION('',(1.,0.,0.));
#660 = ADVANCED_FACE('',(#661),#672,.F.);
#661 = FACE_BOUND('',#662,.T.);
#662 = EDGE_LOOP('',(#663,#669,#670,#671));
#663 = ORIENTED_EDGE('',*,*,#664,.T.);
#664 = EDGE_CURVE('',#441,#590,#665,.T.);
#665 = LINE('',#666,#667);
#666 = CARTESIAN_POINT('',(16.95,0.,0.));
#667 = VECTOR('',#668,1.);
#668 = DIRECTION('',(0.,0.,1.));
#669 = ORIENTED_EDGE('',*,*,#589,.T.);
#670 = ORIENTED_EDGE('',*,*,#664,.F.);
#671 = ORIENTED_EDGE('',*,*,#440,.F.);
#672 = CYLINDRICAL_SURFACE('',#673,1.7);
#673 = AXIS2_PLACEMENT_3D('',#674,#675,#676);
#674 = CARTESIAN_POINT('',(15.25,0.,0.));
#675 = DIRECTION('',(-0.,-0.,-1.));
#676 = DIRECTION('',(1.,0.,0.));
#677 = ( GEOMETRIC_REPRESENTATION_CONTEXT(3) 
GLOBAL_UNCERTAINTY_ASSIGNED_CONTEXT((#681)) GLOBAL_UNIT_ASSIGNED_CONTEXT
((#678,#679,#680)) REPRESENTATION_CONTEXT('Context #1',
  '3D Context with UNIT and UNCERTAINTY') );
#678 = ( LENGTH_UNIT() NAMED_UNIT(*) SI_UNIT(.MILLI.,.METRE.) );
#679 = ( NAMED_UNIT(*) PLANE_ANGLE_UNIT() SI_UNIT($,.RADIAN.) );
#680 = ( NAMED_UNIT(*) SI_UNIT($,.STERADIAN.) SOLID_ANGLE_UNIT() );
#681 = UNCERTAINTY_MEASURE_WITH_UNIT(LENGTH_MEASURE(1.E-07),#678,
  'distance_accuracy_value','confusion accuracy');
#682 = CONTEXT_DEPENDENT_SHAPE_REPRESENTATION(#683,#685);
#683 = ( REPRESENTATION_RELATIONSHIP('','',#36,#10) 
REPRESENTATION_RELATIONSHIP_WITH_TRANSFORMATION(#684) 
SHAPE_REPRESENTATION_RELATIONSHIP() );
#684 = ITEM_DEFINED_TRANSFORMATION('','',#11,#15);
#685 = PRODUCT_DEFINITION_SHAPE('Placement','Placement of an item',#686
  );
#686 = NEXT_ASSEMBLY_USAGE_OCCURRENCE('3','Body','',#5,#31,$);
#687 = PRODUCT_RELATED_PRODUCT_CATEGORY('part',$,(#33));
#688 = SHAPE_DEFINITION_REPRESENTATION(#689,#695);
#689 = PRODUCT_DEFINITION_SHAPE('','',#690);
#690 = PRODUCT_DEFINITION('design','',#691,#694);
#691 = PRODUCT_DEFINITION_FORMATION('','',#692);
#692 = PRODUCT('cirque 40mm','cirque 40mm','',(#693));
#693 = PRODUCT_CONTEXT('',#2,'mechanical');
#694 = PRODUCT_DEFINITION_CONTEXT('part definition',#2,'design');
#695 = ADVANCED_BREP_SHAPE_REPRESENTATION('',(#11,#696),#1102);
#696 = MANIFOLD_SOLID_BREP('',#697);
#697 = CLOSED_SHELL('',(#698,#785,#817,#841,#853,#933,#946,#970,#994,
    #1012,#1024,#1048,#1072,#1090));
#698 = ADVANCED_FACE('',(#699,#710),#780,.T.);
#699 = FACE_BOUND('',#700,.T.);
#700 = EDGE_LOOP('',(#701));
#701 = ORIENTED_EDGE('',*,*,#702,.F.);
#702 = EDGE_CURVE('',#703,#703,#705,.T.);
#703 = VERTEX_POINT('',#704);
#704 = CARTESIAN_POINT('',(18.3,1.E-15,0.));
#705 = CIRCLE('',#706,18.3);
#706 = AXIS2_PLACEMENT_3D('',#707,#708,#709);
#707 = CARTESIAN_POINT('',(0.,1.12E-15,0.));
#708 = DIRECTION('',(0.,0.,1.));
#709 = DIRECTION('',(1.,0.,-0.));
#710 = FACE_BOUND('',#711,.T.);
#711 = EDGE_LOOP('',(#712,#722,#731,#739,#748,#756,#765,#773));
#712 = ORIENTED_EDGE('',*,*,#713,.F.);
#713 = EDGE_CURVE('',#714,#716,#718,.T.);
#714 = VERTEX_POINT('',#715);
#715 = CARTESIAN_POINT('',(11.695945786193,16.006162943267,0.));
#716 = VERTEX_POINT('',#717);
#717 = CARTESIAN_POINT('',(11.911633019433,16.314196235498,0.));
#718 = LINE('',#719,#720);
#719 = CARTESIAN_POINT('',(11.803789402813,16.160179589383,0.));
#720 = VECTOR('',#721,1.);
#721 = DIRECTION('',(0.573576436351,0.819152044289,0.));
#722 = ORIENTED_EDGE('',*,*,#723,.F.);
#723 = EDGE_CURVE('',#724,#714,#726,.T.);
#724 = VERTEX_POINT('',#725);
#725 = CARTESIAN_POINT('',(11.040624150762,16.465024092348,0.));
#726 = CIRCLE('',#727,0.4);
#727 = AXIS2_PLACEMENT_3D('',#728,#729,#730);
#728 = CARTESIAN_POINT('',(11.368284968478,16.235593517808,0.));
#729 = DIRECTION('',(0.,0.,1.));
#730 = DIRECTION('',(1.,0.,-0.));
#731 = ORIENTED_EDGE('',*,*,#732,.T.);
#732 = EDGE_CURVE('',#724,#733,#735,.T.);
#733 = VERTEX_POINT('',#734);
#734 = CARTESIAN_POINT('',(11.256311384002,16.773057384579,0.));
#735 = LINE('',#736,#737);
#736 = CARTESIAN_POINT('',(11.148467767382,16.619040738464,0.));
#737 = VECTOR('',#738,1.);
#738 = DIRECTION('',(0.573576436351,0.819152044289,0.));
#739 = ORIENTED_EDGE('',*,*,#740,.T.);
#740 = EDGE_CURVE('',#733,#741,#743,.T.);
#741 = VERTEX_POINT('',#742);
#742 = CARTESIAN_POINT('',(17.690283016578,9.75160944631,0.));
#743 = CIRCLE('',#744,20.2);
#744 = AXIS2_PLACEMENT_3D('',#745,#746,#747);
#745 = CARTESIAN_POINT('',(-1.0495E-13,-1.0495E-13,0.));
#746 = DIRECTION('',(0.,0.,1.));
#747 = DIRECTION('',(1.,0.,-0.));
#748 = ORIENTED_EDGE('',*,*,#749,.F.);
#749 = EDGE_CURVE('',#750,#741,#752,.T.);
#750 = VERTEX_POINT('',#751);
#751 = CARTESIAN_POINT('',(17.364623503008,9.563589838486,0.));
#752 = LINE('',#753,#754);
#753 = CARTESIAN_POINT('',(17.527453259793,9.657599642398,0.));
#754 = VECTOR('',#755,1.);
#755 = DIRECTION('',(0.866025403784,0.5,0.));
#756 = ORIENTED_EDGE('',*,*,#757,.F.);
#757 = EDGE_CURVE('',#758,#750,#760,.T.);
#758 = VERTEX_POINT('',#759);
#759 = CARTESIAN_POINT('',(16.964623503008,10.256410161514,0.));
#760 = CIRCLE('',#761,0.4);
#761 = AXIS2_PLACEMENT_3D('',#762,#763,#764);
#762 = CARTESIAN_POINT('',(17.164623503008,9.91,0.));
#763 = DIRECTION('',(0.,0.,1.));
#764 = DIRECTION('',(1.,0.,-0.));
#765 = ORIENTED_EDGE('',*,*,#766,.T.);
#766 = EDGE_CURVE('',#758,#767,#769,.T.);
#767 = VERTEX_POINT('',#768);
#768 = CARTESIAN_POINT('',(17.290283016578,10.444429769338,0.));
#769 = LINE('',#770,#771);
#770 = CARTESIAN_POINT('',(17.127453259793,10.350419965426,0.));
#771 = VECTOR('',#772,1.);
#772 = DIRECTION('',(0.866025403784,0.5,0.));
#773 = ORIENTED_EDGE('',*,*,#774,.T.);
#774 = EDGE_CURVE('',#767,#716,#775,.T.);
#775 = CIRCLE('',#776,20.2);
#776 = AXIS2_PLACEMENT_3D('',#777,#778,#779);
#777 = CARTESIAN_POINT('',(-1.0495E-13,-1.0495E-13,0.));
#778 = DIRECTION('',(0.,0.,1.));
#779 = DIRECTION('',(1.,0.,-0.));
#780 = PLANE('',#781);
#781 = AXIS2_PLACEMENT_3D('',#782,#783,#784);
#782 = CARTESIAN_POINT('',(0.,0.,0.));
#783 = DIRECTION('',(0.,0.,1.));
#784 = DIRECTION('',(1.,0.,-0.));
#785 = ADVANCED_FACE('',(#786),#812,.T.);
#786 = FACE_BOUND('',#787,.T.);
#787 = EDGE_LOOP('',(#788,#797,#804,#811));
#788 = ORIENTED_EDGE('',*,*,#789,.T.);
#789 = EDGE_CURVE('',#790,#790,#792,.T.);
#790 = VERTEX_POINT('',#791);
#791 = CARTESIAN_POINT('',(21.,1.E-15,-3.));
#792 = CIRCLE('',#793,21.);
#793 = AXIS2_PLACEMENT_3D('',#794,#795,#796);
#794 = CARTESIAN_POINT('',(0.,1.29E-15,-3.));
#795 = DIRECTION('',(0.,0.,1.));
#796 = DIRECTION('',(1.,0.,-0.));
#797 = ORIENTED_EDGE('',*,*,#798,.T.);
#798 = EDGE_CURVE('',#790,#799,#801,.T.);
#799 = VERTEX_POINT('',#800);
#800 = CARTESIAN_POINT('',(21.,1.E-15,1.4));
#801 = B_SPLINE_CURVE_WITH_KNOTS('',1,(#802,#803),.UNSPECIFIED.,.F.,.F.,
  (2,2),(0.,4.4),.PIECEWISE_BEZIER_KNOTS.);
#802 = CARTESIAN_POINT('',(21.,1.29E-15,-3.));
#803 = CARTESIAN_POINT('',(21.,1.29E-15,1.4));
#804 = ORIENTED_EDGE('',*,*,#805,.F.);
#805 = EDGE_CURVE('',#799,#799,#806,.T.);
#806 = CIRCLE('',#807,21.);
#807 = AXIS2_PLACEMENT_3D('',#808,#809,#810);
#808 = CARTESIAN_POINT('',(0.,1.29E-15,1.4));
#809 = DIRECTION('',(0.,0.,1.));
#810 = DIRECTION('',(1.,0.,-0.));
#811 = ORIENTED_EDGE('',*,*,#798,.F.);
#812 = CYLINDRICAL_SURFACE('',#813,21.);
#813 = AXIS2_PLACEMENT_3D('',#814,#815,#816);
#814 = CARTESIAN_POINT('',(0.,1.29E-15,-3.));
#815 = DIRECTION('',(0.,0.,1.));
#816 = DIRECTION('',(1.,0.,-0.));
#817 = ADVANCED_FACE('',(#818),#836,.F.);
#818 = FACE_BOUND('',#819,.F.);
#819 = EDGE_LOOP('',(#820,#829,#834,#835));
#820 = ORIENTED_EDGE('',*,*,#821,.T.);
#821 = EDGE_CURVE('',#822,#822,#824,.T.);
#822 = VERTEX_POINT('',#823);
#823 = CARTESIAN_POINT('',(18.3,1.E-15,-3.));
#824 = CIRCLE('',#825,18.3);
#825 = AXIS2_PLACEMENT_3D('',#826,#827,#828);
#826 = CARTESIAN_POINT('',(0.,1.12E-15,-3.));
#827 = DIRECTION('',(0.,0.,1.));
#828 = DIRECTION('',(1.,0.,-0.));
#829 = ORIENTED_EDGE('',*,*,#830,.T.);
#830 = EDGE_CURVE('',#822,#703,#831,.T.);
#831 = B_SPLINE_CURVE_WITH_KNOTS('',1,(#832,#833),.UNSPECIFIED.,.F.,.F.,
  (2,2),(0.,3.),.PIECEWISE_BEZIER_KNOTS.);
#832 = CARTESIAN_POINT('',(18.3,1.12E-15,-3.));
#833 = CARTESIAN_POINT('',(18.3,1.12E-15,0.));
#834 = ORIENTED_EDGE('',*,*,#702,.F.);
#835 = ORIENTED_EDGE('',*,*,#830,.F.);
#836 = CYLINDRICAL_SURFACE('',#837,18.3);
#837 = AXIS2_PLACEMENT_3D('',#838,#839,#840);
#838 = CARTESIAN_POINT('',(0.,1.12E-15,-3.));
#839 = DIRECTION('',(0.,0.,1.));
#840 = DIRECTION('',(1.,0.,-0.));
#841 = ADVANCED_FACE('',(#842,#845),#848,.F.);
#842 = FACE_BOUND('',#843,.T.);
#843 = EDGE_LOOP('',(#844));
#844 = ORIENTED_EDGE('',*,*,#789,.F.);
#845 = FACE_BOUND('',#846,.T.);
#846 = EDGE_LOOP('',(#847));
#847 = ORIENTED_EDGE('',*,*,#821,.T.);
#848 = PLANE('',#849);
#849 = AXIS2_PLACEMENT_3D('',#850,#851,#852);
#850 = CARTESIAN_POINT('',(0.,0.,-3.));
#851 = DIRECTION('',(0.,0.,1.));
#852 = DIRECTION('',(1.,0.,-0.));
#853 = ADVANCED_FACE('',(#854),#928,.F.);
#854 = FACE_BOUND('',#855,.F.);
#855 = EDGE_LOOP('',(#856,#857,#865,#874,#880,#881,#889,#898,#905,#914,
    #921,#922));
#856 = ORIENTED_EDGE('',*,*,#740,.T.);
#857 = ORIENTED_EDGE('',*,*,#858,.F.);
#858 = EDGE_CURVE('',#859,#741,#861,.T.);
#859 = VERTEX_POINT('',#860);
#860 = CARTESIAN_POINT('',(17.690283016578,9.75160944631,1.));
#861 = LINE('',#862,#863);
#862 = CARTESIAN_POINT('',(17.690283016578,9.75160944631,1.));
#863 = VECTOR('',#864,1.);
#864 = DIRECTION('',(0.,0.,-1.));
#865 = ORIENTED_EDGE('',*,*,#866,.T.);
#866 = EDGE_CURVE('',#859,#867,#869,.T.);
#867 = VERTEX_POINT('',#868);
#868 = CARTESIAN_POINT('',(17.290283016578,10.444429769338,1.));
#869 = CIRCLE('',#870,20.199999999917);
#870 = AXIS2_PLACEMENT_3D('',#871,#872,#873);
#871 = CARTESIAN_POINT('',(7.240389E-11,4.115631E-11,1.));
#872 = DIRECTION('',(0.,0.,1.));
#873 = DIRECTION('',(1.,0.,-0.));
#874 = ORIENTED_EDGE('',*,*,#875,.T.);
#875 = EDGE_CURVE('',#867,#767,#876,.T.);
#876 = LINE('',#877,#878);
#877 = CARTESIAN_POINT('',(17.290283016578,10.444429769338,1.));
#878 = VECTOR('',#879,1.);
#879 = DIRECTION('',(0.,0.,-1.));
#880 = ORIENTED_EDGE('',*,*,#774,.T.);
#881 = ORIENTED_EDGE('',*,*,#882,.F.);
#882 = EDGE_CURVE('',#883,#716,#885,.T.);
#883 = VERTEX_POINT('',#884);
#884 = CARTESIAN_POINT('',(11.911633019433,16.314196235498,1.));
#885 = LINE('',#886,#887);
#886 = CARTESIAN_POINT('',(11.911633019433,16.314196235498,1.));
#887 = VECTOR('',#888,1.);
#888 = DIRECTION('',(0.,0.,-1.));
#889 = ORIENTED_EDGE('',*,*,#890,.T.);
#890 = EDGE_CURVE('',#883,#891,#893,.T.);
#891 = VERTEX_POINT('',#892);
#892 = CARTESIAN_POINT('',(11.256311384002,16.773057384579,1.));
#893 = CIRCLE('',#894,20.199999999934);
#894 = AXIS2_PLACEMENT_3D('',#895,#896,#897);
#895 = CARTESIAN_POINT('',(3.750646E-11,5.449807E-11,1.));
#896 = DIRECTION('',(0.,0.,1.));
#897 = DIRECTION('',(1.,0.,-0.));
#898 = ORIENTED_EDGE('',*,*,#899,.F.);
#899 = EDGE_CURVE('',#900,#891,#902,.T.);
#900 = VERTEX_POINT('',#901);
#901 = CARTESIAN_POINT('',(11.256311384,16.773057384581,1.4));
#902 = B_SPLINE_CURVE_WITH_KNOTS('',1,(#903,#904),.UNSPECIFIED.,.F.,.F.,
  (2,2),(0.,0.4),.PIECEWISE_BEZIER_KNOTS.);
#903 = CARTESIAN_POINT('',(11.256311384,16.773057384581,1.4));
#904 = CARTESIAN_POINT('',(11.256311384,16.773057384581,1.));
#905 = ORIENTED_EDGE('',*,*,#906,.F.);
#906 = EDGE_CURVE('',#907,#900,#909,.T.);
#907 = VERTEX_POINT('',#908);
#908 = CARTESIAN_POINT('',(20.2,-1.05E-13,1.4));
#909 = CIRCLE('',#910,20.2);
#910 = AXIS2_PLACEMENT_3D('',#911,#912,#913);
#911 = CARTESIAN_POINT('',(-1.0495E-13,-1.0495E-13,1.4));
#912 = DIRECTION('',(0.,0.,1.));
#913 = DIRECTION('',(1.,0.,-0.));
#914 = ORIENTED_EDGE('',*,*,#915,.F.);
#915 = EDGE_CURVE('',#900,#907,#916,.T.);
#916 = CIRCLE('',#917,20.2);
#917 = AXIS2_PLACEMENT_3D('',#918,#919,#920);
#918 = CARTESIAN_POINT('',(-1.0495E-13,-1.0495E-13,1.4));
#919 = DIRECTION('',(0.,0.,1.));
#920 = DIRECTION('',(1.,0.,-0.));
#921 = ORIENTED_EDGE('',*,*,#899,.T.);
#922 = ORIENTED_EDGE('',*,*,#923,.T.);
#923 = EDGE_CURVE('',#891,#733,#924,.T.);
#924 = LINE('',#925,#926);
#925 = CARTESIAN_POINT('',(11.256311384002,16.773057384579,1.));
#926 = VECTOR('',#927,1.);
#927 = DIRECTION('',(0.,0.,-1.));
#928 = CYLINDRICAL_SURFACE('',#929,20.2);
#929 = AXIS2_PLACEMENT_3D('',#930,#931,#932);
#930 = CARTESIAN_POINT('',(-1.0495E-13,-1.0495E-13,1.4));
#931 = DIRECTION('',(0.,0.,-1.));
#932 = DIRECTION('',(-1.,0.,0.));
#933 = ADVANCED_FACE('',(#934,#938),#941,.T.);
#934 = FACE_BOUND('',#935,.T.);
#935 = EDGE_LOOP('',(#936,#937));
#936 = ORIENTED_EDGE('',*,*,#906,.F.);
#937 = ORIENTED_EDGE('',*,*,#915,.F.);
#938 = FACE_BOUND('',#939,.T.);
#939 = EDGE_LOOP('',(#940));
#940 = ORIENTED_EDGE('',*,*,#805,.T.);
#941 = PLANE('',#942);
#942 = AXIS2_PLACEMENT_3D('',#943,#944,#945);
#943 = CARTESIAN_POINT('',(0.,0.,1.4));
#944 = DIRECTION('',(0.,0.,1.));
#945 = DIRECTION('',(1.,0.,-0.));
#946 = ADVANCED_FACE('',(#947),#965,.F.);
#947 = FACE_BOUND('',#948,.T.);
#948 = EDGE_LOOP('',(#949,#950,#951,#959));
#949 = ORIENTED_EDGE('',*,*,#749,.T.);
#950 = ORIENTED_EDGE('',*,*,#858,.F.);
#951 = ORIENTED_EDGE('',*,*,#952,.F.);
#952 = EDGE_CURVE('',#953,#859,#955,.T.);
#953 = VERTEX_POINT('',#954);
#954 = CARTESIAN_POINT('',(17.364623503008,9.563589838486,1.));
#955 = LINE('',#956,#957);
#956 = CARTESIAN_POINT('',(17.527453259793,9.657599642398,1.));
#957 = VECTOR('',#958,1.);
#958 = DIRECTION('',(0.866025403784,0.5,0.));
#959 = ORIENTED_EDGE('',*,*,#960,.T.);
#960 = EDGE_CURVE('',#953,#750,#961,.T.);
#961 = LINE('',#962,#963);
#962 = CARTESIAN_POINT('',(17.364623503008,9.563589838486,1.));
#963 = VECTOR('',#964,1.);
#964 = DIRECTION('',(0.,0.,-1.));
#965 = PLANE('',#966);
#966 = AXIS2_PLACEMENT_3D('',#967,#968,#969);
#967 = CARTESIAN_POINT('',(17.527453259793,9.657599642398,1.));
#968 = DIRECTION('',(-0.5,0.866025403784,0.));
#969 = DIRECTION('',(-0.866025403784,-0.5,0.));
#970 = ADVANCED_FACE('',(#971),#989,.T.);
#971 = FACE_BOUND('',#972,.T.);
#972 = EDGE_LOOP('',(#973,#974,#982,#988));
#973 = ORIENTED_EDGE('',*,*,#766,.F.);
#974 = ORIENTED_EDGE('',*,*,#975,.F.);
#975 = EDGE_CURVE('',#976,#758,#978,.T.);
#976 = VERTEX_POINT('',#977);
#977 = CARTESIAN_POINT('',(16.964623503008,10.256410161514,1.));
#978 = LINE('',#979,#980);
#979 = CARTESIAN_POINT('',(16.964623503008,10.256410161514,1.));
#980 = VECTOR('',#981,1.);
#981 = DIRECTION('',(0.,0.,-1.));
#982 = ORIENTED_EDGE('',*,*,#983,.T.);
#983 = EDGE_CURVE('',#976,#867,#984,.T.);
#984 = LINE('',#985,#986);
#985 = CARTESIAN_POINT('',(17.127453259793,10.350419965426,1.));
#986 = VECTOR('',#987,1.);
#987 = DIRECTION('',(0.866025403784,0.5,0.));
#988 = ORIENTED_EDGE('',*,*,#875,.T.);
#989 = PLANE('',#990);
#990 = AXIS2_PLACEMENT_3D('',#991,#992,#993);
#991 = CARTESIAN_POINT('',(17.127453259793,10.350419965426,1.));
#992 = DIRECTION('',(-0.5,0.866025403784,0.));
#993 = DIRECTION('',(-0.866025403784,-0.5,0.));
#994 = ADVANCED_FACE('',(#995),#1007,.T.);
#995 = FACE_BOUND('',#996,.T.);
#996 = EDGE_LOOP('',(#997,#998,#999,#1006));
#997 = ORIENTED_EDGE('',*,*,#757,.T.);
#998 = ORIENTED_EDGE('',*,*,#960,.F.);
#999 = ORIENTED_EDGE('',*,*,#1000,.F.);
#1000 = EDGE_CURVE('',#976,#953,#1001,.T.);
#1001 = CIRCLE('',#1002,0.4);
#1002 = AXIS2_PLACEMENT_3D('',#1003,#1004,#1005);
#1003 = CARTESIAN_POINT('',(17.164623503008,9.91,1.));
#1004 = DIRECTION('',(0.,0.,1.));
#1005 = DIRECTION('',(1.,0.,-0.));
#1006 = ORIENTED_EDGE('',*,*,#975,.T.);
#1007 = CYLINDRICAL_SURFACE('',#1008,0.4);
#1008 = AXIS2_PLACEMENT_3D('',#1009,#1010,#1011);
#1009 = CARTESIAN_POINT('',(17.164623503008,9.91,1.));
#1010 = DIRECTION('',(0.,0.,-1.));
#1011 = DIRECTION('',(-1.,0.,0.));
#1012 = ADVANCED_FACE('',(#1013),#1019,.T.);
#1013 = FACE_BOUND('',#1014,.T.);
#1014 = EDGE_LOOP('',(#1015,#1016,#1017,#1018));
#1015 = ORIENTED_EDGE('',*,*,#952,.T.);
#1016 = ORIENTED_EDGE('',*,*,#866,.T.);
#1017 = ORIENTED_EDGE('',*,*,#983,.F.);
#1018 = ORIENTED_EDGE('',*,*,#1000,.T.);
#1019 = PLANE('',#1020);
#1020 = AXIS2_PLACEMENT_3D('',#1021,#1022,#1023);
#1021 = CARTESIAN_POINT('',(0.,0.,1.));
#1022 = DIRECTION('',(0.,0.,1.));
#1023 = DIRECTION('',(1.,0.,-0.));
#1024 = ADVANCED_FACE('',(#1025),#1043,.F.);
#1025 = FACE_BOUND('',#1026,.T.);
#1026 = EDGE_LOOP('',(#1027,#1028,#1029,#1037));
#1027 = ORIENTED_EDGE('',*,*,#713,.T.);
#1028 = ORIENTED_EDGE('',*,*,#882,.F.);
#1029 = ORIENTED_EDGE('',*,*,#1030,.F.);
#1030 = EDGE_CURVE('',#1031,#883,#1033,.T.);
#1031 = VERTEX_POINT('',#1032);
#1032 = CARTESIAN_POINT('',(11.695945786193,16.006162943267,1.));
#1033 = LINE('',#1034,#1035);
#1034 = CARTESIAN_POINT('',(11.803789402813,16.160179589383,1.));
#1035 = VECTOR('',#1036,1.);
#1036 = DIRECTION('',(0.573576436351,0.819152044289,0.));
#1037 = ORIENTED_EDGE('',*,*,#1038,.T.);
#1038 = EDGE_CURVE('',#1031,#714,#1039,.T.);
#1039 = LINE('',#1040,#1041);
#1040 = CARTESIAN_POINT('',(11.695945786193,16.006162943267,1.));
#1041 = VECTOR('',#1042,1.);
#1042 = DIRECTION('',(0.,0.,-1.));
#1043 = PLANE('',#1044);
#1044 = AXIS2_PLACEMENT_3D('',#1045,#1046,#1047);
#1045 = CARTESIAN_POINT('',(11.803789402813,16.160179589383,1.));
#1046 = DIRECTION('',(-0.819152044289,0.573576436351,0.));
#1047 = DIRECTION('',(-0.573576436351,-0.819152044289,0.));
#1048 = ADVANCED_FACE('',(#1049),#1067,.T.);
#1049 = FACE_BOUND('',#1050,.T.);
#1050 = EDGE_LOOP('',(#1051,#1052,#1060,#1066));
#1051 = ORIENTED_EDGE('',*,*,#732,.F.);
#1052 = ORIENTED_EDGE('',*,*,#1053,.F.);
#1053 = EDGE_CURVE('',#1054,#724,#1056,.T.);
#1054 = VERTEX_POINT('',#1055);
#1055 = CARTESIAN_POINT('',(11.040624150762,16.465024092348,1.));
#1056 = LINE('',#1057,#1058);
#1057 = CARTESIAN_POINT('',(11.040624150762,16.465024092348,1.));
#1058 = VECTOR('',#1059,1.);
#1059 = DIRECTION('',(0.,0.,-1.));
#1060 = ORIENTED_EDGE('',*,*,#1061,.T.);
#1061 = EDGE_CURVE('',#1054,#891,#1062,.T.);
#1062 = LINE('',#1063,#1064);
#1063 = CARTESIAN_POINT('',(11.148467767382,16.619040738464,1.));
#1064 = VECTOR('',#1065,1.);
#1065 = DIRECTION('',(0.573576436351,0.819152044289,0.));
#1066 = ORIENTED_EDGE('',*,*,#923,.T.);
#1067 = PLANE('',#1068);
#1068 = AXIS2_PLACEMENT_3D('',#1069,#1070,#1071);
#1069 = CARTESIAN_POINT('',(11.148467767382,16.619040738464,1.));
#1070 = DIRECTION('',(-0.819152044289,0.573576436351,0.));
#1071 = DIRECTION('',(-0.573576436351,-0.819152044289,0.));
#1072 = ADVANCED_FACE('',(#1073),#1085,.T.);
#1073 = FACE_BOUND('',#1074,.T.);
#1074 = EDGE_LOOP('',(#1075,#1076,#1077,#1084));
#1075 = ORIENTED_EDGE('',*,*,#723,.T.);
#1076 = ORIENTED_EDGE('',*,*,#1038,.F.);
#1077 = ORIENTED_EDGE('',*,*,#1078,.F.);
#1078 = EDGE_CURVE('',#1054,#1031,#1079,.T.);
#1079 = CIRCLE('',#1080,0.4);
#1080 = AXIS2_PLACEMENT_3D('',#1081,#1082,#1083);
#1081 = CARTESIAN_POINT('',(11.368284968478,16.235593517808,1.));
#1082 = DIRECTION('',(0.,0.,1.));
#1083 = DIRECTION('',(1.,0.,-0.));
#1084 = ORIENTED_EDGE('',*,*,#1053,.T.);
#1085 = CYLINDRICAL_SURFACE('',#1086,0.4);
#1086 = AXIS2_PLACEMENT_3D('',#1087,#1088,#1089);
#1087 = CARTESIAN_POINT('',(11.368284968478,16.235593517808,1.));
#1088 = DIRECTION('',(0.,0.,-1.));
#1089 = DIRECTION('',(-1.,0.,0.));
#1090 = ADVANCED_FACE('',(#1091),#1097,.T.);
#1091 = FACE_BOUND('',#1092,.T.);
#1092 = EDGE_LOOP('',(#1093,#1094,#1095,#1096));
#1093 = ORIENTED_EDGE('',*,*,#1030,.T.);
#1094 = ORIENTED_EDGE('',*,*,#890,.T.);
#1095 = ORIENTED_EDGE('',*,*,#1061,.F.);
#1096 = ORIENTED_EDGE('',*,*,#1078,.T.);
#1097 = PLANE('',#1098);
#1098 = AXIS2_PLACEMENT_3D('',#1099,#1100,#1101);
#1099 = CARTESIAN_POINT('',(0.,0.,1.));
#1100 = DIRECTION('',(0.,0.,1.));
#1101 = DIRECTION('',(1.,0.,-0.));
#1102 = ( GEOMETRIC_REPRESENTATION_CONTEXT(3) 
GLOBAL_UNCERTAINTY_ASSIGNED_CONTEXT((#1106)) 
GLOBAL_UNIT_ASSIGNED_CONTEXT((#1103,#1104,#1105)) REPRESENTATION_CONTEXT
('Context #1','3D Context with UNIT and UNCERTAINTY') );
#1103 = ( LENGTH_UNIT() NAMED_UNIT(*) SI_UNIT(.MILLI.,.METRE.) );
#1104 = ( NAMED_UNIT(*) PLANE_ANGLE_UNIT() SI_UNIT($,.RADIAN.) );
#1105 = ( NAMED_UNIT(*) SI_UNIT($,.STERADIAN.) SOLID_ANGLE_UNIT() );
#1106 = UNCERTAINTY_MEASURE_WITH_UNIT(LENGTH_MEASURE(2.E-06),#1103,
  'distance_accuracy_value','confusion accuracy');
#1107 = CONTEXT_DEPENDENT_SHAPE_REPRESENTATION(#1108,#1110);
#1108 = ( REPRESENTATION_RELATIONSHIP('','',#695,#10) 
REPRESENTATION_RELATIONSHIP_WITH_TRANSFORMATION(#1109) 
SHAPE_REPRESENTATION_RELATIONSHIP() );
#1109 = ITEM_DEFINED_TRANSFORMATION('','',#11,#19);
#1110 = PRODUCT_DEFINITION_SHAPE('Placement','Placement of an item',
  #1111);
#1111 = NEXT_ASSEMBLY_USAGE_OCCURRENCE('4','cirque 40mm001','',#5,#690,$
  );
#1112 = PRODUCT_RELATED_PRODUCT_CATEGORY('part',$,(#692));
#1113 = MECHANICAL_DESIGN_GEOMETRIC_PRESENTATION_REPRESENTATION('',(
    #1114),#677);
#1114 = STYLED_ITEM('color',(#1115),#37);
#1115 = PRESENTATION_STYLE_ASSIGNMENT((#1116,#1122));
#1116 = SURFACE_STYLE_USAGE(.BOTH.,#1117);
#1117 = SURFACE_SIDE_STYLE('',(#1118));
#1118 = SURFACE_STYLE_FILL_AREA(#1119);
#1119 = FILL_AREA_STYLE('',(#1120));
#1120 = FILL_AREA_STYLE_COLOUR('',#1121);
#1121 = COLOUR_RGB('',0.447058818107,0.474509808674,0.501960817233);
#1122 = CURVE_STYLE('',#1123,POSITIVE_LENGTH_MEASURE(0.1),#1124);
#1123 = DRAUGHTING_PRE_DEFINED_CURVE_FONT('continuous');
#1124 = COLOUR_RGB('',9.803921802644E-02,9.803921802644E-02,
  9.803921802644E-02);
#1125 = MECHANICAL_DESIGN_GEOMETRIC_PRESENTATION_REPRESENTATION('',(
    #1126),#1102);
#1126 = STYLED_ITEM('color',(#1127),#696);
#1127 = PRESENTATION_STYLE_ASSIGNMENT((#1128,#1134));
#1128 = SURFACE_STYLE_USAGE(.BOTH.,#1129);
#1129 = SURFACE_SIDE_STYLE('',(#1130));
#1130 = SURFACE_STYLE_FILL_AREA(#1131);
#1131 = FILL_AREA_STYLE('',(#1132));
#1132 = FILL_AREA_STYLE_COLOUR('',#1133);
#1133 = COLOUR_RGB('',0.647058850868,0.647058850868,0.647058850868);
#1134 = CURVE_STYLE('',#1135,POSITIVE_LENGTH_MEASURE(0.1),#1124);
#1135 = DRAUGHTING_PRE_DEFINED_CURVE_FONT('continuous');
ENDSEC;
END-ISO-10303-21;
