ISO-10303-21;
HEADER;
FILE_DESCRIPTION(('FreeCAD Model'),'2;1');
FILE_NAME('Open CASCADE Shape Model','2025-07-28T20:49:38',(''),(''),
  'Open CASCADE STEP processor 7.8','FreeCAD','Unknown');
FILE_SCHEMA(('AUTOMOTIVE_DESIGN { 1 0 10303 214 1 1 1 1 }'));
ENDSEC;
DATA;
#1 = APPLICATION_PROTOCOL_DEFINITION('international standard',
  'automotive_design',2000,#2);
#2 = APPLICATION_CONTEXT(
  'core data for automotive mechanical design processes');
#3 = SHAPE_DEFINITION_REPRESENTATION(#4,#10);
#4 = PRODUCT_DEFINITION_SHAPE('','',#5);
#5 = PRODUCT_DEFINITION('design','',#6,#9);
#6 = PRODUCT_DEFINITION_FORMATION('','',#7);
#7 = PRODUCT('base-print','base-print','',(#8));
#8 = PRODUCT_CONTEXT('',#2,'mechanical');
#9 = PRODUCT_DEFINITION_CONTEXT('part definition',#2,'design');
#10 = SHAPE_REPRESENTATION('',(#11,#15),#19);
#11 = AXIS2_PLACEMENT_3D('',#12,#13,#14);
#12 = CARTESIAN_POINT('',(0.,0.,0.));
#13 = DIRECTION('',(0.,0.,1.));
#14 = DIRECTION('',(1.,0.,-0.));
#15 = AXIS2_PLACEMENT_3D('',#16,#17,#18);
#16 = CARTESIAN_POINT('',(0.,0.,0.));
#17 = DIRECTION('',(0.,4.09781896079E-08,-1.));
#18 = DIRECTION('',(1.,0.,0.));
#19 = ( GEOMETRIC_REPRESENTATION_CONTEXT(3) 
GLOBAL_UNCERTAINTY_ASSIGNED_CONTEXT((#23)) GLOBAL_UNIT_ASSIGNED_CONTEXT(
(#20,#21,#22)) REPRESENTATION_CONTEXT('Context #1',
  '3D Context with UNIT and UNCERTAINTY') );
#20 = ( LENGTH_UNIT() NAMED_UNIT(*) SI_UNIT(.MILLI.,.METRE.) );
#21 = ( NAMED_UNIT(*) PLANE_ANGLE_UNIT() SI_UNIT($,.RADIAN.) );
#22 = ( NAMED_UNIT(*) SI_UNIT($,.STERADIAN.) SOLID_ANGLE_UNIT() );
#23 = UNCERTAINTY_MEASURE_WITH_UNIT(LENGTH_MEASURE(2.E-06),#20,
  'distance_accuracy_value','confusion accuracy');
#24 = PRODUCT_RELATED_PRODUCT_CATEGORY('part',$,(#7));
#25 = SHAPE_DEFINITION_REPRESENTATION(#26,#32);
#26 = PRODUCT_DEFINITION_SHAPE('','',#27);
#27 = PRODUCT_DEFINITION('design','',#28,#31);
#28 = PRODUCT_DEFINITION_FORMATION('','',#29);
#29 = PRODUCT('base','base','',(#30));
#30 = PRODUCT_CONTEXT('',#2,'mechanical');
#31 = PRODUCT_DEFINITION_CONTEXT('part definition',#2,'design');
#32 = ADVANCED_BREP_SHAPE_REPRESENTATION('',(#11,#33),#2007);
#33 = MANIFOLD_SOLID_BREP('',#34);
#34 = CLOSED_SHELL('',(#35,#111,#142,#167,#597,#653,#678,#702,#1094,
    #1119,#1174,#1196,#1213,#1230,#1247,#1259,#1284,#1309,#1333,#1375,
    #1387,#1412,#1429,#1446,#1463,#1480,#1497,#1514,#1531,#1556,#1573,
    #1590,#1607,#1624,#1641,#1658,#1683,#1700,#1717,#1734,#1751,#1768,
    #1785,#1802,#1819,#1836,#1861,#1873,#1890,#1902,#1919,#1936,#1953,
    #1970,#1980,#1990));
#35 = ADVANCED_FACE('',(#36,#95),#106,.T.);
#36 = FACE_BOUND('',#37,.T.);
#37 = EDGE_LOOP('',(#38,#48,#56,#64,#72,#80,#88));
#38 = ORIENTED_EDGE('',*,*,#39,.F.);
#39 = EDGE_CURVE('',#40,#42,#44,.T.);
#40 = VERTEX_POINT('',#41);
#41 = CARTESIAN_POINT('',(-2.2,-32.761844,-2.));
#42 = VERTEX_POINT('',#43);
#43 = CARTESIAN_POINT('',(-2.2,-32.761844,-6.));
#44 = LINE('',#45,#46);
#45 = CARTESIAN_POINT('',(-2.2,-32.761844,-2.));
#46 = VECTOR('',#47,1.);
#47 = DIRECTION('',(0.,-1.224646799147E-16,-1.));
#48 = ORIENTED_EDGE('',*,*,#49,.F.);
#49 = EDGE_CURVE('',#50,#40,#52,.T.);
#50 = VERTEX_POINT('',#51);
#51 = CARTESIAN_POINT('',(-2.2,-38.4,-2.));
#52 = LINE('',#53,#54);
#53 = CARTESIAN_POINT('',(-2.2,-38.4,-2.));
#54 = VECTOR('',#55,1.);
#55 = DIRECTION('',(0.,1.,0.));
#56 = ORIENTED_EDGE('',*,*,#57,.F.);
#57 = EDGE_CURVE('',#58,#50,#60,.T.);
#58 = VERTEX_POINT('',#59);
#59 = CARTESIAN_POINT('',(-2.2,-38.4,0.));
#60 = LINE('',#61,#62);
#61 = CARTESIAN_POINT('',(-2.2,-38.4,0.));
#62 = VECTOR('',#63,1.);
#63 = DIRECTION('',(0.,0.,-1.));
#64 = ORIENTED_EDGE('',*,*,#65,.T.);
#65 = EDGE_CURVE('',#58,#66,#68,.T.);
#66 = VERTEX_POINT('',#67);
#67 = CARTESIAN_POINT('',(-2.2,-21.835936,0.));
#68 = LINE('',#69,#70);
#69 = CARTESIAN_POINT('',(-2.2,-38.4,0.));
#70 = VECTOR('',#71,1.);
#71 = DIRECTION('',(0.,1.,0.));
#72 = ORIENTED_EDGE('',*,*,#73,.T.);
#73 = EDGE_CURVE('',#66,#74,#76,.T.);
#74 = VERTEX_POINT('',#75);
#75 = CARTESIAN_POINT('',(-2.2,-21.835936,-8.));
#76 = LINE('',#77,#78);
#77 = CARTESIAN_POINT('',(-2.2,-21.835936,0.));
#78 = VECTOR('',#79,1.);
#79 = DIRECTION('',(0.,0.,-1.));
#80 = ORIENTED_EDGE('',*,*,#81,.T.);
#81 = EDGE_CURVE('',#74,#82,#84,.T.);
#82 = VERTEX_POINT('',#83);
#83 = CARTESIAN_POINT('',(-2.2,-30.761844,-8.));
#84 = LINE('',#85,#86);
#85 = CARTESIAN_POINT('',(-2.2,-5.917214,-8.));
#86 = VECTOR('',#87,1.);
#87 = DIRECTION('',(-3.673352034654E-48,-1.,1.224646799147E-16));
#88 = ORIENTED_EDGE('',*,*,#89,.F.);
#89 = EDGE_CURVE('',#42,#82,#90,.T.);
#90 = CIRCLE('',#91,2.);
#91 = AXIS2_PLACEMENT_3D('',#92,#93,#94);
#92 = CARTESIAN_POINT('',(-2.2,-30.761844,-6.));
#93 = DIRECTION('',(1.,0.,0.));
#94 = DIRECTION('',(0.,-1.,0.));
#95 = FACE_BOUND('',#96,.T.);
#96 = EDGE_LOOP('',(#97));
#97 = ORIENTED_EDGE('',*,*,#98,.T.);
#98 = EDGE_CURVE('',#99,#99,#101,.T.);
#99 = VERTEX_POINT('',#100);
#100 = CARTESIAN_POINT('',(-2.2,-26.561844,-5.));
#101 = CIRCLE('',#102,1.7);
#102 = AXIS2_PLACEMENT_3D('',#103,#104,#105);
#103 = CARTESIAN_POINT('',(-2.2,-28.261844,-5.));
#104 = DIRECTION('',(1.,0.,0.));
#105 = DIRECTION('',(0.,1.,0.));
#106 = PLANE('',#107);
#107 = AXIS2_PLACEMENT_3D('',#108,#109,#110);
#108 = CARTESIAN_POINT('',(-2.2,-19.2180425431,-3.252885560345));
#109 = DIRECTION('',(-1.,-1.224646799147E-16,-8.687060754194E-16));
#110 = DIRECTION('',(-8.687060754194E-16,-1.063858114662E-31,1.));
#111 = ADVANCED_FACE('',(#112),#137,.F.);
#112 = FACE_BOUND('',#113,.F.);
#113 = EDGE_LOOP('',(#114,#124,#130,#131));
#114 = ORIENTED_EDGE('',*,*,#115,.T.);
#115 = EDGE_CURVE('',#116,#118,#120,.T.);
#116 = VERTEX_POINT('',#117);
#117 = CARTESIAN_POINT('',(0.8,-32.761844,-2.));
#118 = VERTEX_POINT('',#119);
#119 = CARTESIAN_POINT('',(0.8,-32.761844,-6.));
#120 = LINE('',#121,#122);
#121 = CARTESIAN_POINT('',(0.8,-32.761844,-2.));
#122 = VECTOR('',#123,1.);
#123 = DIRECTION('',(0.,-1.224646799147E-16,-1.));
#124 = ORIENTED_EDGE('',*,*,#125,.T.);
#125 = EDGE_CURVE('',#118,#42,#126,.T.);
#126 = LINE('',#127,#128);
#127 = CARTESIAN_POINT('',(0.8,-32.761844,-6.));
#128 = VECTOR('',#129,1.);
#129 = DIRECTION('',(-1.,0.,0.));
#130 = ORIENTED_EDGE('',*,*,#39,.F.);
#131 = ORIENTED_EDGE('',*,*,#132,.F.);
#132 = EDGE_CURVE('',#116,#40,#133,.T.);
#133 = LINE('',#134,#135);
#134 = CARTESIAN_POINT('',(0.8,-32.761844,-2.));
#135 = VECTOR('',#136,1.);
#136 = DIRECTION('',(-1.,-1.836676017327E-48,0.));
#137 = PLANE('',#138);
#138 = AXIS2_PLACEMENT_3D('',#139,#140,#141);
#139 = CARTESIAN_POINT('',(0.8,-32.761844,-2.));
#140 = DIRECTION('',(0.,1.,-1.224646799147E-16));
#141 = DIRECTION('',(-1.,0.,0.));
#142 = ADVANCED_FACE('',(#143),#162,.T.);
#143 = FACE_BOUND('',#144,.F.);
#144 = EDGE_LOOP('',(#145,#154,#160,#161));
#145 = ORIENTED_EDGE('',*,*,#146,.T.);
#146 = EDGE_CURVE('',#118,#147,#149,.T.);
#147 = VERTEX_POINT('',#148);
#148 = CARTESIAN_POINT('',(0.8,-30.761844,-8.));
#149 = CIRCLE('',#150,2.);
#150 = AXIS2_PLACEMENT_3D('',#151,#152,#153);
#151 = CARTESIAN_POINT('',(0.8,-30.761844,-6.));
#152 = DIRECTION('',(1.,0.,0.));
#153 = DIRECTION('',(0.,-1.,0.));
#154 = ORIENTED_EDGE('',*,*,#155,.T.);
#155 = EDGE_CURVE('',#147,#82,#156,.T.);
#156 = LINE('',#157,#158);
#157 = CARTESIAN_POINT('',(0.8,-30.761844,-8.));
#158 = VECTOR('',#159,1.);
#159 = DIRECTION('',(-1.,0.,0.));
#160 = ORIENTED_EDGE('',*,*,#89,.F.);
#161 = ORIENTED_EDGE('',*,*,#125,.F.);
#162 = CYLINDRICAL_SURFACE('',#163,2.);
#163 = AXIS2_PLACEMENT_3D('',#164,#165,#166);
#164 = CARTESIAN_POINT('',(0.8,-30.761844,-6.));
#165 = DIRECTION('',(-1.,0.,0.));
#166 = DIRECTION('',(0.,-1.,1.224646799147E-16));
#167 = ADVANCED_FACE('',(#168,#306,#317,#328,#339,#350,#361,#372,#383,
    #394,#405,#416,#427,#438,#449,#460,#471,#482,#493,#504,#515,#526,
    #537,#548,#559,#570,#581),#592,.F.);
#168 = FACE_BOUND('',#169,.F.);
#169 = EDGE_LOOP('',(#170,#180,#189,#197,#205,#213,#222,#231,#239,#248,
    #257,#263,#264,#265,#274,#282,#291,#299));
#170 = ORIENTED_EDGE('',*,*,#171,.F.);
#171 = EDGE_CURVE('',#172,#174,#176,.T.);
#172 = VERTEX_POINT('',#173);
#173 = CARTESIAN_POINT('',(0.,2.2,-2.));
#174 = VERTEX_POINT('',#175);
#175 = CARTESIAN_POINT('',(30.,2.2,-2.));
#176 = LINE('',#177,#178);
#177 = CARTESIAN_POINT('',(4.E-16,2.2,-2.));
#178 = VECTOR('',#179,1.);
#179 = DIRECTION('',(1.,0.,0.));
#180 = ORIENTED_EDGE('',*,*,#181,.T.);
#181 = EDGE_CURVE('',#172,#182,#184,.T.);
#182 = VERTEX_POINT('',#183);
#183 = CARTESIAN_POINT('',(-2.2,0.,-2.));
#184 = CIRCLE('',#185,2.2);
#185 = AXIS2_PLACEMENT_3D('',#186,#187,#188);
#186 = CARTESIAN_POINT('',(0.,0.,-2.));
#187 = DIRECTION('',(-0.,0.,1.));
#188 = DIRECTION('',(1.,-1.2E-16,0.));
#189 = ORIENTED_EDGE('',*,*,#190,.F.);
#190 = EDGE_CURVE('',#191,#182,#193,.T.);
#191 = VERTEX_POINT('',#192);
#192 = CARTESIAN_POINT('',(-2.2,-5.917214,-2.));
#193 = LINE('',#194,#195);
#194 = CARTESIAN_POINT('',(-2.2,-38.4,-2.));
#195 = VECTOR('',#196,1.);
#196 = DIRECTION('',(0.,1.,0.));
#197 = ORIENTED_EDGE('',*,*,#198,.T.);
#198 = EDGE_CURVE('',#191,#199,#201,.T.);
#199 = VERTEX_POINT('',#200);
#200 = CARTESIAN_POINT('',(0.8,-5.917214,-2.));
#201 = LINE('',#202,#203);
#202 = CARTESIAN_POINT('',(-2.2,-5.917214,-2.));
#203 = VECTOR('',#204,1.);
#204 = DIRECTION('',(1.,1.836676017327E-48,0.));
#205 = ORIENTED_EDGE('',*,*,#206,.F.);
#206 = EDGE_CURVE('',#207,#199,#209,.T.);
#207 = VERTEX_POINT('',#208);
#208 = CARTESIAN_POINT('',(0.8,-8.901925930159,-2.));
#209 = LINE('',#210,#211);
#210 = CARTESIAN_POINT('',(0.8,-32.761844,-2.));
#211 = VECTOR('',#212,1.);
#212 = DIRECTION('',(3.673352034654E-48,1.,-1.224646799147E-16));
#213 = ORIENTED_EDGE('',*,*,#214,.T.);
#214 = EDGE_CURVE('',#207,#215,#217,.T.);
#215 = VERTEX_POINT('',#216);
#216 = CARTESIAN_POINT('',(2.9,-9.55,-2.));
#217 = CIRCLE('',#218,1.15);
#218 = AXIS2_PLACEMENT_3D('',#219,#220,#221);
#219 = CARTESIAN_POINT('',(1.75,-9.55,-2.));
#220 = DIRECTION('',(0.,-1.2E-16,-1.));
#221 = DIRECTION('',(1.,-1.2E-16,1.44E-32));
#222 = ORIENTED_EDGE('',*,*,#223,.T.);
#223 = EDGE_CURVE('',#215,#224,#226,.T.);
#224 = VERTEX_POINT('',#225);
#225 = CARTESIAN_POINT('',(0.8,-10.19807406984,-2.));
#226 = CIRCLE('',#227,1.15);
#227 = AXIS2_PLACEMENT_3D('',#228,#229,#230);
#228 = CARTESIAN_POINT('',(1.75,-9.55,-2.));
#229 = DIRECTION('',(0.,-1.2E-16,-1.));
#230 = DIRECTION('',(1.,-1.2E-16,1.44E-32));
#231 = ORIENTED_EDGE('',*,*,#232,.F.);
#232 = EDGE_CURVE('',#233,#224,#235,.T.);
#233 = VERTEX_POINT('',#234);
#234 = CARTESIAN_POINT('',(0.8,-28.31,-2.));
#235 = LINE('',#236,#237);
#236 = CARTESIAN_POINT('',(0.8,-32.761844,-2.));
#237 = VECTOR('',#238,1.);
#238 = DIRECTION('',(3.673352034654E-48,1.,-1.224646799147E-16));
#239 = ORIENTED_EDGE('',*,*,#240,.T.);
#240 = EDGE_CURVE('',#233,#241,#243,.T.);
#241 = VERTEX_POINT('',#242);
#242 = CARTESIAN_POINT('',(2.87,-29.,-2.));
#243 = CIRCLE('',#244,1.15);
#244 = AXIS2_PLACEMENT_3D('',#245,#246,#247);
#245 = CARTESIAN_POINT('',(1.72,-29.,-2.));
#246 = DIRECTION('',(0.,-1.2E-16,-1.));
#247 = DIRECTION('',(1.,-1.2E-16,1.44E-32));
#248 = ORIENTED_EDGE('',*,*,#249,.T.);
#249 = EDGE_CURVE('',#241,#250,#252,.T.);
#250 = VERTEX_POINT('',#251);
#251 = CARTESIAN_POINT('',(0.8,-29.69,-2.));
#252 = CIRCLE('',#253,1.15);
#253 = AXIS2_PLACEMENT_3D('',#254,#255,#256);
#254 = CARTESIAN_POINT('',(1.72,-29.,-2.));
#255 = DIRECTION('',(0.,-1.2E-16,-1.));
#256 = DIRECTION('',(1.,-1.2E-16,1.44E-32));
#257 = ORIENTED_EDGE('',*,*,#258,.F.);
#258 = EDGE_CURVE('',#116,#250,#259,.T.);
#259 = LINE('',#260,#261);
#260 = CARTESIAN_POINT('',(0.8,-32.761844,-2.));
#261 = VECTOR('',#262,1.);
#262 = DIRECTION('',(3.673352034654E-48,1.,-1.224646799147E-16));
#263 = ORIENTED_EDGE('',*,*,#132,.T.);
#264 = ORIENTED_EDGE('',*,*,#49,.F.);
#265 = ORIENTED_EDGE('',*,*,#266,.T.);
#266 = EDGE_CURVE('',#50,#267,#269,.T.);
#267 = VERTEX_POINT('',#268);
#268 = CARTESIAN_POINT('',(-7.E-15,-40.6,-2.));
#269 = CIRCLE('',#270,2.2);
#270 = AXIS2_PLACEMENT_3D('',#271,#272,#273);
#271 = CARTESIAN_POINT('',(-7.11E-15,-38.4,-2.));
#272 = DIRECTION('',(0.,-0.,1.));
#273 = DIRECTION('',(2.2E-16,1.,0.));
#274 = ORIENTED_EDGE('',*,*,#275,.F.);
#275 = EDGE_CURVE('',#276,#267,#278,.T.);
#276 = VERTEX_POINT('',#277);
#277 = CARTESIAN_POINT('',(30.,-40.6,-2.));
#278 = LINE('',#279,#280);
#279 = CARTESIAN_POINT('',(30.,-40.6,-2.));
#280 = VECTOR('',#281,1.);
#281 = DIRECTION('',(-1.,0.,0.));
#282 = ORIENTED_EDGE('',*,*,#283,.T.);
#283 = EDGE_CURVE('',#276,#284,#286,.T.);
#284 = VERTEX_POINT('',#285);
#285 = CARTESIAN_POINT('',(32.2,-38.4,-2.));
#286 = CIRCLE('',#287,2.2);
#287 = AXIS2_PLACEMENT_3D('',#288,#289,#290);
#288 = CARTESIAN_POINT('',(30.,-38.4,-2.));
#289 = DIRECTION('',(0.,0.,1.));
#290 = DIRECTION('',(-1.,1.E-16,0.));
#291 = ORIENTED_EDGE('',*,*,#292,.F.);
#292 = EDGE_CURVE('',#293,#284,#295,.T.);
#293 = VERTEX_POINT('',#294);
#294 = CARTESIAN_POINT('',(32.2,-4.E-15,-2.));
#295 = LINE('',#296,#297);
#296 = CARTESIAN_POINT('',(32.2,-3.93E-15,-2.));
#297 = VECTOR('',#298,1.);
#298 = DIRECTION('',(0.,-1.,0.));
#299 = ORIENTED_EDGE('',*,*,#300,.T.);
#300 = EDGE_CURVE('',#293,#174,#301,.T.);
#301 = CIRCLE('',#302,2.2);
#302 = AXIS2_PLACEMENT_3D('',#303,#304,#305);
#303 = CARTESIAN_POINT('',(30.,-3.55E-15,-2.));
#304 = DIRECTION('',(0.,0.,1.));
#305 = DIRECTION('',(-1.1E-16,-1.,0.));
#306 = FACE_BOUND('',#307,.F.);
#307 = EDGE_LOOP('',(#308));
#308 = ORIENTED_EDGE('',*,*,#309,.T.);
#309 = EDGE_CURVE('',#310,#310,#312,.T.);
#310 = VERTEX_POINT('',#311);
#311 = CARTESIAN_POINT('',(5.,-35.366726,-2.));
#312 = CIRCLE('',#313,2.);
#313 = AXIS2_PLACEMENT_3D('',#314,#315,#316);
#314 = CARTESIAN_POINT('',(3.,-35.366726,-2.));
#315 = DIRECTION('',(0.,0.,-1.));
#316 = DIRECTION('',(1.,0.,0.));
#317 = FACE_BOUND('',#318,.F.);
#318 = EDGE_LOOP('',(#319));
#319 = ORIENTED_EDGE('',*,*,#320,.T.);
#320 = EDGE_CURVE('',#321,#321,#323,.T.);
#321 = VERTEX_POINT('',#322);
#322 = CARTESIAN_POINT('',(7.95,-29.,-2.));
#323 = CIRCLE('',#324,1.15);
#324 = AXIS2_PLACEMENT_3D('',#325,#326,#327);
#325 = CARTESIAN_POINT('',(6.8,-29.,-2.));
#326 = DIRECTION('',(0.,-1.2E-16,-1.));
#327 = DIRECTION('',(1.,-1.2E-16,1.44E-32));
#328 = FACE_BOUND('',#329,.F.);
#329 = EDGE_LOOP('',(#330));
#330 = ORIENTED_EDGE('',*,*,#331,.T.);
#331 = EDGE_CURVE('',#332,#332,#334,.T.);
#332 = VERTEX_POINT('',#333);
#333 = CARTESIAN_POINT('',(12.97,-35.2,-2.));
#334 = CIRCLE('',#335,1.15);
#335 = AXIS2_PLACEMENT_3D('',#336,#337,#338);
#336 = CARTESIAN_POINT('',(11.82,-35.2,-2.));
#337 = DIRECTION('',(0.,-1.2E-16,-1.));
#338 = DIRECTION('',(1.,-1.2E-16,1.44E-32));
#339 = FACE_BOUND('',#340,.F.);
#340 = EDGE_LOOP('',(#341));
#341 = ORIENTED_EDGE('',*,*,#342,.T.);
#342 = EDGE_CURVE('',#343,#343,#345,.T.);
#343 = VERTEX_POINT('',#344);
#344 = CARTESIAN_POINT('',(13.03,-29.,-2.));
#345 = CIRCLE('',#346,1.15);
#346 = AXIS2_PLACEMENT_3D('',#347,#348,#349);
#347 = CARTESIAN_POINT('',(11.88,-29.,-2.));
#348 = DIRECTION('',(0.,-1.2E-16,-1.));
#349 = DIRECTION('',(1.,-1.2E-16,1.44E-32));
#350 = FACE_BOUND('',#351,.F.);
#351 = EDGE_LOOP('',(#352));
#352 = ORIENTED_EDGE('',*,*,#353,.T.);
#353 = EDGE_CURVE('',#354,#354,#356,.T.);
#354 = VERTEX_POINT('',#355);
#355 = CARTESIAN_POINT('',(12.97,-22.8,-2.));
#356 = CIRCLE('',#357,1.15);
#357 = AXIS2_PLACEMENT_3D('',#358,#359,#360);
#358 = CARTESIAN_POINT('',(11.82,-22.8,-2.));
#359 = DIRECTION('',(0.,-1.2E-16,-1.));
#360 = DIRECTION('',(1.,-1.2E-16,1.44E-32));
#361 = FACE_BOUND('',#362,.F.);
#362 = EDGE_LOOP('',(#363));
#363 = ORIENTED_EDGE('',*,*,#364,.T.);
#364 = EDGE_CURVE('',#365,#365,#367,.T.);
#365 = VERTEX_POINT('',#366);
#366 = CARTESIAN_POINT('',(18.05,-35.2,-2.));
#367 = CIRCLE('',#368,1.15);
#368 = AXIS2_PLACEMENT_3D('',#369,#370,#371);
#369 = CARTESIAN_POINT('',(16.9,-35.2,-2.));
#370 = DIRECTION('',(0.,-1.2E-16,-1.));
#371 = DIRECTION('',(1.,-1.2E-16,1.44E-32));
#372 = FACE_BOUND('',#373,.F.);
#373 = EDGE_LOOP('',(#374));
#374 = ORIENTED_EDGE('',*,*,#375,.T.);
#375 = EDGE_CURVE('',#376,#376,#378,.T.);
#376 = VERTEX_POINT('',#377);
#377 = CARTESIAN_POINT('',(23.13,-35.2,-2.));
#378 = CIRCLE('',#379,1.15);
#379 = AXIS2_PLACEMENT_3D('',#380,#381,#382);
#380 = CARTESIAN_POINT('',(21.98,-35.2,-2.));
#381 = DIRECTION('',(0.,-1.2E-16,-1.));
#382 = DIRECTION('',(1.,-1.2E-16,1.44E-32));
#383 = FACE_BOUND('',#384,.F.);
#384 = EDGE_LOOP('',(#385));
#385 = ORIENTED_EDGE('',*,*,#386,.T.);
#386 = EDGE_CURVE('',#387,#387,#389,.T.);
#387 = VERTEX_POINT('',#388);
#388 = CARTESIAN_POINT('',(19.17,-29.,-2.));
#389 = CIRCLE('',#390,1.15);
#390 = AXIS2_PLACEMENT_3D('',#391,#392,#393);
#391 = CARTESIAN_POINT('',(18.02,-29.,-2.));
#392 = DIRECTION('',(0.,-1.2E-16,-1.));
#393 = DIRECTION('',(1.,-1.2E-16,1.44E-32));
#394 = FACE_BOUND('',#395,.F.);
#395 = EDGE_LOOP('',(#396));
#396 = ORIENTED_EDGE('',*,*,#397,.T.);
#397 = EDGE_CURVE('',#398,#398,#400,.T.);
#398 = VERTEX_POINT('',#399);
#399 = CARTESIAN_POINT('',(29.,-35.366726,-2.));
#400 = CIRCLE('',#401,2.);
#401 = AXIS2_PLACEMENT_3D('',#402,#403,#404);
#402 = CARTESIAN_POINT('',(27.,-35.366726,-2.));
#403 = DIRECTION('',(0.,0.,-1.));
#404 = DIRECTION('',(1.,0.,0.));
#405 = FACE_BOUND('',#406,.F.);
#406 = EDGE_LOOP('',(#407));
#407 = ORIENTED_EDGE('',*,*,#408,.T.);
#408 = EDGE_CURVE('',#409,#409,#411,.T.);
#409 = VERTEX_POINT('',#410);
#410 = CARTESIAN_POINT('',(24.25,-29.,-2.));
#411 = CIRCLE('',#412,1.15);
#412 = AXIS2_PLACEMENT_3D('',#413,#414,#415);
#413 = CARTESIAN_POINT('',(23.1,-29.,-2.));
#414 = DIRECTION('',(0.,-1.2E-16,-1.));
#415 = DIRECTION('',(1.,-1.2E-16,1.44E-32));
#416 = FACE_BOUND('',#417,.F.);
#417 = EDGE_LOOP('',(#418));
#418 = ORIENTED_EDGE('',*,*,#419,.T.);
#419 = EDGE_CURVE('',#420,#420,#422,.T.);
#420 = VERTEX_POINT('',#421);
#421 = CARTESIAN_POINT('',(29.33,-29.,-2.));
#422 = CIRCLE('',#423,1.15);
#423 = AXIS2_PLACEMENT_3D('',#424,#425,#426);
#424 = CARTESIAN_POINT('',(28.18,-29.,-2.));
#425 = DIRECTION('',(0.,-1.2E-16,-1.));
#426 = DIRECTION('',(1.,-1.2E-16,1.44E-32));
#427 = FACE_BOUND('',#428,.F.);
#428 = EDGE_LOOP('',(#429));
#429 = ORIENTED_EDGE('',*,*,#430,.T.);
#430 = EDGE_CURVE('',#431,#431,#433,.T.);
#431 = VERTEX_POINT('',#432);
#432 = CARTESIAN_POINT('',(18.05,-22.8,-2.));
#433 = CIRCLE('',#434,1.15);
#434 = AXIS2_PLACEMENT_3D('',#435,#436,#437);
#435 = CARTESIAN_POINT('',(16.9,-22.8,-2.));
#436 = DIRECTION('',(0.,-1.2E-16,-1.));
#437 = DIRECTION('',(1.,-1.2E-16,1.44E-32));
#438 = FACE_BOUND('',#439,.F.);
#439 = EDGE_LOOP('',(#440));
#440 = ORIENTED_EDGE('',*,*,#441,.T.);
#441 = EDGE_CURVE('',#442,#442,#444,.T.);
#442 = VERTEX_POINT('',#443);
#443 = CARTESIAN_POINT('',(23.13,-22.8,-2.));
#444 = CIRCLE('',#445,1.15);
#445 = AXIS2_PLACEMENT_3D('',#446,#447,#448);
#446 = CARTESIAN_POINT('',(21.98,-22.8,-2.));
#447 = DIRECTION('',(0.,-1.2E-16,-1.));
#448 = DIRECTION('',(1.,-1.2E-16,1.44E-32));
#449 = FACE_BOUND('',#450,.F.);
#450 = EDGE_LOOP('',(#451));
#451 = ORIENTED_EDGE('',*,*,#452,.T.);
#452 = EDGE_CURVE('',#453,#453,#455,.T.);
#453 = VERTEX_POINT('',#454);
#454 = CARTESIAN_POINT('',(13.,-15.75,-2.));
#455 = CIRCLE('',#456,1.15);
#456 = AXIS2_PLACEMENT_3D('',#457,#458,#459);
#457 = CARTESIAN_POINT('',(11.85,-15.75,-2.));
#458 = DIRECTION('',(0.,-1.2E-16,-1.));
#459 = DIRECTION('',(1.,-1.2E-16,1.44E-32));
#460 = FACE_BOUND('',#461,.F.);
#461 = EDGE_LOOP('',(#462));
#462 = ORIENTED_EDGE('',*,*,#463,.T.);
#463 = EDGE_CURVE('',#464,#464,#466,.T.);
#464 = VERTEX_POINT('',#465);
#465 = CARTESIAN_POINT('',(7.98,-9.55,-2.));
#466 = CIRCLE('',#467,1.15);
#467 = AXIS2_PLACEMENT_3D('',#468,#469,#470);
#468 = CARTESIAN_POINT('',(6.83,-9.55,-2.));
#469 = DIRECTION('',(0.,-1.2E-16,-1.));
#470 = DIRECTION('',(1.,-1.2E-16,1.44E-32));
#471 = FACE_BOUND('',#472,.F.);
#472 = EDGE_LOOP('',(#473));
#473 = ORIENTED_EDGE('',*,*,#474,.T.);
#474 = EDGE_CURVE('',#475,#475,#477,.T.);
#475 = VERTEX_POINT('',#476);
#476 = CARTESIAN_POINT('',(4.983274,-3.016726,-2.));
#477 = CIRCLE('',#478,2.);
#478 = AXIS2_PLACEMENT_3D('',#479,#480,#481);
#479 = CARTESIAN_POINT('',(2.983274,-3.016726,-2.));
#480 = DIRECTION('',(0.,0.,-1.));
#481 = DIRECTION('',(1.,1.42E-15,0.));
#482 = FACE_BOUND('',#483,.F.);
#483 = EDGE_LOOP('',(#484));
#484 = ORIENTED_EDGE('',*,*,#485,.T.);
#485 = EDGE_CURVE('',#486,#486,#488,.T.);
#486 = VERTEX_POINT('',#487);
#487 = CARTESIAN_POINT('',(13.06,-9.55,-2.));
#488 = CIRCLE('',#489,1.15);
#489 = AXIS2_PLACEMENT_3D('',#490,#491,#492);
#490 = CARTESIAN_POINT('',(11.91,-9.55,-2.));
#491 = DIRECTION('',(0.,-1.2E-16,-1.));
#492 = DIRECTION('',(1.,-1.2E-16,1.44E-32));
#493 = FACE_BOUND('',#494,.F.);
#494 = EDGE_LOOP('',(#495));
#495 = ORIENTED_EDGE('',*,*,#496,.T.);
#496 = EDGE_CURVE('',#497,#497,#499,.T.);
#497 = VERTEX_POINT('',#498);
#498 = CARTESIAN_POINT('',(13.,-3.35,-2.));
#499 = CIRCLE('',#500,1.15);
#500 = AXIS2_PLACEMENT_3D('',#501,#502,#503);
#501 = CARTESIAN_POINT('',(11.85,-3.35,-2.));
#502 = DIRECTION('',(0.,-1.2E-16,-1.));
#503 = DIRECTION('',(1.,-1.2E-16,1.44E-32));
#504 = FACE_BOUND('',#505,.F.);
#505 = EDGE_LOOP('',(#506));
#506 = ORIENTED_EDGE('',*,*,#507,.T.);
#507 = EDGE_CURVE('',#508,#508,#510,.T.);
#508 = VERTEX_POINT('',#509);
#509 = CARTESIAN_POINT('',(18.08,-15.75,-2.));
#510 = CIRCLE('',#511,1.15);
#511 = AXIS2_PLACEMENT_3D('',#512,#513,#514);
#512 = CARTESIAN_POINT('',(16.93,-15.75,-2.));
#513 = DIRECTION('',(0.,-1.2E-16,-1.));
#514 = DIRECTION('',(1.,-1.2E-16,1.44E-32));
#515 = FACE_BOUND('',#516,.F.);
#516 = EDGE_LOOP('',(#517));
#517 = ORIENTED_EDGE('',*,*,#518,.T.);
#518 = EDGE_CURVE('',#519,#519,#521,.T.);
#519 = VERTEX_POINT('',#520);
#520 = CARTESIAN_POINT('',(23.16,-15.75,-2.));
#521 = CIRCLE('',#522,1.15);
#522 = AXIS2_PLACEMENT_3D('',#523,#524,#525);
#523 = CARTESIAN_POINT('',(22.01,-15.75,-2.));
#524 = DIRECTION('',(0.,-1.2E-16,-1.));
#525 = DIRECTION('',(1.,-1.2E-16,1.44E-32));
#526 = FACE_BOUND('',#527,.F.);
#527 = EDGE_LOOP('',(#528));
#528 = ORIENTED_EDGE('',*,*,#529,.T.);
#529 = EDGE_CURVE('',#530,#530,#532,.T.);
#530 = VERTEX_POINT('',#531);
#531 = CARTESIAN_POINT('',(19.2,-9.55,-2.));
#532 = CIRCLE('',#533,1.15);
#533 = AXIS2_PLACEMENT_3D('',#534,#535,#536);
#534 = CARTESIAN_POINT('',(18.05,-9.55,-2.));
#535 = DIRECTION('',(0.,-1.2E-16,-1.));
#536 = DIRECTION('',(1.,-1.2E-16,1.44E-32));
#537 = FACE_BOUND('',#538,.F.);
#538 = EDGE_LOOP('',(#539));
#539 = ORIENTED_EDGE('',*,*,#540,.T.);
#540 = EDGE_CURVE('',#541,#541,#543,.T.);
#541 = VERTEX_POINT('',#542);
#542 = CARTESIAN_POINT('',(18.08,-3.35,-2.));
#543 = CIRCLE('',#544,1.15);
#544 = AXIS2_PLACEMENT_3D('',#545,#546,#547);
#545 = CARTESIAN_POINT('',(16.93,-3.35,-2.));
#546 = DIRECTION('',(0.,-1.2E-16,-1.));
#547 = DIRECTION('',(1.,-1.2E-16,1.44E-32));
#548 = FACE_BOUND('',#549,.F.);
#549 = EDGE_LOOP('',(#550));
#550 = ORIENTED_EDGE('',*,*,#551,.T.);
#551 = EDGE_CURVE('',#552,#552,#554,.T.);
#552 = VERTEX_POINT('',#553);
#553 = CARTESIAN_POINT('',(23.16,-3.35,-2.));
#554 = CIRCLE('',#555,1.15);
#555 = AXIS2_PLACEMENT_3D('',#556,#557,#558);
#556 = CARTESIAN_POINT('',(22.01,-3.35,-2.));
#557 = DIRECTION('',(0.,-1.2E-16,-1.));
#558 = DIRECTION('',(1.,-1.2E-16,1.44E-32));
#559 = FACE_BOUND('',#560,.F.);
#560 = EDGE_LOOP('',(#561));
#561 = ORIENTED_EDGE('',*,*,#562,.T.);
#562 = EDGE_CURVE('',#563,#563,#565,.T.);
#563 = VERTEX_POINT('',#564);
#564 = CARTESIAN_POINT('',(24.28,-9.55,-2.));
#565 = CIRCLE('',#566,1.15);
#566 = AXIS2_PLACEMENT_3D('',#567,#568,#569);
#567 = CARTESIAN_POINT('',(23.13,-9.55,-2.));
#568 = DIRECTION('',(0.,-1.2E-16,-1.));
#569 = DIRECTION('',(1.,-1.2E-16,1.44E-32));
#570 = FACE_BOUND('',#571,.F.);
#571 = EDGE_LOOP('',(#572));
#572 = ORIENTED_EDGE('',*,*,#573,.T.);
#573 = EDGE_CURVE('',#574,#574,#576,.T.);
#574 = VERTEX_POINT('',#575);
#575 = CARTESIAN_POINT('',(29.36,-9.55,-2.));
#576 = CIRCLE('',#577,1.15);
#577 = AXIS2_PLACEMENT_3D('',#578,#579,#580);
#578 = CARTESIAN_POINT('',(28.21,-9.55,-2.));
#579 = DIRECTION('',(0.,-1.2E-16,-1.));
#580 = DIRECTION('',(1.,-1.2E-16,1.44E-32));
#581 = FACE_BOUND('',#582,.F.);
#582 = EDGE_LOOP('',(#583));
#583 = ORIENTED_EDGE('',*,*,#584,.T.);
#584 = EDGE_CURVE('',#585,#585,#587,.T.);
#585 = VERTEX_POINT('',#586);
#586 = CARTESIAN_POINT('',(29.,-3.016726,-2.));
#587 = CIRCLE('',#588,2.);
#588 = AXIS2_PLACEMENT_3D('',#589,#590,#591);
#589 = CARTESIAN_POINT('',(27.,-3.016726,-2.));
#590 = DIRECTION('',(0.,-0.,-1.));
#591 = DIRECTION('',(1.,-7.1E-16,0.));
#592 = PLANE('',#593);
#593 = AXIS2_PLACEMENT_3D('',#594,#595,#596);
#594 = CARTESIAN_POINT('',(15.,-19.2,-2.));
#595 = DIRECTION('',(0.,0.,1.));
#596 = DIRECTION('',(1.,0.,0.));
#597 = ADVANCED_FACE('',(#598),#648,.F.);
#598 = FACE_BOUND('',#599,.F.);
#599 = EDGE_LOOP('',(#600,#608,#616,#624,#632,#640,#646,#647));
#600 = ORIENTED_EDGE('',*,*,#601,.T.);
#601 = EDGE_CURVE('',#147,#602,#604,.T.);
#602 = VERTEX_POINT('',#603);
#603 = CARTESIAN_POINT('',(0.8,-7.917214,-8.));
#604 = LINE('',#605,#606);
#605 = CARTESIAN_POINT('',(0.8,-32.761844,-8.));
#606 = VECTOR('',#607,1.);
#607 = DIRECTION('',(3.673352034654E-48,1.,-1.224646799147E-16));
#608 = ORIENTED_EDGE('',*,*,#609,.F.);
#609 = EDGE_CURVE('',#610,#602,#612,.T.);
#610 = VERTEX_POINT('',#611);
#611 = CARTESIAN_POINT('',(-2.2,-7.917214,-8.));
#612 = LINE('',#613,#614);
#613 = CARTESIAN_POINT('',(-2.2,-7.917214,-8.));
#614 = VECTOR('',#615,1.);
#615 = DIRECTION('',(1.,0.,0.));
#616 = ORIENTED_EDGE('',*,*,#617,.T.);
#617 = EDGE_CURVE('',#610,#618,#620,.T.);
#618 = VERTEX_POINT('',#619);
#619 = CARTESIAN_POINT('',(-2.2,-16.835936,-8.));
#620 = LINE('',#621,#622);
#621 = CARTESIAN_POINT('',(-2.2,-5.917214,-8.));
#622 = VECTOR('',#623,1.);
#623 = DIRECTION('',(-3.673352034654E-48,-1.,1.224646799147E-16));
#624 = ORIENTED_EDGE('',*,*,#625,.F.);
#625 = EDGE_CURVE('',#626,#618,#628,.T.);
#626 = VERTEX_POINT('',#627);
#627 = CARTESIAN_POINT('',(-0.7,-16.835936,-8.));
#628 = LINE('',#629,#630);
#629 = CARTESIAN_POINT('',(-0.7,-16.835936,-8.));
#630 = VECTOR('',#631,1.);
#631 = DIRECTION('',(-1.,0.,0.));
#632 = ORIENTED_EDGE('',*,*,#633,.F.);
#633 = EDGE_CURVE('',#634,#626,#636,.T.);
#634 = VERTEX_POINT('',#635);
#635 = CARTESIAN_POINT('',(-0.7,-21.835936,-8.));
#636 = LINE('',#637,#638);
#637 = CARTESIAN_POINT('',(-0.7,-20.5877325,-8.));
#638 = VECTOR('',#639,1.);
#639 = DIRECTION('',(0.,1.,0.));
#640 = ORIENTED_EDGE('',*,*,#641,.F.);
#641 = EDGE_CURVE('',#74,#634,#642,.T.);
#642 = LINE('',#643,#644);
#643 = CARTESIAN_POINT('',(-1.45,-21.835936,-8.));
#644 = VECTOR('',#645,1.);
#645 = DIRECTION('',(1.,0.,0.));
#646 = ORIENTED_EDGE('',*,*,#81,.T.);
#647 = ORIENTED_EDGE('',*,*,#155,.F.);
#648 = PLANE('',#649);
#649 = AXIS2_PLACEMENT_3D('',#650,#651,#652);
#650 = CARTESIAN_POINT('',(-0.7,-19.339529,-8.));
#651 = DIRECTION('',(0.,0.,1.));
#652 = DIRECTION('',(1.,0.,0.));
#653 = ADVANCED_FACE('',(#654),#673,.T.);
#654 = FACE_BOUND('',#655,.T.);
#655 = EDGE_LOOP('',(#656,#657,#658,#666));
#656 = ORIENTED_EDGE('',*,*,#57,.T.);
#657 = ORIENTED_EDGE('',*,*,#266,.T.);
#658 = ORIENTED_EDGE('',*,*,#659,.F.);
#659 = EDGE_CURVE('',#660,#267,#662,.T.);
#660 = VERTEX_POINT('',#661);
#661 = CARTESIAN_POINT('',(-7.E-15,-40.6,0.));
#662 = LINE('',#663,#664);
#663 = CARTESIAN_POINT('',(-7.48E-15,-40.6,0.));
#664 = VECTOR('',#665,1.);
#665 = DIRECTION('',(0.,0.,-1.));
#666 = ORIENTED_EDGE('',*,*,#667,.F.);
#667 = EDGE_CURVE('',#58,#660,#668,.T.);
#668 = CIRCLE('',#669,2.2);
#669 = AXIS2_PLACEMENT_3D('',#670,#671,#672);
#670 = CARTESIAN_POINT('',(-7.11E-15,-38.4,0.));
#671 = DIRECTION('',(0.,-0.,1.));
#672 = DIRECTION('',(2.2E-16,1.,0.));
#673 = CYLINDRICAL_SURFACE('',#674,2.2);
#674 = AXIS2_PLACEMENT_3D('',#675,#676,#677);
#675 = CARTESIAN_POINT('',(-7.11E-15,-38.4,0.));
#676 = DIRECTION('',(0.,0.,1.));
#677 = DIRECTION('',(2.2E-16,1.,0.));
#678 = ADVANCED_FACE('',(#679),#697,.F.);
#679 = FACE_BOUND('',#680,.F.);
#680 = EDGE_LOOP('',(#681,#689,#690,#691));
#681 = ORIENTED_EDGE('',*,*,#682,.F.);
#682 = EDGE_CURVE('',#66,#683,#685,.T.);
#683 = VERTEX_POINT('',#684);
#684 = CARTESIAN_POINT('',(-0.7,-21.835936,0.));
#685 = LINE('',#686,#687);
#686 = CARTESIAN_POINT('',(-2.2,-21.835936,0.));
#687 = VECTOR('',#688,1.);
#688 = DIRECTION('',(1.,0.,0.));
#689 = ORIENTED_EDGE('',*,*,#73,.T.);
#690 = ORIENTED_EDGE('',*,*,#641,.T.);
#691 = ORIENTED_EDGE('',*,*,#692,.F.);
#692 = EDGE_CURVE('',#683,#634,#693,.T.);
#693 = LINE('',#694,#695);
#694 = CARTESIAN_POINT('',(-0.7,-21.835936,0.));
#695 = VECTOR('',#696,1.);
#696 = DIRECTION('',(0.,0.,-1.));
#697 = PLANE('',#698);
#698 = AXIS2_PLACEMENT_3D('',#699,#700,#701);
#699 = CARTESIAN_POINT('',(-2.2,-21.835936,0.));
#700 = DIRECTION('',(0.,-1.,0.));
#701 = DIRECTION('',(1.,0.,0.));
#702 = ADVANCED_FACE('',(#703,#781,#792,#803,#814,#825,#836,#847,#858,
    #869,#880,#891,#902,#913,#924,#935,#946,#957,#968,#979,#990,#1001,
    #1012,#1023,#1034,#1045,#1056,#1067,#1078),#1089,.T.);
#703 = FACE_BOUND('',#704,.T.);
#704 = EDGE_LOOP('',(#705,#715,#724,#732,#740,#746,#747,#748,#749,#757,
    #766,#774));
#705 = ORIENTED_EDGE('',*,*,#706,.F.);
#706 = EDGE_CURVE('',#707,#709,#711,.T.);
#707 = VERTEX_POINT('',#708);
#708 = CARTESIAN_POINT('',(0.,2.2,0.));
#709 = VERTEX_POINT('',#710);
#710 = CARTESIAN_POINT('',(30.,2.2,0.));
#711 = LINE('',#712,#713);
#712 = CARTESIAN_POINT('',(4.E-16,2.2,0.));
#713 = VECTOR('',#714,1.);
#714 = DIRECTION('',(1.,0.,0.));
#715 = ORIENTED_EDGE('',*,*,#716,.T.);
#716 = EDGE_CURVE('',#707,#717,#719,.T.);
#717 = VERTEX_POINT('',#718);
#718 = CARTESIAN_POINT('',(-2.2,0.,0.));
#719 = CIRCLE('',#720,2.2);
#720 = AXIS2_PLACEMENT_3D('',#721,#722,#723);
#721 = CARTESIAN_POINT('',(0.,0.,0.));
#722 = DIRECTION('',(-0.,0.,1.));
#723 = DIRECTION('',(1.,-1.2E-16,0.));
#724 = ORIENTED_EDGE('',*,*,#725,.F.);
#725 = EDGE_CURVE('',#726,#717,#728,.T.);
#726 = VERTEX_POINT('',#727);
#727 = CARTESIAN_POINT('',(-2.2,-16.835936,0.));
#728 = LINE('',#729,#730);
#729 = CARTESIAN_POINT('',(-2.2,-38.4,0.));
#730 = VECTOR('',#731,1.);
#731 = DIRECTION('',(0.,1.,0.));
#732 = ORIENTED_EDGE('',*,*,#733,.F.);
#733 = EDGE_CURVE('',#734,#726,#736,.T.);
#734 = VERTEX_POINT('',#735);
#735 = CARTESIAN_POINT('',(-0.7,-16.835936,0.));
#736 = LINE('',#737,#738);
#737 = CARTESIAN_POINT('',(-0.7,-16.835936,0.));
#738 = VECTOR('',#739,1.);
#739 = DIRECTION('',(-1.,0.,0.));
#740 = ORIENTED_EDGE('',*,*,#741,.F.);
#741 = EDGE_CURVE('',#683,#734,#742,.T.);
#742 = LINE('',#743,#744);
#743 = CARTESIAN_POINT('',(-0.7,-21.835936,0.));
#744 = VECTOR('',#745,1.);
#745 = DIRECTION('',(0.,1.,0.));
#746 = ORIENTED_EDGE('',*,*,#682,.F.);
#747 = ORIENTED_EDGE('',*,*,#65,.F.);
#748 = ORIENTED_EDGE('',*,*,#667,.T.);
#749 = ORIENTED_EDGE('',*,*,#750,.F.);
#750 = EDGE_CURVE('',#751,#660,#753,.T.);
#751 = VERTEX_POINT('',#752);
#752 = CARTESIAN_POINT('',(30.,-40.6,0.));
#753 = LINE('',#754,#755);
#754 = CARTESIAN_POINT('',(30.,-40.6,0.));
#755 = VECTOR('',#756,1.);
#756 = DIRECTION('',(-1.,0.,0.));
#757 = ORIENTED_EDGE('',*,*,#758,.T.);
#758 = EDGE_CURVE('',#751,#759,#761,.T.);
#759 = VERTEX_POINT('',#760);
#760 = CARTESIAN_POINT('',(32.2,-38.4,0.));
#761 = CIRCLE('',#762,2.2);
#762 = AXIS2_PLACEMENT_3D('',#763,#764,#765);
#763 = CARTESIAN_POINT('',(30.,-38.4,0.));
#764 = DIRECTION('',(0.,0.,1.));
#765 = DIRECTION('',(-1.,1.E-16,0.));
#766 = ORIENTED_EDGE('',*,*,#767,.F.);
#767 = EDGE_CURVE('',#768,#759,#770,.T.);
#768 = VERTEX_POINT('',#769);
#769 = CARTESIAN_POINT('',(32.2,-4.E-15,0.));
#770 = LINE('',#771,#772);
#771 = CARTESIAN_POINT('',(32.2,-3.93E-15,0.));
#772 = VECTOR('',#773,1.);
#773 = DIRECTION('',(0.,-1.,0.));
#774 = ORIENTED_EDGE('',*,*,#775,.T.);
#775 = EDGE_CURVE('',#768,#709,#776,.T.);
#776 = CIRCLE('',#777,2.2);
#777 = AXIS2_PLACEMENT_3D('',#778,#779,#780);
#778 = CARTESIAN_POINT('',(30.,-3.55E-15,0.));
#779 = DIRECTION('',(0.,0.,1.));
#780 = DIRECTION('',(-1.1E-16,-1.,0.));
#781 = FACE_BOUND('',#782,.T.);
#782 = EDGE_LOOP('',(#783));
#783 = ORIENTED_EDGE('',*,*,#784,.T.);
#784 = EDGE_CURVE('',#785,#785,#787,.T.);
#785 = VERTEX_POINT('',#786);
#786 = CARTESIAN_POINT('',(4.25,-35.366726,0.));
#787 = CIRCLE('',#788,1.25);
#788 = AXIS2_PLACEMENT_3D('',#789,#790,#791);
#789 = CARTESIAN_POINT('',(3.,-35.366726,0.));
#790 = DIRECTION('',(0.,-1.2E-16,-1.));
#791 = DIRECTION('',(1.,-1.2E-16,1.44E-32));
#792 = FACE_BOUND('',#793,.T.);
#793 = EDGE_LOOP('',(#794));
#794 = ORIENTED_EDGE('',*,*,#795,.T.);
#795 = EDGE_CURVE('',#796,#796,#798,.T.);
#796 = VERTEX_POINT('',#797);
#797 = CARTESIAN_POINT('',(2.87,-29.,0.));
#798 = CIRCLE('',#799,1.15);
#799 = AXIS2_PLACEMENT_3D('',#800,#801,#802);
#800 = CARTESIAN_POINT('',(1.72,-29.,0.));
#801 = DIRECTION('',(0.,-1.2E-16,-1.));
#802 = DIRECTION('',(1.,-1.2E-16,1.44E-32));
#803 = FACE_BOUND('',#804,.T.);
#804 = EDGE_LOOP('',(#805));
#805 = ORIENTED_EDGE('',*,*,#806,.T.);
#806 = EDGE_CURVE('',#807,#807,#809,.T.);
#807 = VERTEX_POINT('',#808);
#808 = CARTESIAN_POINT('',(7.95,-29.,0.));
#809 = CIRCLE('',#810,1.15);
#810 = AXIS2_PLACEMENT_3D('',#811,#812,#813);
#811 = CARTESIAN_POINT('',(6.8,-29.,0.));
#812 = DIRECTION('',(0.,-1.2E-16,-1.));
#813 = DIRECTION('',(1.,-1.2E-16,1.44E-32));
#814 = FACE_BOUND('',#815,.T.);
#815 = EDGE_LOOP('',(#816));
#816 = ORIENTED_EDGE('',*,*,#817,.T.);
#817 = EDGE_CURVE('',#818,#818,#820,.T.);
#818 = VERTEX_POINT('',#819);
#819 = CARTESIAN_POINT('',(12.97,-35.2,0.));
#820 = CIRCLE('',#821,1.15);
#821 = AXIS2_PLACEMENT_3D('',#822,#823,#824);
#822 = CARTESIAN_POINT('',(11.82,-35.2,0.));
#823 = DIRECTION('',(0.,-1.2E-16,-1.));
#824 = DIRECTION('',(1.,-1.2E-16,1.44E-32));
#825 = FACE_BOUND('',#826,.T.);
#826 = EDGE_LOOP('',(#827));
#827 = ORIENTED_EDGE('',*,*,#828,.T.);
#828 = EDGE_CURVE('',#829,#829,#831,.T.);
#829 = VERTEX_POINT('',#830);
#830 = CARTESIAN_POINT('',(13.03,-29.,0.));
#831 = CIRCLE('',#832,1.15);
#832 = AXIS2_PLACEMENT_3D('',#833,#834,#835);
#833 = CARTESIAN_POINT('',(11.88,-29.,0.));
#834 = DIRECTION('',(0.,-1.2E-16,-1.));
#835 = DIRECTION('',(1.,-1.2E-16,1.44E-32));
#836 = FACE_BOUND('',#837,.T.);
#837 = EDGE_LOOP('',(#838));
#838 = ORIENTED_EDGE('',*,*,#839,.T.);
#839 = EDGE_CURVE('',#840,#840,#842,.T.);
#840 = VERTEX_POINT('',#841);
#841 = CARTESIAN_POINT('',(12.97,-22.8,0.));
#842 = CIRCLE('',#843,1.15);
#843 = AXIS2_PLACEMENT_3D('',#844,#845,#846);
#844 = CARTESIAN_POINT('',(11.82,-22.8,0.));
#845 = DIRECTION('',(0.,-1.2E-16,-1.));
#846 = DIRECTION('',(1.,-1.2E-16,1.44E-32));
#847 = FACE_BOUND('',#848,.T.);
#848 = EDGE_LOOP('',(#849));
#849 = ORIENTED_EDGE('',*,*,#850,.T.);
#850 = EDGE_CURVE('',#851,#851,#853,.T.);
#851 = VERTEX_POINT('',#852);
#852 = CARTESIAN_POINT('',(18.05,-35.2,0.));
#853 = CIRCLE('',#854,1.15);
#854 = AXIS2_PLACEMENT_3D('',#855,#856,#857);
#855 = CARTESIAN_POINT('',(16.9,-35.2,0.));
#856 = DIRECTION('',(0.,-1.2E-16,-1.));
#857 = DIRECTION('',(1.,-1.2E-16,1.44E-32));
#858 = FACE_BOUND('',#859,.T.);
#859 = EDGE_LOOP('',(#860));
#860 = ORIENTED_EDGE('',*,*,#861,.T.);
#861 = EDGE_CURVE('',#862,#862,#864,.T.);
#862 = VERTEX_POINT('',#863);
#863 = CARTESIAN_POINT('',(23.13,-35.2,0.));
#864 = CIRCLE('',#865,1.15);
#865 = AXIS2_PLACEMENT_3D('',#866,#867,#868);
#866 = CARTESIAN_POINT('',(21.98,-35.2,0.));
#867 = DIRECTION('',(0.,-1.2E-16,-1.));
#868 = DIRECTION('',(1.,-1.2E-16,1.44E-32));
#869 = FACE_BOUND('',#870,.T.);
#870 = EDGE_LOOP('',(#871));
#871 = ORIENTED_EDGE('',*,*,#872,.T.);
#872 = EDGE_CURVE('',#873,#873,#875,.T.);
#873 = VERTEX_POINT('',#874);
#874 = CARTESIAN_POINT('',(19.17,-29.,0.));
#875 = CIRCLE('',#876,1.15);
#876 = AXIS2_PLACEMENT_3D('',#877,#878,#879);
#877 = CARTESIAN_POINT('',(18.02,-29.,0.));
#878 = DIRECTION('',(0.,-1.2E-16,-1.));
#879 = DIRECTION('',(1.,-1.2E-16,1.44E-32));
#880 = FACE_BOUND('',#881,.T.);
#881 = EDGE_LOOP('',(#882));
#882 = ORIENTED_EDGE('',*,*,#883,.T.);
#883 = EDGE_CURVE('',#884,#884,#886,.T.);
#884 = VERTEX_POINT('',#885);
#885 = CARTESIAN_POINT('',(28.25,-35.366726,0.));
#886 = CIRCLE('',#887,1.25);
#887 = AXIS2_PLACEMENT_3D('',#888,#889,#890);
#888 = CARTESIAN_POINT('',(27.,-35.366726,0.));
#889 = DIRECTION('',(0.,-1.2E-16,-1.));
#890 = DIRECTION('',(1.,-1.2E-16,1.44E-32));
#891 = FACE_BOUND('',#892,.T.);
#892 = EDGE_LOOP('',(#893));
#893 = ORIENTED_EDGE('',*,*,#894,.T.);
#894 = EDGE_CURVE('',#895,#895,#897,.T.);
#895 = VERTEX_POINT('',#896);
#896 = CARTESIAN_POINT('',(24.25,-29.,0.));
#897 = CIRCLE('',#898,1.15);
#898 = AXIS2_PLACEMENT_3D('',#899,#900,#901);
#899 = CARTESIAN_POINT('',(23.1,-29.,0.));
#900 = DIRECTION('',(0.,-1.2E-16,-1.));
#901 = DIRECTION('',(1.,-1.2E-16,1.44E-32));
#902 = FACE_BOUND('',#903,.T.);
#903 = EDGE_LOOP('',(#904));
#904 = ORIENTED_EDGE('',*,*,#905,.T.);
#905 = EDGE_CURVE('',#906,#906,#908,.T.);
#906 = VERTEX_POINT('',#907);
#907 = CARTESIAN_POINT('',(29.33,-29.,0.));
#908 = CIRCLE('',#909,1.15);
#909 = AXIS2_PLACEMENT_3D('',#910,#911,#912);
#910 = CARTESIAN_POINT('',(28.18,-29.,0.));
#911 = DIRECTION('',(0.,-1.2E-16,-1.));
#912 = DIRECTION('',(1.,-1.2E-16,1.44E-32));
#913 = FACE_BOUND('',#914,.T.);
#914 = EDGE_LOOP('',(#915));
#915 = ORIENTED_EDGE('',*,*,#916,.T.);
#916 = EDGE_CURVE('',#917,#917,#919,.T.);
#917 = VERTEX_POINT('',#918);
#918 = CARTESIAN_POINT('',(18.05,-22.8,0.));
#919 = CIRCLE('',#920,1.15);
#920 = AXIS2_PLACEMENT_3D('',#921,#922,#923);
#921 = CARTESIAN_POINT('',(16.9,-22.8,0.));
#922 = DIRECTION('',(0.,-1.2E-16,-1.));
#923 = DIRECTION('',(1.,-1.2E-16,1.44E-32));
#924 = FACE_BOUND('',#925,.T.);
#925 = EDGE_LOOP('',(#926));
#926 = ORIENTED_EDGE('',*,*,#927,.T.);
#927 = EDGE_CURVE('',#928,#928,#930,.T.);
#928 = VERTEX_POINT('',#929);
#929 = CARTESIAN_POINT('',(23.13,-22.8,0.));
#930 = CIRCLE('',#931,1.15);
#931 = AXIS2_PLACEMENT_3D('',#932,#933,#934);
#932 = CARTESIAN_POINT('',(21.98,-22.8,0.));
#933 = DIRECTION('',(0.,-1.2E-16,-1.));
#934 = DIRECTION('',(1.,-1.2E-16,1.44E-32));
#935 = FACE_BOUND('',#936,.T.);
#936 = EDGE_LOOP('',(#937));
#937 = ORIENTED_EDGE('',*,*,#938,.T.);
#938 = EDGE_CURVE('',#939,#939,#941,.T.);
#939 = VERTEX_POINT('',#940);
#940 = CARTESIAN_POINT('',(13.,-15.75,0.));
#941 = CIRCLE('',#942,1.15);
#942 = AXIS2_PLACEMENT_3D('',#943,#944,#945);
#943 = CARTESIAN_POINT('',(11.85,-15.75,0.));
#944 = DIRECTION('',(0.,-1.2E-16,-1.));
#945 = DIRECTION('',(1.,-1.2E-16,1.44E-32));
#946 = FACE_BOUND('',#947,.T.);
#947 = EDGE_LOOP('',(#948));
#948 = ORIENTED_EDGE('',*,*,#949,.T.);
#949 = EDGE_CURVE('',#950,#950,#952,.T.);
#950 = VERTEX_POINT('',#951);
#951 = CARTESIAN_POINT('',(2.9,-9.55,0.));
#952 = CIRCLE('',#953,1.15);
#953 = AXIS2_PLACEMENT_3D('',#954,#955,#956);
#954 = CARTESIAN_POINT('',(1.75,-9.55,0.));
#955 = DIRECTION('',(0.,-1.2E-16,-1.));
#956 = DIRECTION('',(1.,-1.2E-16,1.44E-32));
#957 = FACE_BOUND('',#958,.T.);
#958 = EDGE_LOOP('',(#959));
#959 = ORIENTED_EDGE('',*,*,#960,.T.);
#960 = EDGE_CURVE('',#961,#961,#963,.T.);
#961 = VERTEX_POINT('',#962);
#962 = CARTESIAN_POINT('',(7.98,-9.55,0.));
#963 = CIRCLE('',#964,1.15);
#964 = AXIS2_PLACEMENT_3D('',#965,#966,#967);
#965 = CARTESIAN_POINT('',(6.83,-9.55,0.));
#966 = DIRECTION('',(0.,-1.2E-16,-1.));
#967 = DIRECTION('',(1.,-1.2E-16,1.44E-32));
#968 = FACE_BOUND('',#969,.T.);
#969 = EDGE_LOOP('',(#970));
#970 = ORIENTED_EDGE('',*,*,#971,.T.);
#971 = EDGE_CURVE('',#972,#972,#974,.T.);
#972 = VERTEX_POINT('',#973);
#973 = CARTESIAN_POINT('',(4.233274,-3.016726,0.));
#974 = CIRCLE('',#975,1.25);
#975 = AXIS2_PLACEMENT_3D('',#976,#977,#978);
#976 = CARTESIAN_POINT('',(2.983274,-3.016726,0.));
#977 = DIRECTION('',(0.,-1.2E-16,-1.));
#978 = DIRECTION('',(1.,-1.2E-16,1.44E-32));
#979 = FACE_BOUND('',#980,.T.);
#980 = EDGE_LOOP('',(#981));
#981 = ORIENTED_EDGE('',*,*,#982,.T.);
#982 = EDGE_CURVE('',#983,#983,#985,.T.);
#983 = VERTEX_POINT('',#984);
#984 = CARTESIAN_POINT('',(13.06,-9.55,0.));
#985 = CIRCLE('',#986,1.15);
#986 = AXIS2_PLACEMENT_3D('',#987,#988,#989);
#987 = CARTESIAN_POINT('',(11.91,-9.55,0.));
#988 = DIRECTION('',(0.,-1.2E-16,-1.));
#989 = DIRECTION('',(1.,-1.2E-16,1.44E-32));
#990 = FACE_BOUND('',#991,.T.);
#991 = EDGE_LOOP('',(#992));
#992 = ORIENTED_EDGE('',*,*,#993,.T.);
#993 = EDGE_CURVE('',#994,#994,#996,.T.);
#994 = VERTEX_POINT('',#995);
#995 = CARTESIAN_POINT('',(13.,-3.35,0.));
#996 = CIRCLE('',#997,1.15);
#997 = AXIS2_PLACEMENT_3D('',#998,#999,#1000);
#998 = CARTESIAN_POINT('',(11.85,-3.35,0.));
#999 = DIRECTION('',(0.,-1.2E-16,-1.));
#1000 = DIRECTION('',(1.,-1.2E-16,1.44E-32));
#1001 = FACE_BOUND('',#1002,.T.);
#1002 = EDGE_LOOP('',(#1003));
#1003 = ORIENTED_EDGE('',*,*,#1004,.T.);
#1004 = EDGE_CURVE('',#1005,#1005,#1007,.T.);
#1005 = VERTEX_POINT('',#1006);
#1006 = CARTESIAN_POINT('',(18.08,-15.75,0.));
#1007 = CIRCLE('',#1008,1.15);
#1008 = AXIS2_PLACEMENT_3D('',#1009,#1010,#1011);
#1009 = CARTESIAN_POINT('',(16.93,-15.75,0.));
#1010 = DIRECTION('',(0.,-1.2E-16,-1.));
#1011 = DIRECTION('',(1.,-1.2E-16,1.44E-32));
#1012 = FACE_BOUND('',#1013,.T.);
#1013 = EDGE_LOOP('',(#1014));
#1014 = ORIENTED_EDGE('',*,*,#1015,.T.);
#1015 = EDGE_CURVE('',#1016,#1016,#1018,.T.);
#1016 = VERTEX_POINT('',#1017);
#1017 = CARTESIAN_POINT('',(23.16,-15.75,0.));
#1018 = CIRCLE('',#1019,1.15);
#1019 = AXIS2_PLACEMENT_3D('',#1020,#1021,#1022);
#1020 = CARTESIAN_POINT('',(22.01,-15.75,0.));
#1021 = DIRECTION('',(0.,-1.2E-16,-1.));
#1022 = DIRECTION('',(1.,-1.2E-16,1.44E-32));
#1023 = FACE_BOUND('',#1024,.T.);
#1024 = EDGE_LOOP('',(#1025));
#1025 = ORIENTED_EDGE('',*,*,#1026,.T.);
#1026 = EDGE_CURVE('',#1027,#1027,#1029,.T.);
#1027 = VERTEX_POINT('',#1028);
#1028 = CARTESIAN_POINT('',(19.2,-9.55,0.));
#1029 = CIRCLE('',#1030,1.15);
#1030 = AXIS2_PLACEMENT_3D('',#1031,#1032,#1033);
#1031 = CARTESIAN_POINT('',(18.05,-9.55,0.));
#1032 = DIRECTION('',(0.,-1.2E-16,-1.));
#1033 = DIRECTION('',(1.,-1.2E-16,1.44E-32));
#1034 = FACE_BOUND('',#1035,.T.);
#1035 = EDGE_LOOP('',(#1036));
#1036 = ORIENTED_EDGE('',*,*,#1037,.T.);
#1037 = EDGE_CURVE('',#1038,#1038,#1040,.T.);
#1038 = VERTEX_POINT('',#1039);
#1039 = CARTESIAN_POINT('',(18.08,-3.35,0.));
#1040 = CIRCLE('',#1041,1.15);
#1041 = AXIS2_PLACEMENT_3D('',#1042,#1043,#1044);
#1042 = CARTESIAN_POINT('',(16.93,-3.35,0.));
#1043 = DIRECTION('',(0.,-1.2E-16,-1.));
#1044 = DIRECTION('',(1.,-1.2E-16,1.44E-32));
#1045 = FACE_BOUND('',#1046,.T.);
#1046 = EDGE_LOOP('',(#1047));
#1047 = ORIENTED_EDGE('',*,*,#1048,.T.);
#1048 = EDGE_CURVE('',#1049,#1049,#1051,.T.);
#1049 = VERTEX_POINT('',#1050);
#1050 = CARTESIAN_POINT('',(23.16,-3.35,0.));
#1051 = CIRCLE('',#1052,1.15);
#1052 = AXIS2_PLACEMENT_3D('',#1053,#1054,#1055);
#1053 = CARTESIAN_POINT('',(22.01,-3.35,0.));
#1054 = DIRECTION('',(0.,-1.2E-16,-1.));
#1055 = DIRECTION('',(1.,-1.2E-16,1.44E-32));
#1056 = FACE_BOUND('',#1057,.T.);
#1057 = EDGE_LOOP('',(#1058));
#1058 = ORIENTED_EDGE('',*,*,#1059,.T.);
#1059 = EDGE_CURVE('',#1060,#1060,#1062,.T.);
#1060 = VERTEX_POINT('',#1061);
#1061 = CARTESIAN_POINT('',(24.28,-9.55,0.));
#1062 = CIRCLE('',#1063,1.15);
#1063 = AXIS2_PLACEMENT_3D('',#1064,#1065,#1066);
#1064 = CARTESIAN_POINT('',(23.13,-9.55,0.));
#1065 = DIRECTION('',(0.,-1.2E-16,-1.));
#1066 = DIRECTION('',(1.,-1.2E-16,1.44E-32));
#1067 = FACE_BOUND('',#1068,.T.);
#1068 = EDGE_LOOP('',(#1069));
#1069 = ORIENTED_EDGE('',*,*,#1070,.T.);
#1070 = EDGE_CURVE('',#1071,#1071,#1073,.T.);
#1071 = VERTEX_POINT('',#1072);
#1072 = CARTESIAN_POINT('',(29.36,-9.55,0.));
#1073 = CIRCLE('',#1074,1.15);
#1074 = AXIS2_PLACEMENT_3D('',#1075,#1076,#1077);
#1075 = CARTESIAN_POINT('',(28.21,-9.55,0.));
#1076 = DIRECTION('',(0.,-1.2E-16,-1.));
#1077 = DIRECTION('',(1.,-1.2E-16,1.44E-32));
#1078 = FACE_BOUND('',#1079,.T.);
#1079 = EDGE_LOOP('',(#1080));
#1080 = ORIENTED_EDGE('',*,*,#1081,.T.);
#1081 = EDGE_CURVE('',#1082,#1082,#1084,.T.);
#1082 = VERTEX_POINT('',#1083);
#1083 = CARTESIAN_POINT('',(28.25,-3.016726,0.));
#1084 = CIRCLE('',#1085,1.25);
#1085 = AXIS2_PLACEMENT_3D('',#1086,#1087,#1088);
#1086 = CARTESIAN_POINT('',(27.,-3.016726,0.));
#1087 = DIRECTION('',(0.,-1.2E-16,-1.));
#1088 = DIRECTION('',(1.,-1.2E-16,1.44E-32));
#1089 = PLANE('',#1090);
#1090 = AXIS2_PLACEMENT_3D('',#1091,#1092,#1093);
#1091 = CARTESIAN_POINT('',(15.,-19.2,0.));
#1092 = DIRECTION('',(0.,0.,1.));
#1093 = DIRECTION('',(1.,0.,0.));
#1094 = ADVANCED_FACE('',(#1095),#1114,.F.);
#1095 = FACE_BOUND('',#1096,.F.);
#1096 = EDGE_LOOP('',(#1097,#1106,#1112,#1113));
#1097 = ORIENTED_EDGE('',*,*,#1098,.F.);
#1098 = EDGE_CURVE('',#1099,#1099,#1101,.T.);
#1099 = VERTEX_POINT('',#1100);
#1100 = CARTESIAN_POINT('',(0.8,-26.561844,-5.));
#1101 = CIRCLE('',#1102,1.7);
#1102 = AXIS2_PLACEMENT_3D('',#1103,#1104,#1105);
#1103 = CARTESIAN_POINT('',(0.8,-28.261844,-5.));
#1104 = DIRECTION('',(1.,0.,0.));
#1105 = DIRECTION('',(0.,1.,0.));
#1106 = ORIENTED_EDGE('',*,*,#1107,.T.);
#1107 = EDGE_CURVE('',#1099,#99,#1108,.T.);
#1108 = LINE('',#1109,#1110);
#1109 = CARTESIAN_POINT('',(0.8,-26.561844,-5.));
#1110 = VECTOR('',#1111,1.);
#1111 = DIRECTION('',(-1.,0.,0.));
#1112 = ORIENTED_EDGE('',*,*,#98,.T.);
#1113 = ORIENTED_EDGE('',*,*,#1107,.F.);
#1114 = CYLINDRICAL_SURFACE('',#1115,1.7);
#1115 = AXIS2_PLACEMENT_3D('',#1116,#1117,#1118);
#1116 = CARTESIAN_POINT('',(0.8,-28.261844,-5.));
#1117 = DIRECTION('',(1.,0.,0.));
#1118 = DIRECTION('',(0.,1.,0.));
#1119 = ADVANCED_FACE('',(#1120,#1155,#1158),#1169,.T.);
#1120 = FACE_BOUND('',#1121,.T.);
#1121 = EDGE_LOOP('',(#1122,#1123,#1124,#1125,#1134,#1140,#1141,#1147,
    #1148,#1154));
#1122 = ORIENTED_EDGE('',*,*,#115,.T.);
#1123 = ORIENTED_EDGE('',*,*,#146,.T.);
#1124 = ORIENTED_EDGE('',*,*,#601,.T.);
#1125 = ORIENTED_EDGE('',*,*,#1126,.F.);
#1126 = EDGE_CURVE('',#1127,#602,#1129,.T.);
#1127 = VERTEX_POINT('',#1128);
#1128 = CARTESIAN_POINT('',(0.8,-5.917214,-6.));
#1129 = CIRCLE('',#1130,2.);
#1130 = AXIS2_PLACEMENT_3D('',#1131,#1132,#1133);
#1131 = CARTESIAN_POINT('',(0.8,-7.917214,-6.));
#1132 = DIRECTION('',(-1.,0.,0.));
#1133 = DIRECTION('',(0.,1.,0.));
#1134 = ORIENTED_EDGE('',*,*,#1135,.F.);
#1135 = EDGE_CURVE('',#199,#1127,#1136,.T.);
#1136 = LINE('',#1137,#1138);
#1137 = CARTESIAN_POINT('',(0.8,-5.917214,-2.));
#1138 = VECTOR('',#1139,1.);
#1139 = DIRECTION('',(0.,-1.224646799147E-16,-1.));
#1140 = ORIENTED_EDGE('',*,*,#206,.F.);
#1141 = ORIENTED_EDGE('',*,*,#1142,.F.);
#1142 = EDGE_CURVE('',#224,#207,#1143,.T.);
#1143 = LINE('',#1144,#1145);
#1144 = CARTESIAN_POINT('',(0.8,-32.761844,-2.));
#1145 = VECTOR('',#1146,1.);
#1146 = DIRECTION('',(3.673352034654E-48,1.,-1.224646799147E-16));
#1147 = ORIENTED_EDGE('',*,*,#232,.F.);
#1148 = ORIENTED_EDGE('',*,*,#1149,.F.);
#1149 = EDGE_CURVE('',#250,#233,#1150,.T.);
#1150 = LINE('',#1151,#1152);
#1151 = CARTESIAN_POINT('',(0.8,-32.761844,-2.));
#1152 = VECTOR('',#1153,1.);
#1153 = DIRECTION('',(3.673352034654E-48,1.,-1.224646799147E-16));
#1154 = ORIENTED_EDGE('',*,*,#258,.F.);
#1155 = FACE_BOUND('',#1156,.T.);
#1156 = EDGE_LOOP('',(#1157));
#1157 = ORIENTED_EDGE('',*,*,#1098,.F.);
#1158 = FACE_BOUND('',#1159,.T.);
#1159 = EDGE_LOOP('',(#1160));
#1160 = ORIENTED_EDGE('',*,*,#1161,.F.);
#1161 = EDGE_CURVE('',#1162,#1162,#1164,.T.);
#1162 = VERTEX_POINT('',#1163);
#1163 = CARTESIAN_POINT('',(0.8,-8.717214,-5.));
#1164 = CIRCLE('',#1165,1.7);
#1165 = AXIS2_PLACEMENT_3D('',#1166,#1167,#1168);
#1166 = CARTESIAN_POINT('',(0.8,-10.417214,-5.));
#1167 = DIRECTION('',(1.,0.,0.));
#1168 = DIRECTION('',(0.,1.,0.));
#1169 = PLANE('',#1170);
#1170 = AXIS2_PLACEMENT_3D('',#1171,#1172,#1173);
#1171 = CARTESIAN_POINT('',(0.8,-32.761844,-2.));
#1172 = DIRECTION('',(1.,0.,0.));
#1173 = DIRECTION('',(0.,1.,-1.224646799147E-16));
#1174 = ADVANCED_FACE('',(#1175),#1191,.F.);
#1175 = FACE_BOUND('',#1176,.F.);
#1176 = EDGE_LOOP('',(#1177,#1183,#1184,#1190));
#1177 = ORIENTED_EDGE('',*,*,#1178,.T.);
#1178 = EDGE_CURVE('',#707,#172,#1179,.T.);
#1179 = LINE('',#1180,#1181);
#1180 = CARTESIAN_POINT('',(4.E-16,2.2,0.));
#1181 = VECTOR('',#1182,1.);
#1182 = DIRECTION('',(0.,0.,-1.));
#1183 = ORIENTED_EDGE('',*,*,#171,.T.);
#1184 = ORIENTED_EDGE('',*,*,#1185,.F.);
#1185 = EDGE_CURVE('',#709,#174,#1186,.T.);
#1186 = LINE('',#1187,#1188);
#1187 = CARTESIAN_POINT('',(30.,2.2,0.));
#1188 = VECTOR('',#1189,1.);
#1189 = DIRECTION('',(0.,0.,-1.));
#1190 = ORIENTED_EDGE('',*,*,#706,.F.);
#1191 = PLANE('',#1192);
#1192 = AXIS2_PLACEMENT_3D('',#1193,#1194,#1195);
#1193 = CARTESIAN_POINT('',(4.E-16,2.2,0.));
#1194 = DIRECTION('',(0.,-1.,0.));
#1195 = DIRECTION('',(1.,0.,0.));
#1196 = ADVANCED_FACE('',(#1197),#1208,.T.);
#1197 = FACE_BOUND('',#1198,.T.);
#1198 = EDGE_LOOP('',(#1199,#1205,#1206,#1207));
#1199 = ORIENTED_EDGE('',*,*,#1200,.T.);
#1200 = EDGE_CURVE('',#768,#293,#1201,.T.);
#1201 = LINE('',#1202,#1203);
#1202 = CARTESIAN_POINT('',(32.2,-3.93E-15,0.));
#1203 = VECTOR('',#1204,1.);
#1204 = DIRECTION('',(0.,0.,-1.));
#1205 = ORIENTED_EDGE('',*,*,#300,.T.);
#1206 = ORIENTED_EDGE('',*,*,#1185,.F.);
#1207 = ORIENTED_EDGE('',*,*,#775,.F.);
#1208 = CYLINDRICAL_SURFACE('',#1209,2.2);
#1209 = AXIS2_PLACEMENT_3D('',#1210,#1211,#1212);
#1210 = CARTESIAN_POINT('',(30.,-3.55E-15,0.));
#1211 = DIRECTION('',(0.,0.,1.));
#1212 = DIRECTION('',(-1.1E-16,-1.,0.));
#1213 = ADVANCED_FACE('',(#1214),#1225,.F.);
#1214 = FACE_BOUND('',#1215,.F.);
#1215 = EDGE_LOOP('',(#1216,#1217,#1218,#1224));
#1216 = ORIENTED_EDGE('',*,*,#1200,.T.);
#1217 = ORIENTED_EDGE('',*,*,#292,.T.);
#1218 = ORIENTED_EDGE('',*,*,#1219,.F.);
#1219 = EDGE_CURVE('',#759,#284,#1220,.T.);
#1220 = LINE('',#1221,#1222);
#1221 = CARTESIAN_POINT('',(32.2,-38.4,0.));
#1222 = VECTOR('',#1223,1.);
#1223 = DIRECTION('',(0.,0.,-1.));
#1224 = ORIENTED_EDGE('',*,*,#767,.F.);
#1225 = PLANE('',#1226);
#1226 = AXIS2_PLACEMENT_3D('',#1227,#1228,#1229);
#1227 = CARTESIAN_POINT('',(32.2,-3.93E-15,0.));
#1228 = DIRECTION('',(-1.,0.,0.));
#1229 = DIRECTION('',(0.,-1.,0.));
#1230 = ADVANCED_FACE('',(#1231),#1242,.T.);
#1231 = FACE_BOUND('',#1232,.T.);
#1232 = EDGE_LOOP('',(#1233,#1239,#1240,#1241));
#1233 = ORIENTED_EDGE('',*,*,#1234,.T.);
#1234 = EDGE_CURVE('',#751,#276,#1235,.T.);
#1235 = LINE('',#1236,#1237);
#1236 = CARTESIAN_POINT('',(30.,-40.6,0.));
#1237 = VECTOR('',#1238,1.);
#1238 = DIRECTION('',(0.,0.,-1.));
#1239 = ORIENTED_EDGE('',*,*,#283,.T.);
#1240 = ORIENTED_EDGE('',*,*,#1219,.F.);
#1241 = ORIENTED_EDGE('',*,*,#758,.F.);
#1242 = CYLINDRICAL_SURFACE('',#1243,2.2);
#1243 = AXIS2_PLACEMENT_3D('',#1244,#1245,#1246);
#1244 = CARTESIAN_POINT('',(30.,-38.4,0.));
#1245 = DIRECTION('',(0.,0.,1.));
#1246 = DIRECTION('',(-1.,1.E-16,0.));
#1247 = ADVANCED_FACE('',(#1248),#1254,.F.);
#1248 = FACE_BOUND('',#1249,.F.);
#1249 = EDGE_LOOP('',(#1250,#1251,#1252,#1253));
#1250 = ORIENTED_EDGE('',*,*,#1234,.T.);
#1251 = ORIENTED_EDGE('',*,*,#275,.T.);
#1252 = ORIENTED_EDGE('',*,*,#659,.F.);
#1253 = ORIENTED_EDGE('',*,*,#750,.F.);
#1254 = PLANE('',#1255);
#1255 = AXIS2_PLACEMENT_3D('',#1256,#1257,#1258);
#1256 = CARTESIAN_POINT('',(30.,-40.6,0.));
#1257 = DIRECTION('',(0.,1.,0.));
#1258 = DIRECTION('',(-1.,0.,0.));
#1259 = ADVANCED_FACE('',(#1260),#1279,.F.);
#1260 = FACE_BOUND('',#1261,.F.);
#1261 = EDGE_LOOP('',(#1262,#1268,#1269,#1276,#1277,#1278));
#1262 = ORIENTED_EDGE('',*,*,#1263,.F.);
#1263 = EDGE_CURVE('',#241,#796,#1264,.T.);
#1264 = LINE('',#1265,#1266);
#1265 = CARTESIAN_POINT('',(2.87,-29.,-3.6));
#1266 = VECTOR('',#1267,1.);
#1267 = DIRECTION('',(0.,1.2E-16,1.));
#1268 = ORIENTED_EDGE('',*,*,#240,.F.);
#1269 = ORIENTED_EDGE('',*,*,#1270,.F.);
#1270 = EDGE_CURVE('',#250,#233,#1271,.T.);
#1271 = CIRCLE('',#1272,1.15);
#1272 = AXIS2_PLACEMENT_3D('',#1273,#1274,#1275);
#1273 = CARTESIAN_POINT('',(1.72,-29.,-2.));
#1274 = DIRECTION('',(0.,-1.2E-16,-1.));
#1275 = DIRECTION('',(1.,-1.2E-16,1.44E-32));
#1276 = ORIENTED_EDGE('',*,*,#249,.F.);
#1277 = ORIENTED_EDGE('',*,*,#1263,.T.);
#1278 = ORIENTED_EDGE('',*,*,#795,.T.);
#1279 = CYLINDRICAL_SURFACE('',#1280,1.15);
#1280 = AXIS2_PLACEMENT_3D('',#1281,#1282,#1283);
#1281 = CARTESIAN_POINT('',(1.72,-29.,-3.6));
#1282 = DIRECTION('',(0.,-1.2E-16,-1.));
#1283 = DIRECTION('',(1.,-1.2E-16,1.44E-32));
#1284 = ADVANCED_FACE('',(#1285),#1304,.F.);
#1285 = FACE_BOUND('',#1286,.F.);
#1286 = EDGE_LOOP('',(#1287,#1293,#1294,#1301,#1302,#1303));
#1287 = ORIENTED_EDGE('',*,*,#1288,.F.);
#1288 = EDGE_CURVE('',#215,#950,#1289,.T.);
#1289 = LINE('',#1290,#1291);
#1290 = CARTESIAN_POINT('',(2.9,-9.55,-3.6));
#1291 = VECTOR('',#1292,1.);
#1292 = DIRECTION('',(0.,1.2E-16,1.));
#1293 = ORIENTED_EDGE('',*,*,#214,.F.);
#1294 = ORIENTED_EDGE('',*,*,#1295,.F.);
#1295 = EDGE_CURVE('',#224,#207,#1296,.T.);
#1296 = CIRCLE('',#1297,1.15);
#1297 = AXIS2_PLACEMENT_3D('',#1298,#1299,#1300);
#1298 = CARTESIAN_POINT('',(1.75,-9.55,-2.));
#1299 = DIRECTION('',(0.,-1.2E-16,-1.));
#1300 = DIRECTION('',(1.,-1.2E-16,1.44E-32));
#1301 = ORIENTED_EDGE('',*,*,#223,.F.);
#1302 = ORIENTED_EDGE('',*,*,#1288,.T.);
#1303 = ORIENTED_EDGE('',*,*,#949,.T.);
#1304 = CYLINDRICAL_SURFACE('',#1305,1.15);
#1305 = AXIS2_PLACEMENT_3D('',#1306,#1307,#1308);
#1306 = CARTESIAN_POINT('',(1.75,-9.55,-3.6));
#1307 = DIRECTION('',(0.,-1.2E-16,-1.));
#1308 = DIRECTION('',(1.,-1.2E-16,1.44E-32));
#1309 = ADVANCED_FACE('',(#1310),#1328,.F.);
#1310 = FACE_BOUND('',#1311,.F.);
#1311 = EDGE_LOOP('',(#1312,#1320,#1326,#1327));
#1312 = ORIENTED_EDGE('',*,*,#1313,.T.);
#1313 = EDGE_CURVE('',#191,#1314,#1316,.T.);
#1314 = VERTEX_POINT('',#1315);
#1315 = CARTESIAN_POINT('',(-2.2,-5.917214,-6.));
#1316 = LINE('',#1317,#1318);
#1317 = CARTESIAN_POINT('',(-2.2,-5.917214,-2.));
#1318 = VECTOR('',#1319,1.);
#1319 = DIRECTION('',(0.,-1.224646799147E-16,-1.));
#1320 = ORIENTED_EDGE('',*,*,#1321,.T.);
#1321 = EDGE_CURVE('',#1314,#1127,#1322,.T.);
#1322 = LINE('',#1323,#1324);
#1323 = CARTESIAN_POINT('',(-2.2,-5.917214,-6.));
#1324 = VECTOR('',#1325,1.);
#1325 = DIRECTION('',(1.,0.,0.));
#1326 = ORIENTED_EDGE('',*,*,#1135,.F.);
#1327 = ORIENTED_EDGE('',*,*,#198,.F.);
#1328 = PLANE('',#1329);
#1329 = AXIS2_PLACEMENT_3D('',#1330,#1331,#1332);
#1330 = CARTESIAN_POINT('',(-2.2,-5.917214,-2.));
#1331 = DIRECTION('',(0.,-1.,1.224646799147E-16));
#1332 = DIRECTION('',(1.,0.,0.));
#1333 = ADVANCED_FACE('',(#1334,#1359),#1370,.T.);
#1334 = FACE_BOUND('',#1335,.T.);
#1335 = EDGE_LOOP('',(#1336,#1337,#1343,#1344,#1350,#1351,#1352));
#1336 = ORIENTED_EDGE('',*,*,#617,.T.);
#1337 = ORIENTED_EDGE('',*,*,#1338,.F.);
#1338 = EDGE_CURVE('',#726,#618,#1339,.T.);
#1339 = LINE('',#1340,#1341);
#1340 = CARTESIAN_POINT('',(-2.2,-16.835936,0.));
#1341 = VECTOR('',#1342,1.);
#1342 = DIRECTION('',(0.,0.,-1.));
#1343 = ORIENTED_EDGE('',*,*,#725,.T.);
#1344 = ORIENTED_EDGE('',*,*,#1345,.T.);
#1345 = EDGE_CURVE('',#717,#182,#1346,.T.);
#1346 = LINE('',#1347,#1348);
#1347 = CARTESIAN_POINT('',(-2.2,2.7E-16,0.));
#1348 = VECTOR('',#1349,1.);
#1349 = DIRECTION('',(0.,0.,-1.));
#1350 = ORIENTED_EDGE('',*,*,#190,.F.);
#1351 = ORIENTED_EDGE('',*,*,#1313,.T.);
#1352 = ORIENTED_EDGE('',*,*,#1353,.T.);
#1353 = EDGE_CURVE('',#1314,#610,#1354,.T.);
#1354 = CIRCLE('',#1355,2.);
#1355 = AXIS2_PLACEMENT_3D('',#1356,#1357,#1358);
#1356 = CARTESIAN_POINT('',(-2.2,-7.917214,-6.));
#1357 = DIRECTION('',(-1.,0.,0.));
#1358 = DIRECTION('',(0.,1.,0.));
#1359 = FACE_BOUND('',#1360,.T.);
#1360 = EDGE_LOOP('',(#1361));
#1361 = ORIENTED_EDGE('',*,*,#1362,.T.);
#1362 = EDGE_CURVE('',#1363,#1363,#1365,.T.);
#1363 = VERTEX_POINT('',#1364);
#1364 = CARTESIAN_POINT('',(-2.2,-8.717214,-5.));
#1365 = CIRCLE('',#1366,1.7);
#1366 = AXIS2_PLACEMENT_3D('',#1367,#1368,#1369);
#1367 = CARTESIAN_POINT('',(-2.2,-10.417214,-5.));
#1368 = DIRECTION('',(1.,0.,0.));
#1369 = DIRECTION('',(0.,1.,0.));
#1370 = PLANE('',#1371);
#1371 = AXIS2_PLACEMENT_3D('',#1372,#1373,#1374);
#1372 = CARTESIAN_POINT('',(-2.2,-19.2180425431,-3.252885560345));
#1373 = DIRECTION('',(-1.,-1.224646799147E-16,-8.687060754194E-16));
#1374 = DIRECTION('',(-8.687060754194E-16,-1.063858114662E-31,1.));
#1375 = ADVANCED_FACE('',(#1376),#1382,.T.);
#1376 = FACE_BOUND('',#1377,.T.);
#1377 = EDGE_LOOP('',(#1378,#1379,#1380,#1381));
#1378 = ORIENTED_EDGE('',*,*,#1178,.T.);
#1379 = ORIENTED_EDGE('',*,*,#181,.T.);
#1380 = ORIENTED_EDGE('',*,*,#1345,.F.);
#1381 = ORIENTED_EDGE('',*,*,#716,.F.);
#1382 = CYLINDRICAL_SURFACE('',#1383,2.2);
#1383 = AXIS2_PLACEMENT_3D('',#1384,#1385,#1386);
#1384 = CARTESIAN_POINT('',(0.,0.,0.));
#1385 = DIRECTION('',(0.,0.,1.));
#1386 = DIRECTION('',(1.,-1.2E-16,0.));
#1387 = ADVANCED_FACE('',(#1388),#1407,.F.);
#1388 = FACE_BOUND('',#1389,.T.);
#1389 = EDGE_LOOP('',(#1390,#1398,#1399,#1400));
#1390 = ORIENTED_EDGE('',*,*,#1391,.F.);
#1391 = EDGE_CURVE('',#310,#1392,#1394,.T.);
#1392 = VERTEX_POINT('',#1393);
#1393 = CARTESIAN_POINT('',(4.25,-35.366726,-0.5));
#1394 = LINE('',#1395,#1396);
#1395 = CARTESIAN_POINT('',(4.25,-35.366726,-0.5));
#1396 = VECTOR('',#1397,1.);
#1397 = DIRECTION('',(-0.4472135955,0.,0.894427191));
#1398 = ORIENTED_EDGE('',*,*,#309,.T.);
#1399 = ORIENTED_EDGE('',*,*,#1391,.T.);
#1400 = ORIENTED_EDGE('',*,*,#1401,.F.);
#1401 = EDGE_CURVE('',#1392,#1392,#1402,.T.);
#1402 = CIRCLE('',#1403,1.25);
#1403 = AXIS2_PLACEMENT_3D('',#1404,#1405,#1406);
#1404 = CARTESIAN_POINT('',(3.,-35.366726,-0.5));
#1405 = DIRECTION('',(0.,0.,-1.));
#1406 = DIRECTION('',(1.,0.,0.));
#1407 = CONICAL_SURFACE('',#1408,1.25,0.463647609001);
#1408 = AXIS2_PLACEMENT_3D('',#1409,#1410,#1411);
#1409 = CARTESIAN_POINT('',(3.,-35.366726,-0.5));
#1410 = DIRECTION('',(-0.,0.,-1.));
#1411 = DIRECTION('',(1.,0.,0.));
#1412 = ADVANCED_FACE('',(#1413),#1424,.F.);
#1413 = FACE_BOUND('',#1414,.F.);
#1414 = EDGE_LOOP('',(#1415,#1416,#1422,#1423));
#1415 = ORIENTED_EDGE('',*,*,#320,.F.);
#1416 = ORIENTED_EDGE('',*,*,#1417,.T.);
#1417 = EDGE_CURVE('',#321,#807,#1418,.T.);
#1418 = LINE('',#1419,#1420);
#1419 = CARTESIAN_POINT('',(7.95,-29.,-3.6));
#1420 = VECTOR('',#1421,1.);
#1421 = DIRECTION('',(0.,1.2E-16,1.));
#1422 = ORIENTED_EDGE('',*,*,#806,.T.);
#1423 = ORIENTED_EDGE('',*,*,#1417,.F.);
#1424 = CYLINDRICAL_SURFACE('',#1425,1.15);
#1425 = AXIS2_PLACEMENT_3D('',#1426,#1427,#1428);
#1426 = CARTESIAN_POINT('',(6.8,-29.,-3.6));
#1427 = DIRECTION('',(0.,-1.2E-16,-1.));
#1428 = DIRECTION('',(1.,-1.2E-16,1.44E-32));
#1429 = ADVANCED_FACE('',(#1430),#1441,.F.);
#1430 = FACE_BOUND('',#1431,.F.);
#1431 = EDGE_LOOP('',(#1432,#1433,#1439,#1440));
#1432 = ORIENTED_EDGE('',*,*,#331,.F.);
#1433 = ORIENTED_EDGE('',*,*,#1434,.T.);
#1434 = EDGE_CURVE('',#332,#818,#1435,.T.);
#1435 = LINE('',#1436,#1437);
#1436 = CARTESIAN_POINT('',(12.97,-35.2,-3.6));
#1437 = VECTOR('',#1438,1.);
#1438 = DIRECTION('',(0.,1.2E-16,1.));
#1439 = ORIENTED_EDGE('',*,*,#817,.T.);
#1440 = ORIENTED_EDGE('',*,*,#1434,.F.);
#1441 = CYLINDRICAL_SURFACE('',#1442,1.15);
#1442 = AXIS2_PLACEMENT_3D('',#1443,#1444,#1445);
#1443 = CARTESIAN_POINT('',(11.82,-35.2,-3.6));
#1444 = DIRECTION('',(0.,-1.2E-16,-1.));
#1445 = DIRECTION('',(1.,-1.2E-16,1.44E-32));
#1446 = ADVANCED_FACE('',(#1447),#1458,.F.);
#1447 = FACE_BOUND('',#1448,.F.);
#1448 = EDGE_LOOP('',(#1449,#1450,#1456,#1457));
#1449 = ORIENTED_EDGE('',*,*,#342,.F.);
#1450 = ORIENTED_EDGE('',*,*,#1451,.T.);
#1451 = EDGE_CURVE('',#343,#829,#1452,.T.);
#1452 = LINE('',#1453,#1454);
#1453 = CARTESIAN_POINT('',(13.03,-29.,-3.6));
#1454 = VECTOR('',#1455,1.);
#1455 = DIRECTION('',(0.,1.2E-16,1.));
#1456 = ORIENTED_EDGE('',*,*,#828,.T.);
#1457 = ORIENTED_EDGE('',*,*,#1451,.F.);
#1458 = CYLINDRICAL_SURFACE('',#1459,1.15);
#1459 = AXIS2_PLACEMENT_3D('',#1460,#1461,#1462);
#1460 = CARTESIAN_POINT('',(11.88,-29.,-3.6));
#1461 = DIRECTION('',(0.,-1.2E-16,-1.));
#1462 = DIRECTION('',(1.,-1.2E-16,1.44E-32));
#1463 = ADVANCED_FACE('',(#1464),#1475,.F.);
#1464 = FACE_BOUND('',#1465,.F.);
#1465 = EDGE_LOOP('',(#1466,#1467,#1473,#1474));
#1466 = ORIENTED_EDGE('',*,*,#353,.F.);
#1467 = ORIENTED_EDGE('',*,*,#1468,.T.);
#1468 = EDGE_CURVE('',#354,#840,#1469,.T.);
#1469 = LINE('',#1470,#1471);
#1470 = CARTESIAN_POINT('',(12.97,-22.8,-3.6));
#1471 = VECTOR('',#1472,1.);
#1472 = DIRECTION('',(0.,1.2E-16,1.));
#1473 = ORIENTED_EDGE('',*,*,#839,.T.);
#1474 = ORIENTED_EDGE('',*,*,#1468,.F.);
#1475 = CYLINDRICAL_SURFACE('',#1476,1.15);
#1476 = AXIS2_PLACEMENT_3D('',#1477,#1478,#1479);
#1477 = CARTESIAN_POINT('',(11.82,-22.8,-3.6));
#1478 = DIRECTION('',(0.,-1.2E-16,-1.));
#1479 = DIRECTION('',(1.,-1.2E-16,1.44E-32));
#1480 = ADVANCED_FACE('',(#1481),#1492,.F.);
#1481 = FACE_BOUND('',#1482,.F.);
#1482 = EDGE_LOOP('',(#1483,#1484,#1490,#1491));
#1483 = ORIENTED_EDGE('',*,*,#364,.F.);
#1484 = ORIENTED_EDGE('',*,*,#1485,.T.);
#1485 = EDGE_CURVE('',#365,#851,#1486,.T.);
#1486 = LINE('',#1487,#1488);
#1487 = CARTESIAN_POINT('',(18.05,-35.2,-3.6));
#1488 = VECTOR('',#1489,1.);
#1489 = DIRECTION('',(0.,1.2E-16,1.));
#1490 = ORIENTED_EDGE('',*,*,#850,.T.);
#1491 = ORIENTED_EDGE('',*,*,#1485,.F.);
#1492 = CYLINDRICAL_SURFACE('',#1493,1.15);
#1493 = AXIS2_PLACEMENT_3D('',#1494,#1495,#1496);
#1494 = CARTESIAN_POINT('',(16.9,-35.2,-3.6));
#1495 = DIRECTION('',(0.,-1.2E-16,-1.));
#1496 = DIRECTION('',(1.,-1.2E-16,1.44E-32));
#1497 = ADVANCED_FACE('',(#1498),#1509,.F.);
#1498 = FACE_BOUND('',#1499,.F.);
#1499 = EDGE_LOOP('',(#1500,#1501,#1507,#1508));
#1500 = ORIENTED_EDGE('',*,*,#375,.F.);
#1501 = ORIENTED_EDGE('',*,*,#1502,.T.);
#1502 = EDGE_CURVE('',#376,#862,#1503,.T.);
#1503 = LINE('',#1504,#1505);
#1504 = CARTESIAN_POINT('',(23.13,-35.2,-3.6));
#1505 = VECTOR('',#1506,1.);
#1506 = DIRECTION('',(0.,1.2E-16,1.));
#1507 = ORIENTED_EDGE('',*,*,#861,.T.);
#1508 = ORIENTED_EDGE('',*,*,#1502,.F.);
#1509 = CYLINDRICAL_SURFACE('',#1510,1.15);
#1510 = AXIS2_PLACEMENT_3D('',#1511,#1512,#1513);
#1511 = CARTESIAN_POINT('',(21.98,-35.2,-3.6));
#1512 = DIRECTION('',(0.,-1.2E-16,-1.));
#1513 = DIRECTION('',(1.,-1.2E-16,1.44E-32));
#1514 = ADVANCED_FACE('',(#1515),#1526,.F.);
#1515 = FACE_BOUND('',#1516,.F.);
#1516 = EDGE_LOOP('',(#1517,#1518,#1524,#1525));
#1517 = ORIENTED_EDGE('',*,*,#386,.F.);
#1518 = ORIENTED_EDGE('',*,*,#1519,.T.);
#1519 = EDGE_CURVE('',#387,#873,#1520,.T.);
#1520 = LINE('',#1521,#1522);
#1521 = CARTESIAN_POINT('',(19.17,-29.,-3.6));
#1522 = VECTOR('',#1523,1.);
#1523 = DIRECTION('',(0.,1.2E-16,1.));
#1524 = ORIENTED_EDGE('',*,*,#872,.T.);
#1525 = ORIENTED_EDGE('',*,*,#1519,.F.);
#1526 = CYLINDRICAL_SURFACE('',#1527,1.15);
#1527 = AXIS2_PLACEMENT_3D('',#1528,#1529,#1530);
#1528 = CARTESIAN_POINT('',(18.02,-29.,-3.6));
#1529 = DIRECTION('',(0.,-1.2E-16,-1.));
#1530 = DIRECTION('',(1.,-1.2E-16,1.44E-32));
#1531 = ADVANCED_FACE('',(#1532),#1551,.F.);
#1532 = FACE_BOUND('',#1533,.T.);
#1533 = EDGE_LOOP('',(#1534,#1542,#1543,#1544));
#1534 = ORIENTED_EDGE('',*,*,#1535,.F.);
#1535 = EDGE_CURVE('',#398,#1536,#1538,.T.);
#1536 = VERTEX_POINT('',#1537);
#1537 = CARTESIAN_POINT('',(28.25,-35.366726,-0.5));
#1538 = LINE('',#1539,#1540);
#1539 = CARTESIAN_POINT('',(28.25,-35.366726,-0.5));
#1540 = VECTOR('',#1541,1.);
#1541 = DIRECTION('',(-0.4472135955,0.,0.894427191));
#1542 = ORIENTED_EDGE('',*,*,#397,.T.);
#1543 = ORIENTED_EDGE('',*,*,#1535,.T.);
#1544 = ORIENTED_EDGE('',*,*,#1545,.F.);
#1545 = EDGE_CURVE('',#1536,#1536,#1546,.T.);
#1546 = CIRCLE('',#1547,1.25);
#1547 = AXIS2_PLACEMENT_3D('',#1548,#1549,#1550);
#1548 = CARTESIAN_POINT('',(27.,-35.366726,-0.5));
#1549 = DIRECTION('',(0.,0.,-1.));
#1550 = DIRECTION('',(1.,0.,0.));
#1551 = CONICAL_SURFACE('',#1552,1.25,0.463647609001);
#1552 = AXIS2_PLACEMENT_3D('',#1553,#1554,#1555);
#1553 = CARTESIAN_POINT('',(27.,-35.366726,-0.5));
#1554 = DIRECTION('',(-0.,0.,-1.));
#1555 = DIRECTION('',(1.,0.,0.));
#1556 = ADVANCED_FACE('',(#1557),#1568,.F.);
#1557 = FACE_BOUND('',#1558,.F.);
#1558 = EDGE_LOOP('',(#1559,#1560,#1566,#1567));
#1559 = ORIENTED_EDGE('',*,*,#408,.F.);
#1560 = ORIENTED_EDGE('',*,*,#1561,.T.);
#1561 = EDGE_CURVE('',#409,#895,#1562,.T.);
#1562 = LINE('',#1563,#1564);
#1563 = CARTESIAN_POINT('',(24.25,-29.,-3.6));
#1564 = VECTOR('',#1565,1.);
#1565 = DIRECTION('',(0.,1.2E-16,1.));
#1566 = ORIENTED_EDGE('',*,*,#894,.T.);
#1567 = ORIENTED_EDGE('',*,*,#1561,.F.);
#1568 = CYLINDRICAL_SURFACE('',#1569,1.15);
#1569 = AXIS2_PLACEMENT_3D('',#1570,#1571,#1572);
#1570 = CARTESIAN_POINT('',(23.1,-29.,-3.6));
#1571 = DIRECTION('',(0.,-1.2E-16,-1.));
#1572 = DIRECTION('',(1.,-1.2E-16,1.44E-32));
#1573 = ADVANCED_FACE('',(#1574),#1585,.F.);
#1574 = FACE_BOUND('',#1575,.F.);
#1575 = EDGE_LOOP('',(#1576,#1577,#1583,#1584));
#1576 = ORIENTED_EDGE('',*,*,#419,.F.);
#1577 = ORIENTED_EDGE('',*,*,#1578,.T.);
#1578 = EDGE_CURVE('',#420,#906,#1579,.T.);
#1579 = LINE('',#1580,#1581);
#1580 = CARTESIAN_POINT('',(29.33,-29.,-3.6));
#1581 = VECTOR('',#1582,1.);
#1582 = DIRECTION('',(0.,1.2E-16,1.));
#1583 = ORIENTED_EDGE('',*,*,#905,.T.);
#1584 = ORIENTED_EDGE('',*,*,#1578,.F.);
#1585 = CYLINDRICAL_SURFACE('',#1586,1.15);
#1586 = AXIS2_PLACEMENT_3D('',#1587,#1588,#1589);
#1587 = CARTESIAN_POINT('',(28.18,-29.,-3.6));
#1588 = DIRECTION('',(0.,-1.2E-16,-1.));
#1589 = DIRECTION('',(1.,-1.2E-16,1.44E-32));
#1590 = ADVANCED_FACE('',(#1591),#1602,.F.);
#1591 = FACE_BOUND('',#1592,.F.);
#1592 = EDGE_LOOP('',(#1593,#1594,#1600,#1601));
#1593 = ORIENTED_EDGE('',*,*,#430,.F.);
#1594 = ORIENTED_EDGE('',*,*,#1595,.T.);
#1595 = EDGE_CURVE('',#431,#917,#1596,.T.);
#1596 = LINE('',#1597,#1598);
#1597 = CARTESIAN_POINT('',(18.05,-22.8,-3.6));
#1598 = VECTOR('',#1599,1.);
#1599 = DIRECTION('',(0.,1.2E-16,1.));
#1600 = ORIENTED_EDGE('',*,*,#916,.T.);
#1601 = ORIENTED_EDGE('',*,*,#1595,.F.);
#1602 = CYLINDRICAL_SURFACE('',#1603,1.15);
#1603 = AXIS2_PLACEMENT_3D('',#1604,#1605,#1606);
#1604 = CARTESIAN_POINT('',(16.9,-22.8,-3.6));
#1605 = DIRECTION('',(0.,-1.2E-16,-1.));
#1606 = DIRECTION('',(1.,-1.2E-16,1.44E-32));
#1607 = ADVANCED_FACE('',(#1608),#1619,.F.);
#1608 = FACE_BOUND('',#1609,.F.);
#1609 = EDGE_LOOP('',(#1610,#1611,#1617,#1618));
#1610 = ORIENTED_EDGE('',*,*,#441,.F.);
#1611 = ORIENTED_EDGE('',*,*,#1612,.T.);
#1612 = EDGE_CURVE('',#442,#928,#1613,.T.);
#1613 = LINE('',#1614,#1615);
#1614 = CARTESIAN_POINT('',(23.13,-22.8,-3.6));
#1615 = VECTOR('',#1616,1.);
#1616 = DIRECTION('',(0.,1.2E-16,1.));
#1617 = ORIENTED_EDGE('',*,*,#927,.T.);
#1618 = ORIENTED_EDGE('',*,*,#1612,.F.);
#1619 = CYLINDRICAL_SURFACE('',#1620,1.15);
#1620 = AXIS2_PLACEMENT_3D('',#1621,#1622,#1623);
#1621 = CARTESIAN_POINT('',(21.98,-22.8,-3.6));
#1622 = DIRECTION('',(0.,-1.2E-16,-1.));
#1623 = DIRECTION('',(1.,-1.2E-16,1.44E-32));
#1624 = ADVANCED_FACE('',(#1625),#1636,.F.);
#1625 = FACE_BOUND('',#1626,.F.);
#1626 = EDGE_LOOP('',(#1627,#1628,#1634,#1635));
#1627 = ORIENTED_EDGE('',*,*,#452,.F.);
#1628 = ORIENTED_EDGE('',*,*,#1629,.T.);
#1629 = EDGE_CURVE('',#453,#939,#1630,.T.);
#1630 = LINE('',#1631,#1632);
#1631 = CARTESIAN_POINT('',(13.,-15.75,-3.6));
#1632 = VECTOR('',#1633,1.);
#1633 = DIRECTION('',(0.,1.2E-16,1.));
#1634 = ORIENTED_EDGE('',*,*,#938,.T.);
#1635 = ORIENTED_EDGE('',*,*,#1629,.F.);
#1636 = CYLINDRICAL_SURFACE('',#1637,1.15);
#1637 = AXIS2_PLACEMENT_3D('',#1638,#1639,#1640);
#1638 = CARTESIAN_POINT('',(11.85,-15.75,-3.6));
#1639 = DIRECTION('',(0.,-1.2E-16,-1.));
#1640 = DIRECTION('',(1.,-1.2E-16,1.44E-32));
#1641 = ADVANCED_FACE('',(#1642),#1653,.F.);
#1642 = FACE_BOUND('',#1643,.F.);
#1643 = EDGE_LOOP('',(#1644,#1645,#1651,#1652));
#1644 = ORIENTED_EDGE('',*,*,#463,.F.);
#1645 = ORIENTED_EDGE('',*,*,#1646,.T.);
#1646 = EDGE_CURVE('',#464,#961,#1647,.T.);
#1647 = LINE('',#1648,#1649);
#1648 = CARTESIAN_POINT('',(7.98,-9.55,-3.6));
#1649 = VECTOR('',#1650,1.);
#1650 = DIRECTION('',(0.,1.2E-16,1.));
#1651 = ORIENTED_EDGE('',*,*,#960,.T.);
#1652 = ORIENTED_EDGE('',*,*,#1646,.F.);
#1653 = CYLINDRICAL_SURFACE('',#1654,1.15);
#1654 = AXIS2_PLACEMENT_3D('',#1655,#1656,#1657);
#1655 = CARTESIAN_POINT('',(6.83,-9.55,-3.6));
#1656 = DIRECTION('',(0.,-1.2E-16,-1.));
#1657 = DIRECTION('',(1.,-1.2E-16,1.44E-32));
#1658 = ADVANCED_FACE('',(#1659),#1678,.F.);
#1659 = FACE_BOUND('',#1660,.T.);
#1660 = EDGE_LOOP('',(#1661,#1669,#1670,#1671));
#1661 = ORIENTED_EDGE('',*,*,#1662,.F.);
#1662 = EDGE_CURVE('',#475,#1663,#1665,.T.);
#1663 = VERTEX_POINT('',#1664);
#1664 = CARTESIAN_POINT('',(4.233274,-3.016726,-0.5));
#1665 = LINE('',#1666,#1667);
#1666 = CARTESIAN_POINT('',(4.233274,-3.016726,-0.5));
#1667 = VECTOR('',#1668,1.);
#1668 = DIRECTION('',(-0.4472135955,-7.9E-16,0.894427191));
#1669 = ORIENTED_EDGE('',*,*,#474,.T.);
#1670 = ORIENTED_EDGE('',*,*,#1662,.T.);
#1671 = ORIENTED_EDGE('',*,*,#1672,.F.);
#1672 = EDGE_CURVE('',#1663,#1663,#1673,.T.);
#1673 = CIRCLE('',#1674,1.25);
#1674 = AXIS2_PLACEMENT_3D('',#1675,#1676,#1677);
#1675 = CARTESIAN_POINT('',(2.983274,-3.016726,-0.5));
#1676 = DIRECTION('',(0.,0.,-1.));
#1677 = DIRECTION('',(1.,1.42E-15,0.));
#1678 = CONICAL_SURFACE('',#1679,1.25,0.463647609001);
#1679 = AXIS2_PLACEMENT_3D('',#1680,#1681,#1682);
#1680 = CARTESIAN_POINT('',(2.983274,-3.016726,-0.5));
#1681 = DIRECTION('',(-0.,0.,-1.));
#1682 = DIRECTION('',(1.,1.42E-15,0.));
#1683 = ADVANCED_FACE('',(#1684),#1695,.F.);
#1684 = FACE_BOUND('',#1685,.F.);
#1685 = EDGE_LOOP('',(#1686,#1687,#1693,#1694));
#1686 = ORIENTED_EDGE('',*,*,#485,.F.);
#1687 = ORIENTED_EDGE('',*,*,#1688,.T.);
#1688 = EDGE_CURVE('',#486,#983,#1689,.T.);
#1689 = LINE('',#1690,#1691);
#1690 = CARTESIAN_POINT('',(13.06,-9.55,-3.6));
#1691 = VECTOR('',#1692,1.);
#1692 = DIRECTION('',(0.,1.2E-16,1.));
#1693 = ORIENTED_EDGE('',*,*,#982,.T.);
#1694 = ORIENTED_EDGE('',*,*,#1688,.F.);
#1695 = CYLINDRICAL_SURFACE('',#1696,1.15);
#1696 = AXIS2_PLACEMENT_3D('',#1697,#1698,#1699);
#1697 = CARTESIAN_POINT('',(11.91,-9.55,-3.6));
#1698 = DIRECTION('',(0.,-1.2E-16,-1.));
#1699 = DIRECTION('',(1.,-1.2E-16,1.44E-32));
#1700 = ADVANCED_FACE('',(#1701),#1712,.F.);
#1701 = FACE_BOUND('',#1702,.F.);
#1702 = EDGE_LOOP('',(#1703,#1704,#1710,#1711));
#1703 = ORIENTED_EDGE('',*,*,#496,.F.);
#1704 = ORIENTED_EDGE('',*,*,#1705,.T.);
#1705 = EDGE_CURVE('',#497,#994,#1706,.T.);
#1706 = LINE('',#1707,#1708);
#1707 = CARTESIAN_POINT('',(13.,-3.35,-3.6));
#1708 = VECTOR('',#1709,1.);
#1709 = DIRECTION('',(0.,1.2E-16,1.));
#1710 = ORIENTED_EDGE('',*,*,#993,.T.);
#1711 = ORIENTED_EDGE('',*,*,#1705,.F.);
#1712 = CYLINDRICAL_SURFACE('',#1713,1.15);
#1713 = AXIS2_PLACEMENT_3D('',#1714,#1715,#1716);
#1714 = CARTESIAN_POINT('',(11.85,-3.35,-3.6));
#1715 = DIRECTION('',(0.,-1.2E-16,-1.));
#1716 = DIRECTION('',(1.,-1.2E-16,1.44E-32));
#1717 = ADVANCED_FACE('',(#1718),#1729,.F.);
#1718 = FACE_BOUND('',#1719,.F.);
#1719 = EDGE_LOOP('',(#1720,#1721,#1727,#1728));
#1720 = ORIENTED_EDGE('',*,*,#507,.F.);
#1721 = ORIENTED_EDGE('',*,*,#1722,.T.);
#1722 = EDGE_CURVE('',#508,#1005,#1723,.T.);
#1723 = LINE('',#1724,#1725);
#1724 = CARTESIAN_POINT('',(18.08,-15.75,-3.6));
#1725 = VECTOR('',#1726,1.);
#1726 = DIRECTION('',(0.,1.2E-16,1.));
#1727 = ORIENTED_EDGE('',*,*,#1004,.T.);
#1728 = ORIENTED_EDGE('',*,*,#1722,.F.);
#1729 = CYLINDRICAL_SURFACE('',#1730,1.15);
#1730 = AXIS2_PLACEMENT_3D('',#1731,#1732,#1733);
#1731 = CARTESIAN_POINT('',(16.93,-15.75,-3.6));
#1732 = DIRECTION('',(0.,-1.2E-16,-1.));
#1733 = DIRECTION('',(1.,-1.2E-16,1.44E-32));
#1734 = ADVANCED_FACE('',(#1735),#1746,.F.);
#1735 = FACE_BOUND('',#1736,.F.);
#1736 = EDGE_LOOP('',(#1737,#1738,#1744,#1745));
#1737 = ORIENTED_EDGE('',*,*,#518,.F.);
#1738 = ORIENTED_EDGE('',*,*,#1739,.T.);
#1739 = EDGE_CURVE('',#519,#1016,#1740,.T.);
#1740 = LINE('',#1741,#1742);
#1741 = CARTESIAN_POINT('',(23.16,-15.75,-3.6));
#1742 = VECTOR('',#1743,1.);
#1743 = DIRECTION('',(0.,1.2E-16,1.));
#1744 = ORIENTED_EDGE('',*,*,#1015,.T.);
#1745 = ORIENTED_EDGE('',*,*,#1739,.F.);
#1746 = CYLINDRICAL_SURFACE('',#1747,1.15);
#1747 = AXIS2_PLACEMENT_3D('',#1748,#1749,#1750);
#1748 = CARTESIAN_POINT('',(22.01,-15.75,-3.6));
#1749 = DIRECTION('',(0.,-1.2E-16,-1.));
#1750 = DIRECTION('',(1.,-1.2E-16,1.44E-32));
#1751 = ADVANCED_FACE('',(#1752),#1763,.F.);
#1752 = FACE_BOUND('',#1753,.F.);
#1753 = EDGE_LOOP('',(#1754,#1755,#1761,#1762));
#1754 = ORIENTED_EDGE('',*,*,#529,.F.);
#1755 = ORIENTED_EDGE('',*,*,#1756,.T.);
#1756 = EDGE_CURVE('',#530,#1027,#1757,.T.);
#1757 = LINE('',#1758,#1759);
#1758 = CARTESIAN_POINT('',(19.2,-9.55,-3.6));
#1759 = VECTOR('',#1760,1.);
#1760 = DIRECTION('',(0.,1.2E-16,1.));
#1761 = ORIENTED_EDGE('',*,*,#1026,.T.);
#1762 = ORIENTED_EDGE('',*,*,#1756,.F.);
#1763 = CYLINDRICAL_SURFACE('',#1764,1.15);
#1764 = AXIS2_PLACEMENT_3D('',#1765,#1766,#1767);
#1765 = CARTESIAN_POINT('',(18.05,-9.55,-3.6));
#1766 = DIRECTION('',(0.,-1.2E-16,-1.));
#1767 = DIRECTION('',(1.,-1.2E-16,1.44E-32));
#1768 = ADVANCED_FACE('',(#1769),#1780,.F.);
#1769 = FACE_BOUND('',#1770,.F.);
#1770 = EDGE_LOOP('',(#1771,#1772,#1778,#1779));
#1771 = ORIENTED_EDGE('',*,*,#540,.F.);
#1772 = ORIENTED_EDGE('',*,*,#1773,.T.);
#1773 = EDGE_CURVE('',#541,#1038,#1774,.T.);
#1774 = LINE('',#1775,#1776);
#1775 = CARTESIAN_POINT('',(18.08,-3.35,-3.6));
#1776 = VECTOR('',#1777,1.);
#1777 = DIRECTION('',(0.,1.2E-16,1.));
#1778 = ORIENTED_EDGE('',*,*,#1037,.T.);
#1779 = ORIENTED_EDGE('',*,*,#1773,.F.);
#1780 = CYLINDRICAL_SURFACE('',#1781,1.15);
#1781 = AXIS2_PLACEMENT_3D('',#1782,#1783,#1784);
#1782 = CARTESIAN_POINT('',(16.93,-3.35,-3.6));
#1783 = DIRECTION('',(0.,-1.2E-16,-1.));
#1784 = DIRECTION('',(1.,-1.2E-16,1.44E-32));
#1785 = ADVANCED_FACE('',(#1786),#1797,.F.);
#1786 = FACE_BOUND('',#1787,.F.);
#1787 = EDGE_LOOP('',(#1788,#1789,#1795,#1796));
#1788 = ORIENTED_EDGE('',*,*,#551,.F.);
#1789 = ORIENTED_EDGE('',*,*,#1790,.T.);
#1790 = EDGE_CURVE('',#552,#1049,#1791,.T.);
#1791 = LINE('',#1792,#1793);
#1792 = CARTESIAN_POINT('',(23.16,-3.35,-3.6));
#1793 = VECTOR('',#1794,1.);
#1794 = DIRECTION('',(0.,1.2E-16,1.));
#1795 = ORIENTED_EDGE('',*,*,#1048,.T.);
#1796 = ORIENTED_EDGE('',*,*,#1790,.F.);
#1797 = CYLINDRICAL_SURFACE('',#1798,1.15);
#1798 = AXIS2_PLACEMENT_3D('',#1799,#1800,#1801);
#1799 = CARTESIAN_POINT('',(22.01,-3.35,-3.6));
#1800 = DIRECTION('',(0.,-1.2E-16,-1.));
#1801 = DIRECTION('',(1.,-1.2E-16,1.44E-32));
#1802 = ADVANCED_FACE('',(#1803),#1814,.F.);
#1803 = FACE_BOUND('',#1804,.F.);
#1804 = EDGE_LOOP('',(#1805,#1806,#1812,#1813));
#1805 = ORIENTED_EDGE('',*,*,#562,.F.);
#1806 = ORIENTED_EDGE('',*,*,#1807,.T.);
#1807 = EDGE_CURVE('',#563,#1060,#1808,.T.);
#1808 = LINE('',#1809,#1810);
#1809 = CARTESIAN_POINT('',(24.28,-9.55,-3.6));
#1810 = VECTOR('',#1811,1.);
#1811 = DIRECTION('',(0.,1.2E-16,1.));
#1812 = ORIENTED_EDGE('',*,*,#1059,.T.);
#1813 = ORIENTED_EDGE('',*,*,#1807,.F.);
#1814 = CYLINDRICAL_SURFACE('',#1815,1.15);
#1815 = AXIS2_PLACEMENT_3D('',#1816,#1817,#1818);
#1816 = CARTESIAN_POINT('',(23.13,-9.55,-3.6));
#1817 = DIRECTION('',(0.,-1.2E-16,-1.));
#1818 = DIRECTION('',(1.,-1.2E-16,1.44E-32));
#1819 = ADVANCED_FACE('',(#1820),#1831,.F.);
#1820 = FACE_BOUND('',#1821,.F.);
#1821 = EDGE_LOOP('',(#1822,#1823,#1829,#1830));
#1822 = ORIENTED_EDGE('',*,*,#573,.F.);
#1823 = ORIENTED_EDGE('',*,*,#1824,.T.);
#1824 = EDGE_CURVE('',#574,#1071,#1825,.T.);
#1825 = LINE('',#1826,#1827);
#1826 = CARTESIAN_POINT('',(29.36,-9.55,-3.6));
#1827 = VECTOR('',#1828,1.);
#1828 = DIRECTION('',(0.,1.2E-16,1.));
#1829 = ORIENTED_EDGE('',*,*,#1070,.T.);
#1830 = ORIENTED_EDGE('',*,*,#1824,.F.);
#1831 = CYLINDRICAL_SURFACE('',#1832,1.15);
#1832 = AXIS2_PLACEMENT_3D('',#1833,#1834,#1835);
#1833 = CARTESIAN_POINT('',(28.21,-9.55,-3.6));
#1834 = DIRECTION('',(0.,-1.2E-16,-1.));
#1835 = DIRECTION('',(1.,-1.2E-16,1.44E-32));
#1836 = ADVANCED_FACE('',(#1837),#1856,.F.);
#1837 = FACE_BOUND('',#1838,.T.);
#1838 = EDGE_LOOP('',(#1839,#1847,#1848,#1849));
#1839 = ORIENTED_EDGE('',*,*,#1840,.F.);
#1840 = EDGE_CURVE('',#585,#1841,#1843,.T.);
#1841 = VERTEX_POINT('',#1842);
#1842 = CARTESIAN_POINT('',(28.25,-3.016726,-0.5));
#1843 = LINE('',#1844,#1845);
#1844 = CARTESIAN_POINT('',(28.25,-3.016726,-0.5));
#1845 = VECTOR('',#1846,1.);
#1846 = DIRECTION('',(-0.4472135955,3.2E-16,0.894427191));
#1847 = ORIENTED_EDGE('',*,*,#584,.T.);
#1848 = ORIENTED_EDGE('',*,*,#1840,.T.);
#1849 = ORIENTED_EDGE('',*,*,#1850,.F.);
#1850 = EDGE_CURVE('',#1841,#1841,#1851,.T.);
#1851 = CIRCLE('',#1852,1.25);
#1852 = AXIS2_PLACEMENT_3D('',#1853,#1854,#1855);
#1853 = CARTESIAN_POINT('',(27.,-3.016726,-0.5));
#1854 = DIRECTION('',(0.,-0.,-1.));
#1855 = DIRECTION('',(1.,-7.1E-16,0.));
#1856 = CONICAL_SURFACE('',#1857,1.25,0.463647609001);
#1857 = AXIS2_PLACEMENT_3D('',#1858,#1859,#1860);
#1858 = CARTESIAN_POINT('',(27.,-3.016726,-0.5));
#1859 = DIRECTION('',(-0.,0.,-1.));
#1860 = DIRECTION('',(1.,-7.1E-16,0.));
#1861 = ADVANCED_FACE('',(#1862),#1868,.T.);
#1862 = FACE_BOUND('',#1863,.F.);
#1863 = EDGE_LOOP('',(#1864,#1865,#1866,#1867));
#1864 = ORIENTED_EDGE('',*,*,#1353,.T.);
#1865 = ORIENTED_EDGE('',*,*,#609,.T.);
#1866 = ORIENTED_EDGE('',*,*,#1126,.F.);
#1867 = ORIENTED_EDGE('',*,*,#1321,.F.);
#1868 = CYLINDRICAL_SURFACE('',#1869,2.);
#1869 = AXIS2_PLACEMENT_3D('',#1870,#1871,#1872);
#1870 = CARTESIAN_POINT('',(-2.2,-7.917214,-6.));
#1871 = DIRECTION('',(1.,0.,0.));
#1872 = DIRECTION('',(0.,1.,-1.224646799147E-16));
#1873 = ADVANCED_FACE('',(#1874),#1885,.F.);
#1874 = FACE_BOUND('',#1875,.F.);
#1875 = EDGE_LOOP('',(#1876,#1877,#1883,#1884));
#1876 = ORIENTED_EDGE('',*,*,#733,.F.);
#1877 = ORIENTED_EDGE('',*,*,#1878,.T.);
#1878 = EDGE_CURVE('',#734,#626,#1879,.T.);
#1879 = LINE('',#1880,#1881);
#1880 = CARTESIAN_POINT('',(-0.7,-16.835936,0.));
#1881 = VECTOR('',#1882,1.);
#1882 = DIRECTION('',(0.,0.,-1.));
#1883 = ORIENTED_EDGE('',*,*,#625,.T.);
#1884 = ORIENTED_EDGE('',*,*,#1338,.F.);
#1885 = PLANE('',#1886);
#1886 = AXIS2_PLACEMENT_3D('',#1887,#1888,#1889);
#1887 = CARTESIAN_POINT('',(-0.7,-16.835936,0.));
#1888 = DIRECTION('',(0.,1.,0.));
#1889 = DIRECTION('',(-1.,0.,0.));
#1890 = ADVANCED_FACE('',(#1891),#1897,.F.);
#1891 = FACE_BOUND('',#1892,.F.);
#1892 = EDGE_LOOP('',(#1893,#1894,#1895,#1896));
#1893 = ORIENTED_EDGE('',*,*,#741,.F.);
#1894 = ORIENTED_EDGE('',*,*,#692,.T.);
#1895 = ORIENTED_EDGE('',*,*,#633,.T.);
#1896 = ORIENTED_EDGE('',*,*,#1878,.F.);
#1897 = PLANE('',#1898);
#1898 = AXIS2_PLACEMENT_3D('',#1899,#1900,#1901);
#1899 = CARTESIAN_POINT('',(-0.7,-21.835936,0.));
#1900 = DIRECTION('',(1.,0.,0.));
#1901 = DIRECTION('',(0.,1.,0.));
#1902 = ADVANCED_FACE('',(#1903),#1914,.F.);
#1903 = FACE_BOUND('',#1904,.F.);
#1904 = EDGE_LOOP('',(#1905,#1911,#1912,#1913));
#1905 = ORIENTED_EDGE('',*,*,#1906,.F.);
#1906 = EDGE_CURVE('',#1392,#785,#1907,.T.);
#1907 = LINE('',#1908,#1909);
#1908 = CARTESIAN_POINT('',(4.25,-35.366726,-3.6));
#1909 = VECTOR('',#1910,1.);
#1910 = DIRECTION('',(0.,1.2E-16,1.));
#1911 = ORIENTED_EDGE('',*,*,#1401,.F.);
#1912 = ORIENTED_EDGE('',*,*,#1906,.T.);
#1913 = ORIENTED_EDGE('',*,*,#784,.T.);
#1914 = CYLINDRICAL_SURFACE('',#1915,1.25);
#1915 = AXIS2_PLACEMENT_3D('',#1916,#1917,#1918);
#1916 = CARTESIAN_POINT('',(3.,-35.366726,-3.6));
#1917 = DIRECTION('',(0.,-1.2E-16,-1.));
#1918 = DIRECTION('',(1.,-1.2E-16,1.44E-32));
#1919 = ADVANCED_FACE('',(#1920),#1931,.F.);
#1920 = FACE_BOUND('',#1921,.F.);
#1921 = EDGE_LOOP('',(#1922,#1928,#1929,#1930));
#1922 = ORIENTED_EDGE('',*,*,#1923,.F.);
#1923 = EDGE_CURVE('',#1536,#884,#1924,.T.);
#1924 = LINE('',#1925,#1926);
#1925 = CARTESIAN_POINT('',(28.25,-35.366726,-3.6));
#1926 = VECTOR('',#1927,1.);
#1927 = DIRECTION('',(0.,1.2E-16,1.));
#1928 = ORIENTED_EDGE('',*,*,#1545,.F.);
#1929 = ORIENTED_EDGE('',*,*,#1923,.T.);
#1930 = ORIENTED_EDGE('',*,*,#883,.T.);
#1931 = CYLINDRICAL_SURFACE('',#1932,1.25);
#1932 = AXIS2_PLACEMENT_3D('',#1933,#1934,#1935);
#1933 = CARTESIAN_POINT('',(27.,-35.366726,-3.6));
#1934 = DIRECTION('',(0.,-1.2E-16,-1.));
#1935 = DIRECTION('',(1.,-1.2E-16,1.44E-32));
#1936 = ADVANCED_FACE('',(#1937),#1948,.F.);
#1937 = FACE_BOUND('',#1938,.F.);
#1938 = EDGE_LOOP('',(#1939,#1945,#1946,#1947));
#1939 = ORIENTED_EDGE('',*,*,#1940,.F.);
#1940 = EDGE_CURVE('',#1663,#972,#1941,.T.);
#1941 = LINE('',#1942,#1943);
#1942 = CARTESIAN_POINT('',(4.233274,-3.016726,-3.6));
#1943 = VECTOR('',#1944,1.);
#1944 = DIRECTION('',(0.,1.2E-16,1.));
#1945 = ORIENTED_EDGE('',*,*,#1672,.F.);
#1946 = ORIENTED_EDGE('',*,*,#1940,.T.);
#1947 = ORIENTED_EDGE('',*,*,#971,.T.);
#1948 = CYLINDRICAL_SURFACE('',#1949,1.25);
#1949 = AXIS2_PLACEMENT_3D('',#1950,#1951,#1952);
#1950 = CARTESIAN_POINT('',(2.983274,-3.016726,-3.6));
#1951 = DIRECTION('',(0.,-1.2E-16,-1.));
#1952 = DIRECTION('',(1.,-1.2E-16,1.44E-32));
#1953 = ADVANCED_FACE('',(#1954),#1965,.F.);
#1954 = FACE_BOUND('',#1955,.F.);
#1955 = EDGE_LOOP('',(#1956,#1962,#1963,#1964));
#1956 = ORIENTED_EDGE('',*,*,#1957,.F.);
#1957 = EDGE_CURVE('',#1841,#1082,#1958,.T.);
#1958 = LINE('',#1959,#1960);
#1959 = CARTESIAN_POINT('',(28.25,-3.016726,-3.6));
#1960 = VECTOR('',#1961,1.);
#1961 = DIRECTION('',(0.,1.2E-16,1.));
#1962 = ORIENTED_EDGE('',*,*,#1850,.F.);
#1963 = ORIENTED_EDGE('',*,*,#1957,.T.);
#1964 = ORIENTED_EDGE('',*,*,#1081,.T.);
#1965 = CYLINDRICAL_SURFACE('',#1966,1.25);
#1966 = AXIS2_PLACEMENT_3D('',#1967,#1968,#1969);
#1967 = CARTESIAN_POINT('',(27.,-3.016726,-3.6));
#1968 = DIRECTION('',(0.,-1.2E-16,-1.));
#1969 = DIRECTION('',(1.,-1.2E-16,1.44E-32));
#1970 = ADVANCED_FACE('',(#1971),#1975,.T.);
#1971 = FACE_BOUND('',#1972,.T.);
#1972 = EDGE_LOOP('',(#1973,#1974));
#1973 = ORIENTED_EDGE('',*,*,#1270,.F.);
#1974 = ORIENTED_EDGE('',*,*,#1149,.T.);
#1975 = PLANE('',#1976);
#1976 = AXIS2_PLACEMENT_3D('',#1977,#1978,#1979);
#1977 = CARTESIAN_POINT('',(-0.7,-19.339529,-2.));
#1978 = DIRECTION('',(0.,0.,1.));
#1979 = DIRECTION('',(1.,0.,0.));
#1980 = ADVANCED_FACE('',(#1981),#1985,.T.);
#1981 = FACE_BOUND('',#1982,.T.);
#1982 = EDGE_LOOP('',(#1983,#1984));
#1983 = ORIENTED_EDGE('',*,*,#1142,.T.);
#1984 = ORIENTED_EDGE('',*,*,#1295,.F.);
#1985 = PLANE('',#1986);
#1986 = AXIS2_PLACEMENT_3D('',#1987,#1988,#1989);
#1987 = CARTESIAN_POINT('',(-0.7,-19.339529,-2.));
#1988 = DIRECTION('',(0.,0.,1.));
#1989 = DIRECTION('',(1.,0.,0.));
#1990 = ADVANCED_FACE('',(#1991),#2002,.F.);
#1991 = FACE_BOUND('',#1992,.F.);
#1992 = EDGE_LOOP('',(#1993,#1994,#2000,#2001));
#1993 = ORIENTED_EDGE('',*,*,#1161,.F.);
#1994 = ORIENTED_EDGE('',*,*,#1995,.T.);
#1995 = EDGE_CURVE('',#1162,#1363,#1996,.T.);
#1996 = LINE('',#1997,#1998);
#1997 = CARTESIAN_POINT('',(0.8,-8.717214,-5.));
#1998 = VECTOR('',#1999,1.);
#1999 = DIRECTION('',(-1.,0.,0.));
#2000 = ORIENTED_EDGE('',*,*,#1362,.T.);
#2001 = ORIENTED_EDGE('',*,*,#1995,.F.);
#2002 = CYLINDRICAL_SURFACE('',#2003,1.7);
#2003 = AXIS2_PLACEMENT_3D('',#2004,#2005,#2006);
#2004 = CARTESIAN_POINT('',(0.8,-10.417214,-5.));
#2005 = DIRECTION('',(1.,0.,0.));
#2006 = DIRECTION('',(0.,1.,0.));
#2007 = ( GEOMETRIC_REPRESENTATION_CONTEXT(3) 
GLOBAL_UNCERTAINTY_ASSIGNED_CONTEXT((#2011)) 
GLOBAL_UNIT_ASSIGNED_CONTEXT((#2008,#2009,#2010)) REPRESENTATION_CONTEXT
('Context #1','3D Context with UNIT and UNCERTAINTY') );
#2008 = ( LENGTH_UNIT() NAMED_UNIT(*) SI_UNIT(.MILLI.,.METRE.) );
#2009 = ( NAMED_UNIT(*) PLANE_ANGLE_UNIT() SI_UNIT($,.RADIAN.) );
#2010 = ( NAMED_UNIT(*) SI_UNIT($,.STERADIAN.) SOLID_ANGLE_UNIT() );
#2011 = UNCERTAINTY_MEASURE_WITH_UNIT(LENGTH_MEASURE(2.E-06),#2008,
  'distance_accuracy_value','confusion accuracy');
#2012 = CONTEXT_DEPENDENT_SHAPE_REPRESENTATION(#2013,#2015);
#2013 = ( REPRESENTATION_RELATIONSHIP('','',#32,#10) 
REPRESENTATION_RELATIONSHIP_WITH_TRANSFORMATION(#2014) 
SHAPE_REPRESENTATION_RELATIONSHIP() );
#2014 = ITEM_DEFINED_TRANSFORMATION('','',#11,#15);
#2015 = PRODUCT_DEFINITION_SHAPE('Placement','Placement of an item',
  #2016);
#2016 = NEXT_ASSEMBLY_USAGE_OCCURRENCE('7','base001','',#5,#27,$);
#2017 = PRODUCT_RELATED_PRODUCT_CATEGORY('part',$,(#29));
#2018 = MECHANICAL_DESIGN_GEOMETRIC_PRESENTATION_REPRESENTATION('',(
    #2019),#2007);
#2019 = STYLED_ITEM('color',(#2020),#33);
#2020 = PRESENTATION_STYLE_ASSIGNMENT((#2021,#2029));
#2021 = SURFACE_STYLE_USAGE(.BOTH.,#2022);
#2022 = SURFACE_SIDE_STYLE('',(#2023,#2027));
#2023 = SURFACE_STYLE_FILL_AREA(#2024);
#2024 = FILL_AREA_STYLE('',(#2025));
#2025 = FILL_AREA_STYLE_COLOUR('',#2026);
#2026 = COLOUR_RGB('',0.447058818107,0.474509808674,0.501960817233);
#2027 = SURFACE_STYLE_RENDERING_WITH_PROPERTIES(.NORMAL_SHADING.,#2026,(
    #2028));
#2028 = SURFACE_STYLE_TRANSPARENT(0.699999988079);
#2029 = CURVE_STYLE('',#2030,POSITIVE_LENGTH_MEASURE(0.1),#2031);
#2030 = DRAUGHTING_PRE_DEFINED_CURVE_FONT('continuous');
#2031 = COLOUR_RGB('',9.803921802644E-02,9.803921802644E-02,
  9.803921802644E-02);
ENDSEC;
END-ISO-10303-21;
